<svg width="240" height="240" viewBox="0 0 240 240" fill="none" xmlns="http://www.w3.org/2000/svg">
<path fill-rule="evenodd" clip-rule="evenodd" d="M118.322 218C166.548 218 205.644 179.049 205.644 131C205.644 82.9512 166.548 44 118.322 44C70.0953 44 31 82.9512 31 131C31 179.049 70.0953 218 118.322 218Z" fill="url(#paint0_radial)"/>
<path fill-rule="evenodd" clip-rule="evenodd" d="M145 199C146.657 199 148 197.657 148 196C148 194.343 146.657 193 145 193C143.343 193 142 194.343 142 196C142 197.657 143.343 199 145 199Z" fill="#2A3139"/>
<path fill-rule="evenodd" clip-rule="evenodd" d="M87 74C89.2091 74 91 72.2091 91 70C91 67.7909 89.2091 66 87 66C84.7909 66 83 67.7909 83 70C83 72.2091 84.7909 74 87 74Z" fill="#2A3139"/>
<path d="M72.0083 170.67C73.0374 170.229 74.2327 169.029 74.6702 168.008L75.2014 166.769C75.6425 165.74 76.3611 165.748 76.7986 166.769L77.3298 168.008C77.7708 169.037 78.9708 170.233 79.9917 170.67L81.2312 171.201C82.2603 171.642 82.2522 172.361 81.2312 172.799L79.9917 173.33C78.9626 173.771 77.7673 174.971 77.3298 175.992L76.7986 177.231C76.3575 178.26 75.6389 178.252 75.2014 177.231L74.6702 175.992C74.2292 174.963 73.0292 173.767 72.0083 173.33L70.7688 172.799C69.7397 172.358 69.7478 171.639 70.7688 171.201L72.0083 170.67Z" fill="#2A3139"/>
<path d="M152.008 81.6702C153.037 81.2292 154.233 80.0292 154.67 79.0083L155.201 77.7688C155.642 76.7397 156.361 76.7478 156.799 77.7688L157.33 79.0083C157.771 80.0374 158.971 81.2327 159.992 81.6702L161.231 82.2014C162.26 82.6425 162.252 83.3611 161.231 83.7986L159.992 84.3298C158.963 84.7708 157.767 85.9708 157.33 86.9917L156.799 88.2312C156.358 89.2603 155.639 89.2522 155.201 88.2312L154.67 86.9917C154.229 85.9626 153.029 84.7673 152.008 84.3298L150.769 83.7986C149.74 83.3575 149.748 82.6389 150.769 82.2014L152.008 81.6702Z" fill="#2A3139"/>
<path d="M75.3564 125C77.9692 135.516 84.1285 146.454 93.4767 155.802C98.0121 160.338 102.922 164.123 107.976 167.116M76.317 101C77.6727 97.6971 79.6142 94.7114 82.163 92.1627C89.0436 85.2821 99.1086 82.8265 110 84.3769M134.5 94.1756C138.425 96.7968 142.23 99.9037 145.803 103.476C154.035 111.709 159.795 121.175 162.837 130.5M164.778 152C163.723 157.831 161.198 163.034 157.116 167.116C150.706 173.526 141.531 176.096 131.5 175.164" stroke="#77A9E6" stroke-width="2" stroke-linecap="round"/>
<path fill-rule="evenodd" clip-rule="evenodd" d="M25.8889 137.259C25.4527 138.277 24.2752 139.454 23.2582 139.889L17.8412 142.211C16.8233 142.647 16.8242 143.354 17.8412 143.789L23.2582 146.111C24.2761 146.547 25.4531 147.725 25.8889 148.742L28.2105 154.159C28.6467 155.177 29.3531 155.176 29.7889 154.159L32.1105 148.742C32.5467 147.724 33.7242 146.547 34.7412 146.111L40.1582 143.789C41.1761 143.353 41.1752 142.647 40.1582 142.211L34.7412 139.889C33.7233 139.453 32.5464 138.276 32.1105 137.259L29.7889 131.842C29.3527 130.824 28.6464 130.825 28.2105 131.842L25.8889 137.259ZM27.7272 147.954C27.089 146.464 25.5357 144.911 24.046 144.272L21.0769 143L24.046 141.727C25.5354 141.089 27.0888 139.536 27.7272 138.046L28.9997 135.077L30.2722 138.046C30.9105 139.536 32.4637 141.089 33.9534 141.727L36.9225 143L33.9534 144.272C32.4641 144.911 30.9106 146.464 30.2722 147.954L28.9997 150.923L27.7272 147.954Z" fill="#77A9E6"/>
<path fill-rule="evenodd" clip-rule="evenodd" d="M67.9998 113C67.9998 116.314 70.686 119 73.9998 119C77.3135 119 79.9998 116.314 79.9998 113C79.9998 109.686 77.3135 107 73.9998 107C70.686 107 67.9998 109.686 67.9998 113ZM77.9998 113C77.9998 115.209 76.2089 117 73.9998 117C71.7906 117 69.9998 115.209 69.9998 113C69.9998 110.791 71.7906 109 73.9998 109C76.2089 109 77.9998 110.791 77.9998 113Z" fill="#77A9E6"/>
<path fill-rule="evenodd" clip-rule="evenodd" d="M158 141C158 144.314 160.686 147 164 147C167.313 147 170 144.314 170 141C170 137.686 167.313 135 164 135C160.686 135 158 137.686 158 141ZM168 141C168 143.209 166.209 145 164 145C161.791 145 160 143.209 160 141C160 138.791 161.791 137 164 137C166.209 137 168 138.791 168 141Z" fill="#77A9E6"/>
<path fill-rule="evenodd" clip-rule="evenodd" d="M212.788 97.1609C212.356 98.1696 211.176 99.353 210.161 99.7883L206.839 101.212C205.83 101.644 205.823 102.353 206.839 102.788L210.161 104.212C211.169 104.644 212.353 105.823 212.788 106.839L214.211 110.161C214.644 111.17 215.353 111.177 215.788 110.161L217.211 106.839C217.644 105.831 218.823 104.647 219.839 104.212L223.161 102.788C224.169 102.356 224.176 101.647 223.161 101.212L219.839 99.7883C218.83 99.356 217.647 98.1766 217.211 97.1609L215.788 93.8392C215.356 92.8306 214.647 92.8235 214.211 93.8392L212.788 97.1609ZM214.626 106.051C213.99 104.566 212.431 103.009 210.948 102.373L210.077 102L210.948 101.626C212.434 100.99 213.991 99.4314 214.626 97.9486L215 97.0771L215.373 97.9486C216.01 99.4343 217.568 100.991 219.051 101.626L219.923 102L219.051 102.373C217.565 103.01 216.009 104.568 215.373 106.051L215 106.923L214.626 106.051Z" fill="#77A9E6"/>
<path fill-rule="evenodd" clip-rule="evenodd" d="M120.708 84.0808C120.276 85.0895 119.096 86.2729 118.081 86.7082L114.759 88.1318C113.75 88.5641 113.743 89.2729 114.759 89.7082L118.081 91.1318C119.089 91.5641 120.273 92.7434 120.708 93.7592L122.132 97.0808C122.564 98.0895 123.273 98.0966 123.708 97.0808L125.132 93.7592C125.564 92.7505 126.743 91.5671 127.759 91.1318L131.081 89.7082C132.089 89.2759 132.096 88.5671 131.081 88.1318L127.759 86.7082C126.75 86.2759 125.567 85.0966 125.132 84.0808L123.708 80.7592C123.276 79.7505 122.567 79.7434 122.132 80.7592L120.708 84.0808ZM122.546 92.9712C121.91 91.4855 120.351 89.9289 118.868 89.2934L117.997 88.9199L118.868 88.5464C120.354 87.9097 121.911 86.3514 122.546 84.8686L122.92 83.9971L123.293 84.8686C123.93 86.3543 125.488 87.9109 126.971 88.5464L127.843 88.9199L126.971 89.2934C125.485 89.9301 123.929 91.4884 123.293 92.9712L122.92 93.8427L122.546 92.9712Z" fill="#77A9E6"/>
<path fill-rule="evenodd" clip-rule="evenodd" d="M117.708 166.081C117.276 167.09 116.096 168.273 115.081 168.708L111.759 170.132C110.75 170.564 110.743 171.273 111.759 171.708L115.081 173.132C116.089 173.564 117.273 174.743 117.708 175.759L119.132 179.081C119.564 180.09 120.273 180.097 120.708 179.081L122.132 175.759C122.564 174.75 123.743 173.567 124.759 173.132L128.081 171.708C129.089 171.276 129.096 170.567 128.081 170.132L124.759 168.708C123.75 168.276 122.567 167.097 122.132 166.081L120.708 162.759C120.276 161.75 119.567 161.743 119.132 162.759L117.708 166.081ZM119.546 174.971C118.91 173.486 117.351 171.929 115.868 171.293L114.997 170.92L115.868 170.546C117.354 169.91 118.911 168.351 119.546 166.869L119.92 165.997L120.293 166.869C120.93 168.354 122.488 169.911 123.971 170.546L124.843 170.92L123.971 171.293C122.485 171.93 120.929 173.488 120.293 174.971L119.92 175.843L119.546 174.971Z" fill="#77A9E6"/>
<path fill-rule="evenodd" clip-rule="evenodd" d="M171 102C172.657 102 174 100.657 174 99C174 97.3431 172.657 96 171 96C169.343 96 168 97.3431 168 99C168 100.657 169.343 102 171 102Z" fill="#2A3139"/>
<defs>
<radialGradient id="paint0_radial" cx="0" cy="0" r="1" gradientUnits="userSpaceOnUse" gradientTransform="translate(118.322 131) rotate(90) scale(177 177.655)">
<stop stop-color="#314C6C"/>
<stop offset="1" stop-color="#314C6C" stop-opacity="0"/>
</radialGradient>
</defs>
</svg>
