<svg width="24" height="24" viewBox="0 0 24 24" fill="none" xmlns="http://www.w3.org/2000/svg">
<path fill-rule="evenodd" clip-rule="evenodd" d="M21.8027 11.9014C21.8027 17.3697 17.3697 21.8027 11.9014 21.8027C6.4355 21.7967 2.00604 17.3672 2 11.9014C2 6.43299 6.43299 2 11.9014 2C17.3697 2 21.8027 6.43299 21.8027 11.9014ZM20.7068 11.8977C20.7063 7.03494 16.7641 3.09315 11.9014 3.09315V3.09589C7.04074 3.10193 3.10193 7.04074 3.09589 11.9014C3.0974 16.7641 7.04042 20.7051 11.9032 20.7041C16.766 20.7031 20.7074 16.7605 20.7068 11.8977ZM7.33425 13.5233C7.03162 13.5233 6.7863 13.278 6.7863 12.9753C6.80109 12.6748 7.0555 12.4424 7.35616 12.4548H7.90411C7.88385 12.2784 7.87379 12.1009 7.87397 11.9233V11.6493H7.32603C7.02341 11.6493 6.77808 11.404 6.77808 11.1014C6.77808 10.7987 7.02341 10.5534 7.32603 10.5534H8.06575C8.65138 8.63373 10.4204 7.32032 12.4274 7.31507C14.0411 7.31507 15.0164 8.07123 15.7562 8.81096C15.9668 9.02435 15.9668 9.36743 15.7562 9.58082C15.653 9.68172 15.5142 9.73783 15.3699 9.73699C15.2253 9.73493 15.0875 9.67584 14.9863 9.5726C14.2438 8.83014 13.5863 8.39726 12.4329 8.39726C11.0319 8.40404 9.76887 9.24281 9.21918 10.5315H12.6932C12.9958 10.5315 13.2411 10.7768 13.2411 11.0795C13.2411 11.3821 12.9958 11.6274 12.6932 11.6274H8.94521V11.9014C8.94543 12.0756 8.95825 12.2496 8.98356 12.4219H12.6932C12.9958 12.4219 13.2411 12.6672 13.2411 12.9699C13.2411 13.2725 12.9958 13.5178 12.6932 13.5178H9.34521C9.94328 14.6736 11.1397 15.3957 12.4411 15.3863C13.5863 15.3863 14.2466 14.9507 14.9973 14.2C15.0982 14.0984 15.2349 14.0404 15.3781 14.0384C15.5216 14.039 15.6595 14.0938 15.7644 14.1918C15.975 14.4052 15.975 14.7482 15.7644 14.9616C15.0164 15.7069 14.0384 16.4685 12.4329 16.4685C10.5331 16.4731 8.82936 15.2998 8.15616 13.5233H7.33425Z" fill="currentColor"/>
</svg>
