<svg width="24" height="24" viewBox="0 0 24 24" fill="none" xmlns="http://www.w3.org/2000/svg">
<path fill-rule="evenodd" clip-rule="evenodd" d="M12 20C16.4183 20 20 16.4183 20 12C20 7.58172 16.4183 4 12 4C7.58172 4 4 7.58172 4 12C4 16.4183 7.58172 20 12 20ZM12 19C8.13401 19 5 15.866 5 12C5 8.13401 8.13401 5 12 5C15.866 5 19 8.13401 19 12C19 15.866 15.866 19 12 19ZM12 10C12.5523 10 13 9.55228 13 9C13 8.44772 12.5523 8 12 8C11.4477 8 11 8.44772 11 9C11 9.55228 11.4477 10 12 10ZM12.5 16V12C12.5 11.7239 12.2761 11.5 12 11.5C11.7239 11.5 11.5 11.7239 11.5 12V16C11.5 16.2761 11.7239 16.5 12 16.5C12.2761 16.5 12.5 16.2761 12.5 16Z" fill="currentColor"/>
</svg>
