<svg width="24" height="24" viewBox="0 0 24 24" fill="none" xmlns="http://www.w3.org/2000/svg">
    <path fill-rule="evenodd" clip-rule="evenodd" d="M8.14641 1.14645C8.34168 0.951184 8.65826 0.951184 8.85352 1.14645L11.3538 3.64678L17.7071 10L12.0606 15.6464C11.4748 16.2322 10.5251 16.2322 9.93931 15.6464L5.31315 11.0203C4.75155 10.4587 4.72505 9.55669 5.27545 8.93913L10.2903 3.9974L8.14641 1.85355C7.95115 1.65829 7.95115 1.34171 8.14641 1.14645ZM16.2929 10H5.87544C5.86482 9.86847 5.90605 9.73326 6.0001 9.62745L10.9973 4.70447L16.2929 10ZM21 15C21 16.1046 20.1045 17 19 17C17.8954 17 17 16.1046 17 15C17 13.8954 19 11 19 11C19 11 21 13.8954 21 15Z" fill="#3C3E40"/>
    <path fill-rule="evenodd" clip-rule="evenodd" d="M2 20.5C2 19.6716 2.67157 19 3.5 19H20.5C21.3284 19 22 19.6716 22 20.5V20.5C22 21.3284 21.3284 22 20.5 22H3.5C2.67157 22 2 21.3284 2 20.5V20.5Z" fill="currentColor"/>
</svg>
