<svg width="128" height="80" viewBox="0 0 128 80" fill="none" xmlns="http://www.w3.org/2000/svg">
<rect width="128" height="80" rx="4" fill="#FAFAFA"/>
<g mask="url(#mask0)">
<path fill-rule="evenodd" clip-rule="evenodd" d="M116 14H12V15H116V14ZM116 31H12V32H116V31ZM12 48H116V49H12V48ZM116 65H12V66H116V65Z" fill="#E3E4E5"/>
<path fill-rule="evenodd" clip-rule="evenodd" d="M-8 69.4519C-8 69.4519 4.62745 71.8344 7.33333 71.0403C10.0392 70.2461 17.2549 65.5729 20.8627 65.5729C24.4706 65.5729 35.2941 68.7496 38.902 67.1613C42.5098 65.5729 47.9216 45.7183 52.4314 44.1299C56.9412 42.5415 63.2549 56.0427 67.7647 56.0427C72.2745 56.0427 80.3922 45.7183 84.902 48.1008C89.4118 50.4834 93.0196 63.8926 98.4314 63.8926C103.843 63.8926 105.647 59.9217 113.765 59.9217C121.882 59.9217 125.49 66.2752 130 66.2752C130 66.3358 130 79.9552 130 79.9552L-8 80.5V69.4519Z" fill="#D0E1F5"/>
<path fill-rule="evenodd" clip-rule="evenodd" d="M130 65.5C126.304 66 120.759 59.5 114.598 59.5C108.438 59.5 100.429 63 97.3482 63.5C94.2679 64 87.4911 49.5 83.7946 48C80.0982 46.5 70.8571 56 67.1607 56C63.4643 56 56.6875 44.5 52.375 44.5C48.0625 44.5 40.6696 64.5 38.2054 66.5C35.7411 68.5 23.4196 64.5 20.3393 65C17.2589 65.5 11.7143 70 5.55357 70.5C-0.607142 71 -8 68.5 -8 68.5V65C-8 65 2.47322 67.5 8.23529 65.2787C13.9974 63.0574 15.1812 53.0328 21.7647 53.0164C28.3482 53 36.1961 58.7869 38.902 55.9016C41.6078 53.0164 46.1176 31.377 52.4314 29.9344C58.7451 28.4918 65.0588 35.7049 69.5686 35.7049C74.0784 35.7049 77.6863 22 83.098 22C88.5098 22 94.8235 53.0164 100.235 54.459C105.647 55.9016 111.059 45.8033 116.471 47.9672C121.882 50.1311 126.392 59.5082 130 59.5082V65.5Z" fill="#FDECDE"/>
<path d="M-7 68.5C-7 68.5 2.75354 71.1355 7.1495 69.8178C11.5455 68.5 17.1051 64.7998 20.7253 64.7998C24.3455 64.7998 35.2061 67.7154 38.8263 66.2576C42.4465 64.7998 47.8768 46.5771 52.402 45.1192C56.9273 43.6614 63.2626 56.0529 67.7879 56.0529C72.3131 56.0529 80.4586 46.5771 84.9838 48.7638C89.5091 50.9505 93.1293 63.2576 98.5596 63.2576C103.99 63.2576 105.8 59.613 113.945 59.613C122.091 59.613 124.475 65.5 129 65.5" stroke="#2367BA" stroke-width="2" stroke-linecap="round" stroke-linejoin="round"/>
<path d="M-7 64C-7 64 2.27273 66.5 8.05455 64.2787C13.8364 62.0574 15.0242 52.0328 21.6303 52.0164C28.2364 52 36.1111 57.7869 38.8263 54.9016C41.5414 52.0164 46.0667 30.377 52.402 28.9344C58.7374 27.4918 65.0727 34.7049 69.598 34.7049C74.1232 34.7049 77.7434 21 83.1737 21C88.604 21 94.9394 52.0164 100.37 53.459C105.8 54.9016 111.23 44.8033 116.661 46.9672C122.091 49.1311 125.909 57.5 129 58.5" stroke="#FF8F40" stroke-width="2" stroke-linecap="round" stroke-linejoin="round"/>
</g>
</svg>
