<svg width="128" height="80" viewBox="0 0 128 80" fill="none" xmlns="http://www.w3.org/2000/svg">
<rect width="128" height="80" rx="1" fill="#FAFAFA"/>
<g mask="url(#mask0)">
<path fill-rule="evenodd" clip-rule="evenodd" d="M112 14H16V15H112V14ZM112 31H16V32H112V31ZM16 48H112V49H16V48ZM112 65H16V66H112V65Z" fill="#E3E4E5"/>
<path d="M41 45C41 43.8954 41.8954 43 43 43H44C45.1046 43 46 43.8954 46 45V66H41V45Z" fill="#FF8F40"/>
<path d="M66 56C66 54.8954 66.8954 54 68 54H69C70.1046 54 71 54.8954 71 56V66H66V56Z" fill="#FF8F40"/>
<path d="M91 39C91 37.8954 91.8954 37 93 37H94C95.1046 37 96 37.8954 96 39V66H91V39Z" fill="#FF8F40"/>
<path d="M32 28C32 26.8954 32.8954 26 34 26H35C36.1046 26 37 26.8954 37 28V66H32V28Z" fill="#2367BA"/>
<path d="M57 40C57 38.8954 57.8954 38 59 38H60C61.1046 38 62 38.8954 62 40V66H57V40Z" fill="#2367BA"/>
<path d="M82 20C82 18.8954 82.8954 18 84 18H85C86.1046 18 87 18.8954 87 20V66H82V20Z" fill="#2367BA"/>
</g>
</svg>
