<svg width="128" height="80" viewBox="0 0 128 80" fill="none" xmlns="http://www.w3.org/2000/svg">
<rect width="128" height="80" rx="4" fill="#FAFAFA"/>
<g mask="url(#mask0)">
<path fill-rule="evenodd" clip-rule="evenodd" d="M116 14H12V15H116V14ZM116 31H12V32H116V31ZM12 48H116V49H12V48ZM116 65H12V66H116V65Z" fill="#E3E4E5"/>
<path d="M39.7253 52.7998C36.105 52.7998 30.5455 61.5 26.1495 62.8178L-3.5 65.5V92H134.5L136 55.5C127.855 55.5 122.99 56.2576 117.56 56.2576C112.129 56.2576 104.025 38.6867 99.5 36.5C94.9747 34.3133 91.3131 44.0529 86.7879 44.0529C82.2626 44.0529 75.9273 31.6614 71.402 33.1192C66.8768 34.5771 61.4465 57.7998 57.8263 59.2576C54.2061 60.7154 43.3455 52.7998 39.7253 52.7998Z" fill="#FF8F40" fill-opacity="0.35" stroke="#FF8F40" stroke-width="2" stroke-linecap="round" stroke-linejoin="round"/>
<path d="M27.5 35.5C22 35.5 19.5 51 15.5 51C11.5 51 -9 53 -9 53V93H145.5V69.5C137 69.5 118.5 65.5 110 65.5C101.5 65.5 99.0162 56 94.5 56C86.5162 56 88.3131 66.2576 83.7879 66.2576C79.2626 66.2576 76.5 53 64.5 53C55 53 52.2404 25.2576 46.6202 25.2576C41 25.2576 39.3455 42.7998 35.7253 42.7998C32.105 42.7998 33.5 35.5 27.5 35.5Z" fill="#2367BA" fill-opacity="0.35" stroke="#2367BA" stroke-width="2" stroke-linecap="round" stroke-linejoin="round"/>
</g>
</svg>
