<svg width="16" height="16" viewBox="0 0 16 16" fill="none" xmlns="http://www.w3.org/2000/svg">
<path d="M12.1375 11.2259C12.4342 10.9372 12.8996 10.8597 13.2334 11.1045C13.5677 11.3496 13.6428 11.8232 13.3579 12.1242C12.2643 13.2794 10.7163 14 9 14C6.38756 14 4.16508 12.3304 3.34141 10H2.25C1.83579 10 1.5 9.66421 1.5 9.25C1.5 8.83579 1.83579 8.5 2.25 8.5H3.02054C3.00694 8.33513 3 8.16838 3 8C3 7.83162 3.00694 7.66487 3.02054 7.5H2.25C1.83579 7.5 1.5 7.16421 1.5 6.75C1.5 6.33579 1.83579 6 2.25 6H3.34141C4.16508 3.66962 6.38756 2 9 2C10.7163 2 12.2643 2.72061 13.3579 3.87578C13.6428 4.17677 13.5677 4.65038 13.2334 4.89549C12.8996 5.14032 12.4342 5.06278 12.1375 4.77411C11.3269 3.98561 10.2201 3.5 9 3.5C7.23314 3.5 5.70411 4.51828 4.96776 6H8.75C9.16421 6 9.5 6.33579 9.5 6.75C9.5 7.16421 9.16421 7.5 8.75 7.5H4.52746C4.50932 7.66417 4.5 7.831 4.5 8C4.5 8.169 4.50932 8.33583 4.52746 8.5H8.75C9.16421 8.5 9.5 8.83579 9.5 9.25C9.5 9.66421 9.16421 10 8.75 10H4.96776C5.70411 11.4817 7.23314 12.5 9 12.5C10.2201 12.5 11.3269 12.0144 12.1375 11.2259Z" fill="#1E559A"/>
</svg>
