<svg width="24" height="24" viewBox="0 0 24 24" fill="none" xmlns="http://www.w3.org/2000/svg">
<path fill-rule="evenodd" clip-rule="evenodd" d="M12 24C18.6274 24 24 18.6274 24 12C24 5.37258 18.6274 0 12 0C5.37258 0 0 5.37258 0 12C0 18.6274 5.37258 24 12 24Z" fill="#E3E4E5"/>
<path fill-rule="evenodd" clip-rule="evenodd" d="M17.9027 7.36735C18.2522 7.58973 18.3552 8.0533 18.1328 8.40275L15.0954 13.1759C14.6302 13.9069 13.7 14.1875 12.9082 13.8356L9.96596 12.5279C9.85469 12.4784 9.72396 12.5163 9.65642 12.6177L7.12412 16.4161C6.89435 16.7608 6.4287 16.8539 6.08405 16.6241C5.73941 16.3944 5.64628 15.9287 5.87604 15.5841L8.40834 11.7856C8.88117 11.0764 9.79623 10.811 10.5752 11.1572L13.5174 12.4648C13.6305 12.5151 13.7634 12.475 13.8299 12.3706L16.8673 7.59744C17.0897 7.24798 17.5533 7.14497 17.9027 7.36735Z" fill="#3C3E40"/>
</svg>
