<svg width="16" height="16" viewBox="0 0 16 16" fill="none" xmlns="http://www.w3.org/2000/svg">
<path fill-rule="evenodd" clip-rule="evenodd" d="M2.58398 5.00001C2.58398 3.66532 3.66596 2.58334 5.00065 2.58334C6.33534 2.58334 7.41732 3.66532 7.41732 5.00001C7.41732 6.3347 6.33534 7.41668 5.00065 7.41668C3.66596 7.41668 2.58398 6.3347 2.58398 5.00001ZM5.00065 4.08334C4.49439 4.08334 4.08398 4.49375 4.08398 5.00001C4.08398 5.50627 4.49439 5.91668 5.00065 5.91668C5.50691 5.91668 5.91732 5.50627 5.91732 5.00001C5.91732 4.49375 5.50691 4.08334 5.00065 4.08334ZM13.1976 2.80301C13.4905 3.09591 13.4905 3.57078 13.1976 3.86367L3.86431 13.197C3.57142 13.4899 3.09655 13.4899 2.80365 13.197C2.51076 12.9041 2.51076 12.4292 2.80365 12.1363L12.137 2.80301C12.4299 2.51012 12.9048 2.51012 13.1976 2.80301ZM11.0007 8.58334C9.66596 8.58334 8.58398 9.66532 8.58398 11C8.58398 12.3347 9.66596 13.4167 11.0007 13.4167C12.3353 13.4167 13.4173 12.3347 13.4173 11C13.4173 9.66532 12.3353 8.58334 11.0007 8.58334ZM10.084 11C10.084 10.4937 10.4944 10.0833 11.0007 10.0833C11.5069 10.0833 11.9173 10.4937 11.9173 11C11.9173 11.5063 11.5069 11.9167 11.0007 11.9167C10.4944 11.9167 10.084 11.5063 10.084 11Z" fill="#1E559A"/>
</svg>
