<svg width="24" height="24" viewBox="0 0 24 24" fill="none" xmlns="http://www.w3.org/2000/svg">
<path fill-rule="evenodd" clip-rule="evenodd" d="M9 9C9 7.34315 10.3431 6 12 6C13.6569 6 15 7.34315 15 9C15 10.6569 13.6569 12 12 12C10.3431 12 9 10.6569 9 9ZM8.06847 8.25915C8.02351 8.49923 8 8.74687 8 9C8 10.658 9.00876 12.0804 10.446 12.6869C7.60656 13.3835 5.5 15.9457 5.5 19C5.5 19.2761 5.72386 19.5 6 19.5C6.27614 19.5 6.5 19.2761 6.5 19C6.5 15.9624 8.96243 13.5 12 13.5C15.0376 13.5 17.5 15.9624 17.5 19C17.5 19.2761 17.7239 19.5 18 19.5C18.2761 19.5 18.5 19.2761 18.5 19C18.5 15.9457 16.3934 13.3835 13.554 12.6869C14.9912 12.0804 16 10.658 16 9C16 8.74687 15.9765 8.49923 15.9315 8.25915C16.2987 7.7958 16.8647 7.5 17.5 7.5C18.6046 7.5 19.5 8.39543 19.5 9.5C19.5 10.6046 18.6046 11.5 17.5 11.5C17.2239 11.5 17 11.7239 17 12C17 12.2761 17.2239 12.5 17.5 12.5C19.9853 12.5 22 14.5147 22 17C22 17.2761 22.2239 17.5 22.5 17.5C22.7761 17.5 23 17.2761 23 17C23 14.6254 21.4951 12.6023 19.3871 11.8323C20.066 11.2823 20.5 10.4418 20.5 9.5C20.5 7.84315 19.1569 6.5 17.5 6.5C16.7663 6.5 16.0942 6.76372 15.5734 7.20056C14.9147 5.89522 13.5619 5 12 5C10.4381 5 9.08526 5.89522 8.42664 7.20056C7.90577 6.76372 7.23369 6.5 6.5 6.5C4.84315 6.5 3.5 7.84315 3.5 9.5C3.5 10.4418 3.934 11.2823 4.61292 11.8323C2.50485 12.6023 1 14.6254 1 17C1 17.2761 1.22386 17.5 1.5 17.5C1.77614 17.5 2 17.2761 2 17C2 14.5147 4.01472 12.5 6.5 12.5C6.77614 12.5 7 12.2761 7 12C7 11.7239 6.77614 11.5 6.5 11.5C5.39543 11.5 4.5 10.6046 4.5 9.5C4.5 8.39543 5.39543 7.5 6.5 7.5C7.1353 7.5 7.70134 7.7958 8.06847 8.25915Z" fill="currentColor"/>
</svg>
