<svg width="24" height="24" viewBox="0 0 24 24" fill="none" xmlns="http://www.w3.org/2000/svg">
<path fill-rule="evenodd" clip-rule="evenodd" d="M16 5H6C5.44772 5 5 5.44772 5 6V13.2929L10.1464 8.14645C10.3417 7.95118 10.6583 7.95118 10.8536 8.14645L14.5 11.7929L20.1464 6.14645C20.3417 5.95118 20.6583 5.95118 20.8536 6.14645C21.0488 6.34171 21.0488 6.65829 20.8536 6.85355L14.8536 12.8536C14.6583 13.0488 14.3417 13.0488 14.1464 12.8536L10.5 9.20711L5 14.7071V18C5 18.5523 5.44772 19 6 19H16C16.5523 19 17 18.5523 17 18V14V13.5C17 13.2239 17.2239 13 17.5 13C17.7761 13 18 13.2239 18 13.5V14V18C18 19.1046 17.1046 20 16 20H6C4.89543 20 4 19.1046 4 18V14.5001C4 14.5 4 14.5 4 14.4999V6C4 4.89543 4.89543 4 6 4H16C17.1046 4 18 4.89543 18 6V6.5C18 6.77614 17.7761 7 17.5 7C17.2239 7 17 6.77614 17 6.5V6C17 5.44772 16.5523 5 16 5ZM11 12.5V17.5C11 17.7761 10.7761 18 10.5 18C10.2239 18 10 17.7761 10 17.5V12.5C10 12.2239 10.2239 12 10.5 12C10.7761 12 11 12.2239 11 12.5ZM7 14.5C7 14.2239 7.22386 14 7.5 14C7.77614 14 8 14.2239 8 14.5V17.5C8 17.7761 7.77614 18 7.5 18C7.22386 18 7 17.7761 7 17.5V14.5ZM13.5 14C13.2239 14 13 14.2239 13 14.5V17.5C13 17.7761 13.2239 18 13.5 18C13.7761 18 14 17.7761 14 17.5V14.5C14 14.2239 13.7761 14 13.5 14Z" fill="currentColor"/>
</svg>
