<svg width="24" height="24" viewBox="0 0 24 24" fill="none" xmlns="http://www.w3.org/2000/svg">
<path fill-rule="evenodd" clip-rule="evenodd" d="M12 12C14.2091 12 16 10.2091 16 8C16 5.79086 14.2091 4 12 4C9.79086 4 8 5.79086 8 8C8 10.2091 9.79086 12 12 12ZM13.5849 13.1706C16.6503 13.8426 18.9333 16.4213 18.9333 19.5C18.9333 19.7761 19.1721 20 19.4667 20C19.7612 20 20 19.7761 20 19.5C20 16.1596 17.6706 13.3292 14.4516 12.3587C15.9728 11.5013 17 9.87062 17 8C17 5.23858 14.7614 3 12 3C9.23858 3 7 5.23858 7 8C7 9.87062 8.02725 11.5013 9.5484 12.3587C6.32939 13.3292 4 16.1596 4 19.5C4 19.7761 4.23878 20 4.53333 20C4.82789 20 5.06667 19.7761 5.06667 19.5C5.06667 16.4213 7.3497 13.8426 10.4151 13.1706C10.148 13.727 10.0588 14.3527 10.1604 14.9623L10.8607 19.1644C10.9411 19.6466 11.3583 20 11.8471 20H12.1529C12.6417 20 13.0589 19.6466 13.1393 19.1644L13.8396 14.9623C13.9412 14.3527 13.852 13.727 13.5849 13.1706ZM11.6131 13.01C11.7411 13.0033 11.8702 13 12 13C12.1298 13 12.2589 13.0033 12.3869 13.01L12.6693 13.5747C12.8583 13.9527 12.9227 14.3809 12.8532 14.7979L12.1529 19H11.8471L11.1468 14.7979C11.0773 14.3809 11.1417 13.9527 11.3307 13.5747L11.6131 13.01Z" fill="currentColor"/>
</svg>
