<?xml version="1.0" standalone="no"?><!DOCTYPE svg PUBLIC "-//W3C//DTD SVG 1.1//EN" "http://www.w3.org/Graphics/SVG/1.1/DTD/svg11.dtd" ><svg version="1.1" xmlns="http://www.w3.org/2000/svg"><defs><font horiz-adv-x="0" id="font"><font-face ascent="750" bbox="-180 -264 1081 913" cap-height="680" descent="-250" font-family="Maistra Display" font-stretch="normal" font-weight="400" units-per-em="1000" x-height="495" /><missing-glyph d="M87 0H50V680H87ZM450 0H413V680H450ZM429 680V643H69V680ZM429 37V0H69V37ZM423 637 83 17 77 44 416 663C416 663 423 637 423 637ZM423 43C423 43 416 17 416 17L77 636L83 663Z" horiz-adv-x="500" /><glyph d="M67 0H24L327 698H343L646 0H535L287 574L311 591ZM178 289V324H458V289Z" glyph-name="A" horiz-adv-x="670" unicode="A" /><glyph d="M56 0 479 680H441L8 0ZM218 273H496V308H218ZM459 680V0H561V680ZM806 645C806 645 806 680 806 680H545V645ZM773 354C773 354 773 389 773 389H545V354ZM812 0C812 0 812 35 812 35H545V0Z" glyph-name="AE" horiz-adv-x="864" unicode="&#198;" /><glyph d="M56 0 479 680H441L8 0ZM218 273H496V308H218ZM459 680V0H561V680ZM806 645C806 645 806 680 806 680H545V645ZM773 354C773 354 773 389 773 389H545V354ZM812 0C812 0 812 35 812 35H545V0ZM691 857 719 797 553 745 546 760Z" glyph-name="AEacute" horiz-adv-x="865" unicode="&#508;" /><glyph d="M56 0 479 680H441L8 0ZM218 273H496V308H218ZM459 680V0H561V680ZM806 645C806 645 806 680 806 680H545V645ZM773 354C773 354 773 389 773 389H545V354ZM812 0C812 0 812 35 812 35H545V0ZM739 782C739 782 739 817 739 817H520V782Z" glyph-name="AEmacron" horiz-adv-x="865" unicode="&#482;" /><glyph d="M67 0H24L327 698H343L646 0H535L287 574L311 591ZM178 289V324H458V289ZM419 857 447 797 281 745 274 760Z" glyph-name="Aacute" horiz-adv-x="670" unicode="&#193;" /><glyph d="M67 0H24L327 698H343L646 0H535L287 574L311 591ZM178 289V324H458V289ZM235 848C238.8872 783.861 275 745 336 745C397 745 433.1128 783.861 437 848H406C402.2273 816.8754 377 799 336 799C295 799 269.7727 816.8754 266 848Z" glyph-name="Abreve" horiz-adv-x="670" unicode="&#258;" /><glyph d="M67 0H24L327 698H343L646 0H535L287 574L311 591ZM178 289V324H458V289ZM221 749 212 765 329 855H340V797ZM452 749 333 797V855H344L461 765Z" glyph-name="Acircumflex" horiz-adv-x="670" unicode="&#194;" /><glyph d="M67 0H24L327 698H343L646 0H535L287 574L311 591ZM178 289V324H458V289ZM247 760C276 760 294 782 294 807C294 832 276 854 247 854C218 854 200 832 200 807C200 782 218 760 247 760ZM423 760C452 760 470 782 470 807C470 832 452 854 423 854C394 854 375 832 375 807C375 782 394 760 423 760Z" glyph-name="Adieresis" horiz-adv-x="670" unicode="&#196;" /><glyph d="M67 0H24L327 698H343L646 0H535L287 574L311 591ZM178 289V324H458V289ZM244 857 216 797 382 745 389 760Z" glyph-name="Agrave" horiz-adv-x="670" unicode="&#192;" /><glyph d="M67 0H24L327 698H343L646 0H535L287 574L311 591ZM178 289V324H458V289ZM446 782C446 782 446 817 446 817H227V782Z" glyph-name="Amacron" horiz-adv-x="670" unicode="&#256;" /><glyph d="M67 0H24L327 698H343L646 0H535L287 574L311 591ZM178 289V324H458V289ZM655 -140 634 -126C619.7318 -145.364 603 -161 580 -161C559.4737 -161 541 -148.3684 541 -121C541 -96.4065 553 -70 607 0H572C515 -68 486 -97 486 -136C486 -185 528.8718 -206 562 -206C609.011 -206 636 -174 655 -140Z" glyph-name="Aogonek" horiz-adv-x="670" unicode="&#260;" /><glyph d="M67 0H24L327 698H343L646 0H535L287 574L311 591ZM178 289V324H458V289ZM332 749C379 749 417 785 417 831C417 877 379 913 332 913C284 913 247 877 247 831C247 785 284 749 332 749ZM332 781C306 781 285 801 285 831C285 861 306 881 332 881C358 881 379 861 379 831C379 801 358 781 332 781Z" glyph-name="Aring" horiz-adv-x="670" unicode="&#197;" /><glyph d="M67 0H24L327 698H343L646 0H535L287 574L311 591ZM178 289V324H458V289ZM465 848H437C430.7598 819.4735 421.4848 808 405 808C379.7525 808 336.3645 847 303 847C256.6026 847 235.9953 805.9759 226 755H252C259.1712 787.2706 270.4865 797 288 797C311.2255 797 358.6286 758 391 758C432.44 758 457.0026 798.0165 465 848Z" glyph-name="Atilde" horiz-adv-x="670" unicode="&#195;" /><glyph d="M152 0H320C450 0 549 70 549 196C549 302 465 374 322 369L300 360C429 367 501 451.2195 501 530C501 630.9615 421 680 287 680H162V645H262C352.4167 645 402 602 402 515C402 418 331 375 247 375H156V340H276C386 340 447 294 447 188C447 76 381 35 292 35H152ZM85 0H187V680H85Z" glyph-name="B" horiz-adv-x="605" unicode="B" /><glyph d="M704 175 671 189C639 104 564 21 412 21C286 21 150 131 150 340C150 552 279.5167 662 418 662C560.5749 662 633.9259 581.1829 666 502L699 518C661.9418 608.1416 575 698 419 698C223 698 45 558 45 340C45 134 210 -15 407 -15C562 -15 657 59 704 175Z" glyph-name="C" horiz-adv-x="746" unicode="C" /><glyph d="M704 175 671 189C639 104 564 21 412 21C286 21 150 131 150 340C150 552 279.5167 662 418 662C560.5749 662 633.9259 581.1829 666 502L699 518C661.9418 608.1416 575 698 419 698C223 698 45 558 45 340C45 134 210 -15 407 -15C562 -15 657 59 704 175ZM511 857 539 797 373 745 366 760Z" glyph-name="Cacute" horiz-adv-x="746" unicode="&#262;" /><glyph d="M704 175 671 189C639 104 564 21 412 21C286 21 150 131 150 340C150 552 279.5167 662 418 662C560.5749 662 633.9259 581.1829 666 502L699 518C661.9418 608.1416 575 698 419 698C223 698 45 558 45 340C45 134 210 -15 407 -15C562 -15 657 59 704 175ZM532 855 541 839 424 749H413V807ZM301 855 420 807V749H409L292 839Z" glyph-name="Ccaron" horiz-adv-x="746" unicode="&#268;" /><glyph d="M704 175 671 189C639 104 564 21 412 21C286 21 150 131 150 340C150 552 279.5167 662 418 662C560.5749 662 633.9259 581.1829 666 502L699 518C661.9418 608.1416 575 698 419 698C223 698 45 558 45 340C45 134 210 -15 407 -15C562 -15 657 59 704 175ZM484 -144C484 -93.2857 435.4286 -73 399 -73C380 -73 369 -75 358 -80L364 -89L416 0H383L326 -98L334 -110C350 -103 363.1176 -100 379 -100C407 -100 431 -115.3261 431 -147C431 -182.3077 406.5385 -198 378 -198C351.4426 -198 329.2335 -188.5944 318 -160L293 -171C305.8427 -204.5886 341.6207 -228 383 -228C435.4423 -228 484 -202 484 -144Z" glyph-name="Ccedilla" horiz-adv-x="746" unicode="&#199;" /><glyph d="M704 175 671 189C639 104 564 21 412 21C286 21 150 131 150 340C150 552 279.5167 662 418 662C560.5749 662 633.9259 581.1829 666 502L699 518C661.9418 608.1416 575 698 419 698C223 698 45 558 45 340C45 134 210 -15 407 -15C562 -15 657 59 704 175ZM306 749 297 765 414 855H425V797ZM537 749 418 797V855H429L546 765Z" glyph-name="Ccircumflex" horiz-adv-x="746" unicode="&#264;" /><glyph d="M704 175 671 189C639 104 564 21 412 21C286 21 150 131 150 340C150 552 279.5167 662 418 662C560.5749 662 633.9259 581.1829 666 502L699 518C661.9418 608.1416 575 698 419 698C223 698 45 558 45 340C45 134 210 -15 407 -15C562 -15 657 59 704 175ZM359 807C359 777 384 753 413 753C442 753 467 777 467 807C467 836 442 860 413 860C384 860 359 836 359 807Z" glyph-name="Cdotaccent" horiz-adv-x="746" unicode="&#266;" /><glyph d="M155 0H330C562 0 720 116 720 346C720 562 560 680 362 680H159V645H341C494 645 615 559 615 340C615 121 494 35 327 35H155ZM88 0H190V680H88Z" glyph-name="D" horiz-adv-x="765" unicode="D" /><glyph d="M155 0H330C562 0 720 116 720 346C720 562 560 680 362 680H159V645H341C494 645 615 559 615 340C615 121 494 35 327 35H155ZM88 0H190V680H88ZM489 855 498 839 381 749H370V807ZM258 855 377 807V749H366L249 839Z" glyph-name="Dcaron" horiz-adv-x="765" unicode="&#270;" /><glyph d="M367 335C367 335 367 370 367 370H0V335ZM165 0H340C572 0 730 116 730 346C730 562 570 680 372 680H169V645H351C504 645 625 559 625 340C625 121 504 35 337 35H165ZM98 0H200V680H98Z" glyph-name="Dcroat" horiz-adv-x="775" unicode="&#272;" /><glyph d="M88 680V0H190V680ZM435 645C435 645 435 680 435 680H174V645ZM402 354C402 354 402 389 402 389H174V354ZM441 0C441 0 441 35 441 35H174V0Z" glyph-name="E" horiz-adv-x="493" unicode="E" /><glyph d="M88 680V0H190V680ZM435 645C435 645 435 680 435 680H174V645ZM402 354C402 354 402 389 402 389H174V354ZM441 0C441 0 441 35 441 35H174V0ZM330 857 358 797 192 745 185 760Z" glyph-name="Eacute" horiz-adv-x="493" unicode="&#201;" /><glyph d="M88 680V0H190V680ZM435 645C435 645 435 680 435 680H174V645ZM402 354C402 354 402 389 402 389H174V354ZM441 0C441 0 441 35 441 35H174V0ZM178 848C181.8872 783.861 218 745 279 745C340 745 376.1128 783.861 380 848H349C345.2273 816.8754 320 799 279 799C238 799 212.7727 816.8754 209 848Z" glyph-name="Ebreve" horiz-adv-x="493" unicode="&#276;" /><glyph d="M88 680V0H190V680ZM435 645C435 645 435 680 435 680H174V645ZM402 354C402 354 402 389 402 389H174V354ZM441 0C441 0 441 35 441 35H174V0ZM397 855 406 839 289 749H278V807ZM166 855 285 807V749H274L157 839Z" glyph-name="Ecaron" horiz-adv-x="493" unicode="&#282;" /><glyph d="M88 680V0H190V680ZM435 645C435 645 435 680 435 680H174V645ZM402 354C402 354 402 389 402 389H174V354ZM441 0C441 0 441 35 441 35H174V0ZM152 749 143 765 260 855H271V797ZM383 749 264 797V855H275L392 765Z" glyph-name="Ecircumflex" horiz-adv-x="493" unicode="&#202;" /><glyph d="M88 680V0H190V680ZM435 645C435 645 435 680 435 680H174V645ZM402 354C402 354 402 389 402 389H174V354ZM441 0C441 0 441 35 441 35H174V0ZM180 760C209 760 227 782 227 807C227 832 209 854 180 854C151 854 133 832 133 807C133 782 151 760 180 760ZM356 760C385 760 403 782 403 807C403 832 385 854 356 854C327 854 308 832 308 807C308 782 327 760 356 760Z" glyph-name="Edieresis" horiz-adv-x="493" unicode="&#203;" /><glyph d="M88 680V0H190V680ZM435 645C435 645 435 680 435 680H174V645ZM402 354C402 354 402 389 402 389H174V354ZM441 0C441 0 441 35 441 35H174V0ZM214 807C214 777 239 753 268 753C297 753 322 777 322 807C322 836 297 860 268 860C239 860 214 836 214 807Z" glyph-name="Edotaccent" horiz-adv-x="493" unicode="&#278;" /><glyph d="M88 680V0H190V680ZM435 645C435 645 435 680 435 680H174V645ZM402 354C402 354 402 389 402 389H174V354ZM441 0C441 0 441 35 441 35H174V0ZM209 857 181 797 347 745 354 760Z" glyph-name="Egrave" horiz-adv-x="493" unicode="&#200;" /><glyph d="M88 680V0H190V680ZM435 645C435 645 435 680 435 680H174V645ZM402 354C402 354 402 389 402 389H174V354ZM441 0C441 0 441 35 441 35H174V0ZM378 782C378 782 378 817 378 817H159V782Z" glyph-name="Emacron" horiz-adv-x="493" unicode="&#274;" /><glyph d="M423 -133V-167C625 -146 639 -47 639 65H604C604 -33 589 -119 423 -133ZM624 -15 639 65V680H598L606 147H614L103 698H88V0H129L121 532H116Z" glyph-name="Eng" horiz-adv-x="727" unicode="&#330;" /><glyph d="M88 680V0H190V680ZM435 645C435 645 435 680 435 680H174V645ZM402 354C402 354 402 389 402 389H174V354ZM441 0C441 0 441 35 441 35H174V0ZM435 -140 414 -126C399.7318 -145.364 383 -161 360 -161C339.4737 -161 321 -148.3684 321 -121C321 -96.4065 333 -70 387 0H352C295 -68 266 -97 266 -136C266 -185 308.8718 -206 342 -206C389.011 -206 416 -174 435 -140Z" glyph-name="Eogonek" horiz-adv-x="493" unicode="&#280;" /><glyph d="M367 335C367 335 367 370 367 370H0V335ZM165 0H340C572 0 730 116 730 346C730 562 570 680 372 680H169V645H351C504 645 625 559 625 340C625 121 504 35 337 35H165ZM98 0H200V680H98Z" glyph-name="Eth" horiz-adv-x="775" unicode="&#208;" /><glyph d="M453 225C453 225 453 257 453 257H18V225ZM453 324C453 324 453 356 453 356H18V324ZM611 81 586 103C545 54 500 17 403 17C293 17 185 112 185 290C185 472 287 566 398 566C494 566 545 530 582 487L606 511C565 559 507 598 398 598C231 598 83 478 83 290C83 113 222 -15 399 -15C506 -15 558 19 611 81Z" glyph-name="Euro" horiz-adv-x="654" unicode="&#8364;" /><glyph d="M526 265C526 265 526 300 526 300H20V265ZM526 380C526 380 526 415 526 415H20V380ZM709 97 681 121C634 64 581 21 468 21C333 21 200 131 200 340C200 552 326 662 462 662C574 662 634 620 677 570L703 596C657 653 588 698 462 698C268 698 95 558 95 340C95 134 257 -15 463 -15C587 -15 648 24 709 97Z" glyph-name="Euro.lin" horiz-adv-x="740" /><glyph d="M88 680V0H190V680ZM435 645C435 645 435 680 435 680H174V645ZM402 354C402 354 402 389 402 389H174V354Z" glyph-name="F" horiz-adv-x="480" unicode="F" /><glyph d="M620 370V0H717V370ZM399 335H703V370H399ZM654 179 627 193C614.9391 108.5734 553 20 410 20C285 20 150 131 150 340C150 552 282 662 423 662C568 662 637 584 669 511L702 528C667 607 588 698 425 698C226 698 45 563 45 340C45 131 209 -15 405 -15C542 -15 635 61 654 179Z" glyph-name="G" horiz-adv-x="786" unicode="G" /><glyph d="M620 370V0H717V370ZM399 335H703V370H399ZM654 179 627 193C614.9391 108.5734 553 20 410 20C285 20 150 131 150 340C150 552 282 662 423 662C568 662 637 584 669 511L702 528C667 607 588 698 425 698C226 698 45 563 45 340C45 131 209 -15 405 -15C542 -15 635 61 654 179ZM326 848C329.8872 783.861 366 745 427 745C488 745 524.1128 783.861 528 848H497C493.2273 816.8754 468 799 427 799C386 799 360.7727 816.8754 357 848Z" glyph-name="Gbreve" horiz-adv-x="786" unicode="&#286;" /><glyph d="M620 370V0H717V370ZM399 335H703V370H399ZM654 179 627 193C614.9391 108.5734 553 20 410 20C285 20 150 131 150 340C150 552 282 662 423 662C568 662 637 584 669 511L702 528C667 607 588 698 425 698C226 698 45 563 45 340C45 131 209 -15 405 -15C542 -15 635 61 654 179ZM310 749 301 765 418 855H429V797ZM541 749 422 797V855H433L550 765Z" glyph-name="Gcircumflex" horiz-adv-x="786" unicode="&#284;" /><glyph d="M620 370V0H717V370ZM399 335H703V370H399ZM654 179 627 193C614.9391 108.5734 553 20 410 20C285 20 150 131 150 340C150 552 282 662 423 662C568 662 637 584 669 511L702 528C667 607 588 698 425 698C226 698 45 563 45 340C45 131 209 -15 405 -15C542 -15 635 61 654 179ZM400 -183C415 -183 432 -180 439 -174L427 -178C429 -219 393 -237 362 -238V-264C440 -261 464 -207 464 -159C464 -110 439 -87 405 -87C376 -87 355 -110 355 -136C355 -163 373 -183 400 -183Z" glyph-name="Gcommaaccent" horiz-adv-x="786" /><glyph d="M620 370V0H717V370ZM399 335H703V370H399ZM654 179 627 193C614.9391 108.5734 553 20 410 20C285 20 150 131 150 340C150 552 282 662 423 662C568 662 637 584 669 511L702 528C667 607 588 698 425 698C226 698 45 563 45 340C45 131 209 -15 405 -15C542 -15 635 61 654 179ZM371 807C371 777 396 753 425 753C454 753 479 777 479 807C479 836 454 860 425 860C396 860 371 836 371 807Z" glyph-name="Gdotaccent" horiz-adv-x="786" unicode="&#288;" /><glyph d="M88 680V0H190V645H568V680ZM294 122 259 114C277 25 346 -15 423 -15C530 -15 612 54 612 156C612 231 564 277 486 336L369 425L353 377L568 645L536 658L305 369V349L428 254C486 209 526 178 526 122C526 71 493 20 417 20C369 20 311 44 294 122Z" glyph-name="Germandbls" horiz-adv-x="649" unicode="&#7838;" /><glyph d="M657 350C657 350 657 385 657 385H149V350ZM88 680V0H190V680ZM576 680V0H678V680Z" glyph-name="H" horiz-adv-x="766" unicode="H" /><glyph d="M786 514C786 514 786 549 786 549H0V514ZM667 350C667 350 667 385 667 385H159V350ZM98 680V0H200V680ZM586 680V0H688V680Z" glyph-name="Hbar" horiz-adv-x="786" unicode="&#294;" /><glyph d="M657 350C657 350 657 385 657 385H149V350ZM88 680V0H190V680ZM576 680V0H678V680ZM271.5 749 262.5 765 379.5 855H390.5V797ZM502.5 749 383.5 797V855H394.5L511.5 765Z" glyph-name="Hcircumflex" horiz-adv-x="766" unicode="&#292;" /><glyph d="M88 680V0H190V680Z" glyph-name="I" horiz-adv-x="278" unicode="I" /><glyph d="M88 680V0H190V680ZM251 -132V-167C444 -115 468 5 468 85V680H366V37C366 -50 338 -102 251 -132Z" glyph-name="IJ" horiz-adv-x="556" unicode="&#306;" /><glyph d="M88 680V0H190V680ZM209 857 237 797 71 745 64 760Z" glyph-name="Iacute" horiz-adv-x="278" unicode="&#205;" /><glyph d="M88 680V0H190V680ZM40 848C43.8872 783.861 80 745 141 745C202 745 238.1128 783.861 242 848H211C207.2273 816.8754 182 799 141 799C100 799 74.7727 816.8754 71 848Z" glyph-name="Ibreve" horiz-adv-x="278" unicode="&#300;" /><glyph d="M88 680V0H190V680ZM27.5 749 18.5 765 135.5 855H146.5V797ZM258.5 749 139.5 797V855H150.5L267.5 765Z" glyph-name="Icircumflex" horiz-adv-x="278" unicode="&#206;" /><glyph d="M71 760C100 760 118 782 118 807C118 832 100 854 71 854C42 854 24 832 24 807C24 782 42 760 71 760ZM219 760C248 760 266 782 266 807C266 832 248 854 219 854C190 854 171 832 171 807C171 782 190 760 219 760ZM88 680V0H190V680Z" glyph-name="Idieresis" horiz-adv-x="278" unicode="&#207;" /><glyph d="M88 680V0H190V680ZM85 807C85 777 110 753 139 753C168 753 193 777 193 807C193 836 168 860 139 860C110 860 85 836 85 807Z" glyph-name="Idotaccent" horiz-adv-x="278" unicode="&#304;" /><glyph d="M88 680V0H190V680ZM70 857 42 797 208 745 215 760Z" glyph-name="Igrave" horiz-adv-x="278" unicode="&#204;" /><glyph d="M88 680V0H190V680ZM249 782C249 782 249 817 249 817H30V782Z" glyph-name="Imacron" horiz-adv-x="278" unicode="&#298;" /><glyph d="M88 680V0H190V680ZM216 -140 195 -126C180.7318 -145.364 164 -161 141 -161C120.4737 -161 102 -148.3684 102 -121C102 -96.4065 114 -70 168 0H133C76 -68 47 -97 47 -136C47 -185 89.8718 -206 123 -206C170.011 -206 197 -174 216 -140Z" glyph-name="Iogonek" horiz-adv-x="278" unicode="&#302;" /><glyph d="M88 680V0H190V680ZM268.5 848H240.5C234.2598 819.4735 224.9848 808 208.5 808C183.2525 808 139.8645 847 106.5 847C60.1026 847 39.4953 805.9759 29.5 755H55.5C62.6712 787.2706 73.9865 797 91.5 797C114.7255 797 162.1286 758 194.5 758C235.94 758 260.5026 798.0165 268.5 848Z" glyph-name="Itilde" horiz-adv-x="278" unicode="&#296;" /><glyph d="M-27 -132V-167C166 -115 190 5 190 85V680H88V37C88 -50 60 -102 -27 -132Z" glyph-name="J" horiz-adv-x="278" unicode="J" /><glyph d="M-27 -132V-167C166 -115 190 5 190 85V680H88V37C88 -50 60 -102 -27 -132ZM22 749 13 765 130 855H141V797ZM253 749 134 797V855H145L262 765Z" glyph-name="Jcircumflex" horiz-adv-x="278" unicode="&#308;" /><glyph d="M88 680V0H190V680ZM241 366 485 0H604L312 437ZM181 301 574 680H520L162 323Z" glyph-name="K" horiz-adv-x="611" unicode="K" /><glyph d="M88 680V0H190V680ZM241 366 485 0H604L312 437ZM181 301 574 680H520L162 323ZM338 -183C353 -183 370 -180 377 -174L365 -178C367 -219 331 -237 300 -238V-264C378 -261 402 -207 402 -159C402 -110 377 -87 343 -87C314 -87 293 -110 293 -136C293 -163 311 -183 338 -183Z" glyph-name="Kcommaaccent" horiz-adv-x="611" /><glyph d="M88 680V0H190V680ZM431 0C431 0 431 35 431 35H174V0Z" glyph-name="L" horiz-adv-x="461" unicode="L" /><glyph d="M88 680V0H190V680ZM431 0C431 0 431 35 431 35H174V0ZM230 857 258 797 92 745 85 760Z" glyph-name="Lacute" horiz-adv-x="461" unicode="&#313;" /><glyph d="M88 680V0H190V680ZM431 0C431 0 431 35 431 35H174V0ZM280 510H310L356 680H290Z" glyph-name="Lcaron" horiz-adv-x="461" unicode="&#317;" /><glyph d="M88 680V0H190V680ZM431 0C431 0 431 35 431 35H174V0ZM256 -183C271 -183 288 -180 295 -174L283 -178C285 -219 249 -237 218 -238V-264C296 -261 320 -207 320 -159C320 -110 295 -87 261 -87C232 -87 211 -110 211 -136C211 -163 229 -183 256 -183Z" glyph-name="Lcommaaccent" horiz-adv-x="461" /><glyph d="M88 680V0H190V680ZM431 0C431 0 431 35 431 35H174V0ZM361 280C396 280 420 307 420 339C420 371 396 398 361 398C327 398 302 371 302 339C302 307 327 280 361 280Z" glyph-name="Ldot" horiz-adv-x="456" unicode="&#319;" /><glyph d="M353 421C353 421 353 458 353 458L6 261V224ZM93 680V0H195V680ZM436 0C436 0 436 35 436 35H179V0Z" glyph-name="Lslash" horiz-adv-x="461" unicode="&#321;" /><glyph d="M230 698H214L45 0H87L208 546L190 540L443 0H457L697 545L681 532L812 0H917L747 698H731L482 141L494 137Z" glyph-name="M" horiz-adv-x="957" unicode="M" /><glyph d="M624 -15H639V680H598L606 147H614L103 698H88V0H129L121 532H116Z" glyph-name="N" horiz-adv-x="727" unicode="N" /><glyph d="M624 -15H639V680H598L606 147H614L103 698H88V0H129L121 532H116ZM465 857 493 797 327 745 320 760Z" glyph-name="Nacute" horiz-adv-x="727" unicode="&#323;" /><glyph d="M624 -15H639V680H598L606 147H614L103 698H88V0H129L121 532H116ZM508 855 517 839 400 749H389V807ZM277 855 396 807V749H385L268 839Z" glyph-name="Ncaron" horiz-adv-x="727" unicode="&#327;" /><glyph d="M624 -15H639V680H598L606 147H614L103 698H88V0H129L121 532H116ZM361 -183C376 -183 393 -180 400 -174L388 -178C390 -219 354 -237 323 -238V-264C401 -261 425 -207 425 -159C425 -110 400 -87 366 -87C337 -87 316 -110 316 -136C316 -163 334 -183 361 -183Z" glyph-name="Ncommaaccent" horiz-adv-x="727" /><glyph d="M624 -15H639V680H598L606 147H614L103 698H88V0H129L121 532H116ZM501 848H473C466.7598 819.4735 457.4848 808 441 808C415.7525 808 372.3645 847 339 847C292.6026 847 271.9953 805.9759 262 755H288C295.1712 787.2706 306.4865 797 324 797C347.2255 797 394.6286 758 427 758C468.44 758 493.0026 798.0165 501 848Z" glyph-name="Ntilde" horiz-adv-x="727" unicode="&#209;" /><glyph d="M45 340C45 124 225 -15 420 -15C616 -15 795 122 795 340C795 558 616 698 420 698C225 698 45 556 45 340ZM690 340C690 119 558 21 420 21C284 21 150 122 150 340C150 558 282 662 420 662C559 662 690 560 690 340Z" glyph-name="O" horiz-adv-x="840" unicode="O" /><glyph d="M550 680H435C203 680 45 560 45 333C45 115 203 0 403 0H546V35H424C271 35 150 121 150 340C150 559 271 645 438 645H550ZM515 680V0H617V680ZM862 645C862 645 862 680 862 680H601V645ZM829 354C829 354 829 389 829 389H601V354ZM868 0C868 0 868 35 868 35H601V0Z" glyph-name="OE" horiz-adv-x="920" unicode="&#338;" /><glyph d="M45 340C45 124 225 -15 420 -15C616 -15 795 122 795 340C795 558 616 698 420 698C225 698 45 556 45 340ZM690 340C690 119 558 21 420 21C284 21 150 122 150 340C150 558 282 662 420 662C559 662 690 560 690 340ZM526 857 554 797 388 745 381 760Z" glyph-name="Oacute" horiz-adv-x="840" unicode="&#211;" /><glyph d="M45 340C45 124 225 -15 420 -15C616 -15 795 122 795 340C795 558 616 698 420 698C225 698 45 556 45 340ZM690 340C690 119 558 21 420 21C284 21 150 122 150 340C150 558 282 662 420 662C559 662 690 560 690 340ZM319.5002 848C323.3874 783.861 359.5002 745 420.5002 745C481.5002 745 517.613 783.861 521.5002 848H490.5002C486.7275 816.8754 461.5002 799 420.5002 799C379.5002 799 354.2729 816.8754 350.5002 848Z" glyph-name="Obreve" horiz-adv-x="840" unicode="&#334;" /><glyph d="M45 340C45 124 225 -15 420 -15C616 -15 795 122 795 340C795 558 616 698 420 698C225 698 45 556 45 340ZM690 340C690 119 558 21 420 21C284 21 150 122 150 340C150 558 282 662 420 662C559 662 690 560 690 340ZM305 749 296 765 413 855H424V797ZM536 749 417 797V855H428L545 765Z" glyph-name="Ocircumflex" horiz-adv-x="840" unicode="&#212;" /><glyph d="M45 340C45 124 225 -15 420 -15C616 -15 795 122 795 340C795 558 616 698 420 698C225 698 45 556 45 340ZM690 340C690 119 558 21 420 21C284 21 150 122 150 340C150 558 282 662 420 662C559 662 690 560 690 340ZM332 760C361 760 379 782 379 807C379 832 361 854 332 854C303 854 285 832 285 807C285 782 303 760 332 760ZM508 760C537 760 555 782 555 807C555 832 537 854 508 854C479 854 460 832 460 807C460 782 479 760 508 760Z" glyph-name="Odieresis" horiz-adv-x="840" unicode="&#214;" /><glyph d="M45 340C45 124 225 -15 420 -15C616 -15 795 122 795 340C795 558 616 698 420 698C225 698 45 556 45 340ZM690 340C690 119 558 21 420 21C284 21 150 122 150 340C150 558 282 662 420 662C559 662 690 560 690 340ZM361 857 333 797 499 745 506 760Z" glyph-name="Ograve" horiz-adv-x="840" unicode="&#210;" /><glyph d="M45 340C45 124 225 -15 420 -15C616 -15 795 122 795 340C795 558 616 698 420 698C225 698 45 556 45 340ZM690 340C690 119 558 21 420 21C284 21 150 122 150 340C150 558 282 662 420 662C559 662 690 560 690 340ZM603 858 636 806 484 745 475 759ZM439 860 473 808 322 745 313 759Z" glyph-name="Ohungarumlaut" horiz-adv-x="840" unicode="&#336;" /><glyph d="M45 340C45 124 225 -15 420 -15C616 -15 795 122 795 340C795 558 616 698 420 698C225 698 45 556 45 340ZM690 340C690 119 558 21 420 21C284 21 150 122 150 340C150 558 282 662 420 662C559 662 690 560 690 340ZM530 782C530 782 530 817 530 817H311V782Z" glyph-name="Omacron" horiz-adv-x="840" unicode="&#332;" /><glyph d="M191 0 693 680H648L146 0ZM45 340C45 124 225 -15 420 -15C616 -15 795 122 795 340C795 558 616 698 420 698C225 698 45 556 45 340ZM690 340C690 119 558 21 420 21C284 21 150 122 150 340C150 558 282 662 420 662C559 662 690 560 690 340Z" glyph-name="Oslash" horiz-adv-x="840" unicode="&#216;" /><glyph d="M191 0 693 680H648L146 0ZM45 340C45 124 225 -15 420 -15C616 -15 795 122 795 340C795 558 616 698 420 698C225 698 45 556 45 340ZM690 340C690 119 558 21 420 21C284 21 150 122 150 340C150 558 282 662 420 662C559 662 690 560 690 340ZM526 857 554 797 388 745 381 760Z" glyph-name="Oslashacute" horiz-adv-x="840" unicode="&#510;" /><glyph d="M45 340C45 124 225 -15 420 -15C616 -15 795 122 795 340C795 558 616 698 420 698C225 698 45 556 45 340ZM690 340C690 119 558 21 420 21C284 21 150 122 150 340C150 558 282 662 420 662C559 662 690 560 690 340ZM540 848H512C505.7598 819.4735 496.4848 808 480 808C454.7525 808 411.3645 847 378 847C331.6026 847 310.9953 805.9759 301 755H327C334.1712 787.2706 345.4865 797 363 797C386.2255 797 433.6286 758 466 758C507.44 758 532.0026 798.0165 540 848Z" glyph-name="Otilde" horiz-adv-x="840" unicode="&#213;" /><glyph d="M155 309H276C425 309 526 385 526 507C526 628 422 680 302 680H159V645H287C365 645 427 605 427 505C427 391 362 344 273 344H155ZM88 0H190V680H88Z" glyph-name="P" horiz-adv-x="552" unicode="P" /><glyph d="M377 189 645 -15H771L500 189ZM45 340C45 124 225 -15 420 -15C616 -15 795 122 795 340C795 558 616 698 420 698C225 698 45 556 45 340ZM690 340C690 119 558 21 420 21C284 21 150 122 150 340C150 558 282 662 420 662C559 662 690 560 690 340Z" glyph-name="Q" horiz-adv-x="840" unicode="Q" /><glyph d="M388 -5 729 -177V-73L452 -1ZM45 340C45 124 225 -15 420 -15C616 -15 795 122 795 340C795 558 616 698 420 698C225 698 45 556 45 340ZM690 340C690 119 558 21 420 21C284 21 150 122 150 340C150 558 282 662 420 662C559 662 690 560 690 340Z" glyph-name="Q.alt" horiz-adv-x="840" /><glyph d="M218 347 481 0H602L327 361ZM155 339H283L302 348C402 356 496 413 496 520C496 633 398 680 288 680H159V645H257C337 645 397 610 397 520C397 416 323 374 255 374H155ZM88 0H190V680H88Z" glyph-name="R" horiz-adv-x="610" unicode="R" /><glyph d="M218 347 481 0H602L327 361ZM155 339H283L302 348C402 356 496 413 496 520C496 633 398 680 288 680H159V645H257C337 645 397 610 397 520C397 416 323 374 255 374H155ZM88 0H190V680H88ZM372 857 400 797 234 745 227 760Z" glyph-name="Racute" horiz-adv-x="610" unicode="&#340;" /><glyph d="M218 347 481 0H602L327 361ZM155 339H283L302 348C402 356 496 413 496 520C496 633 398 680 288 680H159V645H257C337 645 397 610 397 520C397 416 323 374 255 374H155ZM88 0H190V680H88ZM402 855 411 839 294 749H283V807ZM171 855 290 807V749H279L162 839Z" glyph-name="Rcaron" horiz-adv-x="610" unicode="&#344;" /><glyph d="M218 347 481 0H602L327 361ZM155 339H283L302 348C402 356 496 413 496 520C496 633 398 680 288 680H159V645H257C337 645 397 610 397 520C397 416 323 374 255 374H155ZM88 0H190V680H88ZM334 -183C349 -183 366 -180 373 -174L361 -178C363 -219 327 -237 296 -238V-264C374 -261 398 -207 398 -159C398 -110 373 -87 339 -87C310 -87 289 -110 289 -136C289 -163 307 -183 334 -183Z" glyph-name="Rcommaaccent" horiz-adv-x="610" /><glyph d="M75 152 39 144C61 30 151 -15 247 -15C379.4062 -15 470 70 470 191C470 272 416.3091 326.5781 347 369L231 440C180 471 146 497.9913 146 557C146 617.8624 184 664 271 664C340 664 396.9912 627.0428 412 554L448 563C423.9853 663.0612 344 698 267 698C129 698 66 617 66 521C66 427 139.6064 371.2438 203 334L283 287C352.7099 246.0454 385 205 385 153C385 87 341.0515 20 246 20C177 20 96 45 75 152Z" glyph-name="S" horiz-adv-x="508" unicode="S" /><glyph d="M75 152 39 144C61 30 151 -15 247 -15C379.4062 -15 470 70 470 191C470 272 416.3091 326.5781 347 369L231 440C180 471 146 497.9913 146 557C146 617.8624 184 664 271 664C340 664 396.9912 627.0428 412 554L448 563C423.9853 663.0612 344 698 267 698C129 698 66 617 66 521C66 427 139.6064 371.2438 203 334L283 287C352.7099 246.0454 385 205 385 153C385 87 341.0515 20 246 20C177 20 96 45 75 152ZM343 857 371 797 205 745 198 760Z" glyph-name="Sacute" horiz-adv-x="508" unicode="&#346;" /><glyph d="M75 152 39 144C61 30 151 -15 247 -15C379.4062 -15 470 70 470 191C470 272 416.3091 326.5781 347 369L231 440C180 471 146 497.9913 146 557C146 617.8624 184 664 271 664C340 664 396.9912 627.0428 412 554L448 563C423.9853 663.0612 344 698 267 698C129 698 66 617 66 521C66 427 139.6064 371.2438 203 334L283 287C352.7099 246.0454 385 205 385 153C385 87 341.0515 20 246 20C177 20 96 45 75 152ZM383 855 392 839 275 749H264V807ZM152 855 271 807V749H260L143 839Z" glyph-name="Scaron" horiz-adv-x="508" unicode="&#352;" /><glyph d="M75 152 39 144C61 30 151 -15 247 -15C379.4062 -15 470 70 470 191C470 272 416.3091 326.5781 347 369L231 440C180 471 146 497.9913 146 557C146 617.8624 184 664 271 664C340 664 396.9912 627.0428 412 554L448 563C423.9853 663.0612 344 698 267 698C129 698 66 617 66 521C66 427 139.6064 371.2438 203 334L283 287C352.7099 246.0454 385 205 385 153C385 87 341.0515 20 246 20C177 20 96 45 75 152ZM343 -144C343 -93.2857 294.4286 -73 258 -73C239 -73 228 -75 217 -80L223 -89L275 0H242L185 -98L193 -110C209 -103 222.1176 -100 238 -100C266 -100 290 -115.3261 290 -147C290 -182.3077 265.5385 -198 237 -198C210.4426 -198 188.2335 -188.5944 177 -160L152 -171C164.8427 -204.5886 200.6207 -228 242 -228C294.4423 -228 343 -202 343 -144Z" glyph-name="Scedilla" horiz-adv-x="508" unicode="&#350;" /><glyph d="M75 152 39 144C61 30 151 -15 247 -15C379.4062 -15 470 70 470 191C470 272 416.3091 326.5781 347 369L231 440C180 471 146 497.9913 146 557C146 617.8624 184 664 271 664C340 664 396.9912 627.0428 412 554L448 563C423.9853 663.0612 344 698 267 698C129 698 66 617 66 521C66 427 139.6064 371.2438 203 334L283 287C352.7099 246.0454 385 205 385 153C385 87 341.0515 20 246 20C177 20 96 45 75 152ZM155 749 146 765 263 855H274V797ZM386 749 267 797V855H278L395 765Z" glyph-name="Scircumflex" horiz-adv-x="508" unicode="&#348;" /><glyph d="M75 152 39 144C61 30 151 -15 247 -15C379.4062 -15 470 70 470 191C470 272 416.3091 326.5781 347 369L231 440C180 471 146 497.9913 146 557C146 617.8624 184 664 271 664C340 664 396.9912 627.0428 412 554L448 563C423.9853 663.0612 344 698 267 698C129 698 66 617 66 521C66 427 139.6064 371.2438 203 334L283 287C352.7099 246.0454 385 205 385 153C385 87 341.0515 20 246 20C177 20 96 45 75 152ZM242 -183C257 -183 274 -180 281 -174L269 -178C271 -219 235 -237 204 -238V-264C282 -261 306 -207 306 -159C306 -110 281 -87 247 -87C218 -87 197 -110 197 -136C197 -163 215 -183 242 -183Z" glyph-name="Scommaaccent" horiz-adv-x="508" unicode="&#536;" /><glyph d="M543 645C543 645 543 680 543 680H25V645ZM233 668V0H335V668Z" glyph-name="T" horiz-adv-x="568" unicode="T" /><glyph d="M475 350C475 350 475 385 475 385H93V350ZM543 645C543 645 543 680 543 680H25V645ZM233 668V0H335V668Z" glyph-name="Tbar" horiz-adv-x="568" unicode="&#358;" /><glyph d="M543 645C543 645 543 680 543 680H25V645ZM233 668V0H335V668ZM403.5 855 412.5 839 295.5 749H284.5V807ZM172.5 855 291.5 807V749H280.5L163.5 839Z" glyph-name="Tcaron" horiz-adv-x="568" unicode="&#356;" /><glyph d="M543 645C543 645 543 680 543 680H25V645ZM233 668V0H335V668ZM274 -183C289 -183 306 -180 313 -174L301 -178C303 -219 267 -237 236 -238V-264C314 -261 338 -207 338 -159C338 -110 313 -87 279 -87C250 -87 229 -110 229 -136C229 -163 247 -183 274 -183Z" glyph-name="Tcommaaccent" horiz-adv-x="568" unicode="&#538;" /><glyph d="M155 165H276C425 165 526 241 526 363C526 484 422 536 302 536H159V501H287C365 501 427 461 427 361C427 247 362 200 273 200H155ZM88 0H190V680H88Z" glyph-name="Thorn" horiz-adv-x="552" unicode="&#222;" /><glyph d="M569 276C569 115 512 30 368 30C218 30 182 145 182 252V680H80V243C80 85 172 -15 355 -15C516 -15 603 79 603 242V680H561Z" glyph-name="U" horiz-adv-x="683" unicode="U" /><glyph d="M569 276C569 115 512 30 368 30C218 30 182 145 182 252V680H80V243C80 85 172 -15 355 -15C516 -15 603 79 603 242V680H561ZM441 857 469 797 303 745 296 760Z" glyph-name="Uacute" horiz-adv-x="683" unicode="&#218;" /><glyph d="M569 276C569 115 512 30 368 30C218 30 182 145 182 252V680H80V243C80 85 172 -15 355 -15C516 -15 603 79 603 242V680H561ZM271 848C274.8872 783.861 311 745 372 745C433 745 469.1128 783.861 473 848H442C438.2273 816.8754 413 799 372 799C331 799 305.7727 816.8754 302 848Z" glyph-name="Ubreve" horiz-adv-x="683" unicode="&#364;" /><glyph d="M569 276C569 115 512 30 368 30C218 30 182 145 182 252V680H80V243C80 85 172 -15 355 -15C516 -15 603 79 603 242V680H561ZM495 855 504 839 387 749H376V807ZM264 855 383 807V749H372L255 839Z" glyph-name="Ucaron" horiz-adv-x="683" unicode="&#467;" /><glyph d="M569 276C569 115 512 30 368 30C218 30 182 145 182 252V680H80V243C80 85 172 -15 355 -15C516 -15 603 79 603 242V680H561ZM258 749 249 765 366 855H377V797ZM489 749 370 797V855H381L498 765Z" glyph-name="Ucircumflex" horiz-adv-x="683" unicode="&#219;" /><glyph d="M569 276C569 115 512 30 368 30C218 30 182 145 182 252V680H80V243C80 85 172 -15 355 -15C516 -15 603 79 603 242V680H561ZM290 760C319 760 337 782 337 807C337 832 319 854 290 854C261 854 243 832 243 807C243 782 261 760 290 760ZM466 760C495 760 513 782 513 807C513 832 495 854 466 854C437 854 418 832 418 807C418 782 437 760 466 760Z" glyph-name="Udieresis" horiz-adv-x="683" unicode="&#220;" /><glyph d="M569 276C569 115 512 30 368 30C218 30 182 145 182 252V680H80V243C80 85 172 -15 355 -15C516 -15 603 79 603 242V680H561ZM302 857 274 797 440 745 447 760Z" glyph-name="Ugrave" horiz-adv-x="683" unicode="&#217;" /><glyph d="M569 276C569 115 512 30 368 30C218 30 182 145 182 252V680H80V243C80 85 172 -15 355 -15C516 -15 603 79 603 242V680H561ZM532 858 565 806 413 745 404 759ZM368 860 402 808 251 745 242 759Z" glyph-name="Uhungarumlaut" horiz-adv-x="683" unicode="&#368;" /><glyph d="M569 276C569 115 512 30 368 30C218 30 182 145 182 252V680H80V243C80 85 172 -15 355 -15C516 -15 603 79 603 242V680H561ZM486 782C486 782 486 817 486 817H267V782Z" glyph-name="Umacron" horiz-adv-x="683" unicode="&#362;" /><glyph d="M503 22C567 67 603 138 603 242V680H561L569 276C569 115 512 30 368 30C218 30 182 146 182 253V680H80V245C80 87 172 -15 355 -15C397 -15 434 -9 466 3L463 26C368.1916 -41.5762 326 -86.1538 326 -136C326 -184.6111 369.2911 -206 402 -206C449.011 -206 476 -174 495 -140L474 -126C460 -145 443 -161 420 -161C399 -161 381 -148 381 -121C381 -89 399.1382 -51.3142 503 22Z" glyph-name="Uogonek" horiz-adv-x="683" unicode="&#370;" /><glyph d="M569 276C569 115 512 30 368 30C218 30 182 145 182 252V680H80V243C80 85 172 -15 355 -15C516 -15 603 79 603 242V680H561ZM374 749C421 749 459 785 459 831C459 877 421 913 374 913C326 913 289 877 289 831C289 785 326 749 374 749ZM374 781C348 781 327 801 327 831C327 861 348 881 374 881C400 881 421 861 421 831C421 801 400 781 374 781Z" glyph-name="Uring" horiz-adv-x="683" unicode="&#366;" /><glyph d="M569 276C569 115 512 30 368 30C218 30 182 145 182 252V680H80V243C80 85 172 -15 355 -15C516 -15 603 79 603 242V680H561ZM502 848H474C467.7598 819.4735 458.4848 808 442 808C416.7525 808 373.3645 847 340 847C293.6026 847 272.9953 805.9759 263 755H289C296.1712 787.2706 307.4865 797 325 797C348.2255 797 395.6286 758 428 758C469.44 758 494.0026 798.0165 502 848Z" glyph-name="Utilde" horiz-adv-x="683" unicode="&#360;" /><glyph d="M603 680H646L363 0H307L24 680H134L380 82L351 52Z" glyph-name="V" horiz-adv-x="670" unicode="V" /><glyph d="M616 680H659L536 385L513 360L363 0H307L24 680H134L381 82L351 52L487 392L512 416ZM913 680H956L673 0H617L334 680H444L691 82L661 52Z" glyph-name="W" horiz-adv-x="980" unicode="W" /><glyph d="M888 680H931L658 0H602L329 680H439L676 82L646 52ZM507 370 353 0H297L24 680H134L371 82L341 52L486 413Z" glyph-name="W.alt" horiz-adv-x="955" /><glyph d="M616 680H659L536 385L513 360L363 0H307L24 680H134L381 82L351 52L487 392L512 416ZM913 680H956L673 0H617L334 680H444L691 82L661 52ZM570 857 598 797 432 745 425 760Z" glyph-name="Wacute" horiz-adv-x="980" unicode="&#7810;" /><glyph d="M536 857 564 797 398 745 391 760ZM888 680H931L658 0H602L329 680H439L676 82L646 52ZM507 370 353 0H297L24 680H134L371 82L341 52L486 413Z" glyph-name="Wacute.alt" horiz-adv-x="955" /><glyph d="M616 680H659L536 385L513 360L363 0H307L24 680H134L381 82L351 52L487 392L512 416ZM913 680H956L673 0H617L334 680H444L691 82L661 52ZM385 749 376 765 493 855H504V797ZM616 749 497 797V855H508L625 765Z" glyph-name="Wcircumflex" horiz-adv-x="980" unicode="&#372;" /><glyph d="M299 749 290 765 407 855H418V797ZM530 749 411 797V855H422L539 765ZM888 680H931L658 0H602L329 680H439L676 82L646 52ZM507 370 353 0H297L24 680H134L371 82L341 52L486 413Z" glyph-name="Wcircumflex.alt" horiz-adv-x="955" /><glyph d="M616 680H659L536 385L513 360L363 0H307L24 680H134L381 82L351 52L487 392L512 416ZM913 680H956L673 0H617L334 680H444L691 82L661 52ZM425 760C454 760 472 782 472 807C472 832 454 854 425 854C396 854 378 832 378 807C378 782 396 760 425 760ZM601 760C630 760 648 782 648 807C648 832 630 854 601 854C572 854 553 832 553 807C553 782 572 760 601 760Z" glyph-name="Wdieresis" horiz-adv-x="980" unicode="&#7812;" /><glyph d="M382 760C411 760 429 782 429 807C429 832 411 854 382 854C353 854 335 832 335 807C335 782 353 760 382 760ZM558 760C587 760 605 782 605 807C605 832 587 854 558 854C529 854 510 832 510 807C510 782 529 760 558 760ZM888 680H931L658 0H602L329 680H439L676 82L646 52ZM507 370 353 0H297L24 680H134L371 82L341 52L486 413Z" glyph-name="Wdieresis.alt" horiz-adv-x="955" /><glyph d="M616 680H659L536 385L513 360L363 0H307L24 680H134L381 82L351 52L487 392L512 416ZM913 680H956L673 0H617L334 680H444L691 82L661 52ZM451 857 423 797 589 745 596 760Z" glyph-name="Wgrave" horiz-adv-x="980" unicode="&#7808;" /><glyph d="M411 857 383 797 549 745 556 760ZM888 680H931L658 0H602L329 680H439L676 82L646 52ZM507 370 353 0H297L24 680H134L371 82L341 52L486 413Z" glyph-name="Wgrave.alt" horiz-adv-x="955" /><glyph d="M46 680 490 0H604L160 680ZM527 680 332 402 352 373 572 680ZM77 0 292 316 271 345 32 0Z" glyph-name="X" horiz-adv-x="626" unicode="X" /><glyph d="M544 680 342 346H352L140 680H25L278 287H345L587 680ZM260 340V0H362V340Z" glyph-name="Y" horiz-adv-x="607" unicode="Y" /><glyph d="M544 680 342 346H352L140 680H25L278 287H345L587 680ZM260 340V0H362V340ZM413 857 441 797 275 745 268 760Z" glyph-name="Yacute" horiz-adv-x="607" unicode="&#221;" /><glyph d="M544 680 342 346H352L140 680H25L278 287H345L587 680ZM260 340V0H362V340ZM230 749 221 765 338 855H349V797ZM461 749 342 797V855H353L470 765Z" glyph-name="Ycircumflex" horiz-adv-x="607" unicode="&#374;" /><glyph d="M544 680 342 346H352L140 680H25L278 287H345L587 680ZM260 340V0H362V340ZM256 760C285 760 303 782 303 807C303 832 285 854 256 854C227 854 209 832 209 807C209 782 227 760 256 760ZM432 760C461 760 479 782 479 807C479 832 461 854 432 854C403 854 384 832 384 807C384 782 403 760 432 760Z" glyph-name="Ydieresis" horiz-adv-x="607" unicode="&#376;" /><glyph d="M544 680 342 346H352L140 680H25L278 287H345L587 680ZM260 340V0H362V340ZM278 857 250 797 416 745 423 760Z" glyph-name="Ygrave" horiz-adv-x="607" unicode="&#7922;" /><glyph d="M544 680 342 346H352L140 680H25L278 287H345L587 680ZM260 340V0H362V340ZM445 782C445 782 445 817 445 817H226V782Z" glyph-name="Ymacron" horiz-adv-x="607" unicode="&#562;" /><glyph d="M56 15V0H585V35H152L165 10L582 665V680H88V645H486L473 670Z" glyph-name="Z" horiz-adv-x="637" unicode="Z" /><glyph d="M56 15V0H585V35H152L165 10L582 665V680H88V645H486L473 670ZM414 857 442 797 276 745 269 760Z" glyph-name="Zacute" horiz-adv-x="637" unicode="&#377;" /><glyph d="M56 15V0H585V35H152L165 10L582 665V680H88V645H486L473 670ZM459 855 468 839 351 749H340V807ZM228 855 347 807V749H336L219 839Z" glyph-name="Zcaron" horiz-adv-x="637" unicode="&#381;" /><glyph d="M56 15V0H585V35H152L165 10L582 665V680H88V645H486L473 670ZM279 807C279 777 304 753 333 753C362 753 387 777 387 807C387 836 362 860 333 860C304 860 279 836 279 807Z" glyph-name="Zdotaccent" horiz-adv-x="637" unicode="&#379;" /><glyph d="M342 334 230 283C127.6894 236.4121 38 207.5787 38 104C38 34 94.9655 -15 178 -15C253.5614 -15 309.9204 28.8814 355 96L340 119C305.2894 67.955 260.3876 31 210 31C170.5 31 131 60 131 121C131 188.9853 177 224 244 255L346 303ZM337 0H431V351C431 456 361 510 250 510C133 510 74 441 53 379L87 366C97.0755 402.2718 137.3108 476 233 476C310 476 337 429.1496 337 357Z" glyph-name="a" horiz-adv-x="489" unicode="a" /><glyph d="M342 334 230 283C127.6894 236.4121 38 207.5787 38 104C38 34 94.9655 -15 178 -15C253.5614 -15 309.9204 28.8814 355 96L340 119C305.2894 67.955 260.3876 31 210 31C170.5 31 131 60 131 121C131 188.9853 177 224 244 255L346 303ZM337 0H431V351C431 456 361 510 250 510C133 510 74 441 53 379L87 366C97.0755 402.2718 137.3108 476 233 476C310 476 337 429.1496 337 357ZM287 731 336 678 188 576 174 590Z" glyph-name="aacute" horiz-adv-x="489" unicode="&#225;" /><glyph d="M342 334 230 283C127.6894 236.4121 38 207.5787 38 104C38 34 94.9655 -15 178 -15C253.5614 -15 309.9204 28.8814 355 96L340 119C305.2894 67.955 260.3876 31 210 31C170.5 31 131 60 131 121C131 188.9853 177 224 244 255L346 303ZM337 0H431V351C431 456 361 510 250 510C133 510 74 441 53 379L87 366C97.0755 402.2718 137.3108 476 233 476C310 476 337 429.1496 337 357ZM151.4906 720C153.5239 639.6842 194.4906 598 255.4906 598C316.4906 598 357.4573 639.6842 359.4906 720H329.4906C325.4902 673.9952 299.0796 652 255.4906 652C211.9016 652 185.491 673.9952 181.4906 720Z" glyph-name="abreve" horiz-adv-x="489" unicode="&#259;" /><glyph d="M342 334 230 283C127.6894 236.4121 38 207.5787 38 104C38 34 94.9655 -15 178 -15C253.5614 -15 309.9204 28.8814 355 96L340 119C305.2894 67.955 260.3876 31 210 31C170.5 31 131 60 131 121C131 188.9853 177 224 244 255L346 303ZM337 0H431V351C431 456 361 510 250 510C133 510 74 441 53 379L87 366C97.0755 402.2718 137.3108 476 233 476C310 476 337 429.1496 337 357ZM133 582 119 598 241 731H252V662ZM364 582 245 662V731H256L378 598Z" glyph-name="acircumflex" horiz-adv-x="489" unicode="&#226;" /><glyph d="M173 731 222 678 74 576 60 590Z" glyph-name="acute" horiz-adv-x="261" unicode="&#180;" /><glyph d="M190 857 218 797 52 745 45 760Z" glyph-name="acute.uc" horiz-adv-x="261" /><glyph d="M342 334 230 283C127.6894 236.4121 38 207.5787 38 104C38 34 94.9655 -15 178 -15C253.5614 -15 309.9204 28.8814 355 96L340 119C305.2894 67.955 260.3876 31 210 31C170.5 31 131 60 131 121C131 188.9853 177 224 244 255L346 303ZM337 0H431V351C431 456 361 510 250 510C133 510 74 441 53 379L87 366C97.0755 402.2718 137.3108 476 233 476C310 476 337 429.1496 337 357ZM161 622C190 622 208 644 208 669C208 694 190 716 161 716C132 716 114 694 114 669C114 644 132 622 161 622ZM327 622C356 622 374 644 374 669C374 694 356 716 327 716C298 716 279 694 279 669C279 644 298 622 327 622Z" glyph-name="adieresis" horiz-adv-x="489" unicode="&#228;" /><glyph d="M342 333 230 281C128.3725 233.8158 38 206.4213 38 104C38 34 94.9655 -15 178 -15C263.3801 -15 329 35 378 137L357 161C322.6881 78.6514 269 34 211 34C171 34 131 62.0333 131 121C131 189.4926 176.9706 225.0633 244 256L348 304ZM337 236 425 220V351C425 456 356.547 510 248 510C129.2183 510 73.9799 443.9379 53 379L85 367C95 405 131.72 478 231 478C308.6634 478 337 430 337 357ZM719 302H391V271H802C799 434.999 705.7345 510 580 510C453.0891 510 337 407 337 233C337 92 443.3256 -15 591 -15C693.9208 -15 755.094 41.2322 789 125L759 138C735.0763 77.1938 689.7006 16 596 16C500.3195 16 431 97 431 247C431 399 502.0915 479 580 479C666.2615 479 712.9992 403.9874 706 287Z" glyph-name="ae" horiz-adv-x="836" unicode="&#230;" /><glyph d="M342 333 230 281C128.3725 233.8158 38 206.4213 38 104C38 34 94.9655 -15 178 -15C263.3801 -15 329 35 378 137L357 161C322.6881 78.6514 269 34 211 34C171 34 131 62.0333 131 121C131 189.4926 176.9706 225.0633 244 256L348 304ZM337 236 425 220V351C425 456 356.547 510 248 510C129.2183 510 73.9799 443.9379 53 379L85 367C95 405 131.72 478 231 478C308.6634 478 337 430 337 357ZM719 302H391V271H802C799 434.999 705.7345 510 580 510C453.0891 510 337 407 337 233C337 92 443.3256 -15 591 -15C693.9208 -15 755.094 41.2322 789 125L759 138C735.0763 77.1938 689.7006 16 596 16C500.3195 16 431 97 431 247C431 399 502.0915 479 580 479C666.2615 479 712.9992 403.9874 706 287ZM495 731 544 678 396 576 382 590Z" glyph-name="aeacute" horiz-adv-x="836" unicode="&#509;" /><glyph d="M342 333 230 281C128.3725 233.8158 38 206.4213 38 104C38 34 94.9655 -15 178 -15C263.3801 -15 329 35 378 137L357 161C322.6881 78.6514 269 34 211 34C171 34 131 62.0333 131 121C131 189.4926 176.9706 225.0633 244 256L348 304ZM337 236 425 220V351C425 456 356.547 510 248 510C129.2183 510 73.9799 443.9379 53 379L85 367C95 405 131.72 478 231 478C308.6634 478 337 430 337 357ZM719 302H391V271H802C799 434.999 705.7345 510 580 510C453.0891 510 337 407 337 233C337 92 443.3256 -15 591 -15C693.9208 -15 755.094 41.2322 789 125L759 138C735.0763 77.1938 689.7006 16 596 16C500.3195 16 431 97 431 247C431 399 502.0915 479 580 479C666.2615 479 712.9992 403.9874 706 287ZM539 643C539 643 539 676 539 676H320V643Z" glyph-name="aemacron" horiz-adv-x="836" unicode="&#483;" /><glyph d="M342 334 230 283C127.6894 236.4121 38 207.5787 38 104C38 34 94.9655 -15 178 -15C253.5614 -15 309.9204 28.8814 355 96L340 119C305.2894 67.955 260.3876 31 210 31C170.5 31 131 60 131 121C131 188.9853 177 224 244 255L346 303ZM337 0H431V351C431 456 361 510 250 510C133 510 74 441 53 379L87 366C97.0755 402.2718 137.3108 476 233 476C310 476 337 429.1496 337 357ZM218 731 169 678 317 576 331 590Z" glyph-name="agrave" horiz-adv-x="489" unicode="&#224;" /><glyph d="M342 334 230 283C127.6894 236.4121 38 207.5787 38 104C38 34 94.9655 -15 178 -15C253.5614 -15 309.9204 28.8814 355 96L340 119C305.2894 67.955 260.3876 31 210 31C170.5 31 131 60 131 121C131 188.9853 177 224 244 255L346 303ZM337 0H431V351C431 456 361 510 250 510C133 510 74 441 53 379L87 366C97.0755 402.2718 137.3108 476 233 476C310 476 337 429.1496 337 357ZM354 643C354 643 354 676 354 676H135V643Z" glyph-name="amacron" horiz-adv-x="489" unicode="&#257;" /><glyph d="M324 423C393 456 456 505 456 582C456 653 405 698 338 698C240.1656 698 178 642 178 553C178 501 205.2792 443.0208 254 382L559 0H675L339 422C288.9013 484.9216 264 523 264 574C264 621 287 662 341 662C401 662 421 614 421 578C421 519 377 476 308 447ZM473 132C436 67 369 23 281 23C187 23 128 103 128 213C128 313 191 367 259 399L240 420C135.6521 375.8528 30 307.5983 30 186C30 55.2524 129 -15 261 -15C366 -15 443 29 495 106ZM525 143 680 422H636L504 168Z" glyph-name="ampersand" horiz-adv-x="696" unicode="&amp;" /><glyph d="M324 389C431 454 472 503 472 572C472 627 430 698 326 698C214 698 146 636.3558 146 541C146 487.2472 175.8909 421.626 234 357L555 0H679L327 397C266 466 237 509 237 562C237 614 266.4059 662 336 662C405.8817 662 433 610 433 571C433 510 389.9102 459.0356 305 413ZM452 175C400 95 349.068 36 261 36C182.875 36 136 92 136 169C136 274.981 180.3192 306.2289 279 377L261 398C127.4293 320.2499 29 263 29 155C29 41 120 -15 226 -15C358 -15 421 68 483 155ZM483 157 673 449H623L458 177Z" glyph-name="ampersand.alt" horiz-adv-x="688" /><glyph d="M358 409C262 409 224 477.9928 224 546C224 617.6068 272 664 348 664C414 664 465 634 484 563L520 573C497 656 432 698 338 698C215 698 129 647 129 550C129 475.5287 189.9888 406.0014 300 392L330 374H402V409ZM343 374 321 397C180 397 50 331.322 50 193C50 49 174 -15 323 -15C473 -15 600 64.0121 600 272V348H563V272C563 81.3821 455 21 338 21C246 21 155 83 155 198C155 309.3672 220 374 343 374ZM684 376C684 376 684 411 684 411L450 319V284Z" glyph-name="ampersand.alt1" horiz-adv-x="683" /><glyph d="M342 334 230 283C127.6894 236.4121 38 207.5787 38 104C38 34 94.9655 -15 178 -15C253.5614 -15 309.9204 28.8814 355 96L340 119C305.2894 67.955 260.3876 31 210 31C170.5 31 131 60 131 121C131 188.9853 177 224 244 255L346 303ZM337 0H431V351C431 456 361 510 250 510C133 510 74 441 53 379L87 366C97.0755 402.2718 137.3108 476 233 476C310 476 337 429.1496 337 357ZM420 -140 399 -126C384.7318 -145.364 368 -161 345 -161C324.4737 -161 306 -148.3684 306 -121C306 -96.4065 318 -70 372 0H337C280 -68 251 -97 251 -136C251 -185 293.8718 -206 327 -206C374.011 -206 401 -174 420 -140Z" glyph-name="aogonek" horiz-adv-x="489" unicode="&#261;" /><glyph d="M439 486H405C396 438 376 428 350 428C309 428 228 486 179 486C124 486 99 449 90 393H124C133 441 153 451 179 451C218 451 300 393 350 393C405 393 430 430 439 486ZM439 344H405C396 296 376 286 350 286C309 286 228 344 179 344C124 344 99 307 90 251H124C133 299 153 309 179 309C218 309 300 251 350 251C405 251 430 288 439 344Z" glyph-name="approxequal" horiz-adv-x="529" unicode="&#8776;" /><glyph d="M342 334 230 283C127.6894 236.4121 38 207.5787 38 104C38 34 94.9655 -15 178 -15C253.5614 -15 309.9204 28.8814 355 96L340 119C305.2894 67.955 260.3876 31 210 31C170.5 31 131 60 131 121C131 188.9853 177 224 244 255L346 303ZM337 0H431V351C431 456 361 510 250 510C133 510 74 441 53 379L87 366C97.0755 402.2718 137.3108 476 233 476C310 476 337 429.1496 337 357ZM244.5 617C291.1463 617 329.5 653 329.5 699C329.5 745 291.0476 781 244.5 781C196.9405 781 159.5 745 159.5 699C159.5 653 196.8171 617 244.5 617ZM244.5 649C218.5 649 197.5 669 197.5 699C197.5 729 218.5 749 244.5 749C270.5 749 291.5 729 291.5 699C291.5 669 270.5 649 244.5 649Z" glyph-name="aring" horiz-adv-x="489" unicode="&#229;" /><glyph d="M79.7208 191.0303C79.7208 191.0303 104.4695 166.2816 104.4695 166.2816L398.6259 460.438L373.8772 485.1867ZM377.4127 474.5801C360.4422 408.1121 359.7351 336.6943 363.9777 284.3684L392.262 256.0841C387.3122 338.8156 399.333 422.9613 422.6676 498.6218L412.061 509.2284ZM388.0193 463.9735 422.6676 498.6218 412.061 509.2284C336.4005 485.8938 252.2548 473.873 169.5233 478.8228L197.8076 450.5385C250.1335 446.2959 321.5513 447.003 388.0193 463.9735Z" glyph-name="arrowNE" horiz-adv-x="502.6676" unicode="&#8599;" /><glyph d="M397.9697 137.7208C397.9697 137.7208 422.7184 162.4695 422.7184 162.4695L128.562 456.6259L103.8133 431.8772ZM114.4199 435.4127C180.8879 418.4422 252.3057 417.7351 304.6316 421.9777L332.9159 450.262C250.1844 445.3122 166.0387 457.333 90.3782 480.6676L79.7716 470.061ZM125.0265 446.0193 90.3782 480.6676 79.7716 470.061C103.1062 394.4005 115.127 310.2548 110.1772 227.5233L138.4615 255.8076C142.7041 308.1335 141.997 379.5513 125.0265 446.0193Z" glyph-name="arrowNW" horiz-adv-x="502.7184" unicode="&#8598;" /><glyph d="M105.0303 516.2792C105.0303 516.2792 80.2816 491.5305 80.2816 491.5305L374.438 197.3741L399.1867 222.1228ZM388.5801 218.5873C322.1121 235.5578 250.6943 236.2649 198.3684 232.0223L170.0841 203.738C252.8156 208.6878 336.9613 196.667 412.6218 173.3324L423.2284 183.939ZM377.9735 207.9807 412.6218 173.3324 423.2284 183.939C399.8938 259.5995 387.873 343.7452 392.8228 426.4767L364.5385 398.1924C360.2959 345.8665 361.003 274.4487 377.9735 207.9807Z" glyph-name="arrowSE" horiz-adv-x="503.2284" unicode="&#8600;" /><glyph d="M423.2792 468.9697C423.2792 468.9697 398.5305 493.7184 398.5305 493.7184L104.3741 199.562L129.1228 174.8133ZM125.5873 185.4199C142.5578 251.8879 143.2649 323.3057 139.0223 375.6316L110.738 403.9159C115.6878 321.1844 103.667 237.0387 80.3324 161.3782L90.939 150.7716ZM114.9807 196.0265 80.3324 161.3782 90.939 150.7716C166.5995 174.1062 250.7452 186.127 333.4767 181.1772L305.1924 209.4615C252.8665 213.7041 181.4487 212.997 114.9807 196.0265Z" glyph-name="arrowSW" horiz-adv-x="503.2792" unicode="&#8601;" /><glyph d="M255 537C255 537 220 537 220 537V121H255ZM245 126C210 185 160 236 120 270H80C142 215 193 147 230 77H245ZM230 126V77H245C282 147 333 215 395 270H355C315 236 265 185 230 126Z" glyph-name="arrowdown" horiz-adv-x="475" unicode="&#8595;" /><glyph d="M510 330C510 330 510 365 510 365H94V330ZM99 340C158 375 209 425 243 465V505C188 443 120 392 50 355V340ZM99 355H50V340C120 303 188 252 243 190V230C209 270 158 320 99 355Z" glyph-name="arrowleft" horiz-adv-x="580" unicode="&#8592;" /><glyph d="M70 330C70 330 70 365 70 365H486V330ZM481 340C422 375 371 425 337 465V505C392 443 460 392 530 355V340ZM481 355H530V340C460 303 392 252 337 190V230C371 270 422 320 481 355Z" glyph-name="arrowright" horiz-adv-x="580" unicode="&#8594;" /><glyph d="M220 77C220 77 255 77 255 77V493H220ZM230 488C265 429 315 378 355 344H395C333 399 282 467 245 537H230ZM245 488V537H230C193 467 142 399 80 344H120C160 378 210 429 245 488Z" glyph-name="arrowup" horiz-adv-x="475" unicode="&#8593;" /><glyph d="M70 440H108L239 667H216L347 440H385L245 680H210Z" glyph-name="asciicircum" horiz-adv-x="455" unicode="^" /><glyph d="M409 421H375C365.7068 372.4687 347 362 322 362C284 362 225 420 179 420C124 420 98.7282 382.2481 90 326H124C132.99 374.9456 152 385 177 385C213 385 274 327 320 327C375 327 400.2718 364.7519 409 421Z" glyph-name="asciitilde" horiz-adv-x="499" unicode="~" /><glyph d="M185 623 210 747H143L167 623ZM179 632 69 694 48 630 173 614ZM169 628 76 543 130 503 183 618ZM169 618 221 503 276 542 183 628ZM179 614 304 629 284 693 173 632Z" glyph-name="asterisk" horiz-adv-x="352" unicode="*" /><glyph d="M337 53C408 53 481 130 510 247C537 364 510 441 439 441C360 441 276 366 249 251C221 132 264 53 337 53ZM356 84C323 84 312 147 336 247C361 348 404 415 446 415C496 415 507 341 485 247C462 150 403 84 356 84ZM467 173C454 80 517 53 573 53C716 53 799 171 799 300C799 486 648 603 467 603C237 603 55 429 55 208C55 9 202 -110 387 -110C501 -110 591 -84 664 -15L645 8C581 -54 493 -77 391 -77C224 -77 93 31 93 211C93 405 257 570 464 570C627 570 761 473 761 298C761 162 673 85 585 85C554 85 534 103 548 161L615 433H580L512 356L470 187Z" glyph-name="at" horiz-adv-x="854" unicode="@" /><glyph d="M336 152C409 152 484 229 513 346C540 463 513 540 438 540C357 540 271 465 244 350C216 231 260 152 336 152ZM355 183C315 183 307 245 331 346C356 447 401 514 445 514C500 514 510 441 488 346C465 249 403 183 355 183ZM466 272C453 179 518 152 576 152C718.37 152 802 274.2058 802 408C802 589.0227 649.908 703 467 703C234 703 50 526.7975 50 303C50 100.8711 199 -20 387 -20C501 -20 591 6 664 75L645 98C581 36 493 13 391 13C221 13 88 122.875 88 306C88 502.7019 254 670 464 670C628.9007 670 764 575.6462 764 406C764 264.7273 676.4972 184 588 184C557 184 537 202 551 260L618 532H583L515 455L473 286Z" glyph-name="at.uc" horiz-adv-x="854" /><glyph d="M342 334 230 283C127.6894 236.4121 38 207.5787 38 104C38 34 94.9655 -15 178 -15C253.5614 -15 309.9204 28.8814 355 96L340 119C305.2894 67.955 260.3876 31 210 31C170.5 31 131 60 131 121C131 188.9853 177 224 244 255L346 303ZM337 0H431V351C431 456 361 510 250 510C133 510 74 441 53 379L87 366C97.0755 402.2718 137.3108 476 233 476C310 476 337 429.1496 337 357ZM364 718H336C330 690 320 679 303 679C278 679 234.3267 717 201 717C155.5974 717 134.9952 675.9756 125 625H151C158.0261 656.6172 170 666 188 666C211 666 258.6863 628 291 628C331.4459 628 356 668 364 718Z" glyph-name="atilde" horiz-adv-x="489" unicode="&#227;" /><glyph d="M157 0V740L63 720V0ZM549 254C549 427 447 510 325 510C230 510 162 451 125 381L146 352C180 425 240 475 312 475C386 475 452 421 452 248C452 74 380 20 310 20C243 20 180 71 153 147L128 120C157 47 226 -15 321 -15C439 -15 549 73 549 254Z" glyph-name="b" horiz-adv-x="589" unicode="b" /><glyph d="M400 -190H436L33 780H-3Z" glyph-name="backslash" horiz-adv-x="408" unicode="\" /><glyph d="M137 -170H100V780H137Z" glyph-name="bar" horiz-adv-x="237" unicode="|" /><glyph d="M104 280 194 367 139 617C124 685 151 735 215 735H245V770H218C128 770 81 707 101 613L152 376L60 287V280ZM104 280H60V273L152 184L101 -53C81 -147 128 -210 218 -210H245V-175H215C151 -175 124 -125 139 -57L194 193Z" glyph-name="braceleft" horiz-adv-x="305" unicode="{" /><glyph d="M103 320 191 402 139 607C122 675 151 725 215 725H245V760H218C128 760 77 697 101 603L150 412L60 327V320ZM103 320H60V313L150 228L101 37C77 -57 128 -120 218 -120H245V-85H215C151 -85 122 -35 139 33L191 238Z" glyph-name="braceleft.uc" horiz-adv-x="305" /><glyph d="M201 280 111 193 166 -57C181 -125 154 -175 90 -175H60V-210H87C177 -210 224 -147 204 -53L153 184L245 273V280ZM201 280H245V287L153 376L204 613C224 707 177 770 87 770H60V735H90C154 735 181 685 166 617L111 367Z" glyph-name="braceright" horiz-adv-x="305" unicode="}" /><glyph d="M202 320 114 238 166 33C183 -35 154 -85 90 -85H60V-120H87C177 -120 228 -57 204 37L155 228L245 313V320ZM202 320H245V327L155 412L204 603C228 697 177 760 87 760H60V725H90C154 725 183 675 166 607L114 402Z" glyph-name="braceright.uc" horiz-adv-x="305" /><glyph d="M100 -210H245V-175H137V735H245V770H100Z" glyph-name="bracketleft" horiz-adv-x="305" unicode="[" /><glyph d="M100 -120H245V-85H137V725H245V760H100Z" glyph-name="bracketleft.uc" horiz-adv-x="305" /><glyph d="M205 770H60V735H168V-175H60V-210H205Z" glyph-name="bracketright" horiz-adv-x="305" unicode="]" /><glyph d="M205 760H60V725H168V-85H60V-120H205Z" glyph-name="bracketright.uc" horiz-adv-x="305" /><glyph d="M91 720C93.0333 639.6842 134 598 195 598C256 598 296.9667 639.6842 299 720H269C264.9996 673.9952 238.589 652 195 652C151.411 652 125.0004 673.9952 121 720Z" glyph-name="breve" horiz-adv-x="368.0188" unicode="&#728;" /><glyph d="M94 848C97.8872 783.861 134 745 195 745C256 745 292.1128 783.861 296 848H265C261.2273 816.8754 236 799 195 799C154 799 128.7727 816.8754 125 848Z" glyph-name="breve.uc" horiz-adv-x="368.0188" /><glyph d="M100 375V780H137V375ZM137 -170H100V235H137Z" glyph-name="brokenbar" horiz-adv-x="237" unicode="&#166;" /><glyph d="M198 221C268 221 316 275 316 339C316 403 268 457 198 457C130 457 80 403 80 339C80 275 130 221 198 221Z" glyph-name="bullet" horiz-adv-x="396" unicode="&#8226;" /><glyph d="M502 123 471 139C443 79 397 17 306 17C219.982 17 137 94 137 247C137 398 211 477 311 477C395.4481 477 443.0148 424.9576 464 365L498 380C472.0173 445.956 416.408 510 298 510C163 510 40 407 40 247C40 88 157.9213 -15 296 -15C401 -15 463 43 502 123Z" glyph-name="c" horiz-adv-x="536" unicode="c" /><glyph d="M502 123 471 139C443 79 397 17 306 17C219.982 17 137 94 137 247C137 398 211 477 311 477C395.4481 477 443.0148 424.9576 464 365L498 380C472.0173 445.956 416.408 510 298 510C163 510 40 407 40 247C40 88 157.9213 -15 296 -15C401 -15 463 43 502 123ZM367 731 416 678 268 576 254 590Z" glyph-name="cacute" horiz-adv-x="536" unicode="&#263;" /><glyph d="M294 730 308 714 186 581H175V650ZM63 730 182 650V581H171L49 714Z" glyph-name="caron" horiz-adv-x="349" unicode="&#711;" /><glyph d="M60 510H90L136 680H70Z" glyph-name="caron.alt" horiz-adv-x="186" /><glyph d="M294 855 303 839 186 749H175V807ZM63 855 182 807V749H171L54 839Z" glyph-name="caron.uc" horiz-adv-x="349" /><glyph d="M502 123 471 139C443 79 397 17 306 17C219.982 17 137 94 137 247C137 398 211 477 311 477C395.4481 477 443.0148 424.9576 464 365L498 380C472.0173 445.956 416.408 510 298 510C163 510 40 407 40 247C40 88 157.9213 -15 296 -15C401 -15 463 43 502 123ZM426 730 440 714 318 581H307V650ZM195 730 314 650V581H303L181 714Z" glyph-name="ccaron" horiz-adv-x="536" unicode="&#269;" /><glyph d="M502 123 471 139C443 79 397 17 306 17C219.982 17 137 94 137 247C137 398 211 477 311 477C395.4481 477 443.0148 424.9576 464 365L498 380C472.0173 445.956 416.408 510 298 510C163 510 40 407 40 247C40 88 157.9213 -15 296 -15C401 -15 463 43 502 123ZM386 -144C386 -93.2857 337.4286 -73 301 -73C282 -73 271 -75 260 -80L266 -89L318 0H285L228 -98L236 -110C252 -103 265.1176 -100 281 -100C309 -100 333 -115.3261 333 -147C333 -182.3077 308.5385 -198 280 -198C253.4426 -198 231.2335 -188.5944 220 -160L195 -171C207.8427 -204.5886 243.6207 -228 285 -228C337.4423 -228 386 -202 386 -144Z" glyph-name="ccedilla" horiz-adv-x="536" unicode="&#231;" /><glyph d="M502 123 471 139C443 79 397 17 306 17C219.982 17 137 94 137 247C137 398 211 477 311 477C395.4481 477 443.0148 424.9576 464 365L498 380C472.0173 445.956 416.408 510 298 510C163 510 40 407 40 247C40 88 157.9213 -15 296 -15C401 -15 463 43 502 123ZM199 582 185 598 307 731H318V662ZM430 582 311 662V731H322L444 598Z" glyph-name="ccircumflex" horiz-adv-x="536" unicode="&#265;" /><glyph d="M502 123 471 139C443 79 397 17 306 17C219.982 17 137 94 137 247C137 398 211 477 311 477C395.4481 477 443.0148 424.9576 464 365L498 380C472.0173 445.956 416.408 510 298 510C163 510 40 407 40 247C40 88 157.9213 -15 296 -15C401 -15 463 43 502 123ZM263 670C263 640 288 616 317 616C346 616 371 640 371 670C371 699 346 723 317 723C288 723 263 699 263 670Z" glyph-name="cdotaccent" horiz-adv-x="536" unicode="&#267;" /><glyph d="M260 -144C260 -93.2857 211.4286 -73 175 -73C156 -73 145 -75 134 -80L140 -89L192 0H159L102 -98L110 -110C126 -103 139.1176 -100 155 -100C183 -100 207 -115.3261 207 -147C207 -182.3077 182.5385 -198 154 -198C127.4426 -198 105.2335 -188.5944 94 -160L69 -171C81.8427 -204.5886 117.6207 -228 159 -228C211.4423 -228 260 -202 260 -144Z" glyph-name="cedilla" horiz-adv-x="338" unicode="&#184;" /><glyph d="M471 110 443 123C423 70 376 18 279 18C207 18 128 87 128 218C128 351 204 420 286 420C375 420 420 369 440 320L468 334C444 395 391 453 286 453C152 453 34 361 34 218C34 83 144 -15 276 -15C378 -15 440 34 471 110ZM266 -126 332 553H295L229 -126Z" glyph-name="cent" horiz-adv-x="519" unicode="&#162;" /><glyph d="M63 582 49 598 171 731H182V662ZM294 582 175 662V731H186L308 598Z" glyph-name="circumflex" horiz-adv-x="349" unicode="&#710;" /><glyph d="M63 749 54 765 171 855H182V797ZM294 749 175 797V855H186L303 765Z" glyph-name="circumflex.uc" horiz-adv-x="349" /><glyph d="M119 -15C154 -15 178 12 178 44C178 76 154 103 119 103C85 103 60 76 60 44C60 12 85 -15 119 -15ZM119 321C154 321 178 348 178 380C178 412 154 439 119 439C85 439 60 412 60 380C60 348 85 321 119 321Z" glyph-name="colon" horiz-adv-x="238" unicode=":" /><glyph d="M117 -15C132 -15 145.651 -8.2327 155 -2L143 -3C147 -51 102 -72 66 -73V-101C157 -95 184 -46.5574 184 22C184 76 156 103 119 103C85 103 60 75 60 43C60 10 82 -15 117 -15Z" glyph-name="comma" horiz-adv-x="238" unicode="," /><glyph d="M91 -183C106 -183 123 -180 130 -174L118 -178C120 -219 84 -237 53 -238V-264C131 -261 155 -207 155 -159C155 -110 130 -87 96 -87C67 -87 46 -110 46 -136C46 -163 64 -183 91 -183Z" glyph-name="commaaccent" horiz-adv-x="198" /><glyph d="M45 340C45 124 225 -15 420 -15C616 -15 795 122 795 340C795 558 616 698 420 698C225 698 45 556 45 340ZM84 340C84 537 245.5193 664 420 664C594.4807 664 756 538 756 340C756 142 594.4807 19 420 19C245.5193 19 84 144 84 340ZM592 247 563 259C547 215 507 172 427 172C362 172 292 231 292 340C292 451 358.0496 509 431 509C503.4297 509 541.3712 468.1266 558 429L585 442C565.3612 493.0608 518.4268 541 429 541C318.0616 541 220 463 220 340C220 224 311 140 423 140C512 140 565 181 592 247Z" glyph-name="copyright" horiz-adv-x="840" unicode="&#169;" /><glyph d="M432 0H526V740L432 720ZM40 241C40 73 145 -15 274 -15C364 -15 431 43 460 120L437 146C411 66 351 20 285 20C207 20 137 74 137 247C137 421 217 475 292 475C363 475 412 431 444 357L467 387C427 460 376 510 284 510C158 510 40 419 40 241Z" glyph-name="d" horiz-adv-x="589" unicode="d" /><glyph d="M220 659C220 659 220 694 220 694H55V659ZM115 768 123 686H152L160 768ZM121 675C111 614 110 560 127 432H148C165 560 164 614 154 675Z" glyph-name="dagger" horiz-adv-x="275" unicode="&#8224;" /><glyph d="M122 675C111 613 111 587 122 525H153C164 587 164 613 153 675ZM220 659C220 659 220 694 220 694H55V659ZM115 768 123 686H152L160 768ZM220 541H55V506H220C220 506 220 541 220 541ZM115 432H160L152 514H123Z" glyph-name="daggerdbl" horiz-adv-x="275" unicode="&#8225;" /><glyph d="M432 0H526V740L432 720ZM40 241C40 73 145 -15 274 -15C364 -15 431 43 460 120L437 146C411 66 351 20 285 20C207 20 137 74 137 247C137 421 217 475 292 475C363 475 412 431 444 357L467 387C427 460 376 510 284 510C158 510 40 419 40 241ZM586 560H616L662 730H596Z" glyph-name="dcaron" horiz-adv-x="589" unicode="&#271;" /><glyph d="M287 585H615V616H526H287ZM432 0H526V740L432 720ZM40 241C40 73 145 -15 274 -15C364 -15 431 43 460 120L437 146C411 66 351 20 285 20C207 20 137 74 137 247C137 421 217 475 292 475C363 475 412 431 444 357L467 387C427 460 376 510 284 510C158 510 40 419 40 241Z" glyph-name="dcroat" horiz-adv-x="589" unicode="&#273;" /><glyph d="M193 433C267 433 326 493 326 566C326 639 267 698 193 698C119 698 60 639 60 566C60 493 119 433 193 433ZM193 468C141 468 99 511 99 566C99 620 141 663 193 663C245 663 287 620 287 566C287 511 245 468 193 468Z" glyph-name="degree" horiz-adv-x="386" unicode="&#176;" /><glyph d="M138 622C167 622 185 644 185 669C185 694 167 716 138 716C109 716 91 694 91 669C91 644 109 622 138 622ZM304 622C333 622 351 644 351 669C351 694 333 716 304 716C275 716 256 694 256 669C256 644 275 622 304 622Z" glyph-name="dieresis" horiz-adv-x="443" unicode="&#168;" /><glyph d="M133 760C162 760 180 782 180 807C180 832 162 854 133 854C104 854 86 832 86 807C86 782 104 760 133 760ZM309 760C338 760 356 782 356 807C356 832 338 854 309 854C280 854 261 832 261 807C261 782 280 760 309 760Z" glyph-name="dieresis.uc" horiz-adv-x="443" /><glyph d="M439 340C439 340 439 375 439 375H90V340ZM264 465C293 465 312 487 312 513C312 539 293 561 264 561C236 561 216 539 216 513C216 487 236 465 264 465ZM264 154C293 154 312 176 312 202C312 228 293 250 264 250C236 250 216 228 216 202C216 176 236 154 264 154Z" glyph-name="divide" horiz-adv-x="529" unicode="&#247;" /><glyph d="M227 -126 316 790H279L190 -126ZM75 152 39 144C61 30 151 -15 247 -15C379.4062 -15 470 70 470 191C470 272 416.3091 326.5781 347 369L231 440C180 471 146 497.9913 146 557C146 617.8624 184 664 271 664C340 664 396.9912 627.0428 412 554L448 563C423.9853 663.0612 344 698 267 698C129 698 66 617 66 521C66 427 139.6064 371.2438 203 334L283 287C352.7099 246.0454 385 205 385 153C385 87 341.0515 20 246 20C177 20 96 45 75 152Z" glyph-name="dollar" horiz-adv-x="508" unicode="$" /><glyph d="M83 670C83 640 108 616 137 616C166 616 191 640 191 670C191 699 166 723 137 723C108 723 83 699 83 670Z" glyph-name="dotaccent" horiz-adv-x="274" unicode="&#729;" /><glyph d="M83 807C83 777 108 753 137 753C166 753 191 777 191 807C191 836 166 860 137 860C108 860 83 836 83 807Z" glyph-name="dotaccent.uc" horiz-adv-x="275" /><glyph d="M63 0H157V495H63Z" glyph-name="dotlessi" horiz-adv-x="220" unicode="&#305;" /><glyph d="M433 302H97V271H516C513 434.9993 418 510 291 510C160 510 40 407 40 247C40 95 149.1635 -15 301 -15C405.9608 -15 469 41 503 125L471 139C447 78 401 17 306 17C208 17 137 97.6494 137 247C137 399.313 210.0452 479 290 479C378.6364 479 426.9996 403.9937 420 287Z" glyph-name="e" horiz-adv-x="552" unicode="e" /><glyph d="M433 302H97V271H516C513 434.9993 418 510 291 510C160 510 40 407 40 247C40 95 149.1635 -15 301 -15C405.9608 -15 469 41 503 125L471 139C447 78 401 17 306 17C208 17 137 97.6494 137 247C137 399.313 210.0452 479 290 479C378.6364 479 426.9996 403.9937 420 287ZM369 731 418 678 270 576 256 590Z" glyph-name="eacute" horiz-adv-x="552" unicode="&#233;" /><glyph d="M433 302H97V271H516C513 434.9993 418 510 291 510C160 510 40 407 40 247C40 95 149.1635 -15 301 -15C405.9608 -15 469 41 503 125L471 139C447 78 401 17 306 17C208 17 137 97.6494 137 247C137 399.313 210.0452 479 290 479C378.6364 479 426.9996 403.9937 420 287ZM189 720C191.0333 639.6842 232 598 293 598C354 598 394.9667 639.6842 397 720H367C362.9996 673.9952 336.589 652 293 652C249.411 652 223.0004 673.9952 219 720Z" glyph-name="ebreve" horiz-adv-x="552" unicode="&#277;" /><glyph d="M433 302H97V271H516C513 434.9993 418 510 291 510C160 510 40 407 40 247C40 95 149.1635 -15 301 -15C405.9608 -15 469 41 503 125L471 139C447 78 401 17 306 17C208 17 137 97.6494 137 247C137 399.313 210.0452 479 290 479C378.6364 479 426.9996 403.9937 420 287ZM417 730 431 714 309 581H298V650ZM186 730 305 650V581H294L172 714Z" glyph-name="ecaron" horiz-adv-x="552" unicode="&#283;" /><glyph d="M433 302H97V271H516C513 434.9993 418 510 291 510C160 510 40 407 40 247C40 95 149.1635 -15 301 -15C405.9608 -15 469 41 503 125L471 139C447 78 401 17 306 17C208 17 137 97.6494 137 247C137 399.313 210.0452 479 290 479C378.6364 479 426.9996 403.9937 420 287ZM192 582 178 598 300 731H311V662ZM423 582 304 662V731H315L437 598Z" glyph-name="ecircumflex" horiz-adv-x="552" unicode="&#234;" /><glyph d="M433 302H97V271H516C513 434.9993 418 510 291 510C160 510 40 407 40 247C40 95 149.1635 -15 301 -15C405.9608 -15 469 41 503 125L471 139C447 78 401 17 306 17C208 17 137 97.6494 137 247C137 399.313 210.0452 479 290 479C378.6364 479 426.9996 403.9937 420 287ZM221 622C250 622 268 644 268 669C268 694 250 716 221 716C192 716 174 694 174 669C174 644 192 622 221 622ZM387 622C416 622 434 644 434 669C434 694 416 716 387 716C358 716 339 694 339 669C339 644 358 622 387 622Z" glyph-name="edieresis" horiz-adv-x="552" unicode="&#235;" /><glyph d="M433 302H97V271H516C513 434.9993 418 510 291 510C160 510 40 407 40 247C40 95 149.1635 -15 301 -15C405.9608 -15 469 41 503 125L471 139C447 78 401 17 306 17C208 17 137 97.6494 137 247C137 399.313 210.0452 479 290 479C378.6364 479 426.9996 403.9937 420 287ZM241 670C241 640 266 616 295 616C324 616 349 640 349 670C349 699 324 723 295 723C266 723 241 699 241 670Z" glyph-name="edotaccent" horiz-adv-x="552" unicode="&#279;" /><glyph d="M433 302H97V271H516C513 434.9993 418 510 291 510C160 510 40 407 40 247C40 95 149.1635 -15 301 -15C405.9608 -15 469 41 503 125L471 139C447 78 401 17 306 17C208 17 137 97.6494 137 247C137 399.313 210.0452 479 290 479C378.6364 479 426.9996 403.9937 420 287ZM260 731 211 678 359 576 373 590Z" glyph-name="egrave" horiz-adv-x="552" unicode="&#232;" /><glyph d="M336 406C193 470 158 506.9878 158 575C158 645.8376 211 687 301 687C380.6901 687 439 646 439 558C439 480.454 392.7811 429.9013 322 398L345 382C429.7825 417.9079 516 476 516 556C516 662 415.863 718 301 718C175 718 79 647 79 539C79 455 133 391 267 330C419 261 461 225 461 154C461 65 387 16 295 16C196 16 122 62 122 175C122 270.6786 173.3366 319.7571 245 346L235 368C126 335 40 272.5389 40 172C40 55 151 -15 295 -15C432 -15 547 67 547 190C547 272 501 332 336 406Z" glyph-name="eight" horiz-adv-x="587" unicode="8" /><glyph d="M356 396C203 452 165 482 165 549C165 621 229 662 314 662C409 662 482 621 482 535C482 453 424 401 350 381L371 365C467.047 384.8035 555 442.9059 555 537C555 635.773 452.8477 698 314 698C184 698 81 633 81 517C81 433 129 374 291 313C453 252 486 221 486 153C486 62 410 21 314 21C212 21 127 66 127 173C127 267 180 322 252 344L237 363C120 336 45 268 45 174C45 56 162 -15 314 -15C469 -15 581 68 581 195C581 270 534 331 356 396Z" glyph-name="eight.lin" horiz-adv-x="626" /><glyph d="M196 224C115 251 97 271 97 300C97 335 131 355 176 355C226 355 260 332 260 295C260 251 229 223 192 213L208 198C263 213 310 245 310 296C310 350 253 384 176 384C99 384 39 344 39 281C39 238 53 203 160 164C245 133 263 118 263 82C263 43 224 21 173 21C119 21 74 44 74 99C74 140 102 171 138 185L127 202C62 183 20 145 20 93C20 30 86 -8 173 -8C261 -8 325 37 325 106C325 150 309 186 196 224Z" glyph-name="eight.sub" horiz-adv-x="345" /><glyph d="M196 530C115 557 97 577 97 606C97 641 131 661 176 661C226 661 260 638 260 601C260 557 229 529 192 519L208 504C263 519 310 551 310 602C310 656 253 690 176 690C99 690 39 650 39 587C39 544 53 509 160 470C245 439 263 424 263 388C263 349 224 327 173 327C119 327 74 350 74 405C74 446 102 477 138 491L127 508C62 489 20 451 20 399C20 336 86 298 173 298C261 298 325 343 325 412C325 456 309 492 196 530Z" glyph-name="eight.sup" horiz-adv-x="345" /><glyph d="M119 -15C154 -15 178 12 178 44C178 76 154 103 119 103C85 103 60 76 60 44C60 12 85 -15 119 -15ZM319 -15C354 -15 378 12 378 44C378 76 354 103 319 103C285 103 260 76 260 44C260 12 285 -15 319 -15ZM519 -15C554 -15 578 12 578 44C578 76 554 103 519 103C485 103 460 76 460 44C460 12 485 -15 519 -15Z" glyph-name="ellipsis" horiz-adv-x="638" unicode="&#8230;" /><glyph d="M433 302H97V271H516C513 434.9993 418 510 291 510C160 510 40 407 40 247C40 95 149.1635 -15 301 -15C405.9608 -15 469 41 503 125L471 139C447 78 401 17 306 17C208 17 137 97.6494 137 247C137 399.313 210.0452 479 290 479C378.6364 479 426.9996 403.9937 420 287ZM415 643C415 643 415 676 415 676H196V643Z" glyph-name="emacron" horiz-adv-x="552" unicode="&#275;" /><glyph d="M700 290C700 290 700 325 700 325H80V290Z" glyph-name="emdash" horiz-adv-x="780" unicode="&#8212;" /><glyph d="M700 350C700 350 700 385 700 385H80V350Z" glyph-name="emdash.uc" horiz-adv-x="780" /><glyph d="M480 290C480 290 480 325 480 325H80V290Z" glyph-name="endash" horiz-adv-x="560" unicode="&#8211;" /><glyph d="M480 350C480 350 480 385 480 385H80V350Z" glyph-name="endash.uc" horiz-adv-x="560" /><glyph d="M299 -190V-225C482 -174 498 -57 498 7V208H404V-41C404 -112 379 -164 299 -190ZM63 0H157V495H63ZM140 355C200.3428 440.4856 255 473 309 473C370 473 404 429.3438 404 346V0H498V331C498 473 410 510 329 510C255.6332 510 191.4481 472.5782 129 392Z" glyph-name="eng" horiz-adv-x="556" unicode="&#331;" /><glyph d="M442 33C472 63 488.9661 89.5024 503 125L471 139C446.8662 77.6599 400.8503 17 306 17C208 17 137 97.6494 137 247C137 399 210 479 290 479C379 479 427 404 420 287L433 302H97V271H516C513 435 418 510 290 510C159 510 40 407 40 247C40 95 149 -15 301 -15C334.1864 -15 363 -9 390 1L408 31C332.1361 -34.8818 280 -85.703 280 -135C280 -182 318 -206 357 -206C404 -206 430 -174 449 -140L428 -126C414 -145 397 -161 374 -161C351 -161 335 -148 335 -119C335 -82.7015 361 -48 442 33Z" glyph-name="eogonek" horiz-adv-x="550" unicode="&#281;" /><glyph d="M439 420C439 420 439 455 439 455H90V420ZM439 260C439 260 439 295 439 295H90V260Z" glyph-name="equal" horiz-adv-x="529" unicode="=" /><glyph d="M236 716C385 638 454 479 461 366V247C461 137 419 16 299 16C179 16 137 137 137 247C137 358 179 479 299 479C419 479 461 358 461 247L490 404C452 460 398 510 299 510C176 510 40 417 40 247C40 78 176 -15 299 -15C422 -15 558 77 558 277C558 503 450 644 251 740ZM474 694C474 694 474 729 474 729L251 597V561Z" glyph-name="eth" horiz-adv-x="598" unicode="&#240;" /><glyph d="M433 302H97V271H516C513 434.9993 418 510 291 510C160 510 40 407 40 247C40 95 149.1635 -15 301 -15C405.9608 -15 469 41 503 125L471 139C447 78 401 17 306 17C208 17 137 97.6494 137 247C137 399.313 210.0452 479 290 479C378.6364 479 426.9996 403.9937 420 287ZM420 718H392C386 690 376 679 359 679C334 679 290.3267 717 257 717C211.5974 717 190.9952 675.9756 181 625H207C214.0261 656.6172 226 666 244 666C267 666 314.6863 628 347 628C387.4459 628 412 668 420 718Z" glyph-name="etilde" horiz-adv-x="552" unicode="&#7869;" /><glyph d="M73 700 115 213H143L185 700ZM129 -15C164 -15 188 12 188 44C188 76 164 103 129 103C95 103 70 76 70 44C70 12 95 -15 129 -15Z" glyph-name="exclam" horiz-adv-x="258" unicode="!" /><glyph d="M185 -205 143 282H115L73 -205ZM129 510C94 510 70 483 70 451C70 419 94 392 129 392C163 392 188 419 188 451C188 483 163 510 129 510Z" glyph-name="exclamdown" horiz-adv-x="258" unicode="&#161;" /><glyph d="M185 0 143 487H115L73 0ZM129 715C94 715 70 688 70 656C70 624 94 597 129 597C163 597 188 624 188 656C188 688 163 715 129 715Z" glyph-name="exclamdown.uc" horiz-adv-x="258" /><glyph d="M312 495H30V464H312ZM384 660C359 725 298 740 258 740C171 740 90 691 90 582C90 562 94 540 101 514L106 495L105 475V0H199V476L185 522C174 558 173 583 173 601C173 680.2593 214 708 263 708C304.0769 708 335.8149 688.4976 352 645Z" glyph-name="f" horiz-adv-x="334" unicode="f" /><glyph d="M284 495H30V464H284ZM398 679C362 732 307 740 268 740C176 740 90 692 90 584C90 563 94 541 101 514L106 495L105 475V0H199V476L185 522C174 559 173 585 173 603C173 682 219 709 273 709C314 709 348 694 372 658ZM444 0V740L350 720V0ZM836 254C836 427 734 510 612 510C517 510 449 451 412 381L433 352C467 425 527 475 599 475C673 475 739 421 739 248C739 74 667 20 597 20C530 20 467 71 440 147L415 120C444 47 513 -15 608 -15C726 -15 836 73 836 254Z" glyph-name="f_b" horiz-adv-x="876" /><glyph d="M557 495H275V464H557ZM629 660C604 725 543 740 503 740C416 740 335 691 335 582C335 562 339 540 346 514L351 495L350 475V0H444V476L430 522C419 558 418 583 418 601C418 680.2593 459 708 508 708C549.0769 708 580.8149 688.4976 597 645ZM312 495H30V464H312ZM384 660C359 725 298 740 258 740C171 740 90 691 90 582C90 562 94 540 101 514L106 495L105 475V0H199V476L185 522C174 558 173 583 173 601C173 680.2593 214 708 263 708C304.0769 708 335.8149 688.4976 352 645Z" glyph-name="f_f" horiz-adv-x="579" unicode="&#64256;" /><glyph d="M518 495H264V464H518ZM643 679C607 732 552 740 513 740C421 740 335 692 335 584C335 563 339 541 346 514L351 495L350 475V0H444V476L430 522C419 559 418 585 418 603C418 682 464 709 518 709C559 709 593 694 617 658ZM312 495H30V464H312ZM384 660C359 725 298 740 258 740C171 740 90 691 90 582C90 562 94 540 101 514L106 495L105 475V0H199V476L185 522C174 558 173 583 173 601C173 680.2593 214 708 263 708C304.0769 708 335.8149 688.4976 352 645ZM689 0V740L595 720V0ZM1081 254C1081 427 979 510 857 510C762 510 694 451 657 381L678 352C712 425 772 475 844 475C918 475 984 421 984 248C984 74 912 20 842 20C775 20 712 71 685 147L660 120C689 47 758 -15 853 -15C971 -15 1081 73 1081 254Z" glyph-name="f_f_b" horiz-adv-x="1121" /><glyph d="M529 495H275V464H529ZM643 679C607 732 552 740 513 740C421 740 335 692 335 584C335 563 339 541 346 514L351 495L350 475V0H444V476L430 522C419 559 418 585 418 603C418 682 464 709 518 709C559 709 593 694 617 658ZM312 495H30V464H312ZM384 660C359 725 298 740 258 740C171 740 90 691 90 582C90 562 94 540 101 514L106 495L105 475V0H199V476L185 522C174 558 173 583 173 601C173 680.2593 214 708 263 708C304.0769 708 335.8149 688.4976 352 645ZM595 0H689V740L595 720ZM672 355C732 440 787 473 841 473C902 473 936 429 936 346V0H1030V331C1030 473 942 510 861 510C788 510 723 473 661 392Z" glyph-name="f_f_h" horiz-adv-x="1088" /><glyph d="M616 495H275V464H616ZM595 0H689V495H595ZM676 632C659 704 603 740 521 740C426 740 335 692 335 582C335 561 339 539 351 495L350 475V0H444V476L430 522C422 550 418 575 418 601C418 677 468 709 533 709C590 709 631 679 644 624ZM312 495H30V464H312ZM384 660C359 725 298 740 258 740C171 740 90 691 90 582C90 562 94 540 101 514L106 495L105 475V0H199V476L185 522C174 558 173 583 173 601C173 680.2593 214 708 263 708C304.0769 708 335.8149 688.4976 352 645Z" glyph-name="f_f_i" horiz-adv-x="752" unicode="&#64259;" /><glyph d="M616 495H275V464H616ZM676 632C659 704 603 740 521 740C426 740 335 692 335 582C335 561 339 539 351 495L350 475V0H444V476L430 522C422 550 418 575 418 601C418 677 468 709 533 709C590 709 631 679 644 624ZM490 -190V-225C673 -174 689 -57 689 7V495H595V-41C595 -112 570 -164 490 -190ZM312 495H30V464H312ZM384 660C359 725 298 740 258 740C171 740 90 691 90 582C90 562 94 540 101 514L106 495L105 475V0H199V476L185 522C174 558 173 583 173 601C173 680.2593 214 708 263 708C304.0769 708 335.8149 688.4976 352 645Z" glyph-name="f_f_j" horiz-adv-x="752" /><glyph d="M529 495H275V464H529ZM643 679C607 732 552 740 513 740C421 740 335 692 335 584C335 563 339 541 346 514L351 495L350 475V0H444V476L430 522C419 559 418 585 418 603C418 682 464 709 518 709C559 709 593 694 617 658ZM312 495H30V464H312ZM384 660C359 725 298 740 258 740C171 740 90 691 90 582C90 562 94 540 101 514L106 495L105 475V0H199V476L185 522C174 558 173 583 173 601C173 680.2593 214 708 263 708C304.0769 708 335.8149 688.4976 352 645ZM595 0H689V740L595 720ZM721 266 907 0H1016L786 329ZM680 217 980 495H929L658 236Z" glyph-name="f_f_k" horiz-adv-x="1021" /><glyph d="M312 495H30V464H312ZM384 660C359 725 298 740 258 740C171 740 90 691 90 582C90 562 94 540 101 514L106 495L105 475V0H199V476L185 522C174 558 173 583 173 601C173 680.2593 214 708 263 708C304.0769 708 335.8149 688.4976 352 645ZM529 495H275V464H529ZM595 0H689V740L595 720ZM643 679C607 732 552 740 513 740C421 740 335 692 335 584C335 563 339 541 346 514L351 495L350 475V0H444V476L430 522C419 559 418 585 418 603C418 682 464 709 518 709C559 709 593 694 617 658Z" glyph-name="f_f_l" horiz-adv-x="752" unicode="&#64260;" /><glyph d="M535 495H275V464H535ZM616 666C593 726 535 740 497 740C412 740 333 691 333 582C333 562 339 540 346 514L351 495L350 475V0H444V476L430 522C419 559 416 583 416 601C416 681 455 709 502 709C541 709 571 692 586 652ZM638 618V131C638 43 680 0 767 0H853V31H801C743 31 732 62 732 121V618ZM855 495H579V464H855ZM312 495H30V464H312ZM384 660C359 725 298 740 258 740C171 740 90 691 90 582C90 562 94 540 101 514L106 495L105 475V0H199V476L185 522C174 558 173 583 173 601C173 680.2593 214 708 263 708C304.0769 708 335.8149 688.4976 352 645Z" glyph-name="f_f_t" horiz-adv-x="881" /><glyph d="M284 495H30V464H284ZM398 679C362 732 307 740 268 740C176 740 90 692 90 584C90 563 94 541 101 514L106 495L105 475V0H199V476L185 522C174 559 173 585 173 603C173 682 219 709 273 709C314 709 348 694 372 658ZM350 0H444V740L350 720ZM427 355C487 440 542 473 596 473C657 473 691 429 691 346V0H785V331C785 473 697 510 616 510C543 510 478 473 416 392Z" glyph-name="f_h" horiz-adv-x="843" /><glyph d="M371 495H30V464H371ZM350 0H444V495H350ZM431 632C414 704 358 740 276 740C181 740 90 692 90 582C90 561 94 539 106 495L105 475V0H199V476L185 522C177 550 173 575 173 601C173 677 223 709 288 709C345 709 386 679 399 624Z" glyph-name="f_i" horiz-adv-x="507" /><glyph d="M371 495H30V464H371ZM431 632C414 704 358 740 276 740C181 740 90 692 90 582C90 561 94 539 106 495L105 475V0H199V476L185 522C177 550 173 575 173 601C173 677 223 709 288 709C345 709 386 679 399 624ZM245 -190V-225C428 -174 444 -57 444 7V495H350V-41C350 -112 325 -164 245 -190Z" glyph-name="f_j" horiz-adv-x="507" /><glyph d="M284 495H30V464H284ZM398 679C362 732 307 740 268 740C176 740 90 692 90 584C90 563 94 541 101 514L106 495L105 475V0H199V476L185 522C174 559 173 585 173 603C173 682 219 709 273 709C314 709 348 694 372 658ZM350 0H444V740L350 720ZM476 266 662 0H771L541 329ZM435 217 735 495H684L413 236Z" glyph-name="f_k" horiz-adv-x="776" /><glyph d="M284 495H30V464H284ZM350 0H444V740L350 720ZM398 679C362 732 307 740 268 740C176 740 90 692 90 584C90 563 94 541 101 514L106 495L105 475V0H199V476L185 522C174 559 173 585 173 603C173 682 219 709 273 709C314 709 348 694 372 658Z" glyph-name="f_l" horiz-adv-x="507" /><glyph d="M290 495H30V464H290ZM371 666C348 726 290 740 252 740C167 740 88 691 88 582C88 562 94 540 101 514L106 495L105 475V0H199V476L185 522C174 559 171 583 171 601C171 681 210 709 257 709C296 709 326 692 341 652ZM393 618V131C393 43 435 0 522 0H608V31H556C498 31 487 62 487 121V618ZM610 495H334V464H610Z" glyph-name="f_t" horiz-adv-x="636" /><glyph d="M371 495H30V464H371ZM350 0H444V495H350ZM431 632C414 704 358 740 276 740C181 740 90 692 90 582C90 561 94 539 106 495L105 475V0H199V476L185 522C177 550 173 575 173 601C173 677 223 709 288 709C345 709 386 679 399 624Z" glyph-name="fi" horiz-adv-x="507" unicode="&#64257;" /><glyph d="M143 498H470V588H167C167 588 143 498 143 498ZM150 588 70 192H86L105 220L180 588ZM86 192C133 243 195 256 239 256C355 256 409 173 409 91C409 -32 333 -104 242 -104C171 -104 87.0159 -65.0643 63 32L31 24C59 -77 138 -135 251 -135C393 -135 503 -32 503 114C503 232 422 335 265 335C213 335 144 317 101 276Z" glyph-name="five" horiz-adv-x="547" unicode="5" /><glyph d="M155 582H492V680H181C181 680 155 582 155 582ZM152 680 72 304H88L111 332L188 680ZM88 304C138 356 205 372 249 372C363 372 422 293 422 207C422 90 345.3371 20 250 20C178.8202 20 90.9948 56.0229 69 152L33 144C60.9924 41.0278 143.4533 -15 261 -15C407.2989 -15 519 79.6107 519 228C519 348 440 454 272 454C216 454 137.4583 432.387 100 390Z" glyph-name="five.lin" horiz-adv-x="563" /><glyph d="M87 310H280V374H102C102 374 87 310 87 310ZM86 374 42 168H59L73 184L114 374ZM59 168C85 186 114 192 137 192C190 192 223 154 223 108C223 56 189 21 137 21C99 21 60 38 45 88L18 79C38 21 80 -8 145 -8C230 -8 293 46 293 128C293 196 245 253 152 253C119 253 87 245 62 228Z" glyph-name="five.sub" horiz-adv-x="318" /><glyph d="M87 616H280V680H102C102 680 87 616 87 616ZM86 680 42 474H59L73 490L114 680ZM59 474C85 492 114 498 137 498C190 498 223 460 223 414C223 362 189 327 137 327C99 327 60 344 45 394L18 385C38 327 80 298 145 298C230 298 293 352 293 434C293 502 245 559 152 559C119 559 87 551 62 534Z" glyph-name="five.sup" horiz-adv-x="318" /><glyph d="M109 616H302V680H124C124 680 109 616 109 616ZM108 680 64 474H81L95 490L136 680ZM81 474C107 492 136 498 159 498C212 498 245 460 245 414C245 362 211 327 159 327C121 327 82 344 67 394L40 385C60 327 102 298 167 298C252 298 315 352 315 434C315 502 267 559 174 559C141 559 109 551 84 534ZM633 224C552 251 534 271 534 300C534 335 568 355 613 355C663 355 697 332 697 295C697 251 666 223 629 213L645 198C700 213 747 245 747 296C747 350 690 384 613 384C536 384 476 344 476 281C476 238 490 203 597 164C682 133 700 118 700 82C700 43 661 21 610 21C556 21 511 44 511 99C511 140 539 171 575 185L564 202C499 183 457 145 457 93C457 30 523 -8 610 -8C698 -8 762 37 762 106C762 150 746 186 633 224ZM184 0 645 680H609L148 0Z" glyph-name="fiveeighths" horiz-adv-x="802" unicode="&#8541;" /><glyph d="M284 495H30V464H284ZM350 0H444V740L350 720ZM398 679C362 732 307 740 268 740C176 740 90 692 90 584C90 563 94 541 101 514L106 495L105 475V0H199V476L185 522C174 559 173 585 173 603C173 682 219 709 273 709C314 709 348 694 372 658Z" glyph-name="fl" horiz-adv-x="507" unicode="&#64258;" /><glyph d="M609 56C609 56 609 87 609 87H70L40 71V56ZM267 588C237.9726 353.7785 168 219 40 71H143C265 206 328.9679 342.7463 360 588ZM399 302V-125H495V302Z" glyph-name="four" horiz-adv-x="622" unicode="4" /><glyph d="M570 59C570 59 570 90 570 90H49L21 74V59ZM441 598 21 74H60L431 538ZM360 466V-125H456V598H441Z" glyph-name="four.alt" horiz-adv-x="583" /><glyph d="M620 180C620 180 620 215 620 215H70L40 195V180ZM254 680C227 459 160 334 40 195H148C263 322 323 449 352 680ZM407 410V0H509V410Z" glyph-name="four.lin" horiz-adv-x="636" /><glyph d="M576 180C576 180 576 215 576 215H49L21 195V180ZM447 698 21 195H64L440 638ZM360 566V0H462V698H447Z" glyph-name="four.linalt" horiz-adv-x="589" /><glyph d="M346 94C346 94 346 122 346 122H37L20 112V94ZM138 374C123 254 85 187 20 112H93C155 181 189 249 205 374ZM222 226V0H290V226Z" glyph-name="four.sub" horiz-adv-x="355" /><glyph d="M346 400C346 400 346 428 346 428H37L20 418V400ZM138 680C123 560 85 493 20 418H93C155 487 189 555 205 680ZM222 532V306H290V532Z" glyph-name="four.sup" horiz-adv-x="355" /><glyph d="M-144 0 317 680H281L-180 0Z" glyph-name="fraction" horiz-adv-x="137" unicode="&#8260;" /><glyph d="M379 353C379 282 342 216 260 216C177 216 138 270 138 348C138 425 185 480 261 480C331 480 379 430 379 353ZM505 495H333L353 463H505ZM262 186C351 186 466 247 466 351C466 458 352 510 260 510C156 510 51 451 51 348C51 228 194 186 262 186ZM168 18 316 3C392.0209 -4.7048 429 -27.6437 429 -83C429 -139 379 -199 266 -199H246C163 -199 106 -161 106 -93C106 -53 127.2512 -18.9865 168 4L207 26L198 49L124 10C73.1479 -16.8004 38 -52.8571 38 -100C38 -176.1719 120 -230 244 -230H267C415 -230 496 -136 496 -45C496 27 447.9871 73.0157 342 83L204 96C164 100 151 110 151 123C151 133 156.3994 141.7674 186 158L248 192L216 204L153 171C95.6912 140.9811 83 119 83 92C83 57 111.8214 30.1875 157 23Z" glyph-name="g" horiz-adv-x="532" unicode="g" /><glyph d="M40 251C40 89.5625 145 5 274 5C364 5 431 63 460 140L437 166C411 86 351 40 285 40C207 40 137 91.6211 137 257C137 423.3684 217 475 292 475C363 475 412 431 444 357L467 387C427 460 376 510 284 510C158 510 40 422.3829 40 251ZM432 495V16C432 -108.0204 387.8036 -190 267 -190C152.0175 -190 105.0205 -119.0733 93 -76L58 -89C82 -158 145 -223 278 -223C431 -223 526 -137.5975 526 28V495Z" glyph-name="g.alt" horiz-adv-x="589" /><glyph d="M379 353C379 282 342 216 260 216C177 216 138 270 138 348C138 425 185 480 261 480C331 480 379 430 379 353ZM505 495H333L353 463H505ZM262 186C351 186 466 247 466 351C466 458 352 510 260 510C156 510 51 451 51 348C51 228 194 186 262 186ZM168 18 316 3C392.0209 -4.7048 429 -27.6437 429 -83C429 -139 379 -199 266 -199H246C163 -199 106 -161 106 -93C106 -53 127.2512 -18.9865 168 4L207 26L198 49L124 10C73.1479 -16.8004 38 -52.8571 38 -100C38 -176.1719 120 -230 244 -230H267C415 -230 496 -136 496 -45C496 27 447.9871 73.0157 342 83L204 96C164 100 151 110 151 123C151 133 156.3994 141.7674 186 158L248 192L216 204L153 171C95.6912 140.9811 83 119 83 92C83 57 111.8214 30.1875 157 23ZM162 720C164.0333 639.6842 205 598 266 598C327 598 367.9667 639.6842 370 720H340C335.9996 673.9952 309.589 652 266 652C222.411 652 196.0004 673.9952 192 720Z" glyph-name="gbreve" horiz-adv-x="532" unicode="&#287;" /><glyph d="M203 720C205.0333 639.6842 246 598 307 598C368 598 408.9667 639.6842 411 720H381C376.9996 673.9952 350.589 652 307 652C263.411 652 237.0004 673.9952 233 720ZM40 251C40 89.5625 145 5 274 5C364 5 431 63 460 140L437 166C411 86 351 40 285 40C207 40 137 91.6211 137 257C137 423.3684 217 475 292 475C363 475 412 431 444 357L467 387C427 460 376 510 284 510C158 510 40 422.3829 40 251ZM432 495V16C432 -108.0204 387.8036 -190 267 -190C152.0175 -190 105.0205 -119.0733 93 -76L58 -89C82 -158 145 -223 278 -223C431 -223 526 -137.5975 526 28V495Z" glyph-name="gbreve.copy_1" horiz-adv-x="589" /><glyph d="M379 353C379 282 342 216 260 216C177 216 138 270 138 348C138 425 185 480 261 480C331 480 379 430 379 353ZM505 495H333L353 463H505ZM262 186C351 186 466 247 466 351C466 458 352 510 260 510C156 510 51 451 51 348C51 228 194 186 262 186ZM168 18 316 3C392.0209 -4.7048 429 -27.6437 429 -83C429 -139 379 -199 266 -199H246C163 -199 106 -161 106 -93C106 -53 127.2512 -18.9865 168 4L207 26L198 49L124 10C73.1479 -16.8004 38 -52.8571 38 -100C38 -176.1719 120 -230 244 -230H267C415 -230 496 -136 496 -45C496 27 447.9871 73.0157 342 83L204 96C164 100 151 110 151 123C151 133 156.3994 141.7674 186 158L248 192L216 204L153 171C95.6912 140.9811 83 119 83 92C83 57 111.8214 30.1875 157 23ZM159 582 145 598 267 731H278V662ZM390 582 271 662V731H282L404 598Z" glyph-name="gcircumflex" horiz-adv-x="532" unicode="&#285;" /><glyph d="M191 582 177 598 299 731H310V662ZM422 582 303 662V731H314L436 598ZM40 251C40 89.5625 145 5 274 5C364 5 431 63 460 140L437 166C411 86 351 40 285 40C207 40 137 91.6211 137 257C137 423.3684 217 475 292 475C363 475 412 431 444 357L467 387C427 460 376 510 284 510C158 510 40 422.3829 40 251ZM432 495V16C432 -108.0204 387.8036 -190 267 -190C152.0175 -190 105.0205 -119.0733 93 -76L58 -89C82 -158 145 -223 278 -223C431 -223 526 -137.5975 526 28V495Z" glyph-name="gcircumflex.copy_1" horiz-adv-x="589" /><glyph d="M379 353C379 282 342 216 260 216C177 216 138 270 138 348C138 425 185 480 261 480C331 480 379 430 379 353ZM505 495H333L353 463H505ZM262 186C351 186 466 247 466 351C466 458 352 510 260 510C156 510 51 451 51 348C51 228 194 186 262 186ZM168 18 316 3C392.0209 -4.7048 429 -27.6437 429 -83C429 -139 379 -199 266 -199H246C163 -199 106 -161 106 -93C106 -53 127.2512 -18.9865 168 4L207 26L198 49L124 10C73.1479 -16.8004 38 -52.8571 38 -100C38 -176.1719 120 -230 244 -230H267C415 -230 496 -136 496 -45C496 27 447.9871 73.0157 342 83L204 96C164 100 151 110 151 123C151 133 156.3994 141.7674 186 158L248 192L216 204L153 171C95.6912 140.9811 83 119 83 92C83 57 111.8214 30.1875 157 23ZM277 689C262 689 245 686 238 680L250 684C248 725 284 743 315 744V770C237 767 213 713 213 665C213 616 238 593 272 593C301 593 322 616 322 642C322 669 304 689 277 689Z" glyph-name="gcommaaccent" horiz-adv-x="532" /><glyph d="M307 689C292 689 275 686 268 680L280 684C278 725 314 743 345 744V770C267 767 243 713 243 665C243 616 268 593 302 593C331 593 352 616 352 642C352 669 334 689 307 689ZM40 251C40 89.5625 145 5 274 5C364 5 431 63 460 140L437 166C411 86 351 40 285 40C207 40 137 91.6211 137 257C137 423.3684 217 475 292 475C363 475 412 431 444 357L467 387C427 460 376 510 284 510C158 510 40 422.3829 40 251ZM432 495V16C432 -108.0204 387.8036 -190 267 -190C152.0175 -190 105.0205 -119.0733 93 -76L58 -89C82 -158 145 -223 278 -223C431 -223 526 -137.5975 526 28V495Z" glyph-name="gcommaaccent.copy_1" horiz-adv-x="589" /><glyph d="M379 353C379 282 342 216 260 216C177 216 138 270 138 348C138 425 185 480 261 480C331 480 379 430 379 353ZM505 495H333L353 463H505ZM262 186C351 186 466 247 466 351C466 458 352 510 260 510C156 510 51 451 51 348C51 228 194 186 262 186ZM168 18 316 3C392.0209 -4.7048 429 -27.6437 429 -83C429 -139 379 -199 266 -199H246C163 -199 106 -161 106 -93C106 -53 127.2512 -18.9865 168 4L207 26L198 49L124 10C73.1479 -16.8004 38 -52.8571 38 -100C38 -176.1719 120 -230 244 -230H267C415 -230 496 -136 496 -45C496 27 447.9871 73.0157 342 83L204 96C164 100 151 110 151 123C151 133 156.3994 141.7674 186 158L248 192L216 204L153 171C95.6912 140.9811 83 119 83 92C83 57 111.8214 30.1875 157 23ZM212 670C212 640 237 616 266 616C295 616 320 640 320 670C320 699 295 723 266 723C237 723 212 699 212 670Z" glyph-name="gdotaccent" horiz-adv-x="532" unicode="&#289;" /><glyph d="M245 670C245 640 270 616 299 616C328 616 353 640 353 670C353 699 328 723 299 723C270 723 245 699 245 670ZM40 251C40 89.5625 145 5 274 5C364 5 431 63 460 140L437 166C411 86 351 40 285 40C207 40 137 91.6211 137 257C137 423.3684 217 475 292 475C363 475 412 431 444 357L467 387C427 460 376 510 284 510C158 510 40 422.3829 40 251ZM432 495V16C432 -108.0204 387.8036 -190 267 -190C152.0175 -190 105.0205 -119.0733 93 -76L58 -89C82 -158 145 -223 278 -223C431 -223 526 -137.5975 526 28V495Z" glyph-name="gdotaccent.copy_1" horiz-adv-x="589" /><glyph d="M249 112 217 104C234 22 297 -15 368 -15C467 -15 541 54 541 156C541 232 496 281 423 348L309 453V419L506 715V730H257C140 730 63 666 63 536V0H157V557C157 647.5507 186 699 289 699H484L469 717L257 392V372L365 271C423 217 466 178 466 122C466 69 436 16 362 16C318 16 265 38 249 112Z" glyph-name="germandbls" horiz-adv-x="572" unicode="&#223;" /><glyph d="M104 731 55 678 203 576 217 590Z" glyph-name="grave" horiz-adv-x="261" unicode="`" /><glyph d="M71 857 43 797 209 745 216 760Z" glyph-name="grave.uc" horiz-adv-x="261" /><glyph d="M90 200V238L408 369V346L90 477V515L430 375V340Z" glyph-name="greater" horiz-adv-x="510" unicode="&gt;" /><glyph d="M324 116 239 272 324 428 304 442 157 272 304 102ZM192 116 107 272 192 428 172 442 25 272 172 102Z" glyph-name="guillemetleft" horiz-adv-x="354" unicode="&#171;" /><glyph d="M324 196 239 352 324 508 304 522 157 352 304 182ZM192 196 107 352 192 508 172 522 25 352 172 182Z" glyph-name="guillemetleft.uc" horiz-adv-x="354" /><glyph d="M30 428 115 272 30 116 50 102 197 272 50 442ZM162 428 247 272 162 116 182 102 329 272 182 442Z" glyph-name="guillemetright" horiz-adv-x="354" unicode="&#187;" /><glyph d="M30 508 115 352 30 196 50 182 197 352 50 522ZM162 508 247 352 162 196 182 182 329 352 182 522Z" glyph-name="guillemetright.uc" horiz-adv-x="354" /><glyph d="M192 116 107 272 192 428 172 442 25 272 172 102Z" glyph-name="guilsinglleft" horiz-adv-x="222" unicode="&#8249;" /><glyph d="M192 196 107 352 192 508 172 522 25 352 172 182Z" glyph-name="guilsinglleft.uc" horiz-adv-x="222" /><glyph d="M30 427 115 271 30 115 50 101 197 271 50 441Z" glyph-name="guilsinglright" horiz-adv-x="222" unicode="&#8250;" /><glyph d="M30 507 115 351 30 195 50 181 197 351 50 521Z" glyph-name="guilsinglright.uc" horiz-adv-x="222" /><glyph d="M63 0H157V740L63 720ZM140 355C200 440 255 473 309 473C370 473 404 429 404 346V0H498V331C498 473 410 510 329 510C256 510 191 473 129 392Z" glyph-name="h" horiz-adv-x="556" unicode="h" /><glyph d="M302 585V616H63H-26V585ZM63 0H157V740L63 720ZM140 355C200 440 255 473 309 473C370 473 404 429 404 346V0H498V331C498 473 410 510 329 510C256 510 191 473 129 392Z" glyph-name="hbar" horiz-adv-x="556" unicode="&#295;" /><glyph d="M63 0H157V740L63 720ZM140 355C200 440 255 473 309 473C370 473 404 429 404 346V0H498V331C498 473 410 510 329 510C256 510 191 473 129 392ZM3 764 -6 780 111 870H122V812ZM234 764 115 812V870H126L243 780Z" glyph-name="hcircumflex" horiz-adv-x="556" unicode="&#293;" /><glyph d="M173 731 221 681 74 576 62 588ZM337 731 385 681 238 576 226 588Z" glyph-name="hungarumlaut" horiz-adv-x="415" unicode="&#733;" /><glyph d="M336 858 369 806 217 745 208 759ZM172 860 206 808 55 745 46 759Z" glyph-name="hungarumlaut.uc" horiz-adv-x="415" /><glyph d="M312 294C312 294 312 330 312 330L80 300V264Z" glyph-name="hyphen" horiz-adv-x="392" unicode="-" /><glyph d="M312 354C312 354 312 390 312 390L80 360V324Z" glyph-name="hyphen.uc" horiz-adv-x="392" /><glyph d="M63 0H157V495H63ZM56 670C56 640 81 616 110 616C139 616 164 640 164 670C164 699 139 723 110 723C81 723 56 699 56 670Z" glyph-name="i" horiz-adv-x="220" unicode="i" /><glyph d="M63 0H157V495H63ZM56 670C56 640 81 616 110 616C139 616 164 640 164 670C164 699 139 723 110 723C81 723 56 699 56 670Z" glyph-name="i.TRK" horiz-adv-x="220" /><glyph d="M63 0H157V495H63ZM56 670C56 640 81 616 110 616C139 616 164 640 164 670C164 699 139 723 110 723C81 723 56 699 56 670Z" glyph-name="i.dot" horiz-adv-x="220" /><glyph d="M63 0H157V495H63ZM172 731 221 678 73 576 59 590Z" glyph-name="iacute" horiz-adv-x="220" unicode="&#237;" /><glyph d="M63 0H157V495H63ZM16.9906 720C19.0239 639.6842 59.9906 598 120.9906 598C181.9906 598 222.9573 639.6842 224.9906 720H194.9906C190.9902 673.9952 164.5796 652 120.9906 652C77.4016 652 50.991 673.9952 46.9906 720Z" glyph-name="ibreve" horiz-adv-x="220" unicode="&#301;" /><glyph d="M63 0H157V495H63ZM-1.5 582 -15.5 598 106.5 731H117.5V662ZM229.5 582 110.5 662V731H121.5L243.5 598Z" glyph-name="icircumflex" horiz-adv-x="220" unicode="&#238;" /><glyph d="M41 622C70 622 88 644 88 669C88 694 70 716 41 716C12 716 -6 694 -6 669C-6 644 12 622 41 622ZM177 622C206 622 224 644 224 669C224 694 206 716 177 716C148 716 129 694 129 669C129 644 148 622 177 622ZM63 0H157V495H63Z" glyph-name="idieresis" horiz-adv-x="220" unicode="&#239;" /><glyph d="M63 0H157V495H63ZM63 731 14 678 162 576 176 590Z" glyph-name="igrave" horiz-adv-x="220" unicode="&#236;" /><glyph d="M63 0H157V495H63ZM56 670C56 640 81 616 110 616C139 616 164 640 164 670C164 699 139 723 110 723C81 723 56 699 56 670ZM178 -192V-225C347 -176 377 -54 377 21V495H283V-45C283 -116 258 -165 178 -192ZM276 670C276 640 301 616 330 616C359 616 384 640 384 670C384 699 359 723 330 723C301 723 276 699 276 670Z" glyph-name="ij" horiz-adv-x="440" unicode="&#307;" /><glyph d="M199 654C199 654 199 689 199 689H20V654ZM63 0H157V495H63Z" glyph-name="imacron" horiz-adv-x="220" unicode="&#299;" /><glyph d="M190 462C238 462 285 425 327 357C293 293 242 252 188 252C136 252 99 289 99 357C99 425 137 462 190 462ZM348 323C395 248 446 218 505 218C574 218 636 261 636 357C636 454 577 496 511 496C452 496 396 467 348 391C301 466 250 496 191 496C122 496 60 453 60 357C60 260 119 218 185 218C244 218 300 247 348 323ZM506 252C458 252 411 289 369 357C403 421 454 462 508 462C560 462 597 425 597 357C597 289 559 252 506 252Z" glyph-name="infinity" horiz-adv-x="696" unicode="&#8734;" /><glyph d="M63 0H157V495H63ZM56 670C56 640 81 616 110 616C139 616 164 640 164 670C164 699 139 723 110 723C81 723 56 699 56 670ZM183 -140 162 -126C147.7318 -145.364 131 -161 108 -161C87.4737 -161 69 -148.3684 69 -121C69 -96.4065 81 -70 135 0H100C43 -68 14 -97 14 -136C14 -185 56.8718 -206 90 -206C137.011 -206 164 -174 183 -140Z" glyph-name="iogonek" horiz-adv-x="220" unicode="&#303;" /><glyph d="M63 0H157V495H63ZM229.5 718H201.5C195.5 690 185.5 679 168.5 679C143.5 679 99.8267 717 66.5 717C21.0974 717 0.4952 675.9756 -9.5 625H16.5C23.5261 656.6172 35.5 666 53.5 666C76.5 666 124.1863 628 156.5 628C196.9459 628 221.5 668 229.5 718Z" glyph-name="itilde" horiz-adv-x="220" unicode="&#297;" /><glyph d="M-42 -192V-225C127 -176 157 -54 157 21V495H63V-45C63 -116 38 -165 -42 -192ZM56 670C56 640 81 616 110 616C139 616 164 640 164 670C164 699 139 723 110 723C81 723 56 699 56 670Z" glyph-name="j" horiz-adv-x="220" unicode="j" /><glyph d="M-42 -190V-225C141 -174 157 -57 157 7V495H63V-41C63 -112 38 -164 -42 -190ZM-5 582 -19 598 103 731H114V662ZM226 582 107 662V731H118L240 598Z" glyph-name="jcircumflex" horiz-adv-x="220" unicode="&#309;" /><glyph d="M63 0H157V740L63 720ZM189 266 375 0H484L254 329ZM148 217 448 495H397L126 236Z" glyph-name="k" horiz-adv-x="489" unicode="k" /><glyph d="M63 0H157V740L63 720ZM189 266 375 0H484L254 329ZM148 217 448 495H397L126 236ZM255 -183C270 -183 287 -180 294 -174L282 -178C284 -219 248 -237 217 -238V-264C295 -261 319 -207 319 -159C319 -110 294 -87 260 -87C231 -87 210 -110 210 -136C210 -163 228 -183 255 -183Z" glyph-name="kcommaaccent" horiz-adv-x="489" /><glyph d="M63 0H157V740L63 720Z" glyph-name="l" horiz-adv-x="220" unicode="l" /><glyph d="M63 0H157V740L63 720ZM180 872 208 812 42 760 35 775Z" glyph-name="lacute" horiz-adv-x="220" unicode="&#314;" /><glyph d="M63 0H157V740L63 720ZM217 560H247L293 730H227Z" glyph-name="lcaron" horiz-adv-x="220" unicode="&#318;" /><glyph d="M63 0H157V740L63 720ZM102 -183C117 -183 134 -180 141 -174L129 -178C131 -219 95 -237 64 -238V-264C142 -261 166 -207 166 -159C166 -110 141 -87 107 -87C78 -87 57 -110 57 -136C57 -163 75 -183 102 -183Z" glyph-name="lcommaaccent" horiz-adv-x="220" /><glyph d="M63 0H157V740L63 720ZM268 280C303 280 327 307 327 339C327 371 303 398 268 398C234 398 209 371 209 339C209 307 234 280 268 280Z" glyph-name="ldot" horiz-adv-x="316" unicode="&#320;" /><glyph d="M420 200V238L102 369V346L420 477V515L80 375V340Z" glyph-name="less" horiz-adv-x="510" unicode="&lt;" /><glyph d="M233 424C233 424 233 462 233 462L13 312V274ZM76 0H170V740L76 720Z" glyph-name="lslash" horiz-adv-x="246" unicode="&#322;" /><glyph d="M63 0H157V495H63ZM140 355C198 439 251 473 301 473C358 473 390 429 390 346V0H484V331C484 473 398 510 320 510C249 510 188 470 129 392ZM467 355C525 439 578 473 628 473C685 473 717 429 717 346V0H811V331C811 473 725 510 647 510C576 510 515 470 456 392Z" glyph-name="m" horiz-adv-x="869" unicode="m" /><glyph d="M309 643C309 643 309 676 309 676H90V643Z" glyph-name="macron" horiz-adv-x="399" unicode="&#175;" /><glyph d="M309 782C309 782 309 817 309 817H90V782Z" glyph-name="macron.uc" horiz-adv-x="399" /><glyph d="M439 340C439 340 439 375 439 375H90V340Z" glyph-name="minus" horiz-adv-x="529" unicode="&#8722;" /><glyph d="M277 184C277 184 277 212 277 212H40V184Z" glyph-name="minus.sub" horiz-adv-x="317" /><glyph d="M277 490C277 490 277 518 277 518H40V490Z" glyph-name="minus.sup" horiz-adv-x="317" /><glyph d="M45 537H76L117 698H55Z" glyph-name="minute" horiz-adv-x="142" unicode="&#8242;" /><glyph d="M392 482C392 482 365 508 365 508L90 233L116 206ZM116 508C116 508 90 481 90 481L365 206L392 232Z" glyph-name="multiply" horiz-adv-x="482" unicode="&#215;" /><glyph d="M63 0H157V495H63ZM140 355C200.3428 440.4856 255 473 309 473C370 473 404 429.3438 404 346V0H498V331C498 473 410 510 329 510C255.6332 510 191.4481 472.5782 129 392Z" glyph-name="n" horiz-adv-x="556" unicode="n" /><glyph d="M63 0H157V495H63ZM140 355C200.3428 440.4856 255 473 309 473C370 473 404 429.3438 404 346V0H498V331C498 473 410 510 329 510C255.6332 510 191.4481 472.5782 129 392ZM358 731 407 678 259 576 245 590Z" glyph-name="nacute" horiz-adv-x="556" unicode="&#324;" /><glyph d="M63 0H157V495H63ZM140 355C200.3428 440.4856 255 473 309 473C370 473 404 429.3438 404 346V0H498V331C498 473 410 510 329 510C255.6332 510 191.4481 472.5782 129 392ZM411 730 425 714 303 581H292V650ZM180 730 299 650V581H288L166 714Z" glyph-name="ncaron" horiz-adv-x="556" unicode="&#328;" /><glyph d="M63 0H157V495H63ZM140 355C200.3428 440.4856 255 473 309 473C370 473 404 429.3438 404 346V0H498V331C498 473 410 510 329 510C255.6332 510 191.4481 472.5782 129 392ZM270 -183C285 -183 302 -180 309 -174L297 -178C299 -219 263 -237 232 -238V-264C310 -261 334 -207 334 -159C334 -110 309 -87 275 -87C246 -87 225 -110 225 -136C225 -163 243 -183 270 -183Z" glyph-name="ncommaaccent" horiz-adv-x="556" /><glyph d="M477 282C426.678 191.4204 359 154 290 154C196 154 143 236 143 355C143 497 203.8 567 295 567C393.7578 567 454 490 454 263C454 -20 369.8191 -104 261 -104C188.7987 -104 133.3707 -78.5354 97 -26L71 -45C112.3711 -102.5159 181.8421 -135 266 -135C393.2085 -135 554 -35 554 256C554 482 451.7863 598 294 598C171.024 598 42 509 42 356C42 209 141 122 271 122C369 122 440.7385 172.558 483 244Z" glyph-name="nine" horiz-adv-x="604" unicode="9" /><glyph d="M491 398C449 303 366 271 295 271C185 271 140 361 140 475C140 609 208 663 295 663C414 663 476 573 476 373C476 85 366 20 271 20C191 20 131 56 100 128L67 112C105 29 173 -15 274 -15C405 -15 578 75 578 358C578 573 486 698 296 698C162 698 40 607 40 455C40 321 121 232 281 232C369 232 467 276 499 356Z" glyph-name="nine.lin" horiz-adv-x="633" /><glyph d="M272 230C249 178 205 160 170 160C111 160 84 204 84 260C84 327 120 355 164 355C224 355 255 308 255 205C255 47 196 21 144 21C98 21 69 44 54 74L29 61C54 14 95 -8 156 -8C232 -8 325 39 325 197C325 315 274 384 164 384C77 384 15 333 15 254C15 179 61 128 147 128C207 128 257 154 275 196Z" glyph-name="nine.sub" horiz-adv-x="345" /><glyph d="M272 536C249 484 205 466 170 466C111 466 84 510 84 566C84 633 120 661 164 661C224 661 255 614 255 511C255 353 196 327 144 327C98 327 69 350 54 380L29 367C54 320 95 298 156 298C232 298 325 345 325 503C325 621 274 690 164 690C77 690 15 639 15 560C15 485 61 434 147 434C207 434 257 460 275 502Z" glyph-name="nine.sup" horiz-adv-x="345" /><glyph d="M182 159 385 556H347L144 159ZM439 420C439 420 439 455 439 455H90V420ZM439 260C439 260 439 295 439 295H90V260Z" glyph-name="notequal" horiz-adv-x="529" unicode="&#8800;" /><glyph d="M63 0H157V495H63ZM140 355C200.3428 440.4856 255 473 309 473C370 473 404 429.3438 404 346V0H498V331C498 473 410 510 329 510C255.6332 510 191.4481 472.5782 129 392ZM420 718H392C386 690 376 679 359 679C334 679 290.3267 717 257 717C211.5974 717 190.9952 675.9756 181 625H207C214.0261 656.6172 226 666 244 666C267 666 314.6863 628 347 628C387.4459 628 412 668 420 718Z" glyph-name="ntilde" horiz-adv-x="556" unicode="&#241;" /><glyph d="M295 680C295 680 258 680 258 680L162 0H199ZM67 179H509L523 277H81ZM99 407H541L555 505H113ZM462 680C462 680 425 680 425 680L329 0H366Z" glyph-name="numbersign" horiz-adv-x="615" unicode="#" /><glyph d="M40 247C40 78 176 -15 299 -15C422 -15 558 78 558 247C558 417 422 510 299 510C176 510 40 417 40 247ZM137 247C137 358 179 479 299 479C419 479 461 358 461 247C461 137 419 16 299 16C179 16 137 137 137 247Z" glyph-name="o" horiz-adv-x="598" unicode="o" /><glyph d="M40 247C40 78 176 -15 299 -15C422 -15 558 78 558 247C558 417 422 510 299 510C176 510 40 417 40 247ZM137 247C137 358 179 479 299 479C419 479 461 358 461 247C461 137 419 16 299 16C179 16 137 137 137 247ZM372 731 421 678 273 576 259 590Z" glyph-name="oacute" horiz-adv-x="598" unicode="&#243;" /><glyph d="M40 247C40 78 176 -15 299 -15C422 -15 558 78 558 247C558 417 422 510 299 510C176 510 40 417 40 247ZM137 247C137 358 179 479 299 479C419 479 461 358 461 247C461 137 419 16 299 16C179 16 137 137 137 247ZM205.9906 720C208.0239 639.6842 248.9906 598 309.9906 598C370.9906 598 411.9573 639.6842 413.9906 720H383.9906C379.9902 673.9952 353.5796 652 309.9906 652C266.4016 652 239.991 673.9952 235.9906 720Z" glyph-name="obreve" horiz-adv-x="598" unicode="&#335;" /><glyph d="M40 247C40 78 176 -15 299 -15C422 -15 558 78 558 247C558 417 422 510 299 510C176 510 40 417 40 247ZM137 247C137 358 179 479 299 479C419 479 461 358 461 247C461 137 419 16 299 16C179 16 137 137 137 247ZM184 582 170 598 292 731H303V662ZM415 582 296 662V731H307L429 598Z" glyph-name="ocircumflex" horiz-adv-x="598" unicode="&#244;" /><glyph d="M40 247C40 78 176 -15 299 -15C422 -15 558 78 558 247C558 417 422 510 299 510C176 510 40 417 40 247ZM137 247C137 358 179 479 299 479C419 479 461 358 461 247C461 137 419 16 299 16C179 16 137 137 137 247ZM216 622C245 622 263 644 263 669C263 694 245 716 216 716C187 716 169 694 169 669C169 644 187 622 216 622ZM382 622C411 622 429 644 429 669C429 694 411 716 382 716C353 716 334 694 334 669C334 644 353 622 382 622Z" glyph-name="odieresis" horiz-adv-x="598" unicode="&#246;" /><glyph d="M846 302H510V271H929C926 435 831 510 703 510C577 510 463 407 463 247C463 95 568 -15 714 -15C819 -15 882 41 916 125L886 138C862 77 815 16 719 16C621 16 550 97 550 247C550 399 623 479 703 479C792 479 840 404 833 287ZM40 247C40 78 174 -15 295 -15C411 -15 540 78 540 247C540 417 411 510 295 510C174 510 40 417 40 247ZM137 247C137 358 178 479 295 479C412 479 453 358 453 247C453 137 412 16 295 16C178 16 137 137 137 247Z" glyph-name="oe" horiz-adv-x="963" unicode="&#339;" /><glyph d="M270 -140 249 -126C234.7318 -145.364 218 -161 195 -161C174.4737 -161 156 -148.3684 156 -121C156 -96.4065 168 -70 222 0H187C130 -68 101 -97 101 -136C101 -185 143.8718 -206 177 -206C224.011 -206 251 -174 270 -140Z" glyph-name="ogonek" horiz-adv-x="500" unicode="&#731;" /><glyph d="M40 247C40 78 176 -15 299 -15C422 -15 558 78 558 247C558 417 422 510 299 510C176 510 40 417 40 247ZM137 247C137 358 179 479 299 479C419 479 461 358 461 247C461 137 419 16 299 16C179 16 137 137 137 247ZM253 731 204 678 352 576 366 590Z" glyph-name="ograve" horiz-adv-x="598" unicode="&#242;" /><glyph d="M40 247C40 78 176 -15 299 -15C422 -15 558 78 558 247C558 417 422 510 299 510C176 510 40 417 40 247ZM137 247C137 358 179 479 299 479C419 479 461 358 461 247C461 137 419 16 299 16C179 16 137 137 137 247ZM306 731 354 681 207 576 195 588ZM470 731 518 681 371 576 359 588Z" glyph-name="ohungarumlaut" horiz-adv-x="598" unicode="&#337;" /><glyph d="M40 247C40 78 176 -15 299 -15C422 -15 558 78 558 247C558 417 422 510 299 510C176 510 40 417 40 247ZM137 247C137 358 179 479 299 479C419 479 461 358 461 247C461 137 419 16 299 16C179 16 137 137 137 247ZM409 643C409 643 409 676 409 676H190V643Z" glyph-name="omacron" horiz-adv-x="598" unicode="&#333;" /><glyph d="M31 520V493L153 514V0H249V598H234C168.5083 564.2619 98.1327 536.5399 31 520Z" glyph-name="one" horiz-adv-x="337" unicode="1" /><glyph d="M31 620V592L153 609V0H255V698H240C173 663 100 637 31 620Z" glyph-name="one.lin" horiz-adv-x="343" /><glyph d="M13 337V312L80 323V0H148V384H140C99 363 55 347 13 337Z" glyph-name="one.sub" horiz-adv-x="202" /><glyph d="M13 643V618L80 629V306H148V690H140C99 669 55 653 13 643Z" glyph-name="one.sup" horiz-adv-x="202" /><glyph d="M567 224C486 251 468 271 468 300C468 335 502 355 547 355C597 355 631 332 631 295C631 251 600 223 563 213L579 198C634 213 681 245 681 296C681 350 624 384 547 384C470 384 410 344 410 281C410 238 424 203 531 164C616 133 634 118 634 82C634 43 595 21 544 21C490 21 445 44 445 99C445 140 473 171 509 185L498 202C433 183 391 145 391 93C391 30 457 -8 544 -8C632 -8 696 37 696 106C696 150 680 186 567 224ZM108 0 569 680H533L72 0ZM60 643V618L127 629V306H195V690H187C146 669 102 653 60 643Z" glyph-name="oneeighth" horiz-adv-x="736" unicode="&#8539;" /><glyph d="M388 18C388 18 388 0 388 0H664V64H453ZM406 18 569 144C625 188 661 224 661 277C661 335 616 384 525 384C450 384 400 345 393 276L421 274C424 329 468 355 513 355C566 355 589 321 589 283C589 250 577 212 523 157L388 18ZM108 0 569 680H533L72 0ZM60 643V618L127 629V306H195V690H187C146 669 102 653 60 643Z" glyph-name="onehalf" horiz-adv-x="704" unicode="&#189;" /><glyph d="M108 0 569 680H533L72 0ZM669 94C669 94 669 122 669 122H360L343 112V94ZM461 374C446 254 408 187 343 112H416C478 181 512 249 528 374ZM545 226V0H613V226ZM60 643V618L127 629V306H195V690H187C146 669 102 653 60 643Z" glyph-name="onequarter" horiz-adv-x="719" unicode="&#188;" /><glyph d="M668 356C668 356 668 374 668 374H419V310H613ZM483 187C499 191 509 192 521 192C584 192 612 149 612 108C612 55 567 21 521 21C486 21 440 35 430 87L403 79C418 16 471 -8 529 -8C615 -8 684 39 684 125C684 189 643 245 551 245C546 245 539 244 532 242ZM630 356 483 203V187L534 218L668 356ZM98 0 559 680H523L62 0ZM50 643V618L117 629V306H185V690H177C136 669 92 653 50 643Z" glyph-name="onethird" horiz-adv-x="724" unicode="&#8531;" /><glyph d="M103 0 539 495H495L59 0ZM40 247C40 78 176 -15 299 -15C422 -15 558 78 558 247C558 417 422 510 299 510C176 510 40 417 40 247ZM137 247C137 358 179 479 299 479C419 479 461 358 461 247C461 137 419 16 299 16C179 16 137 137 137 247Z" glyph-name="oslash" horiz-adv-x="598" unicode="&#248;" /><glyph d="M103 0 539 495H495L59 0ZM40 247C40 78 176 -15 299 -15C422 -15 558 78 558 247C558 417 422 510 299 510C176 510 40 417 40 247ZM137 247C137 358 179 479 299 479C419 479 461 358 461 247C461 137 419 16 299 16C179 16 137 137 137 247ZM372 731 421 678 273 576 259 590Z" glyph-name="oslashacute" horiz-adv-x="598" unicode="&#511;" /><glyph d="M40 247C40 78 176 -15 299 -15C422 -15 558 78 558 247C558 417 422 510 299 510C176 510 40 417 40 247ZM137 247C137 358 179 479 299 479C419 479 461 358 461 247C461 137 419 16 299 16C179 16 137 137 137 247ZM419 718H391C385 690 375 679 358 679C333 679 289.3267 717 256 717C210.5974 717 189.9952 675.9756 180 625H206C213.0261 656.6172 225 666 243 666C266 666 313.6863 628 346 628C386.4459 628 411 668 419 718Z" glyph-name="otilde" horiz-adv-x="598" unicode="&#245;" /><glyph d="M63 -210H157V495H63ZM549 254C549 427 447 510 325 510C230 510 162 451 125 381L146 352C180 425 240 475 312 475C386 475 452 421 452 248C452 74 380 20 310 20C243 20 180 71 153 147L128 120C157 47 226 -15 321 -15C439 -15 549 73 549 254Z" glyph-name="p" horiz-adv-x="589" unicode="p" /><glyph d="M355 -115H318V680H355ZM503 -115H466V680H503ZM279 645C167 645 113 564 113 465C113 359 179 285 263 280V248C132 248 26 342 26 463C26 582 119 680 279 680H582V645Z" glyph-name="paragraph" horiz-adv-x="612" unicode="&#182;" /><glyph d="M125 305C125 561.0262 229 705 348 804L326 831C181 719 50 555 50 305ZM125 305H50C50 54 180 -109 326 -221L348 -194C227.2293 -96.1858 125 51.492 125 305Z" glyph-name="parenleft" horiz-adv-x="324" unicode="(" /><glyph d="M125 340C125 577 235 703 351 781L335 810C181 723 50 568 50 340ZM125 340H50C50 112 181 -43 335 -130L351 -101C233 -23 125 103 125 340Z" glyph-name="parenleft.uc" horiz-adv-x="328" /><glyph d="M199 305C199 48.9738 95 -95 -24 -194L-2 -221C143 -109 274 55 274 305ZM199 305H274C274 556 144 719 -2 831L-24 804C96.7707 706.1858 199 558.508 199 305Z" glyph-name="parenright" horiz-adv-x="324" unicode=")" /><glyph d="M203 340C203 103 93 -23 -23 -101L-7 -130C147 -43 278 112 278 340ZM203 340H278C278 568 147 723 -7 810L-23 781C95 703 203 577 203 340Z" glyph-name="parenright.uc" horiz-adv-x="328" /><glyph d="M118 0H75L609 680H652ZM193 433C267 433 326 493 326 566C326 639 267 698 193 698C119 698 60 639 60 566C60 493 119 433 193 433ZM193 468C141 468 99 511 99 566C99 620 141 663 193 663C245 663 287 620 287 566C287 511 245 468 193 468ZM534 -15C608 -15 667 45 667 118C667 191 608 250 534 250C460 250 401 191 401 118C401 45 460 -15 534 -15ZM534 20C482 20 440 63 440 118C440 172 482 215 534 215C586 215 628 172 628 118C628 63 586 20 534 20Z" glyph-name="percent" horiz-adv-x="727" unicode="%" /><glyph d="M119 -15C154 -15 178 12 178 44C178 76 154 103 119 103C85 103 60 76 60 44C60 12 85 -15 119 -15Z" glyph-name="period" horiz-adv-x="238" unicode="." /><glyph d="M139 280C174 280 198 307 198 339C198 371 174 398 139 398C105 398 80 371 80 339C80 307 105 280 139 280Z" glyph-name="periodcentered" horiz-adv-x="278" unicode="&#183;" /><glyph d="M118 0H75L609 680H652ZM193 433C267 433 326 493 326 566C326 639 267 698 193 698C119 698 60 639 60 566C60 493 119 433 193 433ZM193 468C141 468 99 511 99 566C99 620 141 663 193 663C245 663 287 620 287 566C287 511 245 468 193 468ZM534 -15C608 -15 667 45 667 118C667 191 608 250 534 250C460 250 401 191 401 118C401 45 460 -15 534 -15ZM534 20C482 20 440 63 440 118C440 172 482 215 534 215C586 215 628 172 628 118C628 63 586 20 534 20ZM859 -15C933 -15 992 45 992 118C992 191 933 250 859 250C785 250 726 191 726 118C726 45 785 -15 859 -15ZM859 20C807 20 765 63 765 118C765 172 807 215 859 215C911 215 953 172 953 118C953 63 911 20 859 20Z" glyph-name="perthousand" horiz-adv-x="1052" unicode="&#8240;" /><glyph d="M439 340C439 340 439 375 439 375H90V340ZM283 532C283 532 246 532 246 532V182H283Z" glyph-name="plus" horiz-adv-x="529" unicode="+" /><glyph d="M277 184C277 184 277 212 277 212H40V184ZM173 316C173 316 144 316 144 316V80H173Z" glyph-name="plus.sub" horiz-adv-x="317" /><glyph d="M277 490C277 490 277 518 277 518H40V490ZM173 622C173 622 144 622 144 622V386H173Z" glyph-name="plus.sup" horiz-adv-x="317" /><glyph d="M439 62C439 62 439 97 439 97H90V62ZM439 340C439 340 439 375 439 375H90V340ZM283 532C283 532 246 532 246 532V182H283Z" glyph-name="plusminus" horiz-adv-x="529" unicode="&#177;" /><glyph d="M526 -210V495H432V-210ZM40 241C40 73 145 -15 274 -15C364 -15 431 43 460 120L437 146C411 66 351 20 285 20C207 20 137 74 137 247C137 421 217 475 292 475C363 475 412 431 444 357L467 387C427 460 376 510 284 510C158 510 40 419 40 241Z" glyph-name="q" horiz-adv-x="589" unicode="q" /><glyph d="M241 306C419.8419 344.9655 485 437.9054 485 533C485 638.1123 408 715 261 715C161 715 74.8485 663.3699 50 560L85 551C107.8325 647.2937 179 680 247 680C340 680 380 610.4 380 535C380 468.3418 357.8695 363.9726 215 334ZM215 213H249V334H215ZM230 -15C265 -15 289 12 289 44C289 76 265 103 230 103C196 103 171 76 171 44C171 12 196 -15 230 -15Z" glyph-name="question" horiz-adv-x="530" unicode="?" /><glyph d="M311 189C132.1581 150.0345 67 57.0946 67 -38C67 -143.1123 144 -220 291 -220C391 -220 477.1515 -168.3699 502 -65L467 -56C444.1675 -152.2937 373 -185 305 -185C212 -185 172 -115.4 172 -40C172 26.6582 194.1305 131.0274 337 161ZM337 282H303V161H337ZM322 510C287 510 263 483 263 451C263 419 287 392 322 392C356 392 381 419 381 451C381 483 356 510 322 510Z" glyph-name="questiondown" horiz-adv-x="530" unicode="&#191;" /><glyph d="M311 394C132.1581 355.0345 67 262.0946 67 167C67 61.8877 144 -15 291 -15C391 -15 477.1515 36.6301 502 140L467 149C444.1675 52.7063 373 20 305 20C212 20 172 89.6 172 165C172 231.6582 194.1305 336.0274 337 366ZM337 487H303V366H337ZM322 715C287 715 263 688 263 656C263 624 287 597 322 597C356 597 381 624 381 656C381 688 356 715 322 715Z" glyph-name="questiondown.uc" horiz-adv-x="530" /><glyph d="M60 569H93L113 730H40ZM173 569H206L226 730H153Z" glyph-name="quotedbl" horiz-adv-x="266" unicode="&quot;" /><glyph d="M91 -9C106 -9 122 -3 130 3L119 2C123 -41 84 -57 53 -58V-84C133 -81 158 -27 158 21C158 70 132 93 96 93C65 93 43 69 43 41C43 12 62 -9 91 -9ZM245 -9C260 -9 276 -3 284 3L273 2C277 -41 238 -57 207 -58V-84C287 -81 312 -27 312 21C312 70 286 93 250 93C219 93 197 69 197 41C197 12 216 -9 245 -9Z" glyph-name="quotedblbase" horiz-adv-x="352" unicode="&#8222;" /><glyph d="M261 658C246 658 230 652 222 646L233 647C229 690 268 706 299 707V733C219 730 194 676 194 628C194 579 220 556 256 556C287 556 309 580 309 608C309 637 290 658 261 658ZM107 658C92 658 76 652 68 646L79 647C75 690 114 706 145 707V733C65 730 40 676 40 628C40 579 66 556 102 556C133 556 155 580 155 608C155 637 136 658 107 658Z" glyph-name="quotedblleft" horiz-adv-x="352" unicode="&#8220;" /><glyph d="M91 636C106 636 122 642 130 648L119 647C123 604 84 588 53 587V561C133 564 158 618 158 666C158 715 132 738 96 738C65 738 43 714 43 686C43 657 62 636 91 636ZM245 636C260 636 276 642 284 648L273 647C277 604 238 588 207 587V561C287 564 312 618 312 666C312 715 286 738 250 738C219 738 197 714 197 686C197 657 216 636 245 636Z" glyph-name="quotedblright" horiz-adv-x="352" unicode="&#8221;" /><glyph d="M107 658C92 658 76 652 68 646L79 647C75 690 114 706 145 707V733C65 730 40 676 40 628C40 579 66 556 102 556C133 556 155 580 155 608C155 637 136 658 107 658Z" glyph-name="quoteleft" horiz-adv-x="198" unicode="&#8216;" /><glyph d="M91 636C106 636 122 642 130 648L119 647C123 604 84 588 53 587V561C133 564 158 618 158 666C158 715 132 738 96 738C65 738 43 714 43 686C43 657 62 636 91 636Z" glyph-name="quoteright" horiz-adv-x="198" unicode="&#8217;" /><glyph d="M91 -9C106 -9 122 -3 130 3L119 2C123 -41 84 -57 53 -58V-84C133 -81 158 -27 158 21C158 70 132 93 96 93C65 93 43 69 43 41C43 12 62 -9 91 -9Z" glyph-name="quotesinglbase" horiz-adv-x="198" unicode="&#8218;" /><glyph d="M60 569H93L113 730H40Z" glyph-name="quotesingle" horiz-adv-x="153" unicode="'" /><glyph d="M318 431V505H302C239 505 170 459 147 376L155 341C171.9905 406.9632 202.5676 431 265 431ZM63 0H157V495H63Z" glyph-name="r" horiz-adv-x="336" unicode="r" /><glyph d="M318 431V505H302C239 505 170 459 147 376L155 341C171.9905 406.9632 202.5676 431 265 431ZM63 0H157V495H63ZM286 731 335 678 187 576 173 590Z" glyph-name="racute" horiz-adv-x="336" unicode="&#341;" /><glyph d="M318 431V505H302C239 505 170 459 147 376L155 341C171.9905 406.9632 202.5676 431 265 431ZM63 0H157V495H63ZM330 730 344 714 222 581H211V650ZM99 730 218 650V581H207L85 714Z" glyph-name="rcaron" horiz-adv-x="336" unicode="&#345;" /><glyph d="M318 431V505H302C239 505 170 459 147 376L155 341C171.9905 406.9632 202.5676 431 265 431ZM63 0H157V495H63ZM109 -183C124 -183 141 -180 148 -174L136 -178C138 -219 102 -237 71 -238V-264C149 -261 173 -207 173 -159C173 -110 148 -87 114 -87C85 -87 64 -110 64 -136C64 -163 82 -183 109 -183Z" glyph-name="rcommaaccent" horiz-adv-x="336" /><glyph d="M289 304C416 304 518 408 518 533C518 658 416 762 289 762C162 762 60 659 60 533C60 408 162 304 289 304ZM289 335C182 335 96 423 96 533C96 643 182 731 289 731C396 731 482 643 482 533C482 423 396 335 289 335ZM271 541 343 430H393L315 547ZM245 536H290L297 539C337 542 374 563 374 602C374 642 340 658 297 658H247V638H284C311 638 328 626 328 600C328 569 307 556 284 556H245ZM212 430H257V658H212Z" glyph-name="registered" horiz-adv-x="578" unicode="&#174;" /><glyph d="M182 617C228.6463 617 267 653 267 699C267 745 228.5476 781 182 781C134.4405 781 97 745 97 699C97 653 134.3171 617 182 617ZM182 649C156 649 135 669 135 699C135 729 156 749 182 749C208 749 229 729 229 699C229 669 208 649 182 649Z" glyph-name="ring" horiz-adv-x="364" unicode="&#730;" /><glyph d="M182 749C229 749 267 785 267 831C267 877 229 913 182 913C134 913 97 877 97 831C97 785 134 749 182 749ZM182 781C156 781 135 801 135 831C135 861 156 881 182 881C208 881 229 861 229 831C229 801 208 781 182 781Z" glyph-name="ring.uc" horiz-adv-x="364" /><glyph d="M70 112 36 104C54 18 127 -15 210 -15C314 -15 389 51 389 144C389 204 347 245 283 276L201 316C150.7985 340.4886 127 360.0361 127 401C127 447.2 163 478 223 478C284 478 325.1438 450.3171 337 394L371 401C355 479 292 510 225 510C119 510 58 446.9275 58 374C58 300.9787 106.7386 256.6849 162 231L233 198C290 172 314 145 314 107C314 57.5495 280 17 209 17C149.8511 17 85.9904 36.0454 70 112Z" glyph-name="s" horiz-adv-x="425" unicode="s" /><glyph d="M70 112 36 104C54 18 127 -15 210 -15C314 -15 389 51 389 144C389 204 347 245 283 276L201 316C150.7985 340.4886 127 360.0361 127 401C127 447.2 163 478 223 478C284 478 325.1438 450.3171 337 394L371 401C355 479 292 510 225 510C119 510 58 446.9275 58 374C58 300.9787 106.7386 256.6849 162 231L233 198C290 172 314 145 314 107C314 57.5495 280 17 209 17C149.8511 17 85.9904 36.0454 70 112ZM289 731 338 678 190 576 176 590Z" glyph-name="sacute" horiz-adv-x="425" unicode="&#347;" /><glyph d="M70 112 36 104C54 18 127 -15 210 -15C314 -15 389 51 389 144C389 204 347 245 283 276L201 316C150.7985 340.4886 127 360.0361 127 401C127 447.2 163 478 223 478C284 478 325.1438 450.3171 337 394L371 401C355 479 292 510 225 510C119 510 58 446.9275 58 374C58 300.9787 106.7386 256.6849 162 231L233 198C290 172 314 145 314 107C314 57.5495 280 17 209 17C149.8511 17 85.9904 36.0454 70 112ZM337 730 351 714 229 581H218V650ZM106 730 225 650V581H214L92 714Z" glyph-name="scaron" horiz-adv-x="425" unicode="&#353;" /><glyph d="M70 112 36 104C54 18 127 -15 210 -15C314 -15 389 51 389 144C389 204 347 245 283 276L201 316C150.7985 340.4886 127 360.0361 127 401C127 447.2 163 478 223 478C284 478 325.1438 450.3171 337 394L371 401C355 479 292 510 225 510C119 510 58 446.9275 58 374C58 300.9787 106.7386 256.6849 162 231L233 198C290 172 314 145 314 107C314 57.5495 280 17 209 17C149.8511 17 85.9904 36.0454 70 112ZM298 -144C298 -93.2857 249.4286 -73 213 -73C194 -73 183 -75 172 -80L178 -89L230 0H197L140 -98L148 -110C164 -103 177.1176 -100 193 -100C221 -100 245 -115.3261 245 -147C245 -182.3077 220.5385 -198 192 -198C165.4426 -198 143.2335 -188.5944 132 -160L107 -171C119.8427 -204.5886 155.6207 -228 197 -228C249.4423 -228 298 -202 298 -144Z" glyph-name="scedilla" horiz-adv-x="425" unicode="&#351;" /><glyph d="M70 112 36 104C54 18 127 -15 210 -15C314 -15 389 51 389 144C389 204 347 245 283 276L201 316C150.7985 340.4886 127 360.0361 127 401C127 447.2 163 478 223 478C284 478 325.1438 450.3171 337 394L371 401C355 479 292 510 225 510C119 510 58 446.9275 58 374C58 300.9787 106.7386 256.6849 162 231L233 198C290 172 314 145 314 107C314 57.5495 280 17 209 17C149.8511 17 85.9904 36.0454 70 112ZM112 582 98 598 220 731H231V662ZM343 582 224 662V731H235L357 598Z" glyph-name="scircumflex" horiz-adv-x="425" unicode="&#349;" /><glyph d="M70 112 36 104C54 18 127 -15 210 -15C314 -15 389 51 389 144C389 204 347 245 283 276L201 316C150.7985 340.4886 127 360.0361 127 401C127 447.2 163 478 223 478C284 478 325.1438 450.3171 337 394L371 401C355 479 292 510 225 510C119 510 58 446.9275 58 374C58 300.9787 106.7386 256.6849 162 231L233 198C290 172 314 145 314 107C314 57.5495 280 17 209 17C149.8511 17 85.9904 36.0454 70 112ZM200 -183C215 -183 232 -180 239 -174L227 -178C229 -219 193 -237 162 -238V-264C240 -261 264 -207 264 -159C264 -110 239 -87 205 -87C176 -87 155 -110 155 -136C155 -163 173 -183 200 -183Z" glyph-name="scommaaccent" horiz-adv-x="425" unicode="&#537;" /><glyph d="M45 537H76L117 698H55ZM153 537H184L225 698H163Z" glyph-name="second" horiz-adv-x="250" unicode="&#8243;" /><glyph d="M81 37 45 34C51 -83 131 -130 218 -130C329.5936 -130 406 -51.3441 406 60C406 152.3139 347.785 199.1496 233 279C142 342 100 366 100 445C100 494 132.2497 532.262 193 545L195 581C103.9301 564.9877 46 497.9494 46 419C46 303.216 138.1069 260.9221 208 210C304.5528 142.0189 350 102 350 35C350 -29 303.6963 -95 217 -95C157 -95 89 -71 81 37ZM367 -13C456.7178 20.2662 514 75.45 514 170C514 264.7313 456.9158 310.061 341 394C251 459 208 481 208 559C208 618 252.2742 664 330 664C392 664 441 629 454 554L490 562C472 666 400 698 330 698C215.3523 698 153 624.1538 153 538C153 420.212 245.0397 375.9715 316 325C412.9239 255.7687 460 219 460 153C460 99 433.6158 47.6777 362 31Z" glyph-name="section" horiz-adv-x="548" unicode="&#167;" /><glyph d="M119 321C154 321 178 348 178 380C178 412 154 439 119 439C85 439 60 412 60 380C60 348 85 321 119 321ZM117 -15C132 -15 145.651 -8.2327 155 -2L143 -3C147 -51 102 -72 66 -73V-101C157 -95 184 -46.5574 184 22C184 76 156 103 119 103C85 103 60 75 60 43C60 10 82 -15 117 -15Z" glyph-name="semicolon" horiz-adv-x="238" unicode=";" /><glyph d="M485 573C485 573 485 588 485 588H47V498H439ZM452 573 136 -125H177L485 573Z" glyph-name="seven" horiz-adv-x="517" unicode="7" /><glyph d="M528 665C528 665 528 680 528 680H50V582H482ZM495 665 149 0H190L528 665Z" glyph-name="seven.lin" horiz-adv-x="543" /><glyph d="M290 356C290 356 290 374 290 374H28V310H255ZM263 356 71 0H105L290 356Z" glyph-name="seven.sub" horiz-adv-x="299" /><glyph d="M290 662C290 662 290 680 290 680H28V616H255ZM263 662 71 306H105L290 662Z" glyph-name="seven.sup" horiz-adv-x="299" /><glyph d="M302 662C302 662 302 680 302 680H40V616H267ZM275 662 83 306H117L302 662ZM538 224C457 251 439 271 439 300C439 335 473 355 518 355C568 355 602 332 602 295C602 251 571 223 534 213L550 198C605 213 652 245 652 296C652 350 595 384 518 384C441 384 381 344 381 281C381 238 395 203 502 164C587 133 605 118 605 82C605 43 566 21 515 21C461 21 416 44 416 99C416 140 444 171 480 185L469 202C404 183 362 145 362 93C362 30 428 -8 515 -8C603 -8 667 37 667 106C667 150 651 186 538 224ZM89 0 550 680H514L53 0Z" glyph-name="seveneighths" horiz-adv-x="707" unicode="&#8542;" /><glyph d="M127 301C176.7134 394.3395 261.484 429 320 429C417.4559 429 461 348 461 229C461 79 402.9856 16 317 16C206.6975 16 150 113 150 320C150 608 242 687 353 687C423 687 476.6765 661.542 514 599L541 617C503 677 440 718 351 718C221 718 50 623 50 338C50 117 148 -15 314 -15C436 -15 562 72 562 240C562 377 479.1422 461 339 461C250.9812 461 162.5696 413.0142 121 339Z" glyph-name="six" horiz-adv-x="604" unicode="6" /><glyph d="M137 285C179 380 262 412 333 412C443 412 488 322 488 208C488 74 420 20 333 20C214 20 152 110 152 310C152 598 262 663 357 663C437 663 497 627 528 555L561 571C523 654 455 698 354 698C223 698 50 608 50 325C50 110 142 -15 332 -15C466 -15 588 76 588 228C588 362 507 451 347 451C259 451 161 407 129 327Z" glyph-name="six.lin" horiz-adv-x="633" /><glyph d="M73 146C96 198 140 216 175 216C234 216 261 173 261 117C261 50 225 21 181 21C121 21 90 68 90 171C90 329 156 355 205 355C251 355 276 331 291 302L316 315C292 360 256 384 195 384C123 384 20 337 20 179C20 59 71 -8 181 -8C267 -8 330 46 330 125C330 200 287 248 201 248C141 248 88 222 70 180Z" glyph-name="six.sub" horiz-adv-x="345" /><glyph d="M73 452C96 504 140 522 175 522C234 522 261 479 261 423C261 356 225 327 181 327C121 327 90 374 90 477C90 635 156 661 205 661C251 661 276 637 291 608L316 621C292 666 256 690 195 690C123 690 20 643 20 485C20 365 71 298 181 298C267 298 330 352 330 431C330 506 287 554 201 554C141 554 88 528 70 486Z" glyph-name="six.sup" horiz-adv-x="345" /><glyph d="M8 -190 411 780H375L-28 -190Z" glyph-name="slash" horiz-adv-x="408" unicode="/" /><glyph glyph-name="space" horiz-adv-x="210" unicode=" " /><glyph d="M154 98C186.1368 136.1625 225 188.3007 225 255C225 360.391 203 424.4135 203 517C203 625 249 664 328 664C409.7391 664 455.9857 618.0813 469 544L505 551C485.9856 653.0771 416 698 322 698C172 698 96 615.3194 96 510C96 423.9313 156 315.9434 156 235C156 147 132 109 61 15ZM499 0C499 0 499 98 499 98H142L61 15V0ZM416 328C416 328 416 363 416 363H42V328Z" glyph-name="sterling" horiz-adv-x="553" unicode="&#163;" /><glyph d="M88 638V131C88 43 130 0 217 0H303V31H251C193 31 182 62 182 121V638ZM305 495H23V464H305Z" glyph-name="t" horiz-adv-x="338" unicode="t" /><glyph d="M88 638V131C88 43 130 0 217 0H303V31H251C193 31 182 62 182 121V638ZM305 495H23V464H305ZM305 326H23V295H305Z" glyph-name="tbar" horiz-adv-x="338" unicode="&#359;" /><glyph d="M88 638V131C88 43 130 0 217 0H303V31H251C193 31 182 62 182 121V638ZM305 495H23V464H305ZM240 560H270L316 730H250Z" glyph-name="tcaron" horiz-adv-x="338" unicode="&#357;" /><glyph d="M88 638V131C88 43 130 0 217 0H303V31H251C193 31 182 62 182 121V638ZM305 495H23V464H305ZM184 -183C199 -183 216 -180 223 -174L211 -178C213 -219 177 -237 146 -238V-264C224 -261 248 -207 248 -159C248 -110 223 -87 189 -87C160 -87 139 -110 139 -136C139 -163 157 -183 184 -183Z" glyph-name="tcommaaccent" horiz-adv-x="338" unicode="&#539;" /><glyph glyph-name="thinspace" horiz-adv-x="150" unicode="&#8201;" /><glyph d="M63 -210H157V740L63 720ZM549 254C549 427 447 510 325 510C230 510 162 451 125 381L146 352C180 425 240 475 312 475C386 475 452 421 452 248C452 74 380 20 310 20C243 20 180 71 153 147L128 120C157 47 226 -15 321 -15C439 -15 549 73 549 254Z" glyph-name="thorn" horiz-adv-x="589" unicode="&#254;" /><glyph d="M508 573C508 573 508 588 508 588H73V498H408ZM182 244C209 251 227 254 249 254C384 254 442 167 442 85C442 -41 358 -104 264 -104C191 -104 106 -74 78 32L46 24C79 -91 166 -135 271 -135C411 -135 536 -44 536 113C536 229 443 329 289 329C279 329 267 328 254 326ZM466 573 182 259V244L248 287L508 573Z" glyph-name="three" horiz-adv-x="587" unicode="3" /><glyph d="M512 665C512 665 512 680 512 680H77V582H412ZM196 357C223 364 241 367 263 367C391 367 442 284 442 205C442 79 354 20 264 20C192 20 108 46 86 152L50 144C75 29 171 -15 276 -15C419 -15 540 76 540 233C540 344 451 444 303 444C293 444 281 443 268 441ZM466 665 196 372V357L266 400L512 665Z" glyph-name="three.lin" horiz-adv-x="588" /><glyph d="M289 356C289 356 289 374 289 374H40V310H234ZM104 187C120 191 130 192 142 192C205 192 233 149 233 108C233 55 188 21 142 21C107 21 61 35 51 87L24 79C39 16 92 -8 150 -8C236 -8 305 39 305 125C305 189 264 245 172 245C167 245 160 244 153 242ZM251 356 104 203V187L155 218L289 356Z" glyph-name="three.sub" horiz-adv-x="326" /><glyph d="M289 662C289 662 289 680 289 680H40V616H234ZM104 493C120 497 130 498 142 498C205 498 233 455 233 414C233 361 188 327 142 327C107 327 61 341 51 393L24 385C39 322 92 298 150 298C236 298 305 345 305 431C305 495 264 551 172 551C167 551 160 550 153 548ZM251 662 104 509V493L155 524L289 662Z" glyph-name="three.sup" horiz-adv-x="326" /><glyph d="M634 224C553 251 535 271 535 300C535 335 569 355 614 355C664 355 698 332 698 295C698 251 667 223 630 213L646 198C701 213 748 245 748 296C748 350 691 384 614 384C537 384 477 344 477 281C477 238 491 203 598 164C683 133 701 118 701 82C701 43 662 21 611 21C557 21 512 44 512 99C512 140 540 171 576 185L565 202C500 183 458 145 458 93C458 30 524 -8 611 -8C699 -8 763 37 763 106C763 150 747 186 634 224ZM185 0 646 680H610L149 0ZM305 662C305 662 305 680 305 680H56V616H250ZM120 493C136 497 146 498 158 498C221 498 249 455 249 414C249 361 204 327 158 327C123 327 77 341 67 393L40 385C55 322 108 298 166 298C252 298 321 345 321 431C321 495 280 551 188 551C183 551 176 550 169 548ZM267 662 120 509V493L171 524L305 662Z" glyph-name="threeeighths" horiz-adv-x="803" unicode="&#8540;" /><glyph d="M305 662C305 662 305 680 305 680H56V616H250ZM120 493C136 497 146 498 158 498C221 498 249 455 249 414C249 361 204 327 158 327C123 327 77 341 67 393L40 385C55 322 108 298 166 298C252 298 321 345 321 431C321 495 280 551 188 551C183 551 176 550 169 548ZM267 662 120 509V493L171 524L305 662ZM185 0 646 680H610L149 0ZM746 94C746 94 746 122 746 122H437L420 112V94ZM538 374C523 254 485 187 420 112H493C555 181 589 249 605 374ZM622 226V0H690V226Z" glyph-name="threequarters" horiz-adv-x="796" unicode="&#190;" /><glyph d="M345 718H317C311 690 301 679 284 679C259 679 215.3267 717 182 717C136.5974 717 115.9952 675.9756 106 625H132C139.0261 656.6172 151 666 169 666C192 666 239.6863 628 272 628C312.4459 628 337 668 345 718Z" glyph-name="tilde" horiz-adv-x="451" unicode="&#732;" /><glyph d="M345 848H317C310.7598 819.4735 301.4848 808 285 808C259.7525 808 216.3645 847 183 847C136.6026 847 115.9953 805.9759 106 755H132C139.1712 787.2706 150.4865 797 168 797C191.2255 797 238.6286 758 271 758C312.44 758 337.0026 798.0165 345 848Z" glyph-name="tilde.uc" horiz-adv-x="451" /><glyph d="M236 686C236 686 236 710 236 710H45V686ZM118 706V470H163V706ZM334 717H318L259 470H287L327 663L308 661L397 470H413L500 662L481 658L528 470H578L517 717H501L415 527H423Z" glyph-name="trademark" horiz-adv-x="616" unicode="&#8482;" /><glyph d="M41 15C41 15 41 0 41 0H511V90H152ZM58 15 278 168C409 259 495 329 495 425C495 522 414 598 274 598C151 598 57 526 50 404L82 401C88 511 176 567 259 567C352 567 394 499 394 426C394 359 364 297 254 201L41 15Z" glyph-name="two" horiz-adv-x="571" unicode="2" /><glyph d="M41 15C41 15 41 0 41 0H531V98H142ZM67 15 358 266C456 350 526 424 526 519C526 620 437 698 284 698C155 698 57 625 50 501L86 500C91 611 180 663 269 663C372 663 419 596 419 523C419 460 400 393 326 315L41 15Z" glyph-name="two.lin" horiz-adv-x="589" /><glyph d="M20 18C20 18 20 0 20 0H296V64H85ZM38 18 201 144C257 188 293 224 293 277C293 335 248 384 157 384C82 384 32 345 25 276L53 274C56 329 100 355 145 355C198 355 221 321 221 283C221 250 209 212 155 157L20 18Z" glyph-name="two.sub" horiz-adv-x="326" /><glyph d="M20 324C20 324 20 306 20 306H296V370H85ZM38 324 201 450C257 494 293 530 293 583C293 641 248 690 157 690C82 690 32 651 25 582L53 580C56 635 100 661 145 661C198 661 221 627 221 589C221 556 209 518 155 463L20 324Z" glyph-name="two.sup" horiz-adv-x="326" /><glyph d="M40 324C40 324 40 306 40 306H316V370H105ZM58 324 221 450C277 494 313 530 313 583C313 641 268 690 177 690C102 690 52 651 45 582L73 580C76 635 120 661 165 661C218 661 241 627 241 589C241 556 229 518 175 463L40 324ZM783 356C783 356 783 374 783 374H534V310H728ZM598 187C614 191 624 192 636 192C699 192 727 149 727 108C727 55 682 21 636 21C601 21 555 35 545 87L518 79C533 16 586 -8 644 -8C730 -8 799 39 799 125C799 189 758 245 666 245C661 245 654 244 647 242ZM745 356 598 203V187L649 218L783 356ZM213 0 674 680H638L177 0Z" glyph-name="twothirds" horiz-adv-x="839" unicode="&#8532;" /><glyph d="M484 495H390V0H484ZM416 140C356 55 301 22 247 22C186 22 152 66 152 149V495H58V164C58 22 146 -15 227 -15C300 -15 365 22 427 103Z" glyph-name="u" horiz-adv-x="547" unicode="u" /><glyph d="M484 495H390V0H484ZM416 140C356 55 301 22 247 22C186 22 152 66 152 149V495H58V164C58 22 146 -15 227 -15C300 -15 365 22 427 103ZM338 731 387 678 239 576 225 590Z" glyph-name="uacute" horiz-adv-x="547" unicode="&#250;" /><glyph d="M484 495H390V0H484ZM416 140C356 55 301 22 247 22C186 22 152 66 152 149V495H58V164C58 22 146 -15 227 -15C300 -15 365 22 427 103ZM175 720C177.0333 639.6842 218 598 279 598C340 598 380.9667 639.6842 383 720H353C348.9996 673.9952 322.589 652 279 652C235.411 652 209.0004 673.9952 205 720Z" glyph-name="ubreve" horiz-adv-x="547" unicode="&#365;" /><glyph d="M484 495H390V0H484ZM416 140C356 55 301 22 247 22C186 22 152 66 152 149V495H58V164C58 22 146 -15 227 -15C300 -15 365 22 427 103ZM389 730 403 714 281 581H270V650ZM158 730 277 650V581H266L144 714Z" glyph-name="ucaron" horiz-adv-x="547" unicode="&#468;" /><glyph d="M484 495H390V0H484ZM416 140C356 55 301 22 247 22C186 22 152 66 152 149V495H58V164C58 22 146 -15 227 -15C300 -15 365 22 427 103ZM162 582 148 598 270 731H281V662ZM393 582 274 662V731H285L407 598Z" glyph-name="ucircumflex" horiz-adv-x="547" unicode="&#251;" /><glyph d="M484 495H390V0H484ZM416 140C356 55 301 22 247 22C186 22 152 66 152 149V495H58V164C58 22 146 -15 227 -15C300 -15 365 22 427 103ZM190 622C219 622 237 644 237 669C237 694 219 716 190 716C161 716 143 694 143 669C143 644 161 622 190 622ZM356 622C385 622 403 644 403 669C403 694 385 716 356 716C327 716 308 694 308 669C308 644 327 622 356 622Z" glyph-name="udieresis" horiz-adv-x="547" unicode="&#252;" /><glyph d="M484 495H390V0H484ZM416 140C356 55 301 22 247 22C186 22 152 66 152 149V495H58V164C58 22 146 -15 227 -15C300 -15 365 22 427 103ZM233 731 184 678 332 576 346 590Z" glyph-name="ugrave" horiz-adv-x="547" unicode="&#249;" /><glyph d="M484 495H390V0H484ZM416 140C356 55 301 22 247 22C186 22 152 66 152 149V495H58V164C58 22 146 -15 227 -15C300 -15 365 22 427 103ZM251 731 299 681 152 576 140 588ZM415 731 463 681 316 576 304 588Z" glyph-name="uhungarumlaut" horiz-adv-x="547" unicode="&#369;" /><glyph d="M484 495H390V0H484ZM416 140C356 55 301 22 247 22C186 22 152 66 152 149V495H58V164C58 22 146 -15 227 -15C300 -15 365 22 427 103ZM383 643C383 643 383 676 383 676H164V643Z" glyph-name="umacron" horiz-adv-x="547" unicode="&#363;" /><glyph d="M450 -50C450 -50 450 -15 450 -15H80V-50Z" glyph-name="underscore" horiz-adv-x="530" unicode="_" /><glyph d="M543 645C543 645 543 680 543 680H25V645ZM233 668V0H335V668ZM276 -183C291 -183 308 -180 315 -174L303 -178C305 -219 269 -237 238 -238V-264C316 -261 340 -207 340 -159C340 -110 315 -87 281 -87C252 -87 231 -110 231 -136C231 -163 249 -183 276 -183Z" glyph-name="uni0162" horiz-adv-x="568" unicode="&#354;" /><glyph d="M75 152 39 144C61 30 151 -15 247 -15C379.4062 -15 470 70 470 191C470 272 416.3091 326.5781 347 369L231 440C180 471 146 497.9913 146 557C146 617.8624 184 664 271 664C340 664 396.9912 627.0428 412 554L448 563C423.9853 663.0612 344 698 267 698C129 698 66 617 66 521C66 427 139.6064 371.2438 203 334L283 287C352.7099 246.0454 385 205 385 153C385 87 341.0515 20 246 20C177 20 96 45 75 152ZM242 -183C257 -183 274 -180 281 -174L269 -178C271 -219 235 -237 204 -238V-264C282 -261 306 -207 306 -159C306 -110 281 -87 247 -87C218 -87 197 -110 197 -136C197 -163 215 -183 242 -183Z" glyph-name="uni0218" horiz-adv-x="508" unicode="&#536;" /><glyph d="M543 645C543 645 543 680 543 680H25V645ZM233 668V0H335V668ZM276 -183C291 -183 308 -180 315 -174L303 -178C305 -219 269 -237 238 -238V-264C316 -261 340 -207 340 -159C340 -110 315 -87 281 -87C252 -87 231 -110 231 -136C231 -163 249 -183 276 -183Z" glyph-name="uni021A" horiz-adv-x="568" unicode="&#538;" /><glyph d="M88 638V131C88 43 130 0 217 0H303V31H251C193 31 182 62 182 121V638ZM305 495H23V464H305ZM180 -183C195 -183 212 -180 219 -174L207 -178C209 -219 173 -237 142 -238V-264C220 -261 244 -207 244 -159C244 -110 219 -87 185 -87C156 -87 135 -110 135 -136C135 -163 153 -183 180 -183Z" glyph-name="uni021B" horiz-adv-x="338" unicode="&#539;" /><glyph d="M624 -15H639V680H598L606 147H614L103 698H88V0H129L121 532H116ZM319 -134C319 -164 344 -188 373 -188C402 -188 427 -164 427 -134C427 -105 402 -81 373 -81C344 -81 319 -105 319 -134Z" glyph-name="uni1E46" horiz-adv-x="727" unicode="&#7750;" /><glyph d="M63 0H157V495H63ZM140 355C200.3428 440.4856 255 473 309 473C370 473 404 429.3438 404 346V0H498V331C498 473 410 510 329 510C255.6332 510 191.4481 472.5782 129 392ZM227 -134C227 -164 252 -188 281 -188C310 -188 335 -164 335 -134C335 -105 310 -81 281 -81C252 -81 227 -105 227 -134Z" glyph-name="uni1E47" horiz-adv-x="556" unicode="&#7751;" /><glyph d="M75 152 39 144C61 30 151 -15 247 -15C379.4062 -15 470 70 470 191C470 272 416.3091 326.5781 347 369L231 440C180 471 146 497.9913 146 557C146 617.8624 184 664 271 664C340 664 396.9912 627.0428 412 554L448 563C423.9853 663.0612 344 698 267 698C129 698 66 617 66 521C66 427 139.6064 371.2438 203 334L283 287C352.7099 246.0454 385 205 385 153C385 87 341.0515 20 246 20C177 20 96 45 75 152ZM191 -134C191 -164 216 -188 245 -188C274 -188 299 -164 299 -134C299 -105 274 -81 245 -81C216 -81 191 -105 191 -134Z" glyph-name="uni1E62" horiz-adv-x="508" unicode="&#7778;" /><glyph d="M70 112 36 104C54 18 127 -15 210 -15C314 -15 389 51 389 144C389 204 347 245 283 276L201 316C150.7985 340.4886 127 360.0361 127 401C127 447.2 163 478 223 478C284 478 325.1438 450.3171 337 394L371 401C355 479 292 510 225 510C119 510 58 446.9275 58 374C58 300.9787 106.7386 256.6849 162 231L233 198C290 172 314 145 314 107C314 57.5495 280 17 209 17C149.8511 17 85.9904 36.0454 70 112ZM153 -134C153 -164 178 -188 207 -188C236 -188 261 -164 261 -134C261 -105 236 -81 207 -81C178 -81 153 -105 153 -134Z" glyph-name="uni1E63" horiz-adv-x="425" unicode="&#7779;" /><glyph d="M88 680V0H190V680ZM435 645C435 645 435 680 435 680H174V645ZM402 354C402 354 402 389 402 389H174V354ZM441 0C441 0 441 35 441 35H174V0ZM390 848H362C355.7598 819.4735 346.4848 808 330 808C304.7525 808 261.3645 847 228 847C181.6026 847 160.9953 805.9759 151 755H177C184.1712 787.2706 195.4865 797 213 797C236.2255 797 283.6286 758 316 758C357.44 758 382.0026 798.0165 390 848Z" glyph-name="uni1EBC" horiz-adv-x="493" unicode="&#7868;" /><glyph d="M45 340C45 124 225 -15 420 -15C616 -15 795 122 795 340C795 558 616 698 420 698C225 698 45 556 45 340ZM84 340C84 537 246 664 420 664C594 664 756 538 756 340C756 142 594 19 420 19C246 19 84 144 84 340ZM343 306H412C516 306 580 353 580 429C580 503 515 535 430 535H346V510H427C478 510 512 487 512 427C512 360 475 331 417 331H343ZM304 147H372V535H304Z" glyph-name="uni2117" horiz-adv-x="840" unicode="&#8471;" /><glyph d="M484 495H390V0H484ZM416 140C356 55 301 22 247 22C186 22 152 66 152 149V495H58V164C58 22 146 -15 227 -15C300 -15 365 22 427 103ZM473 -140 452 -126C437.7318 -145.364 421 -161 398 -161C377.4737 -161 359 -148.3684 359 -121C359 -96.4065 371 -70 425 0H390C333 -68 304 -97 304 -136C304 -185 346.8718 -206 380 -206C427.011 -206 454 -174 473 -140Z" glyph-name="uogonek" horiz-adv-x="547" unicode="&#371;" /><glyph d="M484 495H390V0H484ZM416 140C356 55 301 22 247 22C186 22 152 66 152 149V495H58V164C58 22 146 -15 227 -15C300 -15 365 22 427 103ZM272 617C318.6463 617 357 653 357 699C357 745 318.5476 781 272 781C224.4405 781 187 745 187 699C187 653 224.3171 617 272 617ZM272 649C246 649 225 669 225 699C225 729 246 749 272 749C298 749 319 729 319 699C319 669 298 649 272 649Z" glyph-name="uring" horiz-adv-x="547" unicode="&#367;" /><glyph d="M484 495H390V0H484ZM416 140C356 55 301 22 247 22C186 22 152 66 152 149V495H58V164C58 22 146 -15 227 -15C300 -15 365 22 427 103ZM393 718H365C359 690 349 679 332 679C307 679 263.3267 717 230 717C184.5974 717 163.9952 675.9756 154 625H180C187.0261 656.6172 199 666 217 666C240 666 287.6863 628 320 628C360.4459 628 385 668 393 718Z" glyph-name="utilde" horiz-adv-x="547" unicode="&#361;" /><glyph d="M208 0H264L466 495H424L261 64H275L114 495H15Z" glyph-name="v" horiz-adv-x="481" unicode="v" /><glyph d="M210 0H266L374 250L411 307L495 495H456L392 336L355 289L263 64H277L114 495H15ZM456 0H512L716 495H674L509 64H523L360 495H261Z" glyph-name="w" horiz-adv-x="731" unicode="w" /><glyph d="M443 0H499L677 495H636L496 64H510L374 495H274ZM201 0H257L377 318L355 353L254 64H268L125 495H25Z" glyph-name="w.alt" horiz-adv-x="702" /><glyph d="M210 0H266L374 250L411 307L495 495H456L392 336L355 289L263 64H277L114 495H15ZM456 0H512L716 495H674L509 64H523L360 495H261ZM404 731 453 678 305 576 291 590Z" glyph-name="wacute" horiz-adv-x="713" unicode="&#7811;" /><glyph d="M408 731 457 678 309 576 295 590ZM443 0H499L677 495H636L496 64H510L374 495H274ZM201 0H257L377 318L355 353L254 64H268L125 495H25Z" glyph-name="wacute.alt" horiz-adv-x="702" /><glyph d="M210 0H266L374 250L411 307L495 495H456L392 336L355 289L263 64H277L114 495H15ZM456 0H512L716 495H674L509 64H523L360 495H261ZM249 582 235 598 357 731H368V662ZM480 582 361 662V731H372L494 598Z" glyph-name="wcircumflex" horiz-adv-x="713" unicode="&#373;" /><glyph d="M255 582 241 598 363 731H374V662ZM486 582 367 662V731H378L500 598ZM443 0H499L677 495H636L496 64H510L374 495H274ZM201 0H257L377 318L355 353L254 64H268L125 495H25Z" glyph-name="wcircumflex.alt" horiz-adv-x="702" /><glyph d="M210 0H266L374 250L411 307L495 495H456L392 336L355 289L263 64H277L114 495H15ZM456 0H512L716 495H674L509 64H523L360 495H261ZM279 622C308 622 326 644 326 669C326 694 308 716 279 716C250 716 232 694 232 669C232 644 250 622 279 622ZM445 622C474 622 492 644 492 669C492 694 474 716 445 716C416 716 397 694 397 669C397 644 416 622 445 622Z" glyph-name="wdieresis" horiz-adv-x="713" unicode="&#7813;" /><glyph d="M277 622C306 622 324 644 324 669C324 694 306 716 277 716C248 716 230 694 230 669C230 644 248 622 277 622ZM443 622C472 622 490 644 490 669C490 694 472 716 443 716C414 716 395 694 395 669C395 644 414 622 443 622ZM443 0H499L677 495H636L496 64H510L374 495H274ZM201 0H257L377 318L355 353L254 64H268L125 495H25Z" glyph-name="wdieresis.alt" horiz-adv-x="702" /><glyph d="M210 0H266L374 250L411 307L495 495H456L392 336L355 289L263 64H277L114 495H15ZM456 0H512L716 495H674L509 64H523L360 495H261ZM326 731 277 678 425 576 439 590Z" glyph-name="wgrave" horiz-adv-x="713" unicode="&#7809;" /><glyph d="M330 731 281 678 429 576 443 590ZM443 0H499L677 495H636L496 64H510L374 495H274ZM201 0H257L377 318L355 353L254 64H268L125 495H25Z" glyph-name="wgrave.alt" horiz-adv-x="702" /><glyph d="M33 495 217 233 224 226 380 0H485L288 283L280 292L138 495ZM418 495 267 289 287 269 464 495ZM67 0 235 230 215 251 21 0Z" glyph-name="x" horiz-adv-x="500" unicode="x" /><glyph d="M224 -35 277 66 114 495H15ZM178 -210 466 495H424L249 33L235 -3L136 -210Z" glyph-name="y" horiz-adv-x="481" unicode="y" /><glyph d="M224 -35 277 66 114 495H15ZM178 -210 466 495H424L249 33L235 -3L136 -210ZM323 731 372 678 224 576 210 590Z" glyph-name="yacute" horiz-adv-x="481" unicode="&#253;" /><glyph d="M224 -35 277 66 114 495H15ZM178 -210 466 495H424L249 33L235 -3L136 -210ZM143 582 129 598 251 731H262V662ZM374 582 255 662V731H266L388 598Z" glyph-name="ycircumflex" horiz-adv-x="481" unicode="&#375;" /><glyph d="M224 -35 277 66 114 495H15ZM178 -210 466 495H424L249 33L235 -3L136 -210ZM174 622C203 622 221 644 221 669C221 694 203 716 174 716C145 716 127 694 127 669C127 644 145 622 174 622ZM340 622C369 622 387 644 387 669C387 694 369 716 340 716C311 716 292 694 292 669C292 644 311 622 340 622Z" glyph-name="ydieresis" horiz-adv-x="481" unicode="&#255;" /><glyph d="M532 202C532 202 532 237 532 237H90V202ZM532 317C532 317 532 352 532 352H90V317ZM544 680 342 346H352L140 680H25L278 287H345L587 680ZM260 340V0H362V340Z" glyph-name="yen" horiz-adv-x="607" unicode="&#165;" /><glyph d="M224 -35 277 66 114 495H15ZM178 -210 466 495H424L249 33L235 -3L136 -210ZM214 731 165 678 313 576 327 590Z" glyph-name="ygrave" horiz-adv-x="481" unicode="&#7923;" /><glyph d="M224 -35 277 66 114 495H15ZM178 -210 466 495H424L249 33L235 -3L136 -210ZM369 643C369 643 369 676 369 676H150V643Z" glyph-name="ymacron" horiz-adv-x="481" unicode="&#563;" /><glyph d="M31 15V0H435V31H116L136 17L433 480V495H56V464H348L328 477Z" glyph-name="z" horiz-adv-x="469" unicode="z" /><glyph d="M31 15V0H435V31H116L136 17L433 480V495H56V464H348L328 477ZM317 731 366 678 218 576 204 590Z" glyph-name="zacute" horiz-adv-x="469" unicode="&#378;" /><glyph d="M31 15V0H435V31H116L136 17L433 480V495H56V464H348L328 477ZM370 730 384 714 262 581H251V650ZM139 730 258 650V581H247L125 714Z" glyph-name="zcaron" horiz-adv-x="469" unicode="&#382;" /><glyph d="M31 15V0H435V31H116L136 17L433 480V495H56V464H348L328 477ZM196 670C196 640 221 616 250 616C279 616 304 640 304 670C304 699 279 723 250 723C221 723 196 699 196 670Z" glyph-name="zdotaccent" horiz-adv-x="469" unicode="&#380;" /><glyph d="M344 -15C496 -15 646 107 646 291C646 475 496 598 344 598C192 598 42 475 42 291C42 107 192 -15 344 -15ZM344 17C233 17 144 105 144 291C144 477 233 566 344 566C455 566 544 477 544 291C544 105 455 17 344 17Z" glyph-name="zero" horiz-adv-x="688" unicode="0" /><glyph d="M370 -15C537 -15 695 127 695 341C695 555 537 698 370 698C203 698 45 555 45 341C45 127 203 -15 370 -15ZM370 21C257 21 150 124 150 341C150 558 257 662 370 662C483 662 590 558 590 341C590 124 483 21 370 21Z" glyph-name="zero.lin" horiz-adv-x="740" /><glyph d="M206 -8C301 -8 391 70 391 188C391 306 301 384 206 384C110 384 20 306 20 188C20 70 110 -8 206 -8ZM206 21C141 21 92 74 92 188C92 301 141 355 206 355C269 355 319 301 319 188C319 74 269 21 206 21Z" glyph-name="zero.sub" horiz-adv-x="411" /><glyph d="M206 298C301 298 391 376 391 494C391 612 301 690 206 690C110 690 20 612 20 494C20 376 110 298 206 298ZM206 327C141 327 92 380 92 494C92 607 141 661 206 661C269 661 319 607 319 494C319 380 269 327 206 327Z" glyph-name="zero.sup" horiz-adv-x="411" /></font>
</defs>
</svg>
