<svg width="24" height="24" viewBox="0 0 24 24" fill="none" xmlns="http://www.w3.org/2000/svg">
<path fill-rule="evenodd" clip-rule="evenodd" d="M7 21H17C17.5523 21 18 20.5523 18 20V8H13.5H13V7.5V3H7C6.44772 3 6 3.44772 6 4V20C6 20.5523 6.44772 21 7 21ZM15.7929 5.20711L17.5858 7H14V3.41421L15.7929 5.20711ZM7 2C5.89543 2 5 2.89543 5 4V20C5 21.1046 5.89543 22 7 22H17C18.1046 22 19 21.1046 19 20V7.41421C19 7.149 18.8946 6.89464 18.7071 6.70711L16.5 4.5L14.2929 2.29289C14.1054 2.10536 13.851 2 13.5858 2H7ZM9 11C8.72386 11 8.5 11.2239 8.5 11.5C8.5 11.7761 8.72386 12 9 12H15C15.2761 12 15.5 11.7761 15.5 11.5C15.5 11.2239 15.2761 11 15 11H9ZM9 14C8.72386 14 8.5 14.2239 8.5 14.5C8.5 14.7761 8.72386 15 9 15H15C15.2761 15 15.5 14.7761 15.5 14.5C15.5 14.2239 15.2761 14 15 14H9ZM8.5 17.5C8.5 17.2239 8.72386 17 9 17H15C15.2761 17 15.5 17.2239 15.5 17.5C15.5 17.7761 15.2761 18 15 18H9C8.72386 18 8.5 17.7761 8.5 17.5Z" fill="currentColor"/>
</svg>
