<svg width="24" height="24" viewBox="0 0 24 24" fill="none" xmlns="http://www.w3.org/2000/svg">
<path d="M15 6H9V7H15V6Z" fill="currentColor"/>
<path d="M15 8H9V9H15V8Z" fill="currentColor"/>
<path d="M9 10H15V11H9V10Z" fill="currentColor"/>
<path fill-rule="evenodd" clip-rule="evenodd" d="M18 4.79289V9H18.8915C19.7535 9 20.5547 9.44405 21.0115 10.175L23 13.3566V19.5C23 20.8807 21.8807 22 20.5 22H3.5C2.11929 22 1 20.8807 1 19.5V13.3566L2.9885 10.175C3.44535 9.44405 4.24652 9 5.1085 9H6V4.5C6 3.11929 7.11929 2 8.5 2H15.2071L18 4.79289ZM7 4.5C7 3.67157 7.67157 3 8.5 3H14.7929L17 5.20711V13H15V14.5C15 16.1569 13.6569 17.5 12 17.5C10.3431 17.5 9 16.1569 9 14.5V13H7V4.5ZM8 14H2V19.5C2 20.3284 2.67157 21 3.5 21H20.5C21.3284 21 22 20.3284 22 19.5V14H16V14.5C16 16.7091 14.2091 18.5 12 18.5C9.79086 18.5 8 16.7091 8 14.5V14ZM18 13V10H18.8915C19.4087 10 19.8894 10.2664 20.1635 10.705L21.5979 13H18ZM5.1085 10H6V13H2.40212L3.8365 10.705C4.11061 10.2664 4.59131 10 5.1085 10Z" fill="currentColor"/>
</svg>
