<svg width="24" height="24" viewBox="0 0 24 24" fill="none" xmlns="http://www.w3.org/2000/svg">
<g id="Misc/ic-24-favorite-default">
<path id="Shape" fill-rule="evenodd" clip-rule="evenodd" d="M12.5005 5.12138L10.3216 9.49556C10.2485 9.64235 10.108 9.74395 9.94572 9.76746L5.08175 10.4719L8.59777 13.8654C8.71701 13.9805 8.77148 14.1472 8.74322 14.3104L7.91255 19.1096L12.2695 16.8392C12.4143 16.7638 12.5868 16.7638 12.7316 16.8392L17.0885 19.1096L16.2579 14.3104C16.2296 14.1472 16.2841 13.9805 16.4033 13.8654L19.9193 10.4719L15.0554 9.76746C14.8931 9.74395 14.7526 9.64235 14.6795 9.49556L12.5005 5.12138ZM12.053 3.77706C12.237 3.40765 12.7641 3.40765 12.9481 3.77706L15.4578 8.81531L21.0722 9.62848C21.4836 9.68806 21.6469 10.1944 21.3478 10.4831L17.2884 14.401L18.2462 19.9347C18.3168 20.3426 17.8896 20.6547 17.5225 20.4634L12.5005 17.8464L7.47861 20.4634C7.11153 20.6547 6.68428 20.3426 6.75487 19.9347L7.71269 14.401L3.65332 10.4831C3.35423 10.1944 3.5175 9.68806 3.92888 9.62848L9.54325 8.81531L12.053 3.77706Z" fill="#ADAFB2"/>
</g>
</svg>
