<svg width="24" height="24" viewBox="0 0 24 24" fill="none" xmlns="http://www.w3.org/2000/svg">
<path fill-rule="evenodd" clip-rule="evenodd" d="M21.2854 9.22948L15.2702 3.21425C15.2186 3.16266 15.1615 3.11687 15.0999 3.0777C14.634 2.78119 14.0159 2.91854 13.7194 3.38449L9.43892 10.1109L6.46908 10.5352C6.25488 10.5658 6.05639 10.665 5.90339 10.818C5.51287 11.2086 5.51287 11.8417 5.90339 12.2323L8.37097 14.6998L4.35329 18.7175C4.15802 18.9128 4.15802 19.2294 4.35329 19.4246C4.54855 19.6199 4.86513 19.6199 5.06039 19.4246L9.07807 15.4069L12.2674 18.5962C12.4203 18.7492 12.6188 18.8485 12.833 18.8791C13.3798 18.9572 13.8863 18.5773 13.9644 18.0305L14.3887 15.0607L21.1152 10.7803C21.1767 10.7411 21.2338 10.6953 21.2854 10.6437C21.6759 10.2532 21.6759 9.62001 21.2854 9.22948Z" fill="currentColor"/>
</svg>
