<svg width="24" height="24" viewBox="0 0 24 24" fill="none" xmlns="http://www.w3.org/2000/svg">
<path fill-rule="evenodd" clip-rule="evenodd" d="M7.28078 2H15.7193C16.2716 2 16.7193 2.44772 16.7193 3C16.7193 3.08176 16.7092 3.16322 16.6894 3.24254L15 10L16.8 12.4C17.1314 12.8418 17.0418 13.4686 16.6 13.8C16.4269 13.9298 16.2164 14 16 14H12V21.5C12 21.7761 11.7761 22 11.5 22C11.2239 22 11 21.7761 11 21.5V14H7C6.44772 14 6 13.5523 6 13C6 12.7836 6.07018 12.5731 6.2 12.4L8 10L6.31063 3.24254C6.17669 2.70674 6.50245 2.16381 7.03824 2.02986C7.11756 2.01003 7.19901 2 7.28078 2ZM11.5 13H16L14.2 10.6C14.0193 10.3591 13.9568 10.0496 14.0299 9.75746L15.7193 3H7.28078L8.97014 9.75746C9.04318 10.0496 8.98068 10.3591 8.8 10.6L7 13H11.5Z" fill="currentColor"/>
</svg>
