<svg width="24" height="24" viewBox="0 0 24 24" fill="none" xmlns="http://www.w3.org/2000/svg">
<g id="Misc/ic-24-favorite-default">
<path id="Shape" fill-rule="evenodd" clip-rule="evenodd" d="M12.5001 5.12138L10.3211 9.49556C10.248 9.64235 10.1075 9.74395 9.94523 9.76746L5.08126 10.4719L8.59729 13.8654C8.71652 13.9805 8.77099 14.1472 8.74273 14.3104L7.91206 19.1096L12.269 16.8392C12.4138 16.7638 12.5863 16.7638 12.7311 16.8392L17.0881 19.1096L16.2574 14.3104C16.2291 14.1472 16.2836 13.9805 16.4028 13.8654L19.9189 10.4719L15.0549 9.76746C14.8926 9.74395 14.7521 9.64235 14.679 9.49556L12.5001 5.12138ZM12.0525 3.77706C12.2365 3.40765 12.7636 3.40765 12.9476 3.77706L15.4574 8.81531L21.0717 9.62848C21.4831 9.68806 21.6464 10.1944 21.3473 10.4831L17.2879 14.401L18.2457 19.9347C18.3163 20.3426 17.8891 20.6547 17.522 20.4634L12.5001 17.8464L7.47812 20.4634C7.11104 20.6547 6.68379 20.3426 6.75438 19.9347L7.7122 14.401L3.65283 10.4831C3.35374 10.1944 3.51701 9.68806 3.92839 9.62848L9.54276 8.81531L12.0525 3.77706Z" fill="currentColor"/>
</g>
</svg>
