<svg width="24" height="24" viewBox="0 0 24 24" fill="none" xmlns="http://www.w3.org/2000/svg">
<path fill-rule="evenodd" clip-rule="evenodd" d="M17 21C17.5523 21 18 20.5523 18 20V8H13.5H13V7.5V3H7C6.44772 3 6 3.44772 6 4V20C6 20.5523 6.44772 21 7 21H17ZM15.7929 5.20711L17.5858 7H14V3.41421L15.7929 5.20711ZM7 2C5.89543 2 5 2.89543 5 4V20C5 21.1046 5.89543 22 7 22H17C18.1046 22 19 21.1046 19 20V7.41421C19 7.149 18.8946 6.89464 18.7071 6.70711L16.5 4.5L14.2929 2.29289C14.1054 2.10536 13.851 2 13.5858 2H7ZM17 12V13H16V15H15V10H17V11H16V12H17ZM14 11V14C14 14.55 13.55 15 13 15H11V10H13C13.55 10 14 10.45 14 11ZM13 11H12V14H13V11ZM8 13H9C9.55 13 10 12.55 10 12V11C10 10.45 9.55 10 9 10H7V15H8V13ZM8 11H9V12H8V11Z" fill="currentColor"/>
</svg>
