<svg width="24" height="24" viewBox="0 0 24 24" fill="none" xmlns="http://www.w3.org/2000/svg">
<path fill-rule="evenodd" clip-rule="evenodd" d="M13 3.5C13 2.94772 12.5523 2.5 12 2.5C11.4477 2.5 11 2.94772 11 3.5V13.0858L7.70711 9.79289C7.31658 9.40237 6.68342 9.40237 6.29289 9.79289C5.90237 10.1834 5.90237 10.8166 6.29289 11.2071L11.2929 16.2071L12 16.9142L12.7071 16.2071L17.7071 11.2071C18.0976 10.8166 18.0976 10.1834 17.7071 9.79289C17.3166 9.40237 16.6834 9.40237 16.2929 9.79289L13 13.0858V3.5ZM5 19C4.44772 19 4 19.4477 4 20C4 20.5523 4.44772 21 5 21H19C19.5523 21 20 20.5523 20 20C20 19.4477 19.5523 19 19 19H5Z" fill="currentColor"/>
</svg>
