<svg width="24" height="24" viewBox="0 0 24 24" fill="none" xmlns="http://www.w3.org/2000/svg">
<path fill-rule="evenodd" clip-rule="evenodd" d="M11 4H13C13.5523 4 14 4.44772 14 5V6H10V5C10 4.44772 10.4477 4 11 4ZM9 6V5C9 3.89543 9.89543 3 11 3H13C14.1046 3 15 3.89543 15 5V6H17H18H19.5C19.7761 6 20 6.22386 20 6.5C20 6.77614 19.7761 7 19.5 7H18V19C18 20.1046 17.1046 21 16 21H8C6.89543 21 6 20.1046 6 19V7H4.5C4.22386 7 4 6.77614 4 6.5C4 6.22386 4.22386 6 4.5 6H6H7H9ZM15 7H14H10H9H7V19C7 19.5523 7.44772 20 8 20H16C16.5523 20 17 19.5523 17 19V7H15ZM10 10.5C10 10.2239 10.2239 10 10.5 10C10.7761 10 11 10.2239 11 10.5V17.5C11 17.7761 10.7761 18 10.5 18C10.2239 18 10 17.7761 10 17.5V10.5ZM13 10.5C13 10.2239 13.2239 10 13.5 10C13.7761 10 14 10.2239 14 10.5V17.5C14 17.7761 13.7761 18 13.5 18C13.2239 18 13 17.7761 13 17.5V10.5Z" fill="currentColor"/>
</svg>
