<svg width="24" height="24" viewBox="0 0 24 24" fill="none" xmlns="http://www.w3.org/2000/svg">
<path fill-rule="evenodd" clip-rule="evenodd" d="M6.00244 4.5C6.00244 4.22386 6.2263 4 6.50244 4H14.4974C14.7735 4 14.9974 3.77614 14.9974 3.5C14.9974 3.22386 14.7735 3 14.4974 3H6.50244C5.67401 3 5.00244 3.67157 5.00244 4.5V16.5C5.00244 16.7761 5.2263 17 5.50244 17C5.77858 17 6.00244 16.7761 6.00244 16.5V4.5ZM9.00208 7H17.9978L17.9978 20H9.00208V7ZM8.00208 7C8.00208 6.44772 8.4498 6 9.00208 6H17.9978C18.5501 6 18.9978 6.44772 18.9978 7V20C18.9978 20.5523 18.5501 21 17.9978 21H9.00208C8.4498 21 8.00208 20.5523 8.00208 20V7Z" fill="currentColor"/>
</svg>
