<svg width="240" height="240" viewBox="0 0 240 240" fill="none" xmlns="http://www.w3.org/2000/svg">
<path fill-rule="evenodd" clip-rule="evenodd" d="M117.32 215.81C165.55 215.81 204.64 176.86 204.64 128.81C204.64 80.7601 165.54 41.8101 117.32 41.8101C69.1 41.8101 30 80.7701 30 128.81C30 176.86 69.1 215.81 117.32 215.81Z" fill="url(#paint0_radial)"/>
<path fill-rule="evenodd" clip-rule="evenodd" d="M143 178.221C143 180.611 144.94 182.541 147.32 182.541C149.71 182.541 151.64 180.601 151.64 178.221C151.64 175.831 149.71 173.901 147.32 173.901C144.93 173.901 143 175.841 143 178.221ZM150.2 178.222C150.2 179.812 148.91 181.102 147.32 181.102C145.73 181.102 144.45 179.812 144.44 178.222C144.44 176.632 145.73 175.342 147.32 175.342C148.91 175.342 150.2 176.632 150.2 178.222Z" fill="#77A9E6"/>
<path fill-rule="evenodd" clip-rule="evenodd" d="M197.711 98.0813C197.281 99.0913 196.101 100.271 195.081 100.711L191.761 102.131C190.751 102.571 190.741 103.271 191.761 103.711L195.081 105.131C196.091 105.571 197.281 106.741 197.711 107.761L199.131 111.081C199.571 112.091 200.281 112.101 200.711 111.081L202.131 107.761C202.561 106.751 203.741 105.571 204.761 105.131L208.081 103.711C209.091 103.271 209.101 102.571 208.081 102.131L204.761 100.711C203.751 100.281 202.561 99.1013 202.131 98.0813L200.711 94.7613C200.271 93.7513 199.561 93.7413 199.131 94.7613L197.711 98.0813ZM199.501 107.401C198.801 105.761 197.081 104.041 195.451 103.341L194.491 102.921L195.451 102.511C197.081 101.811 198.801 100.091 199.501 98.461L199.911 97.501L200.321 98.461C201.031 100.091 202.741 101.811 204.381 102.511L205.341 102.931L204.381 103.341C202.741 104.051 201.021 105.761 200.321 107.401L199.911 108.361L199.501 107.401Z" fill="#77A9E6"/>
<path fill-rule="evenodd" clip-rule="evenodd" d="M142.752 37.4058C142.942 37.0378 143.395 36.8937 143.763 37.0839C149.444 40.02 152.591 47.0931 150.991 53.2811C149.927 57.4088 147.221 60.5582 144.246 63.4229C143.342 64.293 142.42 65.1323 141.505 65.965C139.358 67.919 137.252 69.8364 135.519 72.0288L135.518 72.03C130.612 78.2099 129.002 86.8604 131.351 94.3896C133.7 101.919 139.932 108.118 147.471 110.442C147.867 110.564 148.088 110.984 147.966 111.38C147.844 111.776 147.425 111.998 147.029 111.876C139.018 109.406 132.416 102.839 129.919 94.8363C127.423 86.8338 129.128 77.6674 134.342 71.0986C136.155 68.8051 138.408 66.7536 140.594 64.7634C141.487 63.9503 142.369 63.1474 143.205 62.3424C146.136 59.5201 148.584 56.6131 149.539 52.9063L149.539 52.9057C150.964 47.393 148.131 41.03 143.074 38.4164C142.706 38.2263 142.562 37.7738 142.752 37.4058Z" fill="#77A9E6"/>
<path d="M112.346 128.75C112.346 128.75 101.744 139.766 107.904 150.385C107.904 150.385 146.845 160.25 174.346 129.878C174.346 129.878 170.345 115.75 156.845 115.25" fill="#3F5E84"/>
<path fill-rule="evenodd" clip-rule="evenodd" d="M156.096 115.222C156.112 114.808 156.46 114.485 156.873 114.501C163.919 114.761 168.484 118.59 171.259 122.302C172.645 124.157 173.594 125.991 174.197 127.361C174.498 128.047 174.714 128.619 174.855 129.022C174.926 129.224 174.978 129.383 175.013 129.494C175.031 129.55 175.044 129.593 175.053 129.623L175.063 129.659L175.066 129.669L175.067 129.672L175.067 129.673C175.067 129.673 175.068 129.674 174.346 129.878L175.067 129.673C175.138 129.922 175.075 130.19 174.902 130.382C160.994 145.742 144.19 150.924 130.888 152.267C124.238 152.938 118.457 152.652 114.336 152.197C112.275 151.969 110.628 151.7 109.493 151.486C108.925 151.379 108.485 151.287 108.186 151.22C108.036 151.187 107.921 151.16 107.843 151.142C107.804 151.132 107.774 151.125 107.754 151.12L107.73 151.114L107.721 151.112C107.721 151.112 107.72 151.112 107.904 150.385L107.72 151.112C107.524 151.062 107.357 150.936 107.256 150.761C104.004 145.155 105.202 139.466 107.134 135.272C108.102 133.17 109.266 131.416 110.185 130.188C110.646 129.573 111.047 129.087 111.334 128.754C111.478 128.587 111.594 128.458 111.675 128.37C111.715 128.326 111.747 128.292 111.769 128.269L111.795 128.241L111.802 128.234L111.804 128.231L111.805 128.23C111.805 128.23 111.805 128.23 112.346 128.75L111.805 128.23C112.092 127.932 112.567 127.922 112.866 128.21C113.164 128.497 113.173 128.971 112.886 129.27L112.882 129.275L112.862 129.295C112.845 129.314 112.818 129.343 112.782 129.382C112.71 129.461 112.604 129.579 112.47 129.734C112.202 130.045 111.823 130.503 111.386 131.087C110.51 132.256 109.409 133.919 108.496 135.899C106.702 139.794 105.684 144.807 108.396 149.73C108.431 149.738 108.47 149.747 108.511 149.756C108.795 149.819 109.219 149.908 109.77 150.012C110.872 150.219 112.481 150.483 114.501 150.706C118.541 151.152 124.214 151.433 130.737 150.775C143.688 149.467 159.965 144.458 173.5 129.693C173.482 129.64 173.462 129.581 173.44 129.518C173.31 129.147 173.108 128.611 172.823 127.965C172.254 126.67 171.359 124.941 170.058 123.201C167.458 119.724 163.272 116.239 156.818 115.999C156.404 115.984 156.081 115.636 156.096 115.222Z" fill="#77A9E6"/>
<path fill-rule="evenodd" clip-rule="evenodd" d="M165.701 89.0034C165.701 89.0036 165.7 89.0032 165.701 89.0034L166.971 94.0431C168.099 98.5323 166.114 103.178 162.151 104.18L162.15 104.18L156.726 105.543C156.324 105.644 155.917 105.4 155.816 104.998C155.715 104.597 155.959 104.189 156.36 104.088L161.783 102.726C161.783 102.726 161.783 102.726 161.783 102.726C164.674 101.994 166.518 98.3956 165.517 94.4095C165.517 94.4094 165.517 94.4096 165.517 94.4095L164.246 89.3695C163.244 85.3813 159.914 83.0708 157.017 83.8012L151.384 85.2214C150.982 85.3226 150.574 85.0791 150.473 84.6774C150.372 84.2758 150.615 83.8681 151.017 83.7669L156.65 82.3467C156.65 82.3467 156.65 82.3467 156.65 82.3467C160.625 81.3446 164.573 84.5163 165.701 89.0034Z" fill="#77A9E6"/>
<path fill-rule="evenodd" clip-rule="evenodd" d="M93.4464 119.488C93.4463 119.488 93.4465 119.488 93.4464 119.488L91.4903 114.673C89.7523 110.383 91.0753 105.507 94.8618 103.966L94.8629 103.965L100.046 101.865C100.43 101.71 100.867 101.895 101.023 102.279C101.178 102.663 100.993 103.1 100.609 103.256L95.4273 105.355C95.4271 105.355 95.4275 105.355 95.4273 105.355C92.6657 106.48 91.3371 110.299 92.8801 114.108C92.8802 114.108 92.8801 114.108 92.8801 114.108L94.8364 118.924C96.3804 122.735 99.9983 124.563 102.766 123.438L108.149 121.252C108.533 121.096 108.97 121.281 109.126 121.665C109.282 122.049 109.097 122.486 108.713 122.642L103.331 124.828C103.331 124.828 103.331 124.828 103.331 124.828C99.5331 126.371 95.1839 123.776 93.4464 119.488Z" fill="#77A9E6"/>
<path d="M160.345 100.75C160.345 118.423 146.019 132.75 128.345 132.75C110.672 132.75 96.3455 118.423 96.3455 100.75C96.3455 83.0769 110.672 68.75 128.345 68.75C146.019 68.75 160.345 83.0769 160.345 100.75Z" fill="#3F5E84"/>
<path fill-rule="evenodd" clip-rule="evenodd" d="M128.345 69.5C111.087 69.5 97.0955 83.4911 97.0955 100.75C97.0955 118.009 111.087 132 128.345 132C145.604 132 159.595 118.009 159.595 100.75C159.595 83.4911 145.604 69.5 128.345 69.5ZM95.5955 100.75C95.5955 82.6627 110.258 68 128.345 68C146.433 68 161.095 82.6627 161.095 100.75C161.095 118.837 146.433 133.5 128.345 133.5C110.258 133.5 95.5955 118.837 95.5955 100.75Z" fill="#77A9E6"/>
<path fill-rule="evenodd" clip-rule="evenodd" d="M140.008 84.2954C140.008 84.2954 146.279 84.7851 149.776 96.1078C153.272 107.431 147.156 116.331 134.725 120.162C120.197 124.647 112.225 120.102 108.746 108.762" fill="#2F4259"/>
<path d="M160.84 133.134C162.533 133.134 163.907 131.759 163.907 130.067C163.907 128.375 162.533 127 160.84 127C159.148 127 157.773 128.375 157.773 130.067C157.773 131.759 159.148 133.134 160.84 133.134Z" fill="#2F4259"/>
<path d="M152.584 138.056C154.277 138.056 155.651 136.682 155.651 134.989C155.651 133.297 154.277 131.922 152.584 131.922C150.892 131.922 149.517 133.297 149.517 134.989C149.517 136.682 150.892 138.056 152.584 138.056Z" fill="#2F4259"/>
<path fill-rule="evenodd" clip-rule="evenodd" d="M119.125 70.0333C119.521 69.9116 119.941 70.1339 120.063 70.5299L122.468 78.3561C122.59 78.752 122.367 79.1717 121.972 79.2934C121.576 79.4151 121.156 79.1927 121.034 78.7968L118.629 70.9705C118.507 70.5746 118.729 70.155 119.125 70.0333Z" fill="#77A9E6"/>
<path fill-rule="evenodd" clip-rule="evenodd" d="M115.125 71.0333C115.521 70.9116 115.941 71.1339 116.063 71.5299L118.468 79.3561C118.59 79.752 118.367 80.1717 117.972 80.2934C117.576 80.4151 117.156 80.1927 117.034 79.7968L114.629 71.9705C114.507 71.5746 114.729 71.155 115.125 71.0333Z" fill="#77A9E6"/>
<path fill-rule="evenodd" clip-rule="evenodd" d="M70.6284 105.211C70.2522 104.849 69.5185 104.553 68.9958 104.555L67.2845 104.552C66.7647 104.549 66.6327 104.238 66.9917 103.867L68.1723 102.631C68.5342 102.255 68.8301 101.521 68.8275 100.998L68.8313 99.2868C68.8364 98.7621 69.1448 98.635 69.5161 98.994L70.7522 100.175C71.1284 100.536 71.8621 100.832 72.3848 100.83L74.0961 100.834C74.6188 100.831 74.7479 101.147 74.3889 101.518L73.2082 102.755C72.8464 103.131 72.5505 103.864 72.5531 104.387L72.5493 106.098C72.547 106.618 72.2358 106.75 71.8645 106.391L70.6284 105.211Z" fill="#2A3139"/>
<path fill-rule="evenodd" clip-rule="evenodd" d="M182.617 150.197C182.239 150.078 181.641 150.125 181.287 150.303L180.124 150.878C179.77 151.052 179.575 150.885 179.694 150.511L180.078 149.274C180.197 148.896 180.151 148.298 179.973 147.944L179.398 146.781C179.224 146.423 179.391 146.232 179.764 146.351L181.002 146.735C181.379 146.854 181.977 146.808 182.331 146.63L183.495 146.055C183.849 145.877 184.043 146.048 183.925 146.421L183.54 147.659C183.421 148.036 183.468 148.634 183.646 148.989L184.221 150.152C184.394 150.506 184.228 150.7 183.854 150.582L182.617 150.197Z" fill="#2A3139"/>
<path fill-rule="evenodd" clip-rule="evenodd" d="M70.7205 70.1505C71.1905 70.9505 71.3905 72.3405 71.1705 73.2405L70.4605 76.1905C70.2405 77.0805 70.7205 77.4405 71.5205 76.9805L74.1505 75.4605C74.9505 74.9905 76.3405 74.7905 77.2405 75.0105L80.1905 75.7205C81.0805 75.9405 81.4505 75.4605 80.9805 74.6605L79.4605 72.0305C78.9905 71.2305 78.7905 69.8405 79.0105 68.9405L79.7205 65.9905C79.9405 65.1005 79.4705 64.7405 78.6605 65.2005L76.0305 66.7205C75.2305 67.1905 73.8405 67.3905 72.9405 67.1705L69.9905 66.4605C69.1005 66.2405 68.7405 66.7205 69.2005 67.5205L70.7205 70.1505ZM77.8602 73.5902C76.4202 73.2402 74.4302 73.5302 73.1502 74.2702L72.4002 74.7002L72.6002 73.8602C72.9502 72.4202 72.6602 70.4302 71.9202 69.1502L71.4902 68.4002L72.3302 68.6002C73.7702 68.9502 75.7602 68.6602 77.0402 67.9202L77.7902 67.4902L77.5902 68.3302C77.2402 69.7702 77.5302 71.7602 78.2702 73.0402L78.7002 73.7902L77.8602 73.5902Z" fill="#77A9E6"/>
<path fill-rule="evenodd" clip-rule="evenodd" d="M109.77 200.222C110.47 199.032 112.14 197.752 113.48 197.372L115.09 196.922C116.42 196.542 116.55 195.662 115.35 194.952L113.91 194.102C112.72 193.402 111.44 191.732 111.06 190.392L110.61 188.782C110.23 187.452 109.35 187.322 108.64 188.522L107.79 189.962C107.09 191.152 105.42 192.432 104.08 192.812L102.47 193.262C101.14 193.642 101.01 194.522 102.21 195.232L103.65 196.082C104.84 196.782 106.12 198.452 106.5 199.792L106.95 201.402C107.33 202.732 108.21 202.862 108.92 201.662L109.77 200.222ZM109.92 190.712C110.38 192.342 111.86 194.262 113.31 195.122L114.52 195.842L113.16 196.222C111.53 196.682 109.61 198.162 108.75 199.612L108.03 200.822L107.65 199.462C107.19 197.832 105.71 195.912 104.26 195.052L103.05 194.332L104.41 193.952C106.04 193.492 107.96 192.012 108.82 190.562L109.54 189.352L109.92 190.712Z" fill="#77A9E6"/>
<path fill-rule="evenodd" clip-rule="evenodd" d="M85.05 151.362C85.32 149.252 83.83 147.312 81.72 147.032C79.61 146.762 77.67 148.252 77.39 150.362C77.12 152.472 78.61 154.412 80.72 154.692C82.83 154.962 84.77 153.472 85.05 151.362ZM78.92 150.571C79.09 149.301 80.25 148.401 81.52 148.571C82.79 148.731 83.68 149.891 83.52 151.171C83.35 152.441 82.19 153.341 80.92 153.171C79.65 153.001 78.75 151.841 78.92 150.571Z" fill="#77A9E6"/>
<path fill-rule="evenodd" clip-rule="evenodd" d="M73.8112 151.588C73.9844 151.964 73.8198 152.41 73.4435 152.583L49.3801 163.66C49.0038 163.833 48.5584 163.668 48.3852 163.292C48.212 162.916 48.3766 162.47 48.7529 162.297L72.8163 151.22C73.1926 151.047 73.638 151.212 73.8112 151.588Z" fill="#77A9E6"/>
<path fill-rule="evenodd" clip-rule="evenodd" d="M86.3934 156.177C86.7607 155.985 87.2137 156.127 87.4053 156.495L103.795 187.905C103.987 188.272 103.845 188.725 103.477 188.916C103.11 189.108 102.657 188.966 102.465 188.598L86.0755 157.188C85.8838 156.821 86.0262 156.368 86.3934 156.177Z" fill="#77A9E6"/>
<path fill-rule="evenodd" clip-rule="evenodd" d="M139.191 181.61C139.352 181.992 139.173 182.432 138.791 182.593L118.051 191.333C117.67 191.494 117.23 191.314 117.069 190.933C116.908 190.551 117.087 190.111 117.469 189.95L138.209 181.21C138.591 181.05 139.03 181.229 139.191 181.61Z" fill="#77A9E6"/>
<defs>
<radialGradient id="paint0_radial" cx="0" cy="0" r="1" gradientUnits="userSpaceOnUse" gradientTransform="translate(117.32 128.81) rotate(90) scale(177 177.651)">
<stop stop-color="#314C6C"/>
<stop offset="1" stop-color="#314C6C" stop-opacity="0"/>
</radialGradient>
</defs>
</svg>
