<svg xmlns="http://www.w3.org/2000/svg" xmlns:xlink="http://www.w3.org/1999/xlink" width="496" height="152" viewBox="0 0 496 152">
    <defs>
        <circle id="a" cx="76" cy="76" r="76"/>
    </defs>
    <g fill="none" fill-rule="evenodd">
        <g transform="translate(170)">
            <mask id="b" fill="#fff">
                <use xlink:href="#a"/>
            </mask>
            <use fill="#F3F6F6" xlink:href="#a"/>
            <circle cx="68" cy="68" r="76" fill="#FFF" mask="url(#b)"/>
        </g>
        <path fill="#00A1BA" fill-rule="nonzero" d="M246 0c41.013 0 74.439 32.487 75.947 73.132l.075-.265c29.897 8.717 46.704 16.774 45.611 22.974-.964 5.47-15.168 7.48-39.769 6.558a391.699 391.699 0 0 1-10.38-.533C306.901 131.106 278.89 152 246 152c-41.974 0-76-34.026-76-76l.006.833a455.693 455.693 0 0 1-15.849-4.603C152.5 76.205 148.577 79 144 79c-6.075 0-11-4.925-11-11 0-1.075.154-2.113.441-3.095-12.132-5.027-18.37-9.577-17.683-13.477 1.197-6.789 23.789-8.369 60.322-5.263C187.677 19.022 214.617 0 246 0zm-73.987 77.375l.027 1.068C173.328 118.18 205.948 150 246 150c31.822 0 58.953-20.087 69.405-48.273-22.005-1.512-48.842-4.922-76.922-9.874-24.152-4.258-47.05-9.274-66.47-14.478zm149.98-2.432L322 76a75.926 75.926 0 0 1-3.836 23.905c3.387.213 6.65.379 9.775.496 23.096.866 37.055-1.111 37.724-4.908.78-4.424-15.716-12.362-43.67-20.55zM246 2c-40.87 0-74 33.13-74 74l.005-.698c19.47 5.238 42.508 10.294 66.825 14.582 28.253 4.981 55.239 8.398 77.268 9.886A73.865 73.865 0 0 0 320 76c0-40.87-33.13-74-74-74zM144 59a9 9 0 1 0 0 18 9 9 0 0 0 0-18zm-26.273-7.225c-.466 2.643 5.42 6.66 16.461 11.247A11 11 0 0 1 144 57c6.075 0 11 4.925 11 11 0 .796-.085 1.573-.245 2.32a451.173 451.173 0 0 0 15.255 4.441 75.748 75.748 0 0 1 5.273-26.656c-34.375-2.872-56.679-1.302-57.556 3.67zM346 52a6 6 0 1 1 0 12 6 6 0 0 1 0-12zm0 2a4 4 0 1 0 0 8 4 4 0 0 0 0-8z"/>
        <path fill="#C0DCDE" d="M248 119a4 4 0 1 1 0 8 4 4 0 0 1 0-8zm-45.5-16a6.5 6.5 0 1 1 0 13 6.5 6.5 0 0 1 0-13zm92.5 2a2 2 0 1 1 0 4 2 2 0 0 1 0-4zm-2-64a8 8 0 1 1 0 16 8 8 0 0 1 0-16zm-77-9a8 8 0 1 1 0 16 8 8 0 0 1 0-16zm21-6a4 4 0 1 1 0 8 4 4 0 0 1 0-8z"/>
        <circle cx="270.5" cy="61.5" r="1.5" fill="#C0DCDE"/>
        <path fill="#00A1BA" fill-rule="nonzero" d="M74 99.8h29.6v.8c0 .8-.533 1.2-1.6 1.2H74V145h-2.4v-43.2H2.2c-.733 0-1.183-.083-1.35-.25-.167-.167-.317-.417-.45-.75l-.2-.8L72.6 4.8H74v95zm-2.4-87v-1.7c0-.6.067-1.2.2-1.8L3 99.8h68.6v-87zM466 99.8h29.6v.8c0 .8-.533 1.2-1.6 1.2h-28V145h-2.4v-43.2h-69.4c-.733 0-1.183-.083-1.35-.25-.167-.167-.317-.417-.45-.75l-.2-.8 72.4-95.2h1.4v95zm-2.4-87v-1.7c0-.6.067-1.2.2-1.8L395 99.8h68.6v-87z"/>
    </g>
</svg>
