<svg xmlns="http://www.w3.org/2000/svg" width="24" height="24" viewBox="0 0 24 24">
    <path fill="#4A4A4A" fill-rule="nonzero" d="M5 18.991V11.01C5 10.45 5.448 10 5.994 10h12.012c.546 0 .994.45.994 1.009v7.982c0 .558-.448 1.009-.994 1.009H5.994C5.448 20 5 19.55 5 18.991zM17.5 9v-.001a8.516 8.516 0 0 0-.63-3.188C16.031 3.76 14.446 2.5 12 2.5S7.969 3.76 7.13 5.81A8.526 8.526 0 0 0 6.5 9h-.506A2.003 2.003 0 0 0 4 11.009v7.982C4 20.101 4.895 21 5.994 21h12.012A2.003 2.003 0 0 0 20 18.991V11.01C20 9.899 19.105 9 18.006 9H17.5zm-1 0h-9v-.009a7.574 7.574 0 0 1 .555-2.802C8.751 4.49 9.995 3.5 12 3.5s3.249.99 3.945 2.69A7.575 7.575 0 0 1 16.5 9z"/>
</svg>
