<svg height="24" viewBox="0 0 24 24" width="24" xmlns="http://www.w3.org/2000/svg"><g fill="#4a4a4a"><path d="m3 7.006v9.988a.998.998 0 0 0  .99 1.006h16.02c.54 0 .99-.452.99-1.006v-9.988a.998.998 0 0 0-.99-1.006h-16.02c-.54 0-.99.452-.99 1.006zm-1 0c0-1.108.898-2.006 1.99-2.006h16.02c1.098 0 1.99.897 1.99 2.006v9.988a2.003 2.003 0 0 1-1.99 2.006h-16.02c-1.098 0-1.99-.897-1.99-2.006z"/><path d="m4.71 8.407l6.183 4.417c.627.448 1.583.45 2.214 0l6.184-4.417a.5.5 0 0 0-.582-.814l-6.183 4.417c-.283.202-.771.2-1.052 0l-6.184-4.417a.5.5 0 0 0-.582.814z"/></g></svg>