<svg width="24" height="24" viewBox="0 0 24 24" fill="none" xmlns="http://www.w3.org/2000/svg">
<path fill-rule="evenodd" clip-rule="evenodd" d="M3 20.5V19H21V20.5C21 20.7761 21.2239 21 21.5 21C21.7761 21 22 20.7761 22 20.5V13.5C22 12.6716 21.3284 12 20.5 12H20V7.5C20 7.33282 19.9164 7.17671 19.7773 7.08397C17.1988 5.36496 14.6039 4.5 12 4.5C9.39605 4.5 6.80117 5.36496 4.22265 7.08397C4.08355 7.17671 4 7.33282 4 7.5V12H3.5C2.67157 12 2 12.6716 2 13.5V20.5C2 20.7761 2.22386 21 2.5 21C2.77614 21 3 20.7761 3 20.5ZM3 18V13.5C3 13.2239 3.22386 13 3.5 13H20.5C20.7761 13 21 13.2239 21 13.5V18H3ZM8 12V8.5C8 8.22386 8.22386 8 8.5 8H15.5C15.7761 8 16 8.22386 16 8.5V12H19V7.76985C16.6537 6.25331 14.3226 5.5 12 5.5C9.6774 5.5 7.34628 6.25331 5 7.76985V12H8ZM9 12V9H15V12H9Z" fill="currentColor"/>
</svg>
