<svg fill="currentColor" xmlns="http://www.w3.org/2000/svg" width="24" height="24" viewBox="0 0 24 24">
    <path fill-rule="evenodd"
          d="M14.5 3c.276 0 .5.215.5.498V5h2.005C18.107 5 19 5.895 19 6.994l.001 5.106-.063-.012A5.002 5.002 0 0 1 18 22a5.001 5.001 0 0 1-4.566-2.96l-.018-.04h-8.42A1.996 1.996 0 0 1 3 17.006V6.994C3 5.893 3.893 5 4.995 5H7V3.498c0-.245.183-.448.412-.49L7.5 3c.276 0 .5.215.5.498V5h6V3.498c0-.245.183-.448.412-.49L14.5 3zM18 13a4 4 0 1 0 0 8 4 4 0 0 0 0-8zm0 1a.5.5 0 0 1 .492.41l.008.09v2.25l1.8 1.35a.5.5 0 0 1-.523.847L19.7 18.9l-2.2-1.65V14.5a.5.5 0 0 1 .5-.5zm0-3H4v6.006c0 .548.446.994.995.994l8.105.001.006.028A5 5 0 0 1 18 12v-.999zM7 6H4.995A.994.994 0 0 0 4 6.994V10h14V6.994A.996.996 0 0 0 17.005 6H15v1.502a.504.504 0 0 1-.412.49L14.5 8a.494.494 0 0 1-.5-.498V6H8v1.502a.504.504 0 0 1-.412.49L7.5 8a.494.494 0 0 1-.5-.498V6z"/>
</svg>
