<svg width="24" height="24" viewBox="0 0 24 24" fill="none" xmlns="http://www.w3.org/2000/svg">
<g id="Misc/ic-24-check-circle">
<path id="Combined Shape" fill-rule="evenodd" clip-rule="evenodd" d="M12 22C6.47715 22 2 17.5228 2 12C2 6.47715 6.47715 2 12 2C17.5228 2 22 6.47715 22 12C22 17.5228 17.5228 22 12 22ZM12 21C16.9706 21 21 16.9706 21 12C21 7.02944 16.9706 3 12 3C7.02944 3 3 7.02944 3 12C3 16.9706 7.02944 21 12 21ZM16.5499 9.42718C16.2943 9.19094 15.8875 9.19094 15.6319 9.42718L10.3636 14.2971L8.36806 12.4524C8.1125 12.2162 7.70568 12.2162 7.45012 12.4524C7.18329 12.6991 7.18329 13.1077 7.45012 13.3544L10.3636 16.0476L16.5499 10.3291C16.8167 10.0825 16.8167 9.67383 16.5499 9.42718Z" fill="#3C3E40"/>
</g>
</svg>
