<svg width="24" height="24" viewBox="0 0 24 24" fill="none" xmlns="http://www.w3.org/2000/svg">
<path fill-rule="evenodd" clip-rule="evenodd" d="M12 24C18.6274 24 24 18.6274 24 12C24 5.37258 18.6274 0 12 0C5.37258 0 0 5.37258 0 12C0 18.6274 5.37258 24 12 24Z" fill="#F8D2E0"/>
<path d="M4.52 15.0749H5.985V10.8599C5.985 10.6966 5.99 10.5249 6 10.3449L4.96 11.2149C4.91667 11.2516 4.87167 11.2766 4.825 11.2899C4.78167 11.3033 4.73833 11.3099 4.695 11.3099C4.62833 11.3099 4.56667 11.2966 4.51 11.2699C4.45667 11.2399 4.41667 11.2066 4.39 11.1699L4 10.6349L6.205 8.75994H7.22V15.0749H8.52V15.9999H4.52V15.0749Z" fill="#D81B60"/>
<path d="M11.6858 8.68994C12.0191 8.68994 12.3241 8.73994 12.6008 8.83994C12.8774 8.93661 13.1141 9.07494 13.3108 9.25494C13.5074 9.43494 13.6608 9.65161 13.7708 9.90494C13.8808 10.1583 13.9358 10.4399 13.9358 10.7499C13.9358 11.0166 13.8958 11.2633 13.8158 11.4899C13.7391 11.7166 13.6341 11.9333 13.5008 12.1399C13.3708 12.3466 13.2174 12.5466 13.0408 12.7399C12.8641 12.9333 12.6791 13.1299 12.4858 13.3299L10.8558 14.9949C11.0158 14.9483 11.1724 14.9133 11.3258 14.8899C11.4791 14.8633 11.6258 14.8499 11.7658 14.8499H13.6208C13.7541 14.8499 13.8591 14.8883 13.9358 14.9649C14.0158 15.0383 14.0558 15.1366 14.0558 15.2599V15.9999H9.09578V15.5899C9.09578 15.5066 9.11245 15.4199 9.14578 15.3299C9.18245 15.2399 9.23911 15.1566 9.31578 15.0799L11.5108 12.8799C11.6941 12.6933 11.8574 12.5149 12.0008 12.3449C12.1474 12.1749 12.2691 12.0066 12.3658 11.8399C12.4658 11.6733 12.5408 11.5049 12.5908 11.3349C12.6441 11.1616 12.6708 10.9799 12.6708 10.7899C12.6708 10.6166 12.6458 10.4649 12.5958 10.3349C12.5458 10.2016 12.4741 10.0899 12.3808 9.99994C12.2874 9.90994 12.1758 9.84327 12.0458 9.79994C11.9191 9.75327 11.7758 9.72994 11.6158 9.72994C11.3191 9.72994 11.0741 9.80494 10.8808 9.95494C10.6908 10.1049 10.5574 10.3066 10.4808 10.5599C10.4441 10.6866 10.3891 10.7783 10.3158 10.8349C10.2424 10.8883 10.1491 10.9149 10.0358 10.9149C9.98578 10.9149 9.93078 10.9099 9.87078 10.8999L9.22078 10.7849C9.27078 10.4383 9.36745 10.1349 9.51078 9.87494C9.65411 9.61161 9.83245 9.39327 10.0458 9.21994C10.2624 9.04327 10.5091 8.91161 10.7858 8.82494C11.0658 8.73494 11.3658 8.68994 11.6858 8.68994Z" fill="#D81B60"/>
<path d="M17.3016 8.68994C17.6349 8.68994 17.9349 8.73827 18.2016 8.83494C18.4716 8.92827 18.7016 9.05994 18.8916 9.22994C19.0816 9.39661 19.2266 9.59327 19.3266 9.81994C19.4299 10.0466 19.4816 10.2916 19.4816 10.5549C19.4816 10.7849 19.4549 10.9883 19.4016 11.1649C19.3516 11.3383 19.2766 11.4899 19.1766 11.6199C19.0799 11.7499 18.9599 11.8599 18.8166 11.9499C18.6766 12.0399 18.5166 12.1149 18.3366 12.1749C18.7699 12.3116 19.0932 12.5199 19.3066 12.7999C19.5199 13.0799 19.6266 13.4316 19.6266 13.8549C19.6266 14.2149 19.5599 14.5333 19.4266 14.8099C19.2932 15.0866 19.1132 15.3199 18.8866 15.5099C18.6599 15.6966 18.3966 15.8383 18.0966 15.9349C17.7999 16.0316 17.4849 16.0799 17.1516 16.0799C16.7882 16.0799 16.4716 16.0383 16.2016 15.9549C15.9316 15.8716 15.6966 15.7483 15.4966 15.5849C15.2966 15.4216 15.1266 15.2216 14.9866 14.9849C14.8466 14.7483 14.7266 14.4749 14.6266 14.1649L15.1716 13.9399C15.2649 13.8999 15.3599 13.8799 15.4566 13.8799C15.5432 13.8799 15.6199 13.8983 15.6866 13.9349C15.7566 13.9716 15.8099 14.0249 15.8466 14.0949C15.9066 14.2116 15.9716 14.3266 16.0416 14.4399C16.1149 14.5533 16.2016 14.6549 16.3016 14.7449C16.4016 14.8316 16.5182 14.9033 16.6516 14.9599C16.7882 15.0133 16.9499 15.0399 17.1366 15.0399C17.3466 15.0399 17.5299 15.0066 17.6866 14.9399C17.8432 14.8699 17.9732 14.7799 18.0766 14.6699C18.1832 14.5599 18.2616 14.4383 18.3116 14.3049C18.3649 14.1683 18.3916 14.0316 18.3916 13.8949C18.3916 13.7216 18.3732 13.5649 18.3366 13.4249C18.2999 13.2816 18.2232 13.1599 18.1066 13.0599C17.9899 12.9599 17.8216 12.8816 17.6016 12.8249C17.3849 12.7683 17.0932 12.7399 16.7266 12.7399V11.8599C17.0299 11.8566 17.2816 11.8283 17.4816 11.7749C17.6816 11.7216 17.8399 11.6483 17.9566 11.5549C18.0766 11.4583 18.1599 11.3433 18.2066 11.2099C18.2532 11.0766 18.2766 10.9299 18.2766 10.7699C18.2766 10.4266 18.1832 10.1683 17.9966 9.99494C17.8099 9.81827 17.5549 9.72994 17.2316 9.72994C16.9382 9.72994 16.6949 9.80827 16.5016 9.96494C16.3082 10.1183 16.1732 10.3166 16.0966 10.5599C16.0566 10.6866 16.0016 10.7783 15.9316 10.8349C15.8616 10.8883 15.7699 10.9149 15.6566 10.9149C15.6032 10.9149 15.5466 10.9099 15.4866 10.8999L14.8366 10.7849C14.8866 10.4383 14.9832 10.1349 15.1266 9.87494C15.2699 9.61161 15.4482 9.39327 15.6616 9.21994C15.8782 9.04327 16.1249 8.91161 16.4016 8.82494C16.6816 8.73494 16.9816 8.68994 17.3016 8.68994Z" fill="#D81B60"/>
</svg>
