<svg
    width="24"
    height="24"
    viewBox="0 0 24 24"
    fill="none"
    xmlns="http://www.w3.org/2000/svg"
  >
    <path
      fill-rule="evenodd"
      clip-rule="evenodd"
      d="M5 2C4.44772 2 4 2.44772 4 3V17C4 17.5523 4.44772 18 5 18C5.55228 18 6 17.5523 6 17V4H15C15.5523 4 16 3.55228 16 3C16 2.44772 15.5523 2 15 2H5ZM10 8H18V20H10V8ZM8 8C8 6.89543 8.89543 6 10 6H18C19.1046 6 20 6.89543 20 8V20C20 21.1046 19.1046 22 18 22H10C8.89543 22 8 21.1046 8 20V8Z"
      fill="#2367BA"
    />
  </svg>