<svg width="8" height="12" class="icon--curreny" fill="none" xmlns="http://www.w3.org/2000/svg"><path d="M.238 4.707h1.029c.093-.588.25-1.118.469-1.589.224-.476.5-.88.826-1.211a3.424 3.424 0 011.141-.77c.43-.177.896-.266 1.4-.266.625 0 1.16.117 1.603.35.443.233.828.555 1.155.966l-.427.476c-.037.042-.075.08-.112.112a.251.251 0 01-.154.042c-.08 0-.163-.044-.252-.133a2.396 2.396 0 00-.903-.588c-.224-.089-.511-.133-.861-.133-.681 0-1.248.233-1.701.7-.448.467-.747 1.148-.896 2.044h3.829v.385a.332.332 0 01-.098.231c-.06.065-.147.098-.259.098H2.471l-.014.28v.504c0 .07.002.14.007.21h3.269v.392c0 .08-.033.154-.098.224a.36.36 0 01-.266.098H2.527c.13.961.42 1.682.868 2.163.448.48 1.013.721 1.694.721.252 0 .474-.023.665-.07.191-.051.357-.114.497-.189s.259-.154.357-.238a5.01 5.01 0 00.266-.245c.075-.075.14-.135.196-.182a.276.276 0 01.175-.077c.037 0 .07.01.098.028a.49.49 0 01.098.07l.525.49a3.512 3.512 0 01-1.218 1.113c-.485.261-1.062.392-1.729.392a3.75 3.75 0 01-1.463-.273 3.31 3.31 0 01-1.127-.791 4.27 4.27 0 01-.784-1.253 6.496 6.496 0 01-.413-1.659H.238v-.714h.938a3.154 3.154 0 01-.007-.21v-.217-.28l.014-.287H.238v-.714z" class="icon--curreny-path" fill="#7A7D80"/></svg>