<svg width="24" height="24" viewBox="0 0 24 24" fill="none" xmlns="http://www.w3.org/2000/svg">
<path fill-rule="evenodd" clip-rule="evenodd" d="M18.5 10.5354C18.3368 10.5121 18.17 10.5 18.0003 10.5C17.1024 10.5 16.2836 10.8384 15.6644 11.3936C15.0457 9.98431 13.6378 9 12 9C10.3623 9 8.95445 9.98422 8.33571 11.3934C7.71652 10.8383 6.89785 10.5 6 10.5C5.83024 10.5 5.6633 10.5121 5.5 10.5354V3C5.5 2.44772 5.94772 2 6.5 2H13.5V7H18.5V10.5354ZM19.5 10.8367C20.6826 11.3983 21.5003 12.6037 21.5003 14C21.5003 15.2062 20.8901 16.27 19.9616 16.8993C21.7481 17.6619 23.0003 19.4347 23.0003 21.5C23.0003 21.7761 22.7765 22 22.5003 22C22.2242 22 22.0003 21.7761 22.0003 21.5C22.0003 19.2909 20.2095 17.5 18.0003 17.5C17.7242 17.5 17.5003 17.2761 17.5003 17C17.5003 16.7239 17.7242 16.5 18.0003 16.5C19.381 16.5 20.5003 15.3807 20.5003 14C20.5003 12.6193 19.381 11.5 18.0003 11.5C17.1668 11.5 16.4282 11.9076 15.9734 12.5362C15.991 12.6884 16 12.8431 16 13C16 14.4136 15.2667 15.656 14.1597 16.3674C16.6879 17.2578 18.5 19.6673 18.5 22.5C18.5 22.7761 18.2761 23 18 23C17.7239 23 17.5 22.7761 17.5 22.5C17.5 19.4624 15.0376 17 12 17C8.96243 17 6.5 19.4624 6.5 22.5C6.5 22.7761 6.27614 23 6 23C5.72386 23 5.5 22.7761 5.5 22.5C5.5 19.6673 7.31206 17.2578 9.84027 16.3674C8.7333 15.656 8 14.4136 8 13C8 12.843 8.00905 12.6881 8.02664 12.5358C7.57177 11.9074 6.83331 11.5 6 11.5C4.61929 11.5 3.5 12.6193 3.5 14C3.5 15.3807 4.61929 16.5 6 16.5C6.27614 16.5 6.5 16.7239 6.5 17C6.5 17.2761 6.27614 17.5 6 17.5C3.79086 17.5 2 19.2909 2 21.5C2 21.7761 1.77614 22 1.5 22C1.22386 22 1 21.7761 1 21.5C1 19.4347 2.25218 17.6619 4.03876 16.8993C3.1102 16.27 2.5 15.2062 2.5 14C2.5 12.6038 3.31753 11.3985 4.5 10.8368V3C4.5 1.89543 5.39543 1 6.5 1H14.0858C14.351 1 14.6054 1.10536 14.7929 1.29289L19.2071 5.70711C19.3946 5.89464 19.5 6.149 19.5 6.41421V10.8367ZM14.5 2.41421V6H18.0858L14.5 2.41421ZM12 16C13.6569 16 15 14.6569 15 13C15 11.3431 13.6569 10 12 10C10.3431 10 9 11.3431 9 13C9 14.6569 10.3431 16 12 16Z" fill="#3C3E40"/>
</svg>
