<svg width="24" height="24" viewBox="0 0 24 24" fill="none" xmlns="http://www.w3.org/2000/svg">
<path fill-rule="evenodd" clip-rule="evenodd" d="M10 3H13C14.1046 3 15 3.89543 15 5V6H18H19.5C19.7761 6 20 6.22386 20 6.5C20 6.77614 19.7761 7 19.5 7H18L18 19C18 20.1046 17.1046 21 16 21L7 21C5.89543 21 5 20.1046 5 19V7H3.5C3.22386 7 3 6.77614 3 6.5C3 6.22386 3.22386 6 3.5 6H5H8V5C8 3.89543 8.89543 3 10 3ZM6 7H8H15H17L17 19C17 19.5523 16.5523 20 16 20L7 20C6.44772 20 6 19.5523 6 19V7ZM8 10.5C8 10.2239 8.22386 10 8.5 10C8.77614 10 9 10.2239 9 10.5V17.5C9 17.7761 8.77614 18 8.5 18C8.22386 18 8 17.7761 8 17.5V10.5ZM11.5 10C11.2239 10 11 10.2239 11 10.5V17.5C11 17.7761 11.2239 18 11.5 18C11.7761 18 12 17.7761 12 17.5V10.5C12 10.2239 11.7761 10 11.5 10ZM14 10.5C14 10.2239 14.2239 10 14.5 10C14.7761 10 15 10.2239 15 10.5V17.5C15 17.7761 14.7761 18 14.5 18C14.2239 18 14 17.7761 14 17.5V10.5ZM14 6H9V5C9 4.44772 9.44772 4 10 4H13C13.5523 4 14 4.44772 14 5V6Z" fill="#3C3E40"/>
<mask id="mask0" mask-type="alpha" maskUnits="userSpaceOnUse" x="3" y="3" width="17" height="18">
<path fill-rule="evenodd" clip-rule="evenodd" d="M10 3H13C14.1046 3 15 3.89543 15 5V6H18H19.5C19.7761 6 20 6.22386 20 6.5C20 6.77614 19.7761 7 19.5 7H18L18 19C18 20.1046 17.1046 21 16 21L7 21C5.89543 21 5 20.1046 5 19V7H3.5C3.22386 7 3 6.77614 3 6.5C3 6.22386 3.22386 6 3.5 6H5H8V5C8 3.89543 8.89543 3 10 3ZM6 7H8H15H17L17 19C17 19.5523 16.5523 20 16 20L7 20C6.44772 20 6 19.5523 6 19V7ZM8 10.5C8 10.2239 8.22386 10 8.5 10C8.77614 10 9 10.2239 9 10.5V17.5C9 17.7761 8.77614 18 8.5 18C8.22386 18 8 17.7761 8 17.5V10.5ZM11.5 10C11.2239 10 11 10.2239 11 10.5V17.5C11 17.7761 11.2239 18 11.5 18C11.7761 18 12 17.7761 12 17.5V10.5C12 10.2239 11.7761 10 11.5 10ZM14 10.5C14 10.2239 14.2239 10 14.5 10C14.7761 10 15 10.2239 15 10.5V17.5C15 17.7761 14.7761 18 14.5 18C14.2239 18 14 17.7761 14 17.5V10.5ZM14 6H9V5C9 4.44772 9.44772 4 10 4H13C13.5523 4 14 4.44772 14 5V6Z" fill="white"/>
</mask>
<g mask="url(#mask0)">
</g>
</svg>
