<svg width="48" height="48" viewBox="0 0 48 48" fill="none" xmlns="http://www.w3.org/2000/svg">
<g clip-path="url(#clip0)">
<path d="M43.3215 35.7263C42.6815 36.061 42.0215 36.3559 41.3452 36.6094C39.1926 37.4148 36.9123 37.8251 34.614 37.8206C25.7415 37.8206 18.0127 31.7175 18.0127 23.8856C18.0241 22.8352 18.3156 21.8068 18.8571 20.9066C19.3987 20.0065 20.1707 19.2672 21.0934 18.765C13.0684 19.1025 11.0059 27.465 11.0059 32.3644C11.0059 46.2169 23.7727 47.6213 26.5234 47.6213C28.0065 47.6213 30.2434 47.19 31.5859 46.7663L31.8315 46.6838C36.9976 44.8978 41.4017 41.4062 44.319 36.7838C44.4083 36.643 44.4482 36.4764 44.4324 36.3105C44.4165 36.1445 44.3458 35.9885 44.2313 35.8672C44.1169 35.7459 43.9654 35.6662 43.8006 35.6407C43.6358 35.6152 43.4672 35.6453 43.3215 35.7263Z" fill="url(#edge0_linear)"/>
<path opacity="0.35" d="M43.3215 35.7263C42.6815 36.061 42.0215 36.3559 41.3452 36.6094C39.1926 37.4148 36.9123 37.8251 34.614 37.8206C25.7415 37.8206 18.0127 31.7175 18.0127 23.8856C18.0241 22.8352 18.3156 21.8068 18.8571 20.9066C19.3987 20.0065 20.1707 19.2672 21.0934 18.765C13.0684 19.1025 11.0059 27.465 11.0059 32.3644C11.0059 46.2169 23.7727 47.6213 26.5234 47.6213C28.0065 47.6213 30.2434 47.19 31.5859 46.7663L31.8315 46.6838C36.9976 44.8978 41.4017 41.4062 44.319 36.7838C44.4083 36.643 44.4482 36.4764 44.4324 36.3105C44.4165 36.1445 44.3458 35.9885 44.2313 35.8672C44.1169 35.7459 43.9654 35.6662 43.8006 35.6407C43.6358 35.6152 43.4672 35.6453 43.3215 35.7263Z" fill="url(#edge1_radial)"/>
<path d="M19.8204 45.2663C18.148 44.2283 16.6986 42.8682 15.5566 41.265C14.255 39.4817 13.3592 37.4351 12.9323 35.269C12.5053 33.1028 12.5575 30.8694 13.085 28.7255C13.6126 26.5816 14.6028 24.5791 15.9863 22.8585C17.3697 21.1378 19.1129 19.7406 21.0935 18.765C21.6785 18.4894 22.6779 17.9906 24.0072 18.015C24.9438 18.0218 25.8661 18.2454 26.7018 18.6683C27.5375 19.0912 28.2639 19.7019 28.8241 20.4525C29.5813 21.4635 29.9987 22.6883 30.0166 23.9513C30.0166 23.9119 34.6029 9.02625 15.0166 9.02625C6.78535 9.02625 0.0166038 16.8375 0.0166038 23.6906C-0.0158639 27.3158 0.759804 30.9027 2.28723 34.1906C4.78347 39.5167 9.14871 43.7406 14.554 46.0603C19.9593 48.38 26.0283 48.6339 31.6085 46.7738C29.6546 47.3898 27.5904 47.5747 25.5582 47.3157C23.526 47.0568 21.5741 46.3601 19.8372 45.2738L19.8204 45.2663Z" fill="url(#edge2_linear)"/>
<path opacity="0.41" d="M19.8204 45.2663C18.148 44.2283 16.6986 42.8682 15.5566 41.265C14.255 39.4817 13.3592 37.4351 12.9323 35.269C12.5053 33.1028 12.5575 30.8694 13.085 28.7255C13.6126 26.5816 14.6028 24.5791 15.9863 22.8585C17.3697 21.1378 19.1129 19.7406 21.0935 18.765C21.6785 18.4894 22.6779 17.9906 24.0072 18.015C24.9438 18.0218 25.8661 18.2454 26.7018 18.6683C27.5375 19.0912 28.2639 19.7019 28.8241 20.4525C29.5813 21.4635 29.9987 22.6883 30.0166 23.9513C30.0166 23.9119 34.6029 9.02625 15.0166 9.02625C6.78535 9.02625 0.0166038 16.8375 0.0166038 23.6906C-0.0158639 27.3158 0.759804 30.9027 2.28723 34.1906C4.78347 39.5167 9.14871 43.7406 14.554 46.0603C19.9593 48.38 26.0283 48.6339 31.6085 46.7738C29.6546 47.3898 27.5904 47.5747 25.5582 47.3157C23.526 47.0568 21.5741 46.3601 19.8372 45.2738L19.8204 45.2663Z" fill="url(#edge3_radial)"/>
<path d="M28.558 27.9113C28.4061 28.1081 27.9392 28.38 27.9392 28.9725C27.9392 29.4619 28.258 29.9325 28.8242 30.3281C31.5205 32.2031 36.6036 31.9556 36.6167 31.9556C38.6146 31.9508 40.5746 31.4102 42.2923 30.39C44.0252 29.3782 45.4634 27.9308 46.4643 26.1916C47.4651 24.4524 47.9939 22.4817 47.998 20.475C48.0467 16.2731 46.498 13.4794 45.8717 12.2419C41.8986 4.47 33.3223 1.17495e-07 23.9961 1.17495e-07C17.6889 -0.000623545 11.635 2.48156 7.14375 6.9097C2.65245 11.3378 0.084788 17.356 -0.00390625 23.6625C0.0860937 16.8112 6.89609 11.2781 14.9961 11.2781C15.6523 11.2781 19.3948 11.3419 22.8711 13.1663C25.9348 14.775 27.5398 16.7175 28.6555 18.6431C29.8142 20.6437 30.0205 23.1712 30.0205 24.1781C30.0205 25.185 29.5067 26.6775 28.558 27.9113Z" fill="url(#edge4_radial)"/>
<path d="M28.558 27.9113C28.4061 28.1081 27.9392 28.38 27.9392 28.9725C27.9392 29.4619 28.258 29.9325 28.8242 30.3281C31.5205 32.2031 36.6036 31.9556 36.6167 31.9556C38.6146 31.9508 40.5746 31.4102 42.2923 30.39C44.0252 29.3782 45.4634 27.9308 46.4643 26.1916C47.4651 24.4524 47.9939 22.4817 47.998 20.475C48.0467 16.2731 46.498 13.4794 45.8717 12.2419C41.8986 4.47 33.3223 1.17495e-07 23.9961 1.17495e-07C17.6889 -0.000623545 11.635 2.48156 7.14375 6.9097C2.65245 11.3378 0.084788 17.356 -0.00390625 23.6625C0.0860937 16.8112 6.89609 11.2781 14.9961 11.2781C15.6523 11.2781 19.3948 11.3419 22.8711 13.1663C25.9348 14.775 27.5398 16.7175 28.6555 18.6431C29.8142 20.6437 30.0205 23.1712 30.0205 24.1781C30.0205 25.185 29.5067 26.6775 28.558 27.9113Z" fill="url(#edge5_radial)"/>
</g>
<defs>
<linearGradient id="edge0_linear" x1="11.0059" y1="33.1969" x2="44.4446" y2="33.1969" gradientUnits="userSpaceOnUse">
<stop stop-color="#0C59A4"/>
<stop offset="1" stop-color="#114A8B"/>
</linearGradient>
<radialGradient id="edge1_radial" cx="0" cy="0" r="1" gradientUnits="userSpaceOnUse" gradientTransform="translate(29.4746 33.4604) scale(17.8837 16.9896)">
<stop offset="0.72" stop-opacity="0"/>
<stop offset="0.95" stop-opacity="0.53"/>
<stop offset="1"/>
</radialGradient>
<linearGradient id="edge2_linear" x1="28.6347" y1="18.6919" x2="7.7491" y2="41.4413" gradientUnits="userSpaceOnUse">
<stop stop-color="#1B9DE2"/>
<stop offset="0.16" stop-color="#1595DF"/>
<stop offset="0.67" stop-color="#0680D7"/>
<stop offset="1" stop-color="#0078D4"/>
</linearGradient>
<radialGradient id="edge3_radial" cx="0" cy="0" r="1" gradientUnits="userSpaceOnUse" gradientTransform="translate(13.2324 37.3141) rotate(-81.3844) scale(26.8924 21.7263)">
<stop offset="0.76" stop-opacity="0"/>
<stop offset="0.95" stop-opacity="0.5"/>
<stop offset="1"/>
</radialGradient>
<radialGradient id="edge4_radial" cx="0" cy="0" r="1" gradientUnits="userSpaceOnUse" gradientTransform="translate(4.84531 8.88315) rotate(92.2906) scale(37.986 80.9022)">
<stop stop-color="#35C1F1"/>
<stop offset="0.11" stop-color="#34C1ED"/>
<stop offset="0.23" stop-color="#2FC2DF"/>
<stop offset="0.31" stop-color="#2BC3D2"/>
<stop offset="0.67" stop-color="#36C752"/>
</radialGradient>
<radialGradient id="edge5_radial" cx="0" cy="0" r="1" gradientUnits="userSpaceOnUse" gradientTransform="translate(45.0096 14.5136) rotate(73.7398) scale(18.2513 14.8419)">
<stop stop-color="#66EB6E"/>
<stop offset="1" stop-color="#66EB6E" stop-opacity="0"/>
</radialGradient>
<clipPath id="clip0">
<rect width="48" height="48" fill="white"/>
</clipPath>
</defs>
</svg>
