<svg width="24" height="24" viewBox="0 0 24 24" fill="none" xmlns="http://www.w3.org/2000/svg">
  <path d="M19.4142 4.4144L18.7071 5.12151V5.12151L19.4142 4.4144ZM20.5858 5.58597L21.2929 4.87887L21.2929 4.87887L20.5858 5.58597ZM20.5858 8.4144L19.8787 7.70729L20.5858 8.4144ZM9 20.0002V21.0002H9.41421L9.70711 20.7073L9 20.0002ZM5 20.0002H4V21.0002H5V20.0002ZM5 16.0002L4.29289 15.2931L4 15.586V16.0002H5ZM16.5858 4.4144L17.2929 5.12151V5.12151L16.5858 4.4144ZM15.7071 5.29308C15.3166 4.90256 14.6834 4.90256 14.2929 5.29308C13.9024 5.6836 13.9024 6.31677 14.2929 6.70729L15.7071 5.29308ZM18.2929 10.7073C18.6834 11.0978 19.3166 11.0978 19.7071 10.7073C20.0976 10.3168 20.0976 9.6836 19.7071 9.29308L18.2929 10.7073ZM18.7071 5.12151L19.8787 6.29308L21.2929 4.87887L20.1213 3.70729L18.7071 5.12151ZM19.8787 6.29308C20.2692 6.6836 20.2692 7.31677 19.8787 7.70729L21.2929 9.12151C22.4645 7.94993 22.4645 6.05044 21.2929 4.87887L19.8787 6.29308ZM19.8787 7.70729L8.29289 19.2931L9.70711 20.7073L21.2929 9.12151L19.8787 7.70729ZM9 19.0002H5V21.0002H9V19.0002ZM6 20.0002V16.0002H4V20.0002H6ZM5.70711 16.7073L17.2929 5.12151L15.8787 3.70729L4.29289 15.2931L5.70711 16.7073ZM17.2929 5.12151C17.6834 4.73098 18.3166 4.73098 18.7071 5.12151L20.1213 3.70729C18.9497 2.53572 17.0503 2.53572 15.8787 3.70729L17.2929 5.12151ZM14.2929 6.70729L18.2929 10.7073L19.7071 9.29308L15.7071 5.29308L14.2929 6.70729Z" fill="currentColor"/>
</svg>
