<svg xmlns="http://www.w3.org/2000/svg" width="24" height="24" viewBox="0 0 24 24"><g fill="none" fill-rule="evenodd"><path stroke="#4A4A4A" d="M13.894 6.5h2.212l.289 1.59.054.296.288.091c.322.101.635.231.936.389l.268.14.248-.172 1.33-.918 1.565 1.566-.919 1.336-.17.248.139.266c.152.293.28.604.383.931l.09.288.298.054 1.595.289v2.213l-1.596.294-.296.055-.09.286c-.1.316-.23.626-.39.931l-.14.268.173.249.922 1.33-1.565 1.564-1.33-.918-.247-.171-.268.14a5.739 5.739 0 0 1-.936.388l-.288.09-.054.298-.289 1.589h-2.212l-.289-1.59-.054-.296-.288-.091a5.78 5.78 0 0 1-.942-.389l-.267-.14-.249.172-1.33.918-1.563-1.564.927-1.33.173-.248-.14-.269a5.72 5.72 0 0 1-.395-.936l-.09-.288-.298-.054-1.589-.289v-2.212l1.59-.289.296-.054.091-.288c.101-.322.231-.635.389-.936l.14-.268-.173-.249-.922-1.33 1.565-1.564 1.336.919.248.17.266-.14c.302-.156.617-.287.937-.388l.288-.09.054-.298.289-1.589zM15 11.071a2.929 2.929 0 1 0 0 5.858 2.929 2.929 0 0 0 0-5.858z"/><path fill="#4A4A4A" fill-rule="nonzero" d="M10.728 2.496L9.67 3.2l.277.416.24-.44a4.012 4.012 0 0 0-.427-.2 4.882 4.882 0 0 0-.29-.106l-.157.474.493-.079-.201-1.258a.5.5 0 0 0-.485-.421l-1.905-.034a.5.5 0 0 0-.498.402L6.467 3.2l.49.099-.141-.48a4.286 4.286 0 0 0-.726.287l.223.447.292-.406-1.031-.741a.5.5 0 0 0-.64.046l-1.37 1.323a.5.5 0 0 0-.068.637L4.2 5.47l.416-.277-.44-.24a4.356 4.356 0 0 0-.309.714l.475.158-.082-.494-1.253.207a.5.5 0 0 0-.419.485l-.033 1.904a.5.5 0 0 0 .403.5l1.248.247.097-.49-.48.141a4.584 4.584 0 0 0 .282.72l.447-.223-.406-.29-.742 1.036a.5.5 0 0 0 .047.639l1.323 1.37a.5.5 0 0 0 .638.068l.818-.546c.141.065.285.122.431.17a.5.5 0 0 0 .318-.947 3.397 3.397 0 0 1-.547-.24.5.5 0 0 0-.516.024l-.713.476-.743-.77.499-.699A.5.5 0 0 0 5 8.598a3.394 3.394 0 0 1-.216-.556.5.5 0 0 0-.383-.35l-.838-.166.019-1.07.842-.14a.5.5 0 0 0 .393-.334 3.4 3.4 0 0 1 .239-.551.5.5 0 0 0-.023-.517l-.474-.71.77-.743.693.498a.5.5 0 0 0 .515.042c.183-.092.372-.167.561-.223a.5.5 0 0 0 .35-.38l.168-.837 1.069.018.135.845a.5.5 0 0 0 .336.396c.203.067.386.145.553.236a.5.5 0 0 0 .517-.023l.71-.474.743.77-.498.693a.5.5 0 0 0-.042.515c.09.179.163.365.22.559a.5.5 0 0 0 .96-.283 4.43 4.43 0 0 0-.157-.443l.572-.796a.5.5 0 0 0-.046-.64l-1.323-1.37a.5.5 0 0 0-.637-.068z"/></g></svg>