<svg width="240" height="240" viewBox="0 0 240 240" fill="none" xmlns="http://www.w3.org/2000/svg">
<path fill-rule="evenodd" clip-rule="evenodd" d="M119.46 218C167.686 218 206.781 179.049 206.781 131C206.781 82.9512 167.686 44 119.46 44C71.233 44 32.1377 82.9512 32.1377 131C32.1377 179.049 71.233 218 119.46 218Z" fill="#EBF0F5"/>
<path fill-rule="evenodd" clip-rule="evenodd" d="M119.46 218C167.686 218 206.781 179.049 206.781 131C206.781 82.9512 167.686 44 119.46 44C71.233 44 32.1377 82.9512 32.1377 131C32.1377 179.049 71.233 218 119.46 218Z" fill="#EBF0F5"/>
<path fill-rule="evenodd" clip-rule="evenodd" d="M123.904 217.889C122.432 217.963 120.95 218 119.459 218C118.381 218 117.306 217.981 116.237 217.942L115.185 157.161H124.955L123.904 217.889ZM89.8487 212.871C87.3944 211.989 84.9912 211.002 82.6445 209.913L106.13 157.186L114.985 161.315L89.8487 212.871ZM157.284 209.437C154.947 210.557 152.553 211.577 150.106 212.491L125.156 161.315L134.01 157.186L157.284 209.437Z" fill="#1E559A"/>
<path fill-rule="evenodd" clip-rule="evenodd" d="M121.903 217.967C121.091 217.989 120.277 218 119.46 218C119.052 218 118.645 217.997 118.238 217.992L117.22 159.161H122.921L121.903 217.967ZM87.9658 212.17C86.7875 211.716 85.6216 211.237 84.4688 210.734L107.129 159.858L112.295 162.267L87.9658 212.17ZM155.47 210.281C154.32 210.801 153.156 211.296 151.979 211.767L127.845 162.267L133.012 159.858L155.47 210.281Z" fill="white"/>
<path d="M160.012 168.005C161.556 167.344 163.349 165.544 164.005 164.012L164.802 162.153C165.464 160.609 166.542 160.622 167.198 162.153L167.995 164.012C168.656 165.556 170.456 167.349 171.988 168.005L173.847 168.802C175.391 169.464 175.378 170.542 173.847 171.198L171.988 171.995C170.444 172.656 168.651 174.456 167.995 175.988L167.198 177.847C166.536 179.391 165.458 179.378 164.802 177.847L164.005 175.988C163.344 174.444 161.544 172.651 160.012 171.995L158.153 171.198C156.609 170.536 156.622 169.458 158.153 168.802L160.012 168.005Z" fill="white"/>
<path d="M119.343 63.4486C120.544 62.934 121.938 61.534 122.449 60.343L123.068 58.8969C123.583 57.6963 124.421 57.7058 124.932 58.8969L125.551 60.343C126.066 61.5436 127.466 62.9381 128.657 63.4486L130.103 64.0683C131.304 64.5829 131.294 65.4212 130.103 65.9317L128.657 66.5514C127.456 67.066 126.062 68.466 125.551 69.657L124.932 71.1031C124.417 72.3037 123.579 72.2942 123.068 71.1031L122.449 69.657C121.934 68.4564 120.534 67.0619 119.343 66.5514L117.897 65.9317C116.696 65.4171 116.706 64.5788 117.897 64.0683L119.343 63.4486Z" fill="white"/>
<path fill-rule="evenodd" clip-rule="evenodd" d="M61 102C62.6569 102 64 100.657 64 99C64 97.3431 62.6569 96 61 96C59.3431 96 58 97.3431 58 99C58 100.657 59.3431 102 61 102Z" fill="white"/>
<path fill-rule="evenodd" clip-rule="evenodd" d="M183 154C184.657 154 186 152.657 186 151C186 149.343 184.657 148 183 148C181.343 148 180 149.343 180 151C180 152.657 181.343 154 183 154Z" fill="white"/>
<path fill-rule="evenodd" clip-rule="evenodd" d="M119.46 154.282C112.668 154.282 107.161 148.796 107.161 142.028C107.161 135.261 112.668 129.775 119.46 129.775C126.252 129.775 131.759 135.261 131.759 142.028C131.759 148.796 126.252 154.282 119.46 154.282Z" fill="#1E559A"/>
<path fill-rule="evenodd" clip-rule="evenodd" d="M119.46 152.282C125.15 152.282 129.759 147.689 129.759 142.028C129.759 136.367 125.15 131.775 119.46 131.775C113.77 131.775 109.161 136.367 109.161 142.028C109.161 147.689 113.77 152.282 119.46 152.282Z" fill="white"/>
<path fill-rule="evenodd" clip-rule="evenodd" d="M69.2882 119.328C68.2813 116.803 69.4966 113.894 71.9876 112.837L105.963 98.4153C108.461 97.355 111.304 98.5488 112.309 101.067L115.925 110.132C116.932 112.657 115.716 115.566 113.225 116.623L79.2501 131.045C76.7523 132.105 73.9085 130.911 72.9042 128.393L69.2882 119.328Z" fill="#1E559A"/>
<path fill-rule="evenodd" clip-rule="evenodd" d="M71.1455 118.587L74.7615 127.652C75.3516 129.132 77.0064 129.824 78.4682 129.204L112.443 114.782C113.935 114.149 114.67 112.386 114.067 110.873L110.451 101.808C109.86 100.328 108.206 99.6358 106.744 100.256L72.7687 114.678C71.2766 115.311 70.5423 117.074 71.1455 118.587Z" fill="white"/>
<path fill-rule="evenodd" clip-rule="evenodd" d="M114.612 100.089C113.615 97.5598 114.836 94.6487 117.337 93.5869L121.824 91.6822C124.326 90.6204 127.164 91.8166 128.158 94.339L131.735 103.421C132.731 105.95 131.511 108.861 129.009 109.923L124.522 111.828C122.021 112.89 119.182 111.693 118.189 109.171L114.612 100.089Z" fill="#1E559A"/>
<path fill-rule="evenodd" clip-rule="evenodd" d="M120.05 108.438C120.633 109.917 122.278 110.608 123.741 109.987L128.228 108.082C129.732 107.444 130.474 105.675 129.875 104.154L126.297 95.072C125.715 93.5935 124.07 92.9022 122.606 93.5233L118.119 95.4279C116.616 96.0661 115.874 97.8356 116.473 99.356L120.05 108.438Z" fill="white"/>
<path fill-rule="evenodd" clip-rule="evenodd" d="M210.356 111.046C214.655 109.482 215.475 98.5934 211.18 86.7947C206.886 74.996 199.259 67.1822 194.96 68.7468C190.662 70.3113 189.842 81.1996 194.136 92.9982C198.431 104.797 206.058 112.611 210.356 111.046ZM211.04 112.926C205.296 115.016 196.886 106.401 192.257 93.6823C187.628 80.9637 188.532 68.9582 194.276 66.8674C200.021 64.7765 208.431 73.3921 213.06 86.1107C217.689 98.8293 216.785 110.835 211.04 112.926Z" fill="#1E559A"/>
<path fill-rule="evenodd" clip-rule="evenodd" d="M37.4436 159.637L31.2679 142.67L23.8968 145.353C22.3901 145.901 21.6067 147.582 22.1577 149.096L26.3343 160.571C26.8882 162.093 28.5574 162.871 30.0724 162.32L37.4436 159.637ZM20.2783 149.78C19.3485 147.225 20.671 144.398 23.2128 143.473L32.4633 140.106L40.007 160.832L30.7565 164.199C28.206 165.128 25.3875 163.817 24.4549 161.255L20.2783 149.78Z" fill="#1E559A"/>
<path fill-rule="evenodd" clip-rule="evenodd" d="M26.6932 142.232C25.7628 139.676 27.0399 136.761 29.5442 135.723L153.509 84.3135L168.596 125.766L40.5886 166.067C38.0019 166.881 35.1518 165.472 34.2204 162.913L26.6932 142.232Z" fill="#1E559A"/>
<path fill-rule="evenodd" clip-rule="evenodd" d="M30.3108 137.57C28.7962 138.198 28.0084 139.997 28.5731 141.548L36.1002 162.229C36.6656 163.782 38.4229 164.652 39.9885 164.159L166.002 124.486L152.345 86.9616L30.3108 137.57Z" fill="white"/>
<path fill-rule="evenodd" clip-rule="evenodd" d="M148.215 86.5167C147.284 83.9596 148.532 80.9758 151.001 79.853L191.446 61.4563L211.563 116.726L168.755 128.631C166.141 129.358 163.271 127.882 162.337 125.317L148.215 86.5167Z" fill="#1E559A"/>
<path fill-rule="evenodd" clip-rule="evenodd" d="M151.828 81.6736C150.311 82.3636 149.52 84.2561 150.094 85.8328L164.216 124.633C164.792 126.215 166.609 127.152 168.218 126.705L208.943 115.379L190.306 64.172L151.828 81.6736Z" fill="white"/>
<path fill-rule="evenodd" clip-rule="evenodd" d="M187.984 65.1916C187.285 63.2719 188.266 61.1524 190.188 60.4531L192.495 59.6132C194.411 58.9158 196.531 59.9061 197.23 61.8264L216.073 113.599C216.772 115.518 215.791 117.638 213.869 118.337L211.562 119.177C209.646 119.875 207.526 118.884 206.827 116.964L187.984 65.1916Z" fill="#1E559A"/>
<path d="M189.863 64.5075L208.707 116.28C209.028 117.163 210 117.617 210.878 117.298L213.185 116.458C214.066 116.138 214.516 115.168 214.194 114.283L195.35 62.5104C195.029 61.6275 194.057 61.1732 193.179 61.4925L190.872 62.3324C189.992 62.6528 189.541 63.6225 189.863 64.5075Z" fill="white"/>
<path fill-rule="evenodd" clip-rule="evenodd" d="M99.7812 154.281C99.7812 152.928 100.875 151.831 102.243 151.831H136.676C138.035 151.831 139.138 152.94 139.138 154.281V161.634C139.138 162.988 138.044 164.085 136.676 164.085H102.243C100.883 164.085 99.7812 162.976 99.7812 161.634V154.281Z" fill="#1E559A"/>
<path d="M101.781 154.281V161.634C101.781 161.875 101.992 162.085 102.243 162.085H136.676C136.937 162.085 137.138 161.885 137.138 161.634V154.281C137.138 154.041 136.927 153.831 136.676 153.831H102.243C101.981 153.831 101.781 154.031 101.781 154.281Z" fill="white"/>
</svg>
