<svg width="240" height="240" viewBox="0 0 240 240" fill="none" xmlns="http://www.w3.org/2000/svg">
<path fill-rule="evenodd" clip-rule="evenodd" d="M119.46 218C167.686 218 206.781 179.049 206.781 131C206.781 82.9512 167.686 44 119.46 44C71.233 44 32.1377 82.9512 32.1377 131C32.1377 179.049 71.233 218 119.46 218Z" fill="#EBF0F5"/>
<mask id="mask0" mask-type="alpha" maskUnits="userSpaceOnUse" x="32" y="44" width="175" height="174">
<path fill-rule="evenodd" clip-rule="evenodd" d="M119.322 218C167.548 218 206.644 179.049 206.644 131C206.644 82.9512 167.548 44 119.322 44C71.0953 44 32 82.9512 32 131C32 179.049 71.0953 218 119.322 218Z" fill="white"/>
</mask>
<g mask="url(#mask0)">
<path fill-rule="evenodd" clip-rule="evenodd" d="M145 199C146.657 199 148 197.657 148 196C148 194.343 146.657 193 145 193C143.343 193 142 194.343 142 196C142 197.657 143.343 199 145 199Z" fill="white"/>
<path fill-rule="evenodd" clip-rule="evenodd" d="M87 74C89.2091 74 91 72.2091 91 70C91 67.7909 89.2091 66 87 66C84.7909 66 83 67.7909 83 70C83 72.2091 84.7909 74 87 74Z" fill="white"/>
<path d="M72.0083 170.67C73.0374 170.229 74.2327 169.029 74.6702 168.008L75.2014 166.769C75.6425 165.74 76.3611 165.748 76.7986 166.769L77.3298 168.008C77.7708 169.037 78.9708 170.233 79.9917 170.67L81.2312 171.201C82.2603 171.642 82.2522 172.361 81.2312 172.799L79.9917 173.33C78.9626 173.771 77.7673 174.971 77.3298 175.992L76.7986 177.231C76.3575 178.26 75.6389 178.252 75.2014 177.231L74.6702 175.992C74.2292 174.963 73.0292 173.767 72.0083 173.33L70.7688 172.799C69.7397 172.358 69.7478 171.639 70.7688 171.201L72.0083 170.67Z" fill="white"/>
<path d="M152.008 81.6702C153.037 81.2292 154.233 80.0292 154.67 79.0083L155.201 77.7688C155.642 76.7397 156.361 76.7478 156.799 77.7688L157.33 79.0083C157.771 80.0374 158.971 81.2327 159.992 81.6702L161.231 82.2014C162.26 82.6425 162.252 83.3611 161.231 83.7986L159.992 84.3298C158.963 84.7708 157.767 85.9708 157.33 86.9917L156.799 88.2312C156.358 89.2603 155.639 89.2522 155.201 88.2312L154.67 86.9917C154.229 85.9626 153.029 84.7673 152.008 84.3298L150.769 83.7986C149.74 83.3575 149.748 82.6389 150.769 82.2014L152.008 81.6702Z" fill="white"/>
<path fill-rule="evenodd" clip-rule="evenodd" d="M203.3 222.3L206 216L208.7 222.3L215 225L208.7 227.7L206 234L203.3 227.7L197 225L203.3 222.3Z" fill="white"/>
</g>
<path d="M75.3564 125C77.9692 135.516 84.1285 146.454 93.4767 155.803C98.0121 160.338 102.922 164.123 107.976 167.116M76.317 101C77.6727 97.6973 79.6142 94.7117 82.163 92.1629C89.0436 85.2823 99.1086 82.8267 110 84.3771M134.5 94.1758C138.425 96.797 142.23 99.9039 145.803 103.477C154.035 111.709 159.795 121.175 162.837 130.5M164.778 152C163.723 157.831 161.198 163.034 157.116 167.116C150.706 173.527 141.531 176.096 131.5 175.164" stroke="#1E559A" stroke-width="2" stroke-linecap="round"/>
<path fill-rule="evenodd" clip-rule="evenodd" d="M23.2582 139.889C24.2752 139.453 25.4527 138.277 25.8889 137.259L28.2105 131.842C28.6464 130.825 29.3527 130.824 29.7889 131.842L32.1105 137.259C32.5464 138.276 33.7233 139.453 34.7412 139.889L40.1582 142.211C41.1752 142.647 41.1761 143.353 40.1582 143.789L34.7412 146.111C33.7242 146.547 32.5467 147.724 32.1105 148.742L29.7889 154.159C29.3531 155.176 28.6467 155.177 28.2105 154.159L25.8889 148.742C25.4531 147.725 24.2761 146.547 23.2582 146.111L17.8412 143.789C16.8242 143.353 16.8233 142.647 17.8412 142.211L23.2582 139.889Z" fill="#1E559A"/>
<path fill-rule="evenodd" clip-rule="evenodd" d="M24.0463 144.272C25.536 144.911 27.0892 146.464 27.7275 147.954L29 150.923L30.2725 147.954C30.9109 146.464 32.4643 144.911 33.9536 144.272L36.9228 143L33.9536 141.727C32.464 141.089 30.9107 139.536 30.2725 138.046L29 135.077L27.7275 138.046C27.089 139.536 25.5356 141.089 24.0463 141.727L21.0771 143L24.0463 144.272Z" fill="white"/>
<path fill-rule="evenodd" clip-rule="evenodd" d="M74 119C70.6863 119 68 116.314 68 113C68 109.686 70.6863 107 74 107C77.3137 107 80 109.686 80 113C80 116.314 77.3137 119 74 119Z" fill="#1E559A"/>
<path fill-rule="evenodd" clip-rule="evenodd" d="M74 117C76.2091 117 78 115.209 78 113C78 110.791 76.2091 109 74 109C71.7909 109 70 110.791 70 113C70 115.209 71.7909 117 74 117Z" fill="white"/>
<path fill-rule="evenodd" clip-rule="evenodd" d="M164 147C160.686 147 158 144.314 158 141C158 137.686 160.686 135 164 135C167.314 135 170 137.686 170 141C170 144.314 167.314 147 164 147Z" fill="#1E559A"/>
<path fill-rule="evenodd" clip-rule="evenodd" d="M164 145C166.209 145 168 143.209 168 141C168 138.791 166.209 137 164 137C161.791 137 160 138.791 160 141C160 143.209 161.791 145 164 145Z" fill="white"/>
<path fill-rule="evenodd" clip-rule="evenodd" d="M210.161 99.7882C211.177 99.3529 212.356 98.1695 212.788 97.1608L214.212 93.8392C214.647 92.8234 215.356 92.8305 215.788 93.8392L217.212 97.1608C217.647 98.1766 218.831 99.3559 219.839 99.7882L223.161 101.212C224.177 101.647 224.17 102.356 223.161 102.788L219.839 104.212C218.823 104.647 217.644 105.83 217.212 106.839L215.788 110.161C215.353 111.177 214.644 111.17 214.212 110.161L212.788 106.839C212.353 105.823 211.17 104.644 210.161 104.212L206.839 102.788C205.823 102.353 205.831 101.644 206.839 101.212L210.161 99.7882Z" fill="#1E559A"/>
<path fill-rule="evenodd" clip-rule="evenodd" d="M210.949 102.373C212.431 103.009 213.99 104.566 214.626 106.051L215 106.923L215.373 106.051C216.009 104.568 217.566 103.01 219.051 102.373L219.923 102L219.051 101.626C217.568 100.991 216.01 99.4343 215.373 97.9486L215 97.0771L214.626 97.9486C213.991 99.4314 212.434 100.99 210.949 101.626L210.077 102L210.949 102.373Z" fill="white"/>
<path fill-rule="evenodd" clip-rule="evenodd" d="M118.081 86.7081C119.097 86.2728 120.276 85.0895 120.708 84.0808L122.132 80.7591C122.567 79.7434 123.276 79.7504 123.708 80.7591L125.132 84.0808C125.567 85.0965 126.75 86.2759 127.759 86.7081L131.081 88.1317C132.097 88.567 132.09 89.2759 131.081 89.7081L127.759 91.1317C126.743 91.567 125.564 92.7504 125.132 93.7591L123.708 97.0808C123.273 98.0965 122.564 98.0895 122.132 97.0808L120.708 93.7591C120.273 92.7434 119.09 91.564 118.081 91.1317L114.759 89.7081C113.743 89.2728 113.75 88.564 114.759 88.1317L118.081 86.7081Z" fill="#1E559A"/>
<path fill-rule="evenodd" clip-rule="evenodd" d="M118.869 89.2933C120.351 89.9288 121.91 91.4855 122.546 92.9712L122.92 93.8426L123.293 92.9712C123.929 91.4883 125.486 89.93 126.971 89.2933L127.843 88.9198L126.971 88.5463C125.488 87.9108 123.93 86.3542 123.293 84.8685L122.92 83.997L122.546 84.8685C121.911 86.3513 120.354 87.9096 118.869 88.5463L117.997 88.9198L118.869 89.2933Z" fill="white"/>
<path fill-rule="evenodd" clip-rule="evenodd" d="M115.081 168.708C116.097 168.273 117.276 167.089 117.708 166.081L119.132 162.759C119.567 161.743 120.276 161.75 120.708 162.759L122.132 166.081C122.567 167.097 123.75 168.276 124.759 168.708L128.081 170.132C129.097 170.567 129.09 171.276 128.081 171.708L124.759 173.132C123.743 173.567 122.564 174.75 122.132 175.759L120.708 179.081C120.273 180.097 119.564 180.089 119.132 179.081L117.708 175.759C117.273 174.743 116.09 173.564 115.081 173.132L111.759 171.708C110.743 171.273 110.75 170.564 111.759 170.132L115.081 168.708Z" fill="#1E559A"/>
<path fill-rule="evenodd" clip-rule="evenodd" d="M115.869 171.293C117.351 171.929 118.91 173.485 119.546 174.971L119.92 175.843L120.293 174.971C120.929 173.488 122.486 171.93 123.971 171.293L124.843 170.92L123.971 170.546C122.488 169.911 120.93 168.354 120.293 166.868L119.92 165.997L119.546 166.868C118.911 168.351 117.354 169.91 115.869 170.546L114.997 170.92L115.869 171.293Z" fill="white"/>
<path fill-rule="evenodd" clip-rule="evenodd" d="M171 102C172.657 102 174 100.657 174 99C174 97.3431 172.657 96 171 96C169.343 96 168 97.3431 168 99C168 100.657 169.343 102 171 102Z" fill="white"/>
</svg>
