<svg width="240" height="240" viewBox="0 0 240 240" fill="none" xmlns="http://www.w3.org/2000/svg">
<path fill-rule="evenodd" clip-rule="evenodd" d="M120.303 210C165.758 210 202.607 173.287 202.607 128C202.607 82.7127 165.758 46 120.303 46C74.8485 46 38 82.7127 38 128C38 173.287 74.8485 210 120.303 210Z" fill="#EBF0F5"/>
<path fill-rule="evenodd" clip-rule="evenodd" d="M203.3 222.3L206 216L208.7 222.3L215 225L208.7 227.7L206 234L203.3 227.7L197 225L203.3 222.3Z" fill="white"/>
<path fill-rule="evenodd" clip-rule="evenodd" d="M44.5144 26.1729C46.3154 25.401 48.4072 23.301 49.1729 21.5144L50.1025 19.3453C50.8743 17.5444 52.1318 17.5587 52.8975 19.3453L53.8271 21.5144C54.599 23.3154 56.699 25.4072 58.4856 26.1729L60.6547 27.1025C62.4556 27.8743 62.4413 29.1318 60.6547 29.8975L58.4856 30.8271C56.6846 31.599 54.5928 33.699 53.8271 35.4856L52.8975 37.6547C52.1257 39.4556 50.8682 39.4413 50.1025 37.6547L49.1729 35.4856C48.401 33.6846 46.301 31.5928 44.5144 30.8271L42.3453 29.8975C40.5444 29.1257 40.5587 27.8682 42.3453 27.1025L44.5144 26.1729ZM72.0003 86C72.0003 88.7614 74.2389 91 77.0003 91C79.7617 91 82.0003 88.7614 82.0003 86C82.0003 83.2386 79.7617 81 77.0003 81C74.2389 81 72.0003 83.2386 72.0003 86ZM153 164C153 167.314 155.687 170 159 170C162.314 170 165 167.314 165 164C165 160.686 162.314 158 159 158C155.687 158 153 160.686 153 164ZM124.62 181.925L90.6195 167.925C90.1089 167.714 89.8653 167.13 90.0756 166.619C90.2859 166.109 90.8704 165.865 91.381 166.075L125.381 180.075C125.892 180.286 126.135 180.87 125.925 181.381C125.715 181.891 125.13 182.135 124.62 181.925ZM194.351 99.1188C196.581 98.1632 199.171 95.5632 200.119 93.3512L201.27 90.6656C202.225 88.4359 203.782 88.4537 204.73 90.6656L205.881 93.3512C206.837 95.5809 209.437 98.1708 211.649 99.1188L214.334 100.27C216.564 101.225 216.546 102.782 214.334 103.73L211.649 104.881C209.419 105.837 206.829 108.437 205.881 110.649L204.73 113.334C203.775 115.564 202.218 115.546 201.27 113.334L200.119 110.649C199.163 108.419 196.563 105.829 194.351 104.881L191.666 103.73C189.436 102.775 189.454 101.218 191.666 100.27L194.351 99.1188ZM61.6375 35.9921L69.6942 39.5583C70.3771 39.8605 71.0555 40.8025 71.1226 41.5371L73.9891 72.9399C74.0393 73.4899 74.5258 73.8951 75.0758 73.8448C75.6258 73.7946 76.031 73.3081 75.9808 72.7581L73.1143 41.3553C72.9811 39.8966 71.8492 38.325 70.5037 37.7294L62.447 34.1633C61.942 33.9397 61.3514 34.1679 61.1278 34.673C60.9043 35.178 61.1325 35.7686 61.6375 35.9921ZM76.0657 95.6903L79.7272 135.802C79.8638 137.298 81.0676 138.803 82.4964 139.265L147.685 160.949C148.209 161.123 148.775 160.84 148.949 160.316C149.123 159.792 148.84 159.225 148.316 159.051L83.1196 137.364C82.4448 137.146 81.7827 136.319 81.7189 135.62L78.0575 95.5085C78.0073 94.9585 77.5207 94.5533 76.9707 94.6035C76.4207 94.6537 76.0155 95.1403 76.0657 95.6903ZM195.175 111.716L166.846 156.534C166.551 157.001 165.933 157.14 165.466 156.845C164.999 156.55 164.86 155.933 165.155 155.466L193.484 110.647C193.779 110.18 194.397 110.041 194.864 110.336C195.331 110.631 195.47 111.249 195.175 111.716ZM186.247 95.2987L87.1036 85.0053C86.5542 84.9483 86.0627 85.3474 86.0056 85.8967C85.9486 86.4461 86.3477 86.9376 86.897 86.9947L186.04 97.288C186.589 97.345 187.081 96.9459 187.138 96.3966C187.195 95.8473 186.796 95.3557 186.247 95.2987ZM130.678 185.227C132.05 184.639 133.644 183.039 134.227 181.678L134.935 180.025C135.523 178.653 136.481 178.664 137.065 180.025L137.773 181.678C138.361 183.05 139.961 184.644 141.322 185.227L142.975 185.935C144.347 186.523 144.336 187.481 142.975 188.065L141.322 188.773C139.95 189.361 138.356 190.961 137.773 192.322L137.065 193.975C136.477 195.347 135.519 195.336 134.935 193.975L134.227 192.322C133.639 190.95 132.039 189.356 130.678 188.773L129.025 188.065C127.653 187.477 127.664 186.519 129.025 185.935L130.678 185.227ZM78.3404 150.016C77.4653 152.058 75.0747 154.458 73.0165 155.34L70.5375 156.403C68.4957 157.278 68.4793 158.715 70.5375 159.597L73.0165 160.66C75.0583 161.535 77.4583 163.925 78.3404 165.984L79.4028 168.462C80.2779 170.504 81.7151 170.521 82.5972 168.462L83.6596 165.984C84.5347 163.942 86.9253 161.542 88.9835 160.66L91.4625 159.597C93.5043 158.722 93.5207 157.285 91.4625 156.403L88.9835 155.34C86.9417 154.465 84.5417 152.075 83.6596 150.016L82.5972 147.538C81.7221 145.496 80.2849 145.479 79.4028 147.538L78.3404 150.016Z" fill="#1E559A"/>
<path d="M77 89C78.6569 89 80 87.6569 80 86C80 84.3431 78.6569 83 77 83C75.3431 83 74 84.3431 74 86C74 87.6569 75.3431 89 77 89Z" fill="white"/>
<path fill-rule="evenodd" clip-rule="evenodd" d="M159 168C161.209 168 163 166.209 163 164C163 161.791 161.209 160 159 160C156.791 160 155 161.791 155 164C155 166.209 156.791 168 159 168Z" fill="white"/>
<path d="M148.008 127.67C149.037 127.229 150.233 126.029 150.67 125.008L151.201 123.769C151.642 122.74 152.361 122.748 152.799 123.769L153.33 125.008C153.771 126.037 154.971 127.233 155.992 127.67L157.231 128.201C158.26 128.642 158.252 129.361 157.231 129.799L155.992 130.33C154.963 130.771 153.767 131.971 153.33 132.992L152.799 134.231C152.358 135.26 151.639 135.252 151.201 134.231L150.67 132.992C150.229 131.963 149.029 130.767 148.008 130.33L146.769 129.799C145.74 129.358 145.748 128.639 146.769 128.201L148.008 127.67Z" fill="white"/>
<path fill-rule="evenodd" clip-rule="evenodd" d="M140 75C142.209 75 144 73.2091 144 71C144 68.7909 142.209 67 140 67C137.791 67 136 68.7909 136 71C136 73.2091 137.791 75 140 75Z" fill="white"/>
<path fill-rule="evenodd" clip-rule="evenodd" d="M124 65C125.105 65 126 64.1046 126 63C126 61.8954 125.105 61 124 61C122.895 61 122 61.8954 122 63C122 64.1046 122.895 65 124 65Z" fill="white"/>
<path fill-rule="evenodd" clip-rule="evenodd" d="M110 205C111.105 205 112 204.105 112 203C112 201.895 111.105 201 110 201C108.895 201 108 201.895 108 203C108 204.105 108.895 205 110 205Z" fill="white"/>
<path fill-rule="evenodd" clip-rule="evenodd" d="M57 134C58.6569 134 60 132.657 60 131C60 129.343 58.6569 128 57 128C55.3431 128 54 129.343 54 131C54 132.657 55.3431 134 57 134Z" fill="white"/>
<path fill-rule="evenodd" clip-rule="evenodd" d="M44.9805 28.9202C47.4014 29.9577 50.0399 32.593 51.0798 35.0195L51.5 36L51.9202 35.0195C52.9577 32.5986 55.593 29.9601 58.0195 28.9202L59 28.5L58.0195 28.0798C55.5986 27.0423 52.9601 24.407 51.9202 21.9805L51.5 21L51.0798 21.9805C50.0423 24.4014 47.407 27.0399 44.9805 28.0798L44 28.5L44.9805 28.9202Z" fill="white"/>
<path fill-rule="evenodd" clip-rule="evenodd" d="M195.364 103.013C197.977 104.133 200.864 107.017 201.987 109.636L203 112L204.013 109.636C205.133 107.023 208.017 104.136 210.636 103.013L213 102L210.636 100.987C208.023 99.8671 205.136 96.9828 204.013 94.3639L203 92L201.987 94.3639C200.867 96.9767 197.983 99.8645 195.364 100.987L193 102L195.364 103.013Z" fill="white"/>
<path fill-rule="evenodd" clip-rule="evenodd" d="M135.888 191.776C136.784 189.832 138.828 187.785 140.776 186.888C138.832 185.992 136.785 183.948 135.888 182C134.992 183.944 132.948 185.99 131 186.888C132.944 187.784 134.99 189.828 135.888 191.776Z" fill="white"/>
<path fill-rule="evenodd" clip-rule="evenodd" d="M73.9164 158.933C76.4355 160.013 79.2086 162.783 80.2907 165.308L81.112 167.224L81.9333 165.308C83.013 162.789 85.7827 160.015 88.3077 158.933L90.2241 158.112L88.3077 157.291C85.7886 156.211 83.0155 153.441 81.9333 150.916L81.112 149L80.2907 150.916C79.2111 153.435 76.4414 156.209 73.9164 157.291L72 158.112L73.9164 158.933Z" fill="white"/>
</svg>
