<svg width="240" height="238" viewBox="0 0 240 238" fill="none" xmlns="http://www.w3.org/2000/svg">
<path d="M227.95 175.704H225.62C225.07 175.704 224.62 175.258 224.62 174.712C224.62 174.167 225.07 173.72 225.62 173.72H227.95C229.05 173.72 229.95 172.828 229.95 171.737C229.95 171.192 230.4 170.726 230.95 170.726C231.5 170.726 231.95 171.152 231.95 171.697V171.727C231.95 173.919 230.16 175.704 227.95 175.704ZM217.57 175.694H210.52C209.97 175.694 209.52 175.248 209.52 174.702C209.52 174.157 209.97 173.711 210.52 173.711H217.57C218.12 173.711 218.57 174.157 218.57 174.702C218.57 175.248 218.12 175.694 217.57 175.694ZM202.47 175.684H195.42C194.87 175.684 194.42 175.238 194.42 174.692C194.42 174.147 194.87 173.701 195.42 173.701H202.47C203.02 173.701 203.47 174.147 203.47 174.692C203.47 175.238 203.02 175.684 202.47 175.684ZM187.37 175.674H180.32C179.77 175.674 179.32 175.228 179.32 174.682C179.32 174.137 179.77 173.691 180.32 173.691H187.37C187.92 173.691 188.37 174.137 188.37 174.682C188.37 175.238 187.92 175.674 187.37 175.674ZM172.27 175.664H165.22C164.67 175.664 164.22 175.218 164.22 174.672C164.22 174.127 164.67 173.681 165.22 173.681H172.27C172.82 173.681 173.27 174.127 173.27 174.672C173.27 175.228 172.82 175.664 172.27 175.664ZM157.17 175.654H150.12C149.57 175.654 149.12 175.208 149.12 174.663C149.12 174.117 149.57 173.671 150.12 173.671H157.17C157.72 173.671 158.17 174.117 158.17 174.663C158.17 175.218 157.73 175.654 157.17 175.654ZM142.08 175.644H135.03C134.48 175.644 134.03 175.198 134.03 174.653C134.03 174.107 134.48 173.661 135.03 173.661H142.07C142.62 173.661 143.07 174.107 143.07 174.653C143.08 175.208 142.63 175.644 142.08 175.644ZM126.98 175.644H119.93C119.38 175.644 118.93 175.198 118.93 174.653C118.93 174.107 119.38 173.661 119.93 173.661H126.98C127.53 173.661 127.98 174.107 127.98 174.653C127.98 175.198 127.53 175.644 126.98 175.644ZM111.88 175.634H104.83C104.28 175.634 103.83 175.188 103.83 174.643C103.83 174.097 104.28 173.651 104.83 173.651H111.88C112.43 173.651 112.88 174.097 112.88 174.643C112.88 175.188 112.43 175.634 111.88 175.634ZM96.78 175.624H89.73C89.18 175.624 88.73 175.178 88.73 174.633C88.73 174.087 89.18 173.641 89.73 173.641H96.78C97.33 173.641 97.78 174.087 97.78 174.633C97.78 175.178 97.33 175.624 96.78 175.624ZM81.68 175.615H74.63C74.08 175.615 73.63 175.168 73.63 174.623C73.63 174.077 74.08 173.631 74.63 173.631H81.68C82.23 173.631 82.68 174.077 82.68 174.623C82.68 175.168 82.24 175.615 81.68 175.615ZM66.59 175.605H59.54C58.99 175.605 58.54 175.158 58.54 174.613C58.54 174.068 58.99 173.621 59.54 173.621H66.58C67.13 173.621 67.58 174.068 67.58 174.613C67.59 175.158 67.14 175.605 66.59 175.605ZM51.49 175.595H44.44C43.89 175.595 43.44 175.148 43.44 174.603C43.44 174.058 43.89 173.611 44.44 173.611H51.49C52.04 173.611 52.49 174.058 52.49 174.603C52.49 175.148 52.04 175.595 51.49 175.595ZM36.39 175.585H29.34C28.79 175.585 28.34 175.139 28.34 174.593C28.34 174.048 28.79 173.601 29.34 173.601H36.39C36.94 173.601 37.39 174.048 37.39 174.593C37.39 175.139 36.94 175.585 36.39 175.585ZM21.29 175.575H14.24C13.69 175.575 13.24 175.129 13.24 174.583C13.24 174.038 13.69 173.592 14.24 173.592H21.29C21.84 173.592 22.29 174.038 22.29 174.583C22.29 175.129 21.84 175.575 21.29 175.575ZM9 171.509C8.45 171.509 8 171.063 8 170.517V163.526C8 162.981 8.45 162.534 9 162.534C9.55 162.534 10 162.981 10 163.526V170.517C10 171.073 9.55 171.509 9 171.509ZM230.96 164.706C230.41 164.706 229.96 164.26 229.96 163.715V156.733C229.96 156.188 230.41 155.742 230.96 155.742C231.51 155.742 231.96 156.188 231.96 156.733V163.715C231.96 164.27 231.51 164.706 230.96 164.706ZM9.01 156.545C8.46 156.545 8.01 156.099 8.01 155.553V148.562C8.01 148.016 8.46 147.57 9.01 147.57C9.56 147.57 10.01 148.016 10.01 148.562V155.553C10.01 156.099 9.56 156.545 9.01 156.545ZM230.97 149.742C230.42 149.742 229.97 149.296 229.97 148.75V141.759C229.97 141.214 230.42 140.767 230.97 140.767C231.52 140.767 231.97 141.214 231.97 141.759V148.75C231.97 149.296 231.52 149.742 230.97 149.742ZM9.02 141.571C8.47 141.571 8.02 141.124 8.02 140.579V133.598C8.02 133.052 8.47 132.606 9.02 132.606C9.57 132.606 10.02 133.052 10.02 133.598V140.579C10.02 141.124 9.57 141.571 9.02 141.571ZM230.98 134.768C230.43 134.768 229.98 134.322 229.98 133.776V126.785C229.98 126.239 230.43 125.793 230.98 125.793C231.53 125.793 231.98 126.239 231.98 126.785V133.776C231.98 134.322 231.53 134.768 230.98 134.768ZM9.03 126.596C8.48 126.596 8.03 126.15 8.03 125.605V118.614C8.03 118.068 8.48 117.622 9.03 117.622C9.58 117.622 10.03 118.068 10.03 118.614V125.605C10.03 126.15 9.58 126.596 9.03 126.596ZM230.98 119.794C230.43 119.794 229.98 119.347 229.98 118.802V111.811C229.98 111.265 230.43 110.819 230.98 110.819C231.53 110.819 231.98 111.265 231.98 111.811V118.802C231.98 119.347 231.54 119.794 230.98 119.794ZM9.04 111.622C8.49 111.622 8.04 111.176 8.04 110.631V103.639C8.04 103.094 8.49 102.648 9.04 102.648C9.59 102.648 10.04 103.094 10.04 103.639V110.631C10.04 111.186 9.59 111.622 9.04 111.622ZM230.99 104.819C230.44 104.819 229.99 104.373 229.99 103.828V103.263C229.99 102.172 229.09 101.279 227.99 101.279H226.23C225.68 101.279 225.23 100.833 225.23 100.288C225.23 99.7422 225.68 99.2959 226.23 99.2959H227.99C230.19 99.2959 231.99 101.081 231.99 103.263V103.828C231.99 104.373 231.55 104.819 230.99 104.819ZM218.18 101.269H211.13C210.58 101.269 210.13 100.823 210.13 100.278C210.13 99.7322 210.58 99.286 211.13 99.286H218.18C218.73 99.286 219.18 99.7322 219.18 100.278C219.18 100.833 218.73 101.269 218.18 101.269ZM203.08 101.259H196.03C195.48 101.259 195.03 100.813 195.03 100.268C195.03 99.7223 195.48 99.2761 196.03 99.2761H203.08C203.63 99.2761 204.08 99.7223 204.08 100.268C204.08 100.823 203.63 101.259 203.08 101.259ZM187.99 101.259H180.94C180.39 101.259 179.94 100.813 179.94 100.268C179.94 99.7223 180.39 99.2761 180.94 99.2761H187.99C188.54 99.2761 188.99 99.7223 188.99 100.268C188.99 100.813 188.54 101.259 187.99 101.259ZM172.89 101.249H165.84C165.29 101.249 164.84 100.803 164.84 100.258C164.84 99.7124 165.29 99.2662 165.84 99.2662H172.88C173.43 99.2662 173.88 99.7124 173.88 100.258C173.89 100.803 173.44 101.249 172.89 101.249ZM157.79 101.24H150.74C150.19 101.24 149.74 100.793 149.74 100.248C149.74 99.7025 150.19 99.2562 150.74 99.2562H157.79C158.34 99.2562 158.79 99.7025 158.79 100.248C158.79 100.793 158.34 101.24 157.79 101.24ZM142.69 101.23H135.64C135.09 101.23 134.64 100.783 134.64 100.238C134.64 99.6926 135.09 99.2463 135.64 99.2463H142.69C143.24 99.2463 143.69 99.6926 143.69 100.238C143.69 100.783 143.24 101.23 142.69 101.23ZM127.59 101.22H120.54C119.99 101.22 119.54 100.773 119.54 100.228C119.54 99.6827 119.99 99.2364 120.54 99.2364H127.59C128.14 99.2364 128.59 99.6827 128.59 100.228C128.59 100.773 128.14 101.22 127.59 101.22ZM112.5 101.21H105.45C104.9 101.21 104.45 100.764 104.45 100.218C104.45 99.6727 104.9 99.2265 105.45 99.2265H112.5C113.05 99.2265 113.5 99.6727 113.5 100.218C113.5 100.764 113.05 101.21 112.5 101.21ZM97.4 101.2H90.35C89.8 101.2 89.35 100.754 89.35 100.208C89.35 99.6628 89.8 99.2166 90.35 99.2166H97.39C97.94 99.2166 98.39 99.6628 98.39 100.208C98.4 100.754 97.95 101.2 97.4 101.2ZM82.3 101.19H75.25C74.7 101.19 74.25 100.744 74.25 100.198C74.25 99.6529 74.7 99.2067 75.25 99.2067H82.3C82.85 99.2067 83.3 99.6529 83.3 100.198C83.3 100.744 82.85 101.19 82.3 101.19ZM67.2 101.18H60.15C59.6 101.18 59.15 100.734 59.15 100.188C59.15 99.643 59.6 99.1967 60.15 99.1967H67.2C67.75 99.1967 68.2 99.643 68.2 100.188C68.2 100.734 67.75 101.18 67.2 101.18ZM52.1 101.17H45.05C44.5 101.17 44.05 100.724 44.05 100.178C44.05 99.6331 44.5 99.1868 45.05 99.1868H52.1C52.65 99.1868 53.1 99.6331 53.1 100.178C53.1 100.734 52.65 101.17 52.1 101.17ZM37 101.16H29.95C29.4 101.16 28.95 100.714 28.95 100.169C28.95 99.6232 29.4 99.1769 29.95 99.1769H37C37.55 99.1769 38 99.6232 38 100.169C38 100.724 37.56 101.16 37 101.16ZM21.91 101.15H14.86C14.31 101.15 13.86 100.704 13.86 100.159C13.86 99.6132 14.31 99.167 14.86 99.167H21.9C22.45 99.167 22.9 99.6132 22.9 100.159C22.91 100.714 22.46 101.15 21.91 101.15Z" fill="#C9CACC"/>
<path d="M112.421 192.085C112.522 193.739 111.262 195.158 109.608 195.255L43.0744 199.15C41.4204 199.246 39.9977 197.984 39.8968 196.33L36.2013 135.793C36.1004 134.139 37.3594 132.72 39.0134 132.623L105.547 128.728C107.201 128.632 108.624 129.894 108.725 131.548L112.421 192.085Z" fill="#C8CACC"/>
<path fill-rule="evenodd" clip-rule="evenodd" d="M55.7284 165.01C55.6614 164.047 56.4045 163.213 57.3882 163.148L90.4205 160.944C91.4042 160.878 92.256 161.606 92.3231 162.568C92.3902 163.531 91.6471 164.364 90.6633 164.43L57.6311 166.634C56.6473 166.699 55.7955 165.972 55.7284 165.01Z" fill="white"/>
<path fill-rule="evenodd" clip-rule="evenodd" d="M72.8207 145.931C73.8046 145.867 74.6546 146.597 74.7191 147.56L76.8814 179.807C76.946 180.77 76.2007 181.601 75.2168 181.665C74.233 181.728 73.383 180.999 73.3185 180.036L71.1561 147.788C71.0916 146.826 71.8369 145.994 72.8207 145.931Z" fill="white"/>
</svg>
