<svg width="240" height="240" viewBox="0 0 240 240" fill="none" xmlns="http://www.w3.org/2000/svg">
<path fill-rule="evenodd" clip-rule="evenodd" d="M120.497 208C165.287 208 202 171.287 202 126C202 80.7127 165.287 44 120.497 44C74.7127 44 38 80.7127 38 126C38 171.287 74.7127 208 120.497 208Z" fill="#EBF0F5"/>
<path fill-rule="evenodd" clip-rule="evenodd" d="M78.3834 94.0108C79.3992 93.5755 80.5756 92.399 81.0108 91.3834L82.1344 88.7617C82.5697 87.746 83.2756 87.7462 83.7108 88.7617L84.8344 91.3834C85.2697 92.3992 86.4462 93.5756 87.4617 94.0108L90.0834 95.1344C91.0992 95.5697 91.099 96.2756 90.0834 96.7108L87.4617 97.8344C86.446 98.2697 85.2696 99.4462 84.8344 100.462L83.7108 103.083C83.2755 104.099 82.5696 104.099 82.1344 103.083L81.0108 100.462C80.5755 99.446 79.399 98.2696 78.3834 97.8344L75.7617 96.7108C74.746 96.2755 74.7462 95.5696 75.7617 95.1344L78.3834 94.0108ZM150.219 189.867C148.026 189.597 146.467 187.602 146.736 185.409C147.006 183.216 149.001 181.657 151.194 181.926C153.387 182.196 154.946 184.191 154.677 186.384C154.408 188.577 152.412 190.136 150.219 189.867ZM135.654 181.393L137.578 161.673C138.602 151.189 134.981 140.782 127.672 133.197L116.565 121.669C108.849 113.662 105.028 102.678 106.108 91.6112L108.72 64.8494C108.774 64.2997 109.263 63.8976 109.812 63.9513C110.362 64.0049 110.764 64.494 110.711 65.0437L108.099 91.8055C107.076 102.29 110.696 112.696 118.005 120.281L129.112 131.809C136.828 139.816 140.649 150.8 139.569 161.867L137.644 181.587C137.591 182.137 137.102 182.539 136.552 182.485C136.002 182.432 135.6 181.943 135.654 181.393ZM122.058 192.432C122.591 192.577 122.905 193.127 122.761 193.66C122.616 194.193 122.066 194.507 121.534 194.363L79.2576 182.882C77.6586 182.448 76.7144 180.799 77.1486 179.2C77.1922 179.04 77.249 178.883 77.3185 178.732L92.5287 145.683C96.321 137.442 103.532 131.277 112.261 128.81L114.526 128.171C115.058 128.02 115.61 128.33 115.76 128.861C115.91 129.393 115.601 129.945 115.07 130.095L112.805 130.735C104.639 133.042 97.8931 138.81 94.3455 146.519L79.1354 179.569C78.934 180.258 79.2487 180.807 79.7817 180.952L122.058 192.432ZM131.226 125.402C130.701 125.576 130.136 125.291 129.962 124.767C129.789 124.242 130.074 123.677 130.598 123.503L134.215 122.308C141.854 119.782 148.101 114.196 151.461 106.885L166.768 73.5816C166.999 73.0797 166.779 72.486 166.277 72.2553C166.226 72.2315 166.172 72.2122 166.117 72.1976L118.745 59.5842C118.211 59.4421 117.894 58.8942 118.036 58.3605C118.178 57.8269 118.726 57.5094 119.259 57.6515L166.632 70.2649C166.797 70.3089 166.957 70.3668 167.113 70.4381C168.618 71.13 169.277 72.9114 168.586 74.4168L153.279 107.72C149.687 115.535 143.009 121.506 134.843 124.206L131.226 125.402ZM110.619 61.0807C108.426 60.8114 106.867 58.8157 107.136 56.623C107.406 54.4303 109.401 52.8711 111.594 53.1403C113.787 53.4095 115.346 55.4053 115.077 57.5979C114.807 59.7906 112.812 61.3499 110.619 61.0807ZM130.458 194.12C131.471 193.686 132.645 192.51 133.078 191.499L135.256 186.418C135.69 185.405 136.395 185.407 136.828 186.418L139.006 191.499C139.44 192.512 140.615 193.686 141.627 194.12L146.708 196.298C147.721 196.732 147.719 197.436 146.708 197.87L141.627 200.048C140.613 200.482 139.439 201.657 139.006 202.668L136.828 207.749C136.394 208.762 135.689 208.76 135.256 207.749L133.078 202.668C132.644 201.655 131.469 200.481 130.458 200.048L125.377 197.87C124.363 197.436 124.365 196.731 125.377 196.298L130.458 194.12Z" fill="#1E559A"/>
<path fill-rule="evenodd" clip-rule="evenodd" d="M150.463 187.882C149.367 187.747 148.587 186.749 148.721 185.653C148.856 184.556 149.854 183.777 150.95 183.911C152.047 184.046 152.826 185.044 152.692 186.14C152.557 187.237 151.559 188.016 150.463 187.882ZM131.246 198.209L128.619 197.084L131.246 195.958C132.73 195.322 134.281 193.771 134.917 192.287L136.042 189.661L137.168 192.287C137.804 193.772 139.355 195.322 140.839 195.958L143.465 197.084L140.839 198.209C139.354 198.845 137.804 200.396 137.168 201.88L136.042 204.506L134.917 201.88C134.28 200.396 132.729 198.845 131.246 198.209ZM55.343 141.449C56.5436 140.934 57.9381 139.534 58.4486 138.343L59.0683 136.897C59.5829 135.696 60.4212 135.706 60.9317 136.897L61.5514 138.343C62.066 139.544 63.466 140.938 64.657 141.449L66.1031 142.068C67.3037 142.583 67.2942 143.421 66.1031 143.932L64.657 144.551C63.4564 145.066 62.0619 146.466 61.5514 147.657L60.9317 149.103C60.4171 150.304 59.5788 150.294 59.0683 149.103L58.4486 147.657C57.934 146.456 56.534 145.062 55.343 144.551L53.8969 143.932C52.6963 143.417 52.7058 142.579 53.8969 142.068L55.343 141.449ZM111 59C109.895 59 109 58.1046 109 57C109 55.8954 109.895 55 111 55C112.105 55 113 55.8954 113 57C113 58.1046 112.105 59 111 59ZM79.1713 95.9961L78.9998 95.9226L79.1713 95.8491C80.659 95.2115 82.2115 93.6589 82.8491 92.1713L82.9226 91.9998L82.9961 92.1713C83.6337 93.659 85.1863 95.2115 86.6739 95.8491L86.8454 95.9226L86.6739 95.9961C85.1862 96.6337 83.6336 98.1863 82.9961 99.6739L82.9226 99.8454L82.8491 99.6739C82.2115 98.1862 80.6589 96.6336 79.1713 95.9961ZM162 159C160.895 159 160 158.105 160 157C160 155.895 160.895 155 162 155C163.105 155 164 155.895 164 157C164 158.105 163.105 159 162 159ZM181 128C178.791 128 177 126.209 177 124C177 121.791 178.791 120 181 120C183.209 120 185 121.791 185 124C185 126.209 183.209 128 181 128ZM113.906 99.8472C113.886 99.7254 113.877 99.602 113.881 99.4786C113.908 98.3744 114.825 97.5014 115.929 97.5287L146.777 98.2908C146.981 98.2959 147.183 98.3321 147.376 98.3982C148.421 98.7562 148.978 99.8935 148.62 100.938C146.732 106.449 143.836 110.487 139.931 113.051C135.741 115.803 131.535 117.805 127.313 119.056C126.734 119.227 126.11 119.128 125.612 118.787C122.186 116.434 119.502 113.653 117.558 110.444C115.794 107.532 114.577 103.999 113.906 99.8472ZM95.6143 158.063C95.9343 157.368 96.6229 156.917 97.3878 156.9L129.103 156.217C129.117 156.216 129.132 156.216 129.146 156.216C130.25 156.216 131.146 157.111 131.146 158.216H131.146C131.147 161.374 130.936 165.327 130.514 170.077C130.164 174.024 129.845 178.11 129.559 182.334C129.535 182.681 129.475 183.025 129.38 183.36C128.626 186.016 125.862 187.559 123.205 186.805L89.3446 177.198C89.245 177.169 89.1479 177.133 89.0539 177.09C88.0506 176.628 87.6118 175.44 88.0739 174.437L95.6143 158.063ZM119.223 138.708C118.126 138.573 117.347 137.575 117.481 136.479C117.616 135.383 118.614 134.603 119.71 134.738C120.807 134.872 121.586 135.87 121.452 136.966C121.317 138.063 120.319 138.842 119.223 138.708ZM114.905 149.26C113.26 149.058 112.091 147.561 112.293 145.917C112.494 144.272 113.991 143.103 115.636 143.305C117.28 143.507 118.45 145.004 118.248 146.648C118.046 148.293 116.549 149.462 114.905 149.26ZM75 136C73.3431 136 72 134.657 72 133C72 131.343 73.3431 130 75 130C76.6569 130 78 131.343 78 133C78 134.657 76.6569 136 75 136Z" fill="white"/>
</svg>
