<svg width="240" height="240" viewBox="0 0 240 240" fill="none" xmlns="http://www.w3.org/2000/svg">
<path fill-rule="evenodd" clip-rule="evenodd" d="M120.303 210C165.758 210 202.607 173.287 202.607 128C202.607 82.7127 165.758 46 120.303 46C74.8485 46 38 82.7127 38 128C38 173.287 74.8485 210 120.303 210Z" fill="#EBF0F5"/>
<mask id="mask0" mask-type="alpha" maskUnits="userSpaceOnUse" x="38" y="46" width="165" height="164">
<path fill-rule="evenodd" clip-rule="evenodd" d="M120.303 210C165.758 210 202.607 173.287 202.607 128C202.607 82.7127 165.758 46 120.303 46C74.8485 46 38 82.7127 38 128C38 173.287 74.8485 210 120.303 210Z" fill="white"/>
</mask>
<g mask="url(#mask0)">
<path d="M151.343 92.4486C152.544 91.934 153.938 90.534 154.449 89.343L155.068 87.8969C155.583 86.6963 156.421 86.7058 156.932 87.8969L157.551 89.343C158.066 90.5436 159.466 91.9381 160.657 92.4486L162.103 93.0683C163.304 93.5829 163.294 94.4212 162.103 94.9317L160.657 95.5514C159.456 96.066 158.062 97.466 157.551 98.657L156.932 100.103C156.417 101.304 155.579 101.294 155.068 100.103L154.449 98.657C153.934 97.4564 152.534 96.0619 151.343 95.5514L149.897 94.9317C148.696 94.4171 148.706 93.5788 149.897 93.0683L151.343 92.4486Z" fill="white"/>
<path fill-rule="evenodd" clip-rule="evenodd" d="M111 117C113.761 117 116 114.761 116 112C116 109.239 113.761 107 111 107C108.239 107 106 109.239 106 112C106 114.761 108.239 117 111 117Z" fill="white"/>
<path fill-rule="evenodd" clip-rule="evenodd" d="M95 107C96.6569 107 98 105.657 98 104C98 102.343 96.6569 101 95 101C93.3431 101 92 102.343 92 104C92 105.657 93.3431 107 95 107Z" fill="white"/>
<path fill-rule="evenodd" clip-rule="evenodd" d="M140 193C142.209 193 144 191.209 144 189C144 186.791 142.209 185 140 185C137.791 185 136 186.791 136 189C136 191.209 137.791 193 140 193Z" fill="white"/>
<path fill-rule="evenodd" clip-rule="evenodd" d="M124 65C125.105 65 126 64.1046 126 63C126 61.8954 125.105 61 124 61C122.895 61 122 61.8954 122 63C122 64.1046 122.895 65 124 65Z" fill="white"/>
</g>
<path fill-rule="evenodd" clip-rule="evenodd" d="M77 174C78.6569 174 80 172.657 80 171C80 169.343 78.6569 168 77 168C75.3431 168 74 169.343 74 171C74 172.657 75.3431 174 77 174Z" fill="white"/>
<path fill-rule="evenodd" clip-rule="evenodd" d="M86.9999 40L84.9999 54L85.9999 56L180 72L179 61L147 45L86.9999 40Z" fill="white"/>
<path fill-rule="evenodd" clip-rule="evenodd" d="M82.1931 44.4626L85.6457 45.0714C86.1896 45.1673 86.5528 45.686 86.4569 46.2299C86.3678 46.7349 85.9143 47.0841 85.4144 47.0547L85.2984 47.041L81.8458 46.4323C81.3019 46.3364 80.9388 45.8177 81.0347 45.2738C81.1237 44.7688 81.5773 44.4195 82.0771 44.449L82.1931 44.4626ZM69.1095 57.1534C69.1496 56.6543 68.8101 56.1934 68.3071 56.0936C67.7654 55.9862 67.2391 56.3382 67.1316 56.8799L46.0185 163.305L46.0024 163.421C45.9623 163.92 46.3018 164.381 46.8048 164.481C47.3465 164.588 47.8728 164.236 47.9803 163.695L69.0934 57.2691L69.1095 57.1534ZM115.469 163.883L194.469 121.883C194.956 121.624 195.142 121.018 194.882 120.531C194.623 120.043 194.018 119.858 193.53 120.117L114.53 162.117C114.042 162.376 113.857 162.982 114.116 163.469C114.376 163.957 114.981 164.142 115.469 163.883ZM87.1245 138.484L97.7855 157.745C98.053 158.228 98.6615 158.403 99.1447 158.135C99.6279 157.868 99.8028 157.259 99.5353 156.776L88.8743 137.516C88.6068 137.033 87.9983 136.858 87.5151 137.125C87.0319 137.393 86.857 138.001 87.1245 138.484ZM191.132 109.541C191.036 110.085 191.399 110.604 191.943 110.7C192.487 110.796 193.006 110.432 193.101 109.888L200.868 65.8297L185.176 63.0157C184.632 62.9182 184.113 63.2799 184.015 63.8235C183.918 64.3671 184.279 64.8868 184.823 64.9843L198.552 67.4463L191.132 109.541ZM177.981 185.192L187.981 134.192C188.087 133.65 187.734 133.125 187.192 133.019C186.65 132.912 186.124 133.266 186.018 133.808L176.018 184.808C175.912 185.35 176.265 185.875 176.807 185.981C177.349 186.088 177.874 185.734 177.981 185.192Z" fill="#1E559A"/>
<path fill-rule="evenodd" clip-rule="evenodd" d="M88.8282 38.9668L112.059 43.063C112.603 43.1589 112.966 43.6776 112.87 44.2215C112.774 44.7654 112.256 45.1285 111.712 45.0326L88.4809 40.9364C87.9384 40.8407 87.4211 41.2022 87.3259 41.7421L85.2401 53.5715C85.1449 54.1112 85.5065 54.6279 86.0465 54.7231L172.191 69.9128C172.735 70.0087 173.099 70.5274 173.003 71.0713C172.907 71.6152 172.388 71.9783 171.844 71.8824L85.6992 56.6927C84.0712 56.4057 82.9835 54.8514 83.2705 53.2242L84.389 46.8806L81.8462 46.4323C81.3023 46.3364 80.9392 45.8177 81.0351 45.2738C81.131 44.7299 81.6496 44.3668 82.1935 44.4627L84.7363 44.911L85.3563 41.3948C85.6435 39.7662 87.1988 38.6795 88.8282 38.9668Z" fill="#1E559A"/>
<path fill-rule="evenodd" clip-rule="evenodd" d="M183.374 55.6379L153.63 50.3932C153.737 41.9119 147.669 34.4634 139.168 32.9643C133.793 32.0166 128.388 33.6185 124.409 37.2013C123.999 37.5708 123.966 38.2031 124.335 38.6135C124.705 39.0239 125.337 39.057 125.748 38.6875C129.273 35.5124 134.058 34.0942 138.82 34.9339C146.614 36.3082 152.099 43.3292 151.6 51.1631L151.543 52.0561L183.027 57.6075C183.57 57.7032 183.932 58.2194 183.837 58.7574L183.822 58.966L184 64.035C184.019 64.5869 184.482 65.0187 185.034 64.9994C185.586 64.9801 186.018 64.5169 185.999 63.965L185.825 58.9906C186.042 57.4058 184.965 55.9184 183.374 55.6379Z" fill="#1E559A"/>
<path fill-rule="evenodd" clip-rule="evenodd" d="M72.1839 123.73C74.3278 122.811 76.8181 120.311 77.7296 118.184L78.8363 115.602C79.7551 113.458 81.2522 113.475 82.1637 115.602L83.2704 118.184C84.1893 120.328 86.6892 122.818 88.8161 123.73L91.3984 124.836C93.5424 125.755 93.5253 127.252 91.3984 128.164L88.8161 129.27C86.6722 130.189 84.1819 132.689 83.2704 134.816L82.1637 137.398C81.2449 139.542 79.7478 139.525 78.8363 137.398L77.7296 134.816C76.8107 132.672 74.3108 130.182 72.1839 129.27L69.6016 128.164C67.4576 127.245 67.4747 125.748 69.6016 124.836L72.1839 123.73Z" fill="#1E559A"/>
<path fill-rule="evenodd" clip-rule="evenodd" d="M72.9718 127.432C75.5762 128.548 78.4492 131.418 79.568 134.028L80.5001 136.203L81.4322 134.028C82.5484 131.424 85.4179 128.551 88.0284 127.432L90.2034 126.5L88.0284 125.568C85.424 124.452 82.551 121.582 81.4322 118.972L80.5001 116.797L79.568 118.972C78.4518 121.576 75.5823 124.449 72.9718 125.568L70.7969 126.5L72.9718 127.432Z" fill="white"/>
<path fill-rule="evenodd" clip-rule="evenodd" d="M69.0053 37.0124C68.349 38.5437 66.556 40.3437 65.0124 41.0053L63.1531 41.8021C61.6218 42.4584 61.6095 43.5363 63.1531 44.1979L65.0124 44.9947C66.5437 45.651 68.3437 47.444 69.0053 48.9876L69.8021 50.8469C70.4584 52.3782 71.5363 52.3905 72.1979 50.8469L72.9947 48.9876C73.651 47.4563 75.444 45.6563 76.9876 44.9947L78.8469 44.1979C80.3782 43.5416 80.3905 42.4637 78.8469 41.8021L76.9876 41.0053C75.4563 40.349 73.6563 38.556 72.9947 37.0124L72.1979 35.1531C71.5416 33.6218 70.4637 33.6095 69.8021 35.1531L69.0053 37.0124ZM70.8436 48.1998C69.9814 46.1879 67.8075 44.0167 65.8002 43.1564L65.4353 43L65.8002 42.8436C67.8121 41.9814 69.9833 39.8075 70.8436 37.8002L71 37.4353L71.1564 37.8002C72.0186 39.8121 74.1925 41.9833 76.1998 42.8436L76.5647 43L76.1998 43.1564C74.1879 44.0186 72.0167 46.1925 71.1564 48.1998L71 48.5647L70.8436 48.1998Z" fill="#1E559A"/>
<path fill-rule="evenodd" clip-rule="evenodd" d="M198.682 112.562C200.568 111.753 202.76 109.553 203.562 107.682L204.536 105.409C205.345 103.523 206.662 103.538 207.464 105.409L208.438 107.682C209.247 109.568 211.447 111.76 213.318 112.562L215.591 113.536C217.477 114.345 217.462 115.662 215.591 116.464L213.318 117.438C211.432 118.247 209.24 120.447 208.438 122.318L207.464 124.591C206.655 126.477 205.338 126.462 204.536 124.591L203.562 122.318C202.753 120.432 200.553 118.24 198.682 117.438L196.409 116.464C194.523 115.655 194.538 114.338 196.409 113.536L198.682 112.562Z" fill="#1E559A"/>
<path fill-rule="evenodd" clip-rule="evenodd" d="M199.47 115.6C201.818 116.606 204.391 119.176 205.4 121.53L206 122.93L206.6 121.53C207.606 119.182 210.176 116.609 212.53 115.6L213.93 115L212.53 114.4C210.182 113.394 207.608 110.824 206.6 108.47L206 107.07L205.4 108.47C204.394 110.818 201.823 113.391 199.47 114.4L198.07 115L199.47 115.6Z" fill="white"/>
<path fill-rule="evenodd" clip-rule="evenodd" d="M104 171C101.239 171 99 168.761 99 166C99 163.239 101.239 161 104 161C106.761 161 109 163.239 109 166C109 168.761 106.761 171 104 171Z" fill="#1E559A"/>
<path fill-rule="evenodd" clip-rule="evenodd" d="M104 169C105.657 169 107 167.657 107 166C107 164.343 105.657 163 104 163C102.343 163 101 164.343 101 166C101 167.657 102.343 169 104 169Z" fill="white"/>
<path fill-rule="evenodd" clip-rule="evenodd" d="M176 70C176 72.2091 177.791 74 180 74C182.209 74 184 72.2091 184 70C184 67.7909 182.209 66 180 66C177.791 66 176 67.7909 176 70ZM182 70C182 71.1046 181.105 72 180 72C178.895 72 178 71.1046 178 70C178 68.8954 178.895 68 180 68C181.105 68 182 68.8954 182 70Z" fill="#1E559A"/>
<path fill-rule="evenodd" clip-rule="evenodd" d="M116 44C116 46.2091 117.791 48 120 48C122.209 48 124 46.2091 124 44C124 41.7909 122.209 40 120 40C117.791 40 116 41.7909 116 44ZM122 44C122 45.1046 121.105 46 120 46C118.895 46 118 45.1046 118 44C118 42.8954 118.895 42 120 42C121.105 42 122 42.8954 122 44Z" fill="#1E559A"/>
</svg>
