<svg width="240" height="240" viewBox="0 0 240 240" fill="none" xmlns="http://www.w3.org/2000/svg">
<path fill-rule="evenodd" clip-rule="evenodd" d="M33 124.77C33 172.3 71.53 210.83 119.06 210.83C166.59 210.83 205.12 172.3 205.12 124.77C205.12 77.2405 166.59 38.7105 119.06 38.7105C71.53 38.7105 33 77.2405 33 124.77Z" fill="#EBF0F5"/>
<path fill-rule="evenodd" clip-rule="evenodd" d="M109.014 132.907L80.0536 152.159C77.362 154.233 76.862 158.097 78.9351 160.787L79.5054 161.528C81.5792 164.219 85.4427 164.72 88.1343 162.647L111.716 134.744" fill="white"/>
<path d="M109.014 132.907L80.0536 152.159C77.362 154.233 76.862 158.097 78.9351 160.787L79.5054 161.528C81.5792 164.219 85.4427 164.72 88.1343 162.647L111.716 134.744" stroke="#1E559A" stroke-width="2"/>
<path fill-rule="evenodd" clip-rule="evenodd" d="M178.598 155.168C178.598 156.51 179.686 157.599 181.029 157.599C182.371 157.599 183.46 156.51 183.46 155.168C183.46 153.825 182.371 152.737 181.029 152.737C179.686 152.737 178.598 153.825 178.598 155.168Z" fill="white"/>
<path fill-rule="evenodd" clip-rule="evenodd" d="M169.646 102.051C169.646 103.588 170.892 104.835 172.43 104.835C173.966 104.835 175.213 103.588 175.213 102.051C175.213 100.513 173.966 99.2673 172.43 99.2673C170.892 99.2673 169.646 100.513 169.646 102.051Z" fill="white"/>
<path fill-rule="evenodd" clip-rule="evenodd" d="M128.91 179.658C128.91 181 129.998 182.089 131.341 182.089C132.683 182.089 133.772 181 133.772 179.658C133.772 178.315 132.683 177.227 131.341 177.227C129.998 177.227 128.91 178.315 128.91 179.658Z" fill="white"/>
<path fill-rule="evenodd" clip-rule="evenodd" d="M128.91 179.658C128.91 181 129.998 182.089 131.341 182.089C132.683 182.089 133.772 181 133.772 179.658C133.772 178.315 132.683 177.227 131.341 177.227C129.998 177.227 128.91 178.315 128.91 179.658Z" stroke="#1E559A" stroke-width="2"/>
<path fill-rule="evenodd" clip-rule="evenodd" d="M67.6709 80.6217C67.6709 82.2892 69.0224 83.6408 70.69 83.6408C72.3575 83.6408 73.7091 82.2892 73.7091 80.6217C73.7091 78.9541 72.3575 77.6026 70.69 77.6026C69.0224 77.6026 67.6709 78.9541 67.6709 80.6217Z" fill="white"/>
<path fill-rule="evenodd" clip-rule="evenodd" d="M54.2559 123.512C53.7907 124.599 52.5237 125.86 51.4456 126.323L50.1374 126.883C49.0515 127.348 49.06 128.107 50.1374 128.569L51.4456 129.13C52.5322 129.595 53.7942 130.862 54.2559 131.94L54.8162 133.248C55.2821 134.334 56.0406 134.326 56.5023 133.248L57.0633 131.94C57.5285 130.853 58.7955 129.592 59.8729 129.13L61.1818 128.569C62.2677 128.103 62.2592 127.345 61.1818 126.883L59.8729 126.323C58.787 125.857 57.5257 124.59 57.0633 123.512L56.5023 122.204C56.0371 121.118 55.2779 121.127 54.8162 122.204L54.2559 123.512Z" fill="white"/>
<path fill-rule="evenodd" clip-rule="evenodd" d="M54.2559 123.512C53.7907 124.599 52.5237 125.86 51.4456 126.323L50.1374 126.883C49.0515 127.348 49.06 128.107 50.1374 128.569L51.4456 129.13C52.5322 129.595 53.7942 130.862 54.2559 131.94L54.8162 133.248C55.2821 134.334 56.0406 134.326 56.5023 133.248L57.0633 131.94C57.5285 130.853 58.7955 129.592 59.8729 129.13L61.1818 128.569C62.2677 128.103 62.2592 127.345 61.1818 126.883L59.8729 126.323C58.787 125.857 57.5257 124.59 57.0633 123.512L56.5023 122.204C56.0371 121.118 55.2779 121.127 54.8162 122.204L54.2559 123.512Z" stroke="#1E559A" stroke-width="2"/>
<path fill-rule="evenodd" clip-rule="evenodd" d="M119.174 59.723C118.79 60.6193 117.745 61.6604 116.856 62.0418L115.776 62.5042C114.88 62.8884 114.887 63.5141 115.776 63.8954L116.856 64.3578C117.752 64.742 118.793 65.7874 119.174 66.6773L119.637 67.7568C120.021 68.6531 120.647 68.6453 121.028 67.7568L121.491 66.6773C121.875 65.7803 122.92 64.7392 123.809 64.3578L124.889 63.8954C125.786 63.5112 125.779 62.8855 124.889 62.5042L123.809 62.0418C122.914 61.6576 121.872 60.6122 121.491 59.723L121.028 58.6435C120.644 57.7472 120.017 57.7543 119.637 58.6435L119.174 59.723Z" fill="white"/>
<path fill-rule="evenodd" clip-rule="evenodd" d="M197.507 94.2338C196.951 95.5313 195.437 97.0384 194.15 97.5902L192.587 98.2599C191.29 98.816 191.3 99.7223 192.587 100.273L194.15 100.944C195.448 101.5 196.955 103.013 197.507 104.3L198.176 105.863C198.733 107.16 199.639 107.15 200.19 105.863L200.86 104.3C201.417 103.003 202.929 101.496 204.216 100.944L205.779 100.273C207.078 99.718 207.067 98.8118 205.779 98.2599L204.216 97.5902C202.919 97.0341 201.412 95.5207 200.86 94.2338L200.19 92.6706C199.634 91.3731 198.728 91.3838 198.176 92.6706L197.507 94.2338Z" fill="white"/>
<path fill-rule="evenodd" clip-rule="evenodd" d="M197.507 94.2338C196.951 95.5313 195.437 97.0384 194.15 97.5902L192.587 98.2599C191.29 98.816 191.3 99.7223 192.587 100.273L194.15 100.944C195.448 101.5 196.955 103.013 197.507 104.3L198.176 105.863C198.733 107.16 199.639 107.15 200.19 105.863L200.86 104.3C201.417 103.003 202.929 101.496 204.216 100.944L205.779 100.273C207.078 99.718 207.067 98.8118 205.779 98.2599L204.216 97.5902C202.919 97.0341 201.412 95.5207 200.86 94.2338L200.19 92.6706C199.634 91.3731 198.728 91.3838 198.176 92.6706L197.507 94.2338Z" stroke="#1E559A" stroke-width="2"/>
<path fill-rule="evenodd" clip-rule="evenodd" d="M148.394 104.596C149.301 105.95 151.134 106.313 152.489 105.406C153.843 104.499 154.206 102.666 153.299 101.312C152.392 99.9573 150.559 99.5944 149.205 100.501C147.85 101.408 147.488 103.241 148.394 104.596Z" fill="#1E559A"/>
<path d="M128.066 119.055L150.154 103.418" stroke="#1E559A" stroke-width="2"/>
<path fill-rule="evenodd" clip-rule="evenodd" d="M164.429 147.895C144.678 163.871 115.716 160.812 99.7384 141.062C83.7616 121.312 86.8205 92.3487 106.571 76.3713L164.429 147.895Z" fill="white"/>
<path fill-rule="evenodd" clip-rule="evenodd" d="M164.429 147.895C144.678 163.871 115.716 160.812 99.7384 141.062C83.7616 121.312 86.8205 92.3487 106.571 76.3713L164.429 147.895Z" stroke="#1E559A" stroke-width="2"/>
<mask id="mask0" mask-type="alpha" maskUnits="userSpaceOnUse" x="33" y="125" width="173" height="87">
<path fill-rule="evenodd" clip-rule="evenodd" d="M33 125.424C33 172.953 71.53 211.484 119.06 211.484C166.59 211.484 205.12 172.953 205.12 125.424" fill="white"/>
</mask>
<g mask="url(#mask0)">
<path fill-rule="evenodd" clip-rule="evenodd" d="M84.2163 228.106C85.3107 231.594 104.816 234.789 108.305 233.695C111.793 232.601 108.533 230.303 107.439 226.815L90.552 154.969C89.4576 151.481 85.7425 149.54 82.2547 150.634C79.1149 151.618 77.2286 154.726 77.681 157.88C77.9232 159.593 77.7144 161.34 77.0745 162.947L55.6064 216.939" fill="white"/>
<path d="M84.2163 228.106C85.3107 231.594 104.816 234.789 108.305 233.695C111.793 232.601 108.533 230.303 107.439 226.815L90.552 154.969C89.4576 151.481 85.7425 149.54 82.2547 150.634C79.1149 151.618 77.2286 154.726 77.681 157.88C77.9232 159.593 77.7144 161.34 77.0745 162.947L55.6064 216.939" stroke="#1E559A" stroke-width="2"/>
</g>
<path fill-rule="evenodd" clip-rule="evenodd" d="M84.9945 155.232C86.2302 155.739 86.8211 157.152 86.3133 158.388C85.8069 159.624 84.3929 160.215 83.1572 159.707C81.9214 159.2 81.3305 157.787 81.8383 156.551C82.3454 155.315 83.7587 154.725 84.9945 155.232Z" stroke="#1E559A" stroke-width="2"/>
</svg>
