<svg width="240" height="240" viewBox="0 0 240 240" fill="none" xmlns="http://www.w3.org/2000/svg">
<path fill-rule="evenodd" clip-rule="evenodd" d="M119.46 218C167.686 218 206.781 179.049 206.781 131C206.781 82.9512 167.686 44 119.46 44C71.233 44 32.1377 82.9512 32.1377 131C32.1377 179.049 71.233 218 119.46 218Z" fill="#EBF0F5"/>
<mask id="mask0" mask-type="alpha" maskUnits="userSpaceOnUse" x="32" y="44" width="175" height="174">
<path fill-rule="evenodd" clip-rule="evenodd" d="M119.46 218C167.686 218 206.781 179.049 206.781 131C206.781 82.9512 167.686 44 119.46 44C71.233 44 32.1377 82.9512 32.1377 131C32.1377 179.049 71.233 218 119.46 218Z" fill="white"/>
</mask>
<g mask="url(#mask0)">
<path d="M56.6777 104.227C58.0498 103.639 59.6436 102.039 60.2269 100.678L60.9352 99.025C61.5233 97.6529 62.4814 97.6638 63.0648 99.025L63.7731 100.678C64.3611 102.05 65.9611 103.644 67.3223 104.227L68.975 104.935C70.3471 105.523 70.3362 106.481 68.975 107.065L67.3223 107.773C65.9502 108.361 64.3564 109.961 63.7731 111.322L63.0648 112.975C62.4767 114.347 61.5186 114.336 60.9352 112.975L60.2269 111.322C59.6389 109.95 58.0389 108.356 56.6777 107.773L55.025 107.065C53.6529 106.477 53.6638 105.519 55.025 104.935L56.6777 104.227Z" fill="white"/>
<path fill-rule="evenodd" clip-rule="evenodd" d="M125 199C126.657 199 128 197.657 128 196C128 194.343 126.657 193 125 193C123.343 193 122 194.343 122 196C122 197.657 123.343 199 125 199Z" fill="white"/>
<path fill-rule="evenodd" clip-rule="evenodd" d="M162 106C164.209 106 166 104.209 166 102C166 99.7909 164.209 98 162 98C159.791 98 158 99.7909 158 102C158 104.209 159.791 106 162 106Z" fill="white"/>
<path d="M133.008 79.6702C134.037 79.2292 135.233 78.0292 135.67 77.0083L136.201 75.7688C136.642 74.7397 137.361 74.7478 137.799 75.7688L138.33 77.0083C138.771 78.0374 139.971 79.2327 140.992 79.6702L142.231 80.2014C143.26 80.6425 143.252 81.3611 142.231 81.7986L140.992 82.3298C139.963 82.7708 138.767 83.9708 138.33 84.9917L137.799 86.2312C137.358 87.2603 136.639 87.2522 136.201 86.2312L135.67 84.9917C135.229 83.9626 134.029 82.7673 133.008 82.3298L131.769 81.7986C130.74 81.3575 130.748 80.6389 131.769 80.2014L133.008 79.6702Z" fill="white"/>
<path fill-rule="evenodd" clip-rule="evenodd" d="M203.3 222.3L206 216L208.7 222.3L215 225L208.7 227.7L206 234L203.3 227.7L197 225L203.3 222.3Z" fill="white"/>
<path d="M38.5672 168.824L99.5672 126.824C100.022 126.51 100.137 125.888 99.8237 125.433C99.5105 124.978 98.8879 124.863 98.433 125.176L37.433 167.176C36.9781 167.49 36.8632 168.112 37.1764 168.567C37.4896 169.022 38.1123 169.137 38.5672 168.824Z" fill="#1E559A"/>
</g>
<path d="M112.195 128.593L126.195 147.593C126.523 148.038 127.149 148.133 127.593 147.805C128.038 147.477 128.133 146.851 127.805 146.407L113.805 127.407C113.478 126.962 112.851 126.867 112.407 127.195C111.962 127.523 111.867 128.149 112.195 128.593Z" fill="#1E559A"/>
<path d="M146.539 148.843L207.539 109.843C208.004 109.545 208.14 108.927 207.843 108.461C207.545 107.996 206.927 107.86 206.461 108.157L145.461 147.157C144.996 147.455 144.86 148.073 145.158 148.539C145.455 149.004 146.073 149.14 146.539 148.843Z" fill="#1E559A"/>
<path fill-rule="evenodd" clip-rule="evenodd" d="M23.2582 139.889C24.2752 139.453 25.4527 138.276 25.8889 137.258L28.2105 131.842C28.6464 130.824 29.3527 130.824 29.7889 131.842L32.1105 137.258C32.5464 138.276 33.7233 139.453 34.7412 139.889L40.1582 142.211C41.1752 142.647 41.1761 143.353 40.1582 143.789L34.7412 146.111C33.7242 146.547 32.5467 147.724 32.1105 148.742L29.7889 154.158C29.3531 155.176 28.6467 155.176 28.2105 154.158L25.8889 148.742C25.4531 147.724 24.2761 146.547 23.2582 146.111L17.8412 143.789C16.8242 143.353 16.8233 142.647 17.8412 142.211L23.2582 139.889Z" fill="#1E559A"/>
<path fill-rule="evenodd" clip-rule="evenodd" d="M24.0463 144.272C25.536 144.911 27.0892 146.464 27.7275 147.954L29 150.923L30.2725 147.954C30.9109 146.464 32.4643 144.911 33.9536 144.272L36.9228 143L33.9536 141.728C32.464 141.089 30.9107 139.536 30.2725 138.046L29 135.077L27.7275 138.046C27.089 139.536 25.5356 141.089 24.0463 141.728L21.0771 143L24.0463 144.272Z" fill="white"/>
<path fill-rule="evenodd" clip-rule="evenodd" d="M77.4606 167.088C78.4763 166.653 79.6527 165.476 80.0879 164.461L81.2115 161.839C81.6468 160.823 82.3527 160.824 82.7879 161.839L83.9115 164.461C84.3468 165.477 85.5233 166.653 86.5389 167.088L89.1606 168.212C90.1763 168.647 90.1761 169.353 89.1606 169.788L86.5389 170.912C85.5231 171.347 84.3467 172.524 83.9115 173.539L82.7879 176.161C82.3526 177.177 81.6467 177.176 81.2115 176.161L80.0879 173.539C79.6526 172.523 78.4761 171.347 77.4606 170.912L74.8389 169.788C73.8231 169.353 73.8233 168.647 74.8389 168.212L77.4606 167.088Z" fill="#1E559A"/>
<path fill-rule="evenodd" clip-rule="evenodd" d="M78.2486 169.073C79.7363 169.711 81.2889 171.264 81.9265 172.751L82 172.923L82.0735 172.751C82.711 171.264 84.2636 169.711 85.7513 169.073L85.9228 169L85.7513 168.926C84.2637 168.289 82.7111 166.736 82.0735 165.249L82 165.077L81.9265 165.249C81.2889 166.736 79.7364 168.289 78.2486 168.926L78.0771 169L78.2486 169.073Z" fill="white"/>
<path fill-rule="evenodd" clip-rule="evenodd" d="M107 125C103.686 125 101 122.314 101 119C101 115.686 103.686 113 107 113C110.314 113 113 115.686 113 119C113 122.314 110.314 125 107 125Z" fill="#1E559A"/>
<path fill-rule="evenodd" clip-rule="evenodd" d="M107 123C109.209 123 111 121.209 111 119C111 116.791 109.209 115 107 115C104.791 115 103 116.791 103 119C103 121.209 104.791 123 107 123Z" fill="white"/>
<path fill-rule="evenodd" clip-rule="evenodd" d="M130.363 152.987C131.377 152.552 132.553 151.376 132.987 150.363L136.212 142.837C136.647 141.822 137.353 141.824 137.787 142.837L141.012 150.363C141.447 151.378 142.623 152.553 143.637 152.987L151.163 156.213C152.177 156.648 152.176 157.353 151.163 157.787L143.637 161.013C142.622 161.448 141.447 162.624 141.012 163.637L137.787 171.163C137.352 172.178 136.647 172.176 136.212 171.163L132.987 163.637C132.552 162.622 131.376 161.447 130.363 161.013L122.837 157.787C121.822 157.352 121.823 156.647 122.837 156.213L130.363 152.987Z" fill="#1E559A"/>
<path fill-rule="evenodd" clip-rule="evenodd" d="M131.151 159.174C132.637 159.811 134.189 161.363 134.826 162.849L137 167.923L139.174 162.849C139.811 161.363 141.363 159.811 142.849 159.174L147.923 157L142.849 154.826C141.363 154.189 139.811 152.637 139.174 151.151L137 146.077L134.826 151.151C134.189 152.637 132.637 154.189 131.151 154.826L126.077 157L131.151 159.174Z" fill="white"/>
<path fill-rule="evenodd" clip-rule="evenodd" d="M210.161 99.7882C211.177 99.3529 212.356 98.1695 212.788 97.1608L214.212 93.8392C214.647 92.8234 215.356 92.8305 215.788 93.8392L217.212 97.1608C217.647 98.1766 218.831 99.3559 219.839 99.7882L223.161 101.212C224.177 101.647 224.17 102.356 223.161 102.788L219.839 104.212C218.823 104.647 217.644 105.83 217.212 106.839L215.788 110.161C215.353 111.177 214.644 111.17 214.212 110.161L212.788 106.839C212.353 105.823 211.17 104.644 210.161 104.212L206.839 102.788C205.823 102.353 205.831 101.644 206.839 101.212L210.161 99.7882Z" fill="#1E559A"/>
<path fill-rule="evenodd" clip-rule="evenodd" d="M210.949 102.373C212.431 103.009 213.99 104.566 214.626 106.051L215 106.923L215.373 106.051C216.009 104.569 217.566 103.01 219.051 102.373L219.923 102L219.051 101.627C217.568 100.991 216.01 99.4344 215.373 97.9487L215 97.0772L214.626 97.9487C213.991 99.4315 212.434 100.99 210.949 101.627L210.077 102L210.949 102.373Z" fill="white"/>
<path fill-rule="evenodd" clip-rule="evenodd" d="M87 83C88.6569 83 90 81.6569 90 80C90 78.3431 88.6569 77 87 77C85.3431 77 84 78.3431 84 80C84 81.6569 85.3431 83 87 83Z" fill="white"/>
</svg>
