<svg width="240" height="240" fill="none" xmlns="http://www.w3.org/2000/svg"><path fill-rule="evenodd" clip-rule="evenodd" d="M117.32 215.81c48.23 0 87.32-38.95 87.32-87s-39.1-87-87.32-87c-48.22 0-87.32 38.96-87.32 87 0 48.05 39.1 87 87.32 87z" fill="#EBF0F5"/><path fill-rule="evenodd" clip-rule="evenodd" d="M147.32 182.542a4.321 4.321 0 11.002-8.642 4.321 4.321 0 01-.002 8.642z" fill="#1F559B"/><path fill-rule="evenodd" clip-rule="evenodd" d="M147.32 181.102a2.88 2.88 0 10-2.88-2.88 2.887 2.887 0 002.88 2.88z" fill="#fff"/><path fill-rule="evenodd" clip-rule="evenodd" d="M195.081 100.711c1.02-.44 2.2-1.62 2.63-2.63l1.42-3.32c.43-1.02 1.14-1.01 1.58 0l1.42 3.32c.43 1.02 1.62 2.2 2.63 2.63l3.32 1.42c1.02.44 1.01 1.14 0 1.58l-3.32 1.42c-1.02.44-2.2 1.62-2.63 2.63l-1.42 3.32c-.43 1.02-1.14 1.01-1.58 0l-1.42-3.32c-.43-1.02-1.62-2.19-2.63-2.63l-3.32-1.42c-1.02-.44-1.01-1.14 0-1.58l3.32-1.42z" fill="#1F559B"/><path fill-rule="evenodd" clip-rule="evenodd" d="M195.451 103.341c1.63.7 3.35 2.42 4.05 4.06l.41.96.41-.96c.7-1.64 2.42-3.35 4.06-4.06l.96-.41-.96-.42c-1.64-.7-3.35-2.42-4.06-4.05l-.41-.96-.41.96c-.7 1.63-2.42 3.35-4.05 4.05l-.96.41.96.42z" fill="#fff"/><path fill-rule="evenodd" clip-rule="evenodd" d="M142.752 37.406a.75.75 0 011.011-.322c5.681 2.936 8.827 10.01 7.228 16.197-1.064 4.128-3.77 7.277-6.745 10.142-.904.87-1.826 1.71-2.741 2.542-2.147 1.954-4.253 3.871-5.986 6.064l-.001.001c-4.906 6.18-6.516 14.83-4.167 22.36 2.349 7.529 8.581 13.728 16.12 16.052a.75.75 0 01-.442 1.434c-8.011-2.47-14.614-9.037-17.11-17.04-2.496-8.002-.791-17.169 4.423-23.737 1.813-2.294 4.066-4.345 6.252-6.336.893-.813 1.775-1.616 2.611-2.42 2.931-2.823 5.379-5.73 6.334-9.437 1.425-5.513-1.408-11.876-6.465-14.49a.75.75 0 01-.322-1.01z" fill="#20559C"/><path d="M112.346 128.75s-10.602 11.016-4.442 21.635c0 0 38.941 9.865 66.442-20.507 0 0-4.001-14.128-17.501-14.628" fill="#fff"/><path fill-rule="evenodd" clip-rule="evenodd" d="M156.096 115.222a.75.75 0 01.777-.721c7.046.261 11.611 4.09 14.386 7.802a26.08 26.08 0 012.938 5.058c.301.686.517 1.258.658 1.661a16.368 16.368 0 01.198.601l.01.036.003.01.001.003v.001c0 .001.001.001-.721.205l.721-.205a.752.752 0 01-.165.709c-13.908 15.36-30.712 20.542-44.014 21.885a79.441 79.441 0 01-16.552-.07 64.382 64.382 0 01-4.843-.711 40.083 40.083 0 01-1.307-.266c-.15-.033-.265-.06-.343-.078l-.089-.022-.024-.006-.009-.002.183-.727-.184.727a.748.748 0 01-.464-.351c-3.252-5.606-2.054-11.295-.122-15.489.968-2.102 2.132-3.856 3.051-5.084.461-.615.862-1.1 1.149-1.434a18.364 18.364 0 01.435-.485l.026-.028.007-.007.002-.003h.001l.541.519-.541-.519a.75.75 0 111.081 1.039l-.004.005-.02.02-.08.088c-.072.078-.178.196-.312.351-.268.311-.647.769-1.084 1.353a27.046 27.046 0 00-2.89 4.812c-1.794 3.896-2.812 8.908-.1 13.831l.115.026c.284.063.708.153 1.259.256 1.102.207 2.711.471 4.731.694 4.04.446 9.713.727 16.236.069 12.951-1.308 29.228-6.316 42.763-21.082l-.06-.175a24.504 24.504 0 00-3.382-6.317c-2.6-3.477-6.786-6.962-13.24-7.201a.751.751 0 01-.722-.778zM165.7 89.004c.001 0 0 0 0 0l1.271 5.04c1.128 4.488-.857 9.134-4.82 10.136l-.002.001-5.423 1.362a.75.75 0 11-.366-1.455l5.423-1.362c2.89-.731 4.735-4.33 3.734-8.316l-1.271-5.04c-1.002-3.989-4.332-6.3-7.229-5.569l-5.633 1.42a.75.75 0 11-.367-1.454l5.633-1.42c3.975-1.002 7.923 2.17 9.05 6.657zM93.446 119.488l-1.956-4.816c-1.738-4.29-.415-9.165 3.372-10.706v-.001l5.184-2.1a.751.751 0 01.563 1.39l-5.182 2.1c-2.761 1.125-4.09 4.944-2.547 8.753l1.956 4.816c1.544 3.811 5.162 5.638 7.93 4.514l5.383-2.186a.75.75 0 11.564 1.39l-5.382 2.186c-3.798 1.542-8.147-1.052-9.885-5.34z" fill="#20559C"/><path d="M160.345 100.75c0 17.673-14.326 32-32 32-17.673 0-32-14.327-32-32 0-17.673 14.327-32 32-32 17.674 0 32 14.327 32 32z" fill="#fff"/><path fill-rule="evenodd" clip-rule="evenodd" d="M128.345 69.5c-17.258 0-31.25 13.991-31.25 31.25S111.088 132 128.346 132c17.259 0 31.25-13.991 31.25-31.25s-13.991-31.25-31.25-31.25zm-32.75 31.25c0-18.087 14.663-32.75 32.75-32.75 18.088 0 32.75 14.663 32.75 32.75s-14.662 32.75-32.75 32.75c-18.087 0-32.75-14.663-32.75-32.75z" fill="#20559C"/><path fill-rule="evenodd" clip-rule="evenodd" d="M140.008 84.295s6.271.49 9.768 11.813c3.496 11.322-2.62 20.223-15.051 24.054-14.528 4.484-22.5-.06-25.979-11.4" fill="#F4F8FD"/><path d="M160.84 133.598a3.068 3.068 0 000-6.134 3.07 3.07 0 00-3.067 3.067 3.069 3.069 0 003.067 3.067zM152.584 138.521a3.068 3.068 0 10-3.067-3.067 3.07 3.07 0 003.067 3.067z" fill="#D0E1F5"/><path fill-rule="evenodd" clip-rule="evenodd" d="M119.125 70.033a.75.75 0 01.938.497l2.405 7.826a.75.75 0 01-1.434.44l-2.405-7.826a.75.75 0 01.496-.937zM115.125 71.033a.75.75 0 01.938.497l2.405 7.826a.75.75 0 01-1.434.44l-2.405-7.826a.75.75 0 01.496-.937z" fill="#20559C"/><path fill-rule="evenodd" clip-rule="evenodd" d="M70.628 105.21c-.376-.361-1.11-.657-1.632-.655l-1.712-.004c-.52-.002-.651-.313-.292-.684l1.18-1.236c.362-.377.658-1.11.656-1.633l.003-1.711c.005-.525.314-.652.685-.293l1.236 1.181c.376.361 1.11.657 1.633.655l1.711.003c.523-.002.652.314.293.685l-1.18 1.236c-.363.377-.659 1.11-.656 1.633l-.004 1.711c-.002.52-.313.652-.684.293l-1.237-1.181zM182.617 150.197c-.378-.119-.976-.072-1.33.106l-1.163.575c-.354.174-.549.007-.43-.367l.384-1.237c.119-.378.073-.976-.105-1.33l-.575-1.163c-.174-.358-.007-.549.366-.43l1.238.384c.377.119.975.073 1.329-.105l1.164-.575c.354-.178.548-.007.43.366l-.385 1.238c-.119.377-.072.975.106 1.33l.575 1.163c.173.354.007.548-.367.43l-1.237-.385z" fill="#fff"/><path fill-rule="evenodd" clip-rule="evenodd" d="M71.17 73.24c.22-.9.02-2.29-.45-3.09l-1.52-2.63c-.46-.8-.1-1.28.79-1.06l2.95.71c.9.22 2.29.02 3.09-.45l2.63-1.52c.81-.46 1.28-.1 1.06.79l-.71 2.95c-.22.9-.02 2.29.45 3.09l1.52 2.63c.47.8.1 1.28-.79 1.06l-2.95-.71c-.9-.22-2.29-.02-3.09.45l-2.63 1.52c-.8.46-1.28.1-1.06-.79l.71-2.95z" fill="#1F559B"/><path fill-rule="evenodd" clip-rule="evenodd" d="M73.15 74.27c1.28-.74 3.27-1.03 4.71-.68l.84.2-.43-.75c-.74-1.28-1.03-3.27-.68-4.71l.2-.84-.75.43c-1.28.74-3.27 1.03-4.71.68l-.84-.2.43.75c.74 1.28 1.03 3.27.68 4.71l-.2.84.75-.43z" fill="#fff"/><path fill-rule="evenodd" clip-rule="evenodd" d="M113.48 197.372c-1.34.38-3.01 1.66-3.71 2.85l-.85 1.44c-.71 1.2-1.59 1.07-1.97-.26l-.45-1.61c-.38-1.34-1.66-3.01-2.85-3.71l-1.44-.85c-1.2-.71-1.07-1.59.26-1.97l1.61-.45c1.34-.38 3.01-1.66 3.71-2.85l.85-1.44c.71-1.2 1.59-1.07 1.97.26l.45 1.61c.38 1.34 1.66 3.01 2.85 3.71l1.44.85c1.2.71 1.07 1.59-.26 1.97l-1.61.45z" fill="#1F559B"/><path fill-rule="evenodd" clip-rule="evenodd" d="M113.31 195.122c-1.45-.86-2.93-2.78-3.39-4.41l-.38-1.36-.72 1.21c-.86 1.45-2.78 2.93-4.41 3.39l-1.36.38 1.21.72c1.45.86 2.93 2.78 3.39 4.41l.38 1.36.72-1.21c.86-1.45 2.78-2.93 4.41-3.39l1.36-.38-1.21-.72z" fill="#fff"/><path fill-rule="evenodd" clip-rule="evenodd" d="M81.72 147.032c2.11.28 3.6 2.22 3.33 4.33a3.876 3.876 0 01-4.33 3.33 3.876 3.876 0 01-3.33-4.33c.28-2.11 2.22-3.6 4.33-3.33z" fill="#1F559B"/><path fill-rule="evenodd" clip-rule="evenodd" d="M81.52 148.572a2.32 2.32 0 10-.6 4.6 2.32 2.32 0 002.6-2c.16-1.28-.73-2.44-2-2.6z" fill="#fff"/><path fill-rule="evenodd" clip-rule="evenodd" d="M73.811 151.588a.75.75 0 01-.368.995L49.38 163.66a.75.75 0 01-.627-1.363l24.063-11.077a.75.75 0 01.995.368zM86.393 156.177a.749.749 0 011.012.318l16.39 31.41a.75.75 0 11-1.33.694l-16.39-31.41a.75.75 0 01.318-1.012zM139.191 181.61a.75.75 0 01-.4.983l-20.74 8.74a.75.75 0 01-.582-1.383l20.74-8.74a.75.75 0 01.982.4z" fill="#20559C"/></svg>