<svg width="24" height="24" viewBox="0 0 24 24" fill="none" xmlns="http://www.w3.org/2000/svg">
<path d="M21.8497 19.804L13.3287 3.5367C12.7672 2.46471 11.2328 2.46471 10.6713 3.5367L2.15029 19.804C1.62714 20.8027 2.35157 22 3.47904 22H20.521C21.6484 22 22.3729 20.8027 21.8497 19.804Z" fill="#FFEDEF"/>
<path d="M11.25 9.75C11.25 9.33579 11.5858 9 12 9C12.4142 9 12.75 9.33579 12.75 9.75V14.25C12.75 14.6642 12.4142 15 12 15C11.5858 15 11.25 14.6642 11.25 14.25V9.75Z" fill="#F54559"/>
<path d="M12 17C11.5858 17 11.25 17.3358 11.25 17.75C11.25 18.1642 11.5858 18.5 12 18.5C12.4142 18.5 12.75 18.1642 12.75 17.75C12.75 17.3358 12.4142 17 12 17Z" fill="#F54559"/>
<path fill-rule="evenodd" clip-rule="evenodd" d="M13.3283 3.5367L21.8493 19.804C22.3724 20.8027 21.648 22 20.5205 22H3.4786C2.35112 22 1.62669 20.8027 2.14985 19.804L10.6708 3.5367C11.2323 2.46471 12.7668 2.46471 13.3283 3.5367ZM20.9634 20.268L12.4425 4.0007C12.2553 3.64338 11.7438 3.64338 11.5566 4.0007L3.03568 20.268C2.8613 20.6009 3.10277 21 3.4786 21H20.5205C20.8963 21 21.1378 20.6009 20.9634 20.268Z" fill="#F54559"/>
</svg>
