<svg height="24" viewBox="0 0 24 24" width="24" xmlns="http://www.w3.org/2000/svg"><path d="m11.452 18.95a3 3 0 0 1 0-5.9v-10.107a.5.5 0 1 1 1 0v10.09a3 3 0 0 1 0 5.933v1.945a.5.5 0 1 1-1 0v-1.96zm8-13.916a3 3 0 0 1 0 5.932v10.091a.5.5 0 1 1-1 0v-10.107a3 3 0 0 1 0-5.9v-1.961a.5.5 0 1 1 1 0zm-14 0a3 3 0 0 1 0 5.932v10.091a.5.5 0 1 1-1 0v-10.107a3 3 0 0 1 0-5.9v-1.961a.5.5 0 1 1 1 0zm-.452 4.966a2 2 0 1 0 0-4 2 2 0 0 0  0 4zm14 0a2 2 0 1 0 0-4 2 2 0 0 0  0 4zm-7 4a2 2 0 1 0 0 4 2 2 0 0 0  0-4z" fill="#00a1ba"/></svg>