<svg width="48" height="48" viewBox="0 0 48 48" fill="none" xmlns="http://www.w3.org/2000/svg">
<path d="M45.788 16.1028C44.7772 13.6706 42.7268 11.0445 41.1211 10.2144C42.2664 12.4323 43.0611 14.8144 43.4771 17.2757L43.4813 17.3147C40.851 10.757 36.3906 8.11289 32.7477 2.35532C32.5634 2.0642 32.3791 1.77248 32.1997 1.46455C32.097 1.28868 32.0148 1.13021 31.9433 0.984354C31.7923 0.691766 31.6758 0.382549 31.5964 0.0629746C31.5965 0.0482279 31.5912 0.033958 31.5814 0.0228871C31.5717 0.0118162 31.5582 0.00471919 31.5436 0.00294992C31.5292 -0.000983305 31.5141 -0.000983305 31.4998 0.00294992C31.4968 0.00294992 31.492 0.00835214 31.4884 0.00955264C31.4848 0.0107531 31.477 0.0161554 31.4716 0.0185563L31.4806 0.00294992C25.6371 3.42436 23.6545 9.75817 23.4721 12.9263C21.1385 13.0867 18.9074 13.9466 17.0698 15.3939C16.8781 15.2315 16.6777 15.0796 16.4696 14.9389C15.9395 13.0835 15.9169 11.1199 16.4041 9.25276C14.2582 10.2923 12.3514 11.766 10.8044 13.5805H10.7936C9.87165 12.4119 9.93648 8.55827 9.9893 7.75334C9.71655 7.86296 9.45619 8.00119 9.21258 8.16571C8.39867 8.74661 7.63779 9.39842 6.93885 10.1135C6.14238 10.921 5.41494 11.7938 4.76415 12.7228V12.7264V12.7222C3.26848 14.8426 2.20764 17.2383 1.64286 19.7709L1.61165 19.9246C1.56783 20.1292 1.40997 21.1545 1.38296 21.3772C1.38296 21.3946 1.37936 21.4108 1.37756 21.4282C1.17391 22.4866 1.04773 23.5585 1 24.6353V24.7553C1.0051 30.5803 3.19512 36.1915 7.13724 40.4798C11.0794 44.7682 16.4867 47.4217 22.2907 47.916C28.0947 48.4103 33.8729 46.7095 38.4834 43.1495C43.094 39.5896 46.2013 34.4296 47.1914 28.6894C47.2304 28.3892 47.2623 28.0921 47.2971 27.789C47.7762 23.8287 47.2575 19.8115 45.788 16.1028ZM18.975 34.3131C19.0836 34.3653 19.1857 34.4217 19.2973 34.4715L19.3135 34.4818C19.2007 34.4277 19.0879 34.3715 18.975 34.3131ZM43.4831 17.3201V17.2979L43.4873 17.3225L43.4831 17.3201Z" fill="url(#firefox0_linear)"/>
<path d="M45.788 16.1028C44.7772 13.6706 42.7268 11.0445 41.1211 10.2144C42.2664 12.4323 43.0611 14.8144 43.4771 17.2757V17.2979L43.4813 17.3225C45.2744 22.4537 45.015 28.0793 42.7574 33.0238C40.0911 38.7447 33.6372 44.6085 23.5351 44.3234C12.6196 44.0143 3.00663 35.9145 1.20949 25.3058C0.882352 23.6329 1.20949 22.7847 1.37395 21.4252C1.1496 22.4812 1.0244 23.5559 1 24.6353V24.7553C1.0051 30.5803 3.19512 36.1915 7.13724 40.4798C11.0794 44.7682 16.4867 47.4217 22.2907 47.916C28.0947 48.4103 33.8729 46.7095 38.4834 43.1495C43.094 39.5896 46.2013 34.4296 47.1914 28.6894C47.2304 28.3892 47.2623 28.0921 47.2971 27.789C47.7762 23.8287 47.2575 19.8115 45.788 16.1028Z" fill="url(#firefox1_radial)"/>
<path d="M45.788 16.1028C44.7772 13.6706 42.7268 11.0445 41.1211 10.2144C42.2664 12.4323 43.0611 14.8144 43.4771 17.2757V17.2979L43.4813 17.3225C45.2744 22.4537 45.015 28.0793 42.7574 33.0238C40.0911 38.7447 33.6372 44.6085 23.5351 44.3234C12.6196 44.0143 3.00663 35.9145 1.20949 25.3058C0.882352 23.6329 1.20949 22.7847 1.37395 21.4252C1.1496 22.4812 1.0244 23.5559 1 24.6353V24.7553C1.0051 30.5803 3.19512 36.1915 7.13724 40.4798C11.0794 44.7682 16.4867 47.4217 22.2907 47.916C28.0947 48.4103 33.8729 46.7095 38.4834 43.1495C43.094 39.5896 46.2013 34.4296 47.1914 28.6894C47.2304 28.3892 47.2623 28.0921 47.2971 27.789C47.7762 23.8287 47.2575 19.8115 45.788 16.1028Z" fill="url(#firefox2_radial)"/>
<path d="M34.4831 18.8375C34.5335 18.8729 34.5803 18.9084 34.6278 18.9438C34.0434 17.9076 33.3159 16.9588 32.4669 16.1256C25.2363 8.89383 30.5719 0.44535 31.4717 0.0161733L31.4807 0.00296783C25.6373 3.42438 23.6546 9.75819 23.4722 12.9263C23.7435 12.9077 24.0124 12.8849 24.2897 12.8849C26.3631 12.8887 28.3985 13.4415 30.1889 14.487C31.9793 15.5326 33.4609 17.0336 34.4831 18.8375Z" fill="url(#firefox3_radial)"/>
<path d="M24.3048 20.2817C24.2664 20.8604 22.2219 22.8562 21.507 22.8562C14.8917 22.8562 13.8179 26.858 13.8179 26.858C14.1108 30.2278 16.459 33.0034 19.2975 34.4716C19.4272 34.5388 19.5586 34.5994 19.6901 34.6588C19.9178 34.7597 20.1455 34.8529 20.3732 34.9386C21.3474 35.2833 22.3677 35.4802 23.4002 35.5226C34.9952 36.0664 37.2413 21.6569 28.8739 17.4756C30.8478 17.2187 32.8468 17.7041 34.4832 18.8375C33.461 17.0336 31.9794 15.5326 30.189 14.487C28.3985 13.4415 26.3631 12.8887 24.2898 12.8849C24.0137 12.8849 23.7436 12.9077 23.4722 12.9263C21.1387 13.0867 18.9076 13.9466 17.07 15.3939C17.4248 15.694 17.8251 16.095 18.6685 16.9263C20.2471 18.4816 24.2958 20.0926 24.3048 20.2817Z" fill="url(#firefox4_radial)"/>
<path d="M24.3048 20.2817C24.2664 20.8604 22.2219 22.8562 21.507 22.8562C14.8917 22.8562 13.8179 26.858 13.8179 26.858C14.1108 30.2278 16.459 33.0034 19.2975 34.4716C19.4272 34.5388 19.5586 34.5994 19.6901 34.6588C19.9178 34.7597 20.1455 34.8529 20.3732 34.9386C21.3474 35.2833 22.3677 35.4802 23.4002 35.5226C34.9952 36.0664 37.2413 21.6569 28.8739 17.4756C30.8478 17.2187 32.8468 17.7041 34.4832 18.8375C33.461 17.0336 31.9794 15.5326 30.189 14.487C28.3985 13.4415 26.3631 12.8887 24.2898 12.8849C24.0137 12.8849 23.7436 12.9077 23.4722 12.9263C21.1387 13.0867 18.9076 13.9466 17.07 15.3939C17.4248 15.694 17.8251 16.095 18.6685 16.9263C20.2471 18.4816 24.2958 20.0926 24.3048 20.2817Z" fill="url(#firefox5_radial)"/>
<path d="M15.9852 14.6202C16.1737 14.7402 16.3292 14.8447 16.4654 14.9389C15.9353 13.0835 15.9127 11.1199 16.4 9.25276C14.2541 10.2923 12.3473 11.766 10.8003 13.5805C10.9137 13.5775 14.2883 13.5169 15.9852 14.6202Z" fill="url(#firefox6_radial)"/>
<path d="M1.21247 25.3058C3.00781 35.9146 12.6226 44.0143 23.5381 44.3234C33.6402 44.6091 40.0941 38.7447 42.7604 33.0238C45.018 28.0793 45.2774 22.4537 43.4843 17.3225V17.3003C43.4843 17.2829 43.4807 17.2727 43.4843 17.2781L43.4885 17.3171C44.3138 22.7055 41.5731 27.9259 37.2885 31.4559L37.2753 31.4859C28.9271 38.2849 20.9378 35.588 19.3207 34.4872C19.2079 34.4331 19.095 34.3769 18.9822 34.3185C14.1148 31.9919 12.104 27.5573 12.5349 23.7541C11.3795 23.7712 10.244 23.4528 9.26583 22.8376C8.28771 22.2223 7.509 21.3366 7.02406 20.2877C8.30175 19.505 9.75862 19.0624 11.2558 19.0023C12.753 18.9422 14.2407 19.2666 15.577 19.9444C18.332 21.1951 21.4671 21.3183 24.3118 20.2877C24.3028 20.0986 20.2541 18.487 18.6755 16.9323C17.8321 16.101 17.4317 15.7006 17.077 15.3999C16.8853 15.2375 16.6849 15.0856 16.4768 14.9449C16.3387 14.8507 16.1832 14.7486 15.9966 14.6262C14.2997 13.5229 10.9251 13.5836 10.8134 13.5866H10.8026C9.88064 12.4179 9.94546 8.56429 9.99829 7.75936C9.72553 7.86898 9.46517 8.00721 9.22157 8.17173C8.40766 8.75263 7.64678 9.40444 6.94783 10.1195C6.14851 10.9248 5.41806 11.7956 4.76413 12.7228V12.7264V12.7222C3.26846 14.8426 2.20762 17.2383 1.64284 19.7709C1.63144 19.8183 0.804898 23.4318 1.21247 25.3058Z" fill="url(#firefox7_radial)"/>
<path d="M32.4682 16.1256C33.3175 16.9598 34.045 17.9095 34.6291 18.9468C34.757 19.0434 34.8764 19.1394 34.9779 19.2325C40.2522 24.0945 37.4887 30.9673 37.2828 31.4565C41.5674 27.9264 44.3057 22.7061 43.4828 17.3177C40.8513 10.757 36.3909 8.11289 32.748 2.35532C32.5637 2.0642 32.3794 1.77248 32.1999 1.46455C32.0973 1.28868 32.0151 1.13021 31.9436 0.984354C31.7925 0.691766 31.6761 0.382549 31.5967 0.0629746C31.5968 0.0482279 31.5915 0.033958 31.5817 0.0228871C31.572 0.0118162 31.5585 0.00471919 31.5439 0.00294992C31.5295 -0.000983305 31.5144 -0.000983305 31.5 0.00294992C31.497 0.00294992 31.4922 0.00835214 31.4886 0.00955264C31.485 0.0107531 31.4772 0.0161554 31.4718 0.0185563C30.5721 0.445332 25.2365 8.89381 32.4682 16.1256Z" fill="url(#firefox8_radial)"/>
<path d="M34.974 19.2295C34.8725 19.1364 34.7531 19.0404 34.6252 18.9437C34.5778 18.9083 34.531 18.8729 34.4806 18.8375C32.8442 17.7041 30.8452 17.2187 28.8713 17.4755C37.2387 21.6593 34.9938 36.0664 23.3976 35.5226C22.3651 35.4802 21.3447 35.2833 20.3706 34.9385C20.1429 34.8533 19.9152 34.7601 19.6875 34.6588C19.556 34.5988 19.4246 34.5388 19.2949 34.4715L19.3111 34.4817C20.9282 35.5856 28.9151 38.2825 37.2657 31.4805L37.2789 31.4505C37.4872 30.9643 40.2508 24.0897 34.974 19.2295Z" fill="url(#firefox9_radial)"/>
<path d="M13.8174 26.858C13.8174 26.858 14.8912 22.8562 21.5066 22.8562C22.2215 22.8562 24.2677 20.8603 24.3043 20.2817C21.4596 21.3123 18.3246 21.1891 15.5695 19.9384C14.2332 19.2605 12.7456 18.9362 11.2484 18.9963C9.75116 19.0564 8.2943 19.4989 7.0166 20.2817C7.50154 21.3306 8.28025 22.2163 9.25837 22.8315C10.2365 23.4468 11.3721 23.7652 12.5275 23.7481C12.0965 27.5519 14.1073 31.9865 18.9747 34.3125C19.0834 34.3647 19.1854 34.4211 19.2971 34.4709C16.4561 33.0033 14.1103 30.2278 13.8174 26.858Z" fill="url(#firefox10_radial)"/>
<path d="M45.788 16.1028C44.7772 13.6706 42.7268 11.0445 41.1211 10.2144C42.2664 12.4323 43.0611 14.8144 43.4771 17.2757L43.4813 17.3147C40.851 10.757 36.3906 8.11289 32.7477 2.35532C32.5634 2.0642 32.3791 1.77248 32.1997 1.46455C32.097 1.28868 32.0148 1.13021 31.9433 0.984354C31.7923 0.691766 31.6758 0.382549 31.5964 0.0629746C31.5965 0.0482279 31.5912 0.033958 31.5814 0.0228871C31.5717 0.0118162 31.5582 0.00471919 31.5436 0.00294992C31.5292 -0.000983305 31.5141 -0.000983305 31.4998 0.00294992C31.4968 0.00294992 31.492 0.00835214 31.4884 0.00955264C31.4848 0.0107531 31.477 0.0161554 31.4716 0.0185563L31.4806 0.00294992C25.6371 3.42436 23.6545 9.75817 23.4721 12.9263C23.7434 12.9077 24.0123 12.8849 24.2896 12.8849C26.363 12.8887 28.3983 13.4414 30.1888 14.487C31.9792 15.5326 33.4608 17.0336 34.483 18.8375C32.8466 17.7041 30.8476 17.2187 28.8737 17.4755C37.2411 21.6593 34.9962 36.0664 23.4 35.5226C22.3675 35.4802 21.3472 35.2833 20.373 34.9385C20.1453 34.8533 19.9176 34.7601 19.6899 34.6588C19.5584 34.5988 19.427 34.5388 19.2973 34.4715L19.3135 34.4818C19.2007 34.4277 19.0879 34.3715 18.975 34.3131C19.0836 34.3653 19.1857 34.4217 19.2973 34.4715C16.4564 33.0033 14.1106 30.2278 13.8177 26.858C13.8177 26.858 14.8915 22.8562 21.5068 22.8562C22.2217 22.8562 24.268 20.8603 24.3046 20.2817C24.2956 20.0926 20.2469 18.481 18.6683 16.9263C17.8249 16.095 17.4246 15.6946 17.0698 15.3939C16.8781 15.2315 16.6777 15.0796 16.4696 14.9389C15.9395 13.0835 15.9169 11.1199 16.4041 9.25276C14.2582 10.2923 12.3514 11.766 10.8044 13.5805H10.7936C9.87165 12.4119 9.93648 8.55827 9.9893 7.75334C9.71655 7.86296 9.45619 8.00119 9.21258 8.16571C8.39867 8.74661 7.63779 9.39842 6.93885 10.1135C6.14238 10.921 5.41494 11.7938 4.76415 12.7228V12.7264V12.7222C3.26848 14.8426 2.20764 17.2383 1.64286 19.7709L1.61165 19.9246C1.56783 20.1292 1.37155 21.1689 1.34334 21.3922C1.34334 21.409 1.34334 21.3748 1.34334 21.3922C1.16381 22.4653 1.04916 23.5483 1 24.6353V24.7553C1.0051 30.5803 3.19512 36.1915 7.13724 40.4798C11.0794 44.7682 16.4867 47.4217 22.2907 47.916C28.0947 48.4103 33.8729 46.7095 38.4834 43.1495C43.094 39.5896 46.2013 34.4296 47.1914 28.6894C47.2304 28.3892 47.2623 28.0921 47.2971 27.789C47.7762 23.8287 47.2575 19.8115 45.788 16.1028ZM43.4801 17.2979L43.4843 17.3225L43.4801 17.2979Z" fill="url(#firefox11_linear)"/>
<defs>
<linearGradient id="firefox0_linear" x1="42.7088" y1="7.43641" x2="4.08948" y2="44.6968" gradientUnits="userSpaceOnUse">
<stop offset="0.048" stop-color="#FFF44F"/>
<stop offset="0.111" stop-color="#FFE847"/>
<stop offset="0.225" stop-color="#FFC830"/>
<stop offset="0.368" stop-color="#FF980E"/>
<stop offset="0.401" stop-color="#FF8B16"/>
<stop offset="0.462" stop-color="#FF672A"/>
<stop offset="0.534" stop-color="#FF3647"/>
<stop offset="0.705" stop-color="#E31587"/>
</linearGradient>
<radialGradient id="firefox1_radial" cx="0" cy="0" r="1" gradientUnits="userSpaceOnUse" gradientTransform="translate(40.9242 5.32707) scale(48.4982)">
<stop offset="0.129" stop-color="#FFBD4F"/>
<stop offset="0.186" stop-color="#FFAC31"/>
<stop offset="0.247" stop-color="#FF9D17"/>
<stop offset="0.283" stop-color="#FF980E"/>
<stop offset="0.403" stop-color="#FF563B"/>
<stop offset="0.467" stop-color="#FF3750"/>
<stop offset="0.71" stop-color="#F5156C"/>
<stop offset="0.782" stop-color="#EB0878"/>
<stop offset="0.86" stop-color="#E50080"/>
</radialGradient>
<radialGradient id="firefox2_radial" cx="0" cy="0" r="1" gradientUnits="userSpaceOnUse" gradientTransform="translate(23.2026 25.1546) scale(48.4982)">
<stop offset="0.3" stop-color="#960E18"/>
<stop offset="0.351" stop-color="#B11927" stop-opacity="0.74"/>
<stop offset="0.435" stop-color="#DB293D" stop-opacity="0.343"/>
<stop offset="0.497" stop-color="#F5334B" stop-opacity="0.094"/>
<stop offset="0.53" stop-color="#FF3750" stop-opacity="0"/>
</radialGradient>
<radialGradient id="firefox3_radial" cx="0" cy="0" r="1" gradientUnits="userSpaceOnUse" gradientTransform="translate(29.0495 -5.67898) scale(35.1349)">
<stop offset="0.132" stop-color="#FFF44F"/>
<stop offset="0.252" stop-color="#FFDC3E"/>
<stop offset="0.506" stop-color="#FF9D12"/>
<stop offset="0.526" stop-color="#FF980E"/>
</radialGradient>
<radialGradient id="firefox4_radial" cx="0" cy="0" r="1" gradientUnits="userSpaceOnUse" gradientTransform="translate(17.8384 37.8225) scale(23.0921)">
<stop offset="0.353" stop-color="#3A8EE6"/>
<stop offset="0.472" stop-color="#5C79F0"/>
<stop offset="0.669" stop-color="#9059FF"/>
<stop offset="1" stop-color="#C139E6"/>
</radialGradient>
<radialGradient id="firefox5_radial" cx="0" cy="0" r="1" gradientUnits="userSpaceOnUse" gradientTransform="translate(25.8529 21.18) rotate(-13.5916) scale(12.2433 14.3338)">
<stop offset="0.206" stop-color="#9059FF" stop-opacity="0"/>
<stop offset="0.278" stop-color="#8C4FF3" stop-opacity="0.064"/>
<stop offset="0.747" stop-color="#7716A8" stop-opacity="0.45"/>
<stop offset="0.975" stop-color="#6E008B" stop-opacity="0.6"/>
</radialGradient>
<radialGradient id="firefox6_radial" cx="0" cy="0" r="1" gradientUnits="userSpaceOnUse" gradientTransform="translate(22.5903 3.34284) scale(16.6124)">
<stop stop-color="#FFE226"/>
<stop offset="0.121" stop-color="#FFDB27"/>
<stop offset="0.295" stop-color="#FFC82A"/>
<stop offset="0.502" stop-color="#FFA930"/>
<stop offset="0.732" stop-color="#FF7E37"/>
<stop offset="0.792" stop-color="#FF7139"/>
</radialGradient>
<radialGradient id="firefox7_radial" cx="0" cy="0" r="1" gradientUnits="userSpaceOnUse" gradientTransform="translate(35.648 -7.19424) scale(70.8778)">
<stop offset="0.113" stop-color="#FFF44F"/>
<stop offset="0.456" stop-color="#FF980E"/>
<stop offset="0.622" stop-color="#FF5634"/>
<stop offset="0.716" stop-color="#FF3647"/>
<stop offset="0.904" stop-color="#E31587"/>
</radialGradient>
<radialGradient id="firefox8_radial" cx="0" cy="0" r="1" gradientUnits="userSpaceOnUse" gradientTransform="translate(29.6746 -3.25308) rotate(83.976) scale(51.948 34.093)">
<stop stop-color="#FFF44F"/>
<stop offset="0.06" stop-color="#FFE847"/>
<stop offset="0.168" stop-color="#FFC830"/>
<stop offset="0.304" stop-color="#FF980E"/>
<stop offset="0.356" stop-color="#FF8B16"/>
<stop offset="0.455" stop-color="#FF672A"/>
<stop offset="0.57" stop-color="#FF3647"/>
<stop offset="0.737" stop-color="#E31587"/>
</radialGradient>
<radialGradient id="firefox9_radial" cx="0" cy="0" r="1" gradientUnits="userSpaceOnUse" gradientTransform="translate(22.199 9.49596) scale(44.2502)">
<stop offset="0.137" stop-color="#FFF44F"/>
<stop offset="0.48" stop-color="#FF980E"/>
<stop offset="0.592" stop-color="#FF5634"/>
<stop offset="0.655" stop-color="#FF3647"/>
<stop offset="0.904" stop-color="#E31587"/>
</radialGradient>
<radialGradient id="firefox10_radial" cx="0" cy="0" r="1" gradientUnits="userSpaceOnUse" gradientTransform="translate(33.8795 12.0857) scale(48.4315)">
<stop offset="0.094" stop-color="#FFF44F"/>
<stop offset="0.231" stop-color="#FFE141"/>
<stop offset="0.509" stop-color="#FFAF1E"/>
<stop offset="0.626" stop-color="#FF980E"/>
</radialGradient>
<linearGradient id="firefox11_linear" x1="42.2448" y1="7.23713" x2="9.38365" y2="40.0977" gradientUnits="userSpaceOnUse">
<stop offset="0.167" stop-color="#FFF44F" stop-opacity="0.8"/>
<stop offset="0.266" stop-color="#FFF44F" stop-opacity="0.634"/>
<stop offset="0.489" stop-color="#FFF44F" stop-opacity="0.217"/>
<stop offset="0.6" stop-color="#FFF44F" stop-opacity="0"/>
</linearGradient>
</defs>
</svg>
