<svg width="24" height="24" viewBox="0 0 24 24" fill="none" xmlns="http://www.w3.org/2000/svg">
<path fill-rule="evenodd" clip-rule="evenodd" d="M7 3H4C3.44772 3 3 3.44772 3 4V7V8V15V16V19C3 19.5523 3.44772 20 4 20H7H8H19C19.5523 20 20 19.5523 20 19V7C20 6.44772 19.5523 6 19 6H12V4C12 3.44772 11.5523 3 11 3H8H7ZM7 4H4V7H7V4ZM4 8V11H7V8H4ZM4 12V15H7V12H4ZM4 16V19H7V16H4ZM8 19H11V16H8V19ZM12 19H19V16H15V15H19V12H15V11H19V7H12V15V16V19ZM11 7H8V4H11V7ZM8 11V8H11V11H8ZM8 15V12H11V15H8Z" fill="currentColor"/>
</svg>
