<svg width="26" height="28" viewBox="0 0 26 28" fill="none" xmlns="http://www.w3.org/2000/svg">
    <path fill-rule="evenodd" clip-rule="evenodd" d="M11.7885 12.5754C11.4956 12.8683 11.4956 13.3432 11.7885 13.6361C12.0814 13.929 12.5563 13.929 12.8492 13.6361L24.87 1.61529C25.1629 1.3224 25.1629 0.847524 24.87 0.554631C24.5771 0.261738 24.1022 0.261738 23.8093 0.554631L11.7885 12.5754ZM13.2026 6.56506C12.9097 6.27217 12.9097 5.79729 13.2026 5.5044L17.4452 1.26176C17.7381 0.968867 18.213 0.968867 18.5059 1.26176C18.7988 1.55465 18.7988 2.02953 18.5059 2.32242L14.2632 6.56506C13.9703 6.85795 13.4955 6.85795 13.2026 6.56506ZM3.65685 17.1716L3.6569 17.1716L3.65683 17.1717C1.60658 19.2219 1.60658 22.5461 3.65683 24.5963C5.70652 26.646 9.02937 26.6466 11.0798 24.598L11.0815 24.5963L11.0815 24.5962L24.5165 11.1612C24.8094 10.8683 25.2843 10.8683 25.5772 11.1612C25.8701 11.4541 25.8701 11.929 25.5772 12.2219L12.1422 25.6569L12.1421 25.6569L12.1421 25.657C9.50607 28.293 5.23221 28.293 2.59617 25.657C-0.0373254 23.0235 -0.0398666 18.7553 2.58855 16.1187L2.59613 16.111L10.3743 8.33279C10.6672 8.0399 11.1421 8.0399 11.435 8.33279C11.7279 8.62569 11.7279 9.10056 11.435 9.39345L3.65685 17.1716ZM12.4955 18.5859C12.2027 18.293 12.2027 17.8181 12.4955 17.5252L19.5666 10.4541C19.8595 10.1613 20.3344 10.1613 20.6273 10.4541C20.9202 10.747 20.9202 11.2219 20.6273 11.5148L13.5562 18.5859C13.2633 18.8788 12.7884 18.8788 12.4955 18.5859ZM21.6879 8.33277C21.395 8.62566 21.395 9.10054 21.6879 9.39343C21.9808 9.68632 22.4557 9.68632 22.7486 9.39343L24.1628 7.97922C24.4557 7.68632 24.4557 7.21145 24.1628 6.91856C23.8699 6.62566 23.395 6.62566 23.1021 6.91856L21.6879 8.33277ZM8.42977 19.8233C9.01555 20.4091 9.01555 21.3588 8.42977 21.9446C7.84398 22.5304 6.89423 22.5304 6.30845 21.9446C5.72266 21.3588 5.72266 20.4091 6.30845 19.8233C6.89423 19.2375 7.84398 19.2375 8.42977 19.8233ZM9.49043 18.7627C10.662 19.9342 10.662 21.8337 9.49043 23.0053C8.31885 24.1769 6.41936 24.1769 5.24779 23.0053C4.07621 21.8337 4.07621 19.9342 5.24779 18.7627C6.41936 17.5911 8.31885 17.5911 9.49043 18.7627Z" fill="white"/>
</svg>
