<svg width="288" height="56" viewBox="0 0 288 56" fill="none" xmlns="http://www.w3.org/2000/svg">
    <rect width="288" height="56" fill="white"/>
    <path d="M12.696 7.648V10.216H5.004V15.028H11.064V17.512H5.004V22.42H12.696V25H1.752V7.648H12.696ZM31.8444 16.324C31.8444 17.596 31.6324 18.764 31.2084 19.828C30.7844 20.892 30.1884 21.808 29.4204 22.576C28.6524 23.344 27.7284 23.94 26.6484 24.364C25.5684 24.788 24.3724 25 23.0604 25H16.4364V7.648H23.0604C24.3724 7.648 25.5684 7.864 26.6484 8.296C27.7284 8.72 28.6524 9.316 29.4204 10.084C30.1884 10.844 30.7844 11.756 31.2084 12.82C31.6324 13.884 31.8444 15.052 31.8444 16.324ZM28.5444 16.324C28.5444 15.372 28.4164 14.52 28.1604 13.768C27.9044 13.008 27.5404 12.368 27.0684 11.848C26.5964 11.32 26.0204 10.916 25.3404 10.636C24.6684 10.356 23.9084 10.216 23.0604 10.216H19.6884V22.432H23.0604C23.9084 22.432 24.6684 22.292 25.3404 22.012C26.0204 21.732 26.5964 21.332 27.0684 20.812C27.5404 20.284 27.9044 19.644 28.1604 18.892C28.4164 18.132 28.5444 17.276 28.5444 16.324ZM44.0281 17.8C44.1641 18.056 44.2881 18.324 44.4001 18.604C44.5201 18.876 44.6361 19.152 44.7481 19.432C44.8601 19.144 44.9761 18.86 45.0961 18.58C45.2161 18.3 45.3441 18.032 45.4801 17.776L50.6161 8.164C50.6801 8.044 50.7441 7.948 50.8081 7.876C50.8801 7.804 50.9561 7.752 51.0361 7.72C51.1241 7.688 51.2201 7.668 51.3241 7.66C51.4281 7.652 51.5521 7.648 51.6961 7.648H54.1321V25H51.2881V13.792C51.2881 13.584 51.2921 13.356 51.3001 13.108C51.3161 12.86 51.3361 12.608 51.3601 12.352L46.1161 22.192C45.9961 22.416 45.8401 22.592 45.6481 22.72C45.4561 22.84 45.2321 22.9 44.9761 22.9H44.5321C44.2761 22.9 44.0521 22.84 43.8601 22.72C43.6681 22.592 43.5121 22.416 43.3921 22.192L38.0761 12.316C38.1081 12.58 38.1281 12.84 38.1361 13.096C38.1521 13.344 38.1601 13.576 38.1601 13.792V25H35.3161V7.648H37.7521C37.8961 7.648 38.0201 7.652 38.1241 7.66C38.2281 7.668 38.3201 7.688 38.4001 7.72C38.4881 7.752 38.5681 7.804 38.6401 7.876C38.7121 7.948 38.7801 8.044 38.8441 8.164L44.0281 17.8ZM75.2226 16.324C75.2226 17.596 75.0106 18.776 74.5866 19.864C74.1626 20.944 73.5666 21.88 72.7986 22.672C72.0306 23.464 71.1066 24.084 70.0266 24.532C68.9466 24.972 67.7506 25.192 66.4386 25.192C65.1266 25.192 63.9266 24.972 62.8386 24.532C61.7586 24.084 60.8306 23.464 60.0546 22.672C59.2866 21.88 58.6906 20.944 58.2666 19.864C57.8426 18.776 57.6306 17.596 57.6306 16.324C57.6306 15.052 57.8426 13.876 58.2666 12.796C58.6906 11.708 59.2866 10.768 60.0546 9.976C60.8306 9.184 61.7586 8.568 62.8386 8.128C63.9266 7.68 65.1266 7.456 66.4386 7.456C67.7506 7.456 68.9466 7.68 70.0266 8.128C71.1066 8.576 72.0306 9.196 72.7986 9.988C73.5666 10.772 74.1626 11.708 74.5866 12.796C75.0106 13.876 75.2226 15.052 75.2226 16.324ZM71.9106 16.324C71.9106 15.372 71.7826 14.52 71.5266 13.768C71.2786 13.008 70.9186 12.364 70.4466 11.836C69.9746 11.308 69.3986 10.904 68.7186 10.624C68.0466 10.344 67.2866 10.204 66.4386 10.204C65.5906 10.204 64.8266 10.344 64.1466 10.624C63.4666 10.904 62.8866 11.308 62.4066 11.836C61.9346 12.364 61.5706 13.008 61.3146 13.768C61.0586 14.52 60.9306 15.372 60.9306 16.324C60.9306 17.276 61.0586 18.132 61.3146 18.892C61.5706 19.644 61.9346 20.284 62.4066 20.812C62.8866 21.332 63.4666 21.732 64.1466 22.012C64.8266 22.292 65.5906 22.432 66.4386 22.432C67.2866 22.432 68.0466 22.292 68.7186 22.012C69.3986 21.732 69.9746 21.332 70.4466 20.812C70.9186 20.284 71.2786 19.644 71.5266 18.892C71.7826 18.132 71.9106 17.276 71.9106 16.324ZM80.4159 7.648C80.5599 7.648 80.6799 7.656 80.7759 7.672C80.8719 7.68 80.9559 7.704 81.0279 7.744C81.1079 7.776 81.1839 7.828 81.2559 7.9C81.3279 7.964 81.4079 8.052 81.4959 8.164L90.6039 19.768C90.5719 19.488 90.5479 19.216 90.5319 18.952C90.5239 18.68 90.5199 18.428 90.5199 18.196V7.648H93.3639V25H91.6959C91.4399 25 91.2279 24.96 91.0599 24.88C90.8919 24.8 90.7279 24.656 90.5679 24.448L81.4959 12.892C81.5199 13.148 81.5359 13.404 81.5439 13.66C81.5599 13.908 81.5679 14.136 81.5679 14.344V25H78.7239V7.648H80.4159ZM113.223 16.324C113.223 17.596 113.011 18.764 112.587 19.828C112.163 20.892 111.567 21.808 110.799 22.576C110.031 23.344 109.107 23.94 108.027 24.364C106.947 24.788 105.751 25 104.439 25H97.8145V7.648H104.439C105.751 7.648 106.947 7.864 108.027 8.296C109.107 8.72 110.031 9.316 110.799 10.084C111.567 10.844 112.163 11.756 112.587 12.82C113.011 13.884 113.223 15.052 113.223 16.324ZM109.923 16.324C109.923 15.372 109.795 14.52 109.539 13.768C109.283 13.008 108.919 12.368 108.447 11.848C107.975 11.32 107.399 10.916 106.719 10.636C106.047 10.356 105.287 10.216 104.439 10.216H101.067V22.432H104.439C105.287 22.432 106.047 22.292 106.719 22.012C107.399 21.732 107.975 21.332 108.447 20.812C108.919 20.284 109.283 19.644 109.539 18.892C109.795 18.132 109.923 17.276 109.923 16.324Z" fill="#1E559A"/>
    <path d="M2.709 46.814V51H1.358V40.969H4.193C4.82767 40.969 5.376 41.0343 5.838 41.165C6.3 41.291 6.68033 41.4753 6.979 41.718C7.28233 41.9607 7.50633 42.2547 7.651 42.6C7.79567 42.9407 7.868 43.3233 7.868 43.748C7.868 44.1027 7.812 44.434 7.7 44.742C7.588 45.05 7.42467 45.3277 7.21 45.575C7 45.8177 6.741 46.0253 6.433 46.198C6.12967 46.3707 5.78433 46.5013 5.397 46.59C5.565 46.688 5.71433 46.8303 5.845 47.017L8.771 51H7.567C7.31967 51 7.13767 50.9043 7.021 50.713L4.417 47.129C4.33767 47.017 4.25133 46.9377 4.158 46.891C4.06467 46.8397 3.92467 46.814 3.738 46.814H2.709ZM2.709 45.827H4.13C4.52667 45.827 4.87433 45.7803 5.173 45.687C5.47633 45.589 5.72833 45.4537 5.929 45.281C6.13433 45.1037 6.28833 44.8937 6.391 44.651C6.49367 44.4083 6.545 44.14 6.545 43.846C6.545 43.2487 6.34667 42.7983 5.95 42.495C5.558 42.1917 4.97233 42.04 4.193 42.04H2.709V45.827ZM12.8388 43.797C13.2634 43.797 13.6554 43.8693 14.0148 44.014C14.3741 44.154 14.6844 44.3593 14.9458 44.63C15.2071 44.896 15.4101 45.2273 15.5548 45.624C15.7041 46.016 15.7788 46.464 15.7788 46.968C15.7788 47.164 15.7578 47.2947 15.7158 47.36C15.6738 47.4253 15.5944 47.458 15.4778 47.458H10.7598C10.7691 47.906 10.8298 48.2957 10.9418 48.627C11.0538 48.9583 11.2078 49.236 11.4038 49.46C11.5998 49.6793 11.8331 49.845 12.1038 49.957C12.3744 50.0643 12.6778 50.118 13.0138 50.118C13.3264 50.118 13.5948 50.083 13.8188 50.013C14.0474 49.9383 14.2434 49.859 14.4068 49.775C14.5701 49.691 14.7054 49.614 14.8128 49.544C14.9248 49.4693 15.0204 49.432 15.0998 49.432C15.2024 49.432 15.2818 49.4717 15.3378 49.551L15.6878 50.006C15.5338 50.1927 15.3494 50.356 15.1348 50.496C14.9201 50.6313 14.6891 50.7433 14.4418 50.832C14.1991 50.9207 13.9471 50.986 13.6858 51.028C13.4244 51.0747 13.1654 51.098 12.9088 51.098C12.4188 51.098 11.9661 51.0163 11.5508 50.853C11.1401 50.685 10.7831 50.4423 10.4798 50.125C10.1811 49.803 9.94777 49.4063 9.77977 48.935C9.61177 48.4637 9.52777 47.9223 9.52777 47.311C9.52777 46.8163 9.60243 46.3543 9.75177 45.925C9.90577 45.4957 10.1251 45.1247 10.4098 44.812C10.6944 44.4947 11.0421 44.2473 11.4528 44.07C11.8634 43.888 12.3254 43.797 12.8388 43.797ZM12.8668 44.714C12.2648 44.714 11.7911 44.889 11.4458 45.239C11.1004 45.5843 10.8858 46.065 10.8018 46.681H14.6588C14.6588 46.3917 14.6191 46.128 14.5398 45.89C14.4604 45.6473 14.3438 45.4397 14.1898 45.267C14.0358 45.0897 13.8468 44.9543 13.6228 44.861C13.4034 44.763 13.1514 44.714 12.8668 44.714ZM16.2998 43.909H17.3218C17.4198 43.909 17.5015 43.9347 17.5668 43.986C17.6322 44.0373 17.6788 44.098 17.7068 44.168L19.5058 48.732C19.5712 48.9 19.6225 49.068 19.6598 49.236C19.6972 49.404 19.7322 49.5697 19.7648 49.733C19.8022 49.5697 19.8418 49.404 19.8838 49.236C19.9258 49.068 19.9795 48.9 20.0448 48.732L21.8648 44.168C21.8928 44.0933 21.9372 44.0327 21.9978 43.986C22.0632 43.9347 22.1425 43.909 22.2358 43.909H23.2088L20.3178 51H19.1908L16.2998 43.909ZM26.9892 43.797C27.4138 43.797 27.8058 43.8693 28.1652 44.014C28.5245 44.154 28.8348 44.3593 29.0962 44.63C29.3575 44.896 29.5605 45.2273 29.7052 45.624C29.8545 46.016 29.9292 46.464 29.9292 46.968C29.9292 47.164 29.9082 47.2947 29.8662 47.36C29.8242 47.4253 29.7448 47.458 29.6282 47.458H24.9102C24.9195 47.906 24.9802 48.2957 25.0922 48.627C25.2042 48.9583 25.3582 49.236 25.5542 49.46C25.7502 49.6793 25.9835 49.845 26.2542 49.957C26.5248 50.0643 26.8282 50.118 27.1642 50.118C27.4768 50.118 27.7452 50.083 27.9692 50.013C28.1978 49.9383 28.3938 49.859 28.5572 49.775C28.7205 49.691 28.8558 49.614 28.9632 49.544C29.0752 49.4693 29.1708 49.432 29.2502 49.432C29.3528 49.432 29.4322 49.4717 29.4882 49.551L29.8382 50.006C29.6842 50.1927 29.4998 50.356 29.2852 50.496C29.0705 50.6313 28.8395 50.7433 28.5922 50.832C28.3495 50.9207 28.0975 50.986 27.8362 51.028C27.5748 51.0747 27.3158 51.098 27.0592 51.098C26.5692 51.098 26.1165 51.0163 25.7012 50.853C25.2905 50.685 24.9335 50.4423 24.6302 50.125C24.3315 49.803 24.0982 49.4063 23.9302 48.935C23.7622 48.4637 23.6782 47.9223 23.6782 47.311C23.6782 46.8163 23.7528 46.3543 23.9022 45.925C24.0562 45.4957 24.2755 45.1247 24.5602 44.812C24.8448 44.4947 25.1925 44.2473 25.6032 44.07C26.0138 43.888 26.4758 43.797 26.9892 43.797ZM27.0172 44.714C26.4152 44.714 25.9415 44.889 25.5962 45.239C25.2508 45.5843 25.0362 46.065 24.9522 46.681H28.8092C28.8092 46.3917 28.7695 46.128 28.6902 45.89C28.6108 45.6473 28.4942 45.4397 28.3402 45.267C28.1862 45.0897 27.9972 44.9543 27.7732 44.861C27.5538 44.763 27.3018 44.714 27.0172 44.714ZM31.524 51V43.909H32.266C32.4433 43.909 32.5553 43.9953 32.602 44.168L32.7 44.938C33.008 44.5973 33.351 44.322 33.729 44.112C34.1116 43.902 34.5526 43.797 35.052 43.797C35.4393 43.797 35.78 43.8623 36.074 43.993C36.3726 44.119 36.62 44.301 36.816 44.539C37.0166 44.7723 37.1683 45.0547 37.271 45.386C37.3736 45.7173 37.425 46.0837 37.425 46.485V51H36.179V46.485C36.179 45.9483 36.0553 45.533 35.808 45.239C35.5653 44.9403 35.192 44.791 34.688 44.791C34.3193 44.791 33.974 44.8797 33.652 45.057C33.3346 45.2343 33.0406 45.4747 32.77 45.778V51H31.524ZM40.3813 43.909V48.431C40.3813 48.9677 40.5049 49.383 40.7523 49.677C40.9996 49.971 41.3729 50.118 41.8723 50.118C42.2363 50.118 42.5793 50.0317 42.9013 49.859C43.2233 49.6863 43.5196 49.446 43.7903 49.138V43.909H45.0363V51H44.2943C44.1169 51 44.0049 50.9137 43.9583 50.741L43.8603 49.978C43.5523 50.3187 43.2069 50.594 42.8243 50.804C42.4416 51.0093 42.0029 51.112 41.5083 51.112C41.1209 51.112 40.7779 51.049 40.4793 50.923C40.1853 50.7923 39.9379 50.6103 39.7373 50.377C39.5366 50.1437 39.3849 49.8613 39.2823 49.53C39.1843 49.1987 39.1353 48.8323 39.1353 48.431V43.909H40.3813ZM49.8895 43.797C50.3142 43.797 50.7062 43.8693 51.0655 44.014C51.4249 44.154 51.7352 44.3593 51.9965 44.63C52.2579 44.896 52.4609 45.2273 52.6055 45.624C52.7549 46.016 52.8295 46.464 52.8295 46.968C52.8295 47.164 52.8085 47.2947 52.7665 47.36C52.7245 47.4253 52.6452 47.458 52.5285 47.458H47.8105C47.8199 47.906 47.8805 48.2957 47.9925 48.627C48.1045 48.9583 48.2585 49.236 48.4545 49.46C48.6505 49.6793 48.8839 49.845 49.1545 49.957C49.4252 50.0643 49.7285 50.118 50.0645 50.118C50.3772 50.118 50.6455 50.083 50.8695 50.013C51.0982 49.9383 51.2942 49.859 51.4575 49.775C51.6209 49.691 51.7562 49.614 51.8635 49.544C51.9755 49.4693 52.0712 49.432 52.1505 49.432C52.2532 49.432 52.3325 49.4717 52.3885 49.551L52.7385 50.006C52.5845 50.1927 52.4002 50.356 52.1855 50.496C51.9709 50.6313 51.7399 50.7433 51.4925 50.832C51.2499 50.9207 50.9979 50.986 50.7365 51.028C50.4752 51.0747 50.2162 51.098 49.9595 51.098C49.4695 51.098 49.0169 51.0163 48.6015 50.853C48.1909 50.685 47.8339 50.4423 47.5305 50.125C47.2319 49.803 46.9985 49.4063 46.8305 48.935C46.6625 48.4637 46.5785 47.9223 46.5785 47.311C46.5785 46.8163 46.6532 46.3543 46.8025 45.925C46.9565 45.4957 47.1759 45.1247 47.4605 44.812C47.7452 44.4947 48.0929 44.2473 48.5035 44.07C48.9142 43.888 49.3762 43.797 49.8895 43.797ZM49.9175 44.714C49.3155 44.714 48.8419 44.889 48.4965 45.239C48.1512 45.5843 47.9365 46.065 47.8525 46.681H51.7095C51.7095 46.3917 51.6699 46.128 51.5905 45.89C51.5112 45.6473 51.3945 45.4397 51.2405 45.267C51.0865 45.0897 50.8975 44.9543 50.6735 44.861C50.4542 44.763 50.2022 44.714 49.9175 44.714ZM62.2624 47.374C62.3277 47.486 62.3837 47.605 62.4304 47.731C62.4817 47.8523 62.5307 47.976 62.5774 48.102C62.624 47.9713 62.673 47.8477 62.7244 47.731C62.7757 47.6097 62.834 47.4883 62.8994 47.367L66.2944 41.2C66.355 41.0927 66.418 41.0273 66.4834 41.004C66.5487 40.9807 66.642 40.969 66.7634 40.969H67.7644V51H66.5744V43.629C66.5744 43.531 66.5767 43.426 66.5814 43.314C66.586 43.202 66.593 43.0877 66.6024 42.971L63.1654 49.243C63.0487 49.453 62.8854 49.558 62.6754 49.558H62.4794C62.2694 49.558 62.106 49.453 61.9894 49.243L58.4754 42.95C58.4894 43.0713 58.4987 43.1903 58.5034 43.307C58.5127 43.4237 58.5174 43.531 58.5174 43.629V51H57.3274V40.969H58.3284C58.4497 40.969 58.543 40.9807 58.6084 41.004C58.6737 41.0273 58.7367 41.0927 58.7974 41.2L62.2624 47.374ZM75.2183 51H74.6653C74.5439 51 74.4459 50.9813 74.3713 50.944C74.2966 50.9067 74.2476 50.8273 74.2243 50.706L74.0843 50.048C73.8976 50.216 73.7156 50.3677 73.5383 50.503C73.3609 50.6337 73.1743 50.7457 72.9783 50.839C72.7823 50.9277 72.5723 50.9953 72.3483 51.042C72.1289 51.0887 71.8839 51.112 71.6133 51.112C71.3379 51.112 71.0789 51.0747 70.8363 51C70.5983 50.9207 70.3906 50.804 70.2133 50.65C70.0359 50.496 69.8936 50.3023 69.7863 50.069C69.6836 49.831 69.6323 49.551 69.6323 49.229C69.6323 48.949 69.7093 48.6807 69.8633 48.424C70.0173 48.1627 70.2646 47.9317 70.6053 47.731C70.9506 47.5303 71.4009 47.367 71.9563 47.241C72.5116 47.1103 73.1906 47.0357 73.9933 47.017V46.464C73.9933 45.9133 73.8743 45.498 73.6363 45.218C73.4029 44.9333 73.0553 44.791 72.5933 44.791C72.2899 44.791 72.0333 44.8307 71.8233 44.91C71.6179 44.9847 71.4383 45.071 71.2843 45.169C71.1349 45.2623 71.0043 45.3487 70.8923 45.428C70.7849 45.5027 70.6776 45.54 70.5703 45.54C70.4863 45.54 70.4116 45.519 70.3463 45.477C70.2856 45.4303 70.2366 45.3743 70.1993 45.309L69.9753 44.91C70.3673 44.532 70.7896 44.2497 71.2423 44.063C71.6949 43.8763 72.1966 43.783 72.7473 43.783C73.1439 43.783 73.4963 43.8483 73.8043 43.979C74.1123 44.1097 74.3713 44.2917 74.5813 44.525C74.7913 44.7583 74.9499 45.0407 75.0573 45.372C75.1646 45.7033 75.2183 46.0673 75.2183 46.464V51ZM71.9843 50.237C72.2036 50.237 72.4043 50.216 72.5863 50.174C72.7683 50.1273 72.9386 50.0643 73.0973 49.985C73.2606 49.901 73.4146 49.8007 73.5593 49.684C73.7086 49.5673 73.8533 49.4343 73.9933 49.285V47.808C73.4193 47.8267 72.9316 47.8733 72.5303 47.948C72.1289 48.018 71.8023 48.1113 71.5503 48.228C71.2983 48.3447 71.1139 48.4823 70.9973 48.641C70.8853 48.7997 70.8293 48.977 70.8293 49.173C70.8293 49.3597 70.8596 49.5207 70.9203 49.656C70.9809 49.7913 71.0626 49.9033 71.1653 49.992C71.2679 50.076 71.3893 50.139 71.5293 50.181C71.6693 50.2183 71.8209 50.237 71.9843 50.237ZM77.106 51V43.909H77.848C78.0253 43.909 78.1373 43.9953 78.184 44.168L78.282 44.938C78.59 44.5973 78.933 44.322 79.311 44.112C79.6937 43.902 80.1347 43.797 80.634 43.797C81.0213 43.797 81.362 43.8623 81.656 43.993C81.9547 44.119 82.202 44.301 82.398 44.539C82.5987 44.7723 82.7503 45.0547 82.853 45.386C82.9557 45.7173 83.007 46.0837 83.007 46.485V51H81.761V46.485C81.761 45.9483 81.6373 45.533 81.39 45.239C81.1473 44.9403 80.774 44.791 80.27 44.791C79.9013 44.791 79.556 44.8797 79.234 45.057C78.9167 45.2343 78.6227 45.4747 78.352 45.778V51H77.106ZM90.0933 51H89.5403C89.4189 51 89.3209 50.9813 89.2463 50.944C89.1716 50.9067 89.1226 50.8273 89.0993 50.706L88.9593 50.048C88.7726 50.216 88.5906 50.3677 88.4133 50.503C88.2359 50.6337 88.0493 50.7457 87.8533 50.839C87.6573 50.9277 87.4473 50.9953 87.2233 51.042C87.0039 51.0887 86.7589 51.112 86.4883 51.112C86.2129 51.112 85.9539 51.0747 85.7113 51C85.4733 50.9207 85.2656 50.804 85.0883 50.65C84.9109 50.496 84.7686 50.3023 84.6613 50.069C84.5586 49.831 84.5073 49.551 84.5073 49.229C84.5073 48.949 84.5843 48.6807 84.7383 48.424C84.8923 48.1627 85.1396 47.9317 85.4803 47.731C85.8256 47.5303 86.2759 47.367 86.8313 47.241C87.3866 47.1103 88.0656 47.0357 88.8683 47.017V46.464C88.8683 45.9133 88.7493 45.498 88.5113 45.218C88.2779 44.9333 87.9303 44.791 87.4683 44.791C87.1649 44.791 86.9083 44.8307 86.6983 44.91C86.4929 44.9847 86.3133 45.071 86.1593 45.169C86.0099 45.2623 85.8793 45.3487 85.7673 45.428C85.6599 45.5027 85.5526 45.54 85.4453 45.54C85.3613 45.54 85.2866 45.519 85.2213 45.477C85.1606 45.4303 85.1116 45.3743 85.0743 45.309L84.8503 44.91C85.2423 44.532 85.6646 44.2497 86.1173 44.063C86.5699 43.8763 87.0716 43.783 87.6223 43.783C88.0189 43.783 88.3713 43.8483 88.6793 43.979C88.9873 44.1097 89.2463 44.2917 89.4563 44.525C89.6663 44.7583 89.8249 45.0407 89.9323 45.372C90.0396 45.7033 90.0933 46.0673 90.0933 46.464V51ZM86.8593 50.237C87.0786 50.237 87.2793 50.216 87.4613 50.174C87.6433 50.1273 87.8136 50.0643 87.9723 49.985C88.1356 49.901 88.2896 49.8007 88.4343 49.684C88.5836 49.5673 88.7283 49.4343 88.8683 49.285V47.808C88.2943 47.8267 87.8066 47.8733 87.4053 47.948C87.0039 48.018 86.6773 48.1113 86.4253 48.228C86.1733 48.3447 85.9889 48.4823 85.8723 48.641C85.7603 48.7997 85.7043 48.977 85.7043 49.173C85.7043 49.3597 85.7346 49.5207 85.7953 49.656C85.8559 49.7913 85.9376 49.9033 86.0403 49.992C86.1429 50.076 86.2643 50.139 86.4043 50.181C86.5443 50.2183 86.6959 50.237 86.8593 50.237ZM94.368 43.79C94.676 43.79 94.963 43.825 95.229 43.895C95.4997 43.9603 95.7447 44.0583 95.964 44.189H97.889V44.651C97.889 44.805 97.791 44.903 97.595 44.945L96.79 45.057C96.9487 45.3603 97.028 45.6987 97.028 46.072C97.028 46.4173 96.9603 46.7323 96.825 47.017C96.6943 47.297 96.51 47.5373 96.272 47.738C96.0387 47.9387 95.7587 48.0927 95.432 48.2C95.11 48.3073 94.7553 48.361 94.368 48.361C94.0367 48.361 93.724 48.3213 93.43 48.242C93.2807 48.3353 93.1663 48.4357 93.087 48.543C93.0123 48.6503 92.975 48.7553 92.975 48.858C92.975 49.026 93.0427 49.1543 93.178 49.243C93.3133 49.327 93.493 49.3877 93.717 49.425C93.941 49.4623 94.1953 49.4857 94.48 49.495C94.7647 49.5043 95.054 49.5207 95.348 49.544C95.6467 49.5627 95.9383 49.5977 96.223 49.649C96.5077 49.7003 96.762 49.7843 96.986 49.901C97.21 50.0177 97.3897 50.1787 97.525 50.384C97.6603 50.5893 97.728 50.8553 97.728 51.182C97.728 51.4853 97.651 51.7793 97.497 52.064C97.3477 52.3487 97.1307 52.6007 96.846 52.82C96.5613 53.044 96.2137 53.2213 95.803 53.352C95.3923 53.4873 94.928 53.555 94.41 53.555C93.892 53.555 93.437 53.5037 93.045 53.401C92.6577 53.2983 92.3357 53.1607 92.079 52.988C91.8223 52.8153 91.6287 52.6147 91.498 52.386C91.372 52.162 91.309 51.9263 91.309 51.679C91.309 51.329 91.4187 51.0327 91.638 50.79C91.862 50.5427 92.1677 50.3467 92.555 50.202C92.3543 50.1087 92.1933 49.985 92.072 49.831C91.9553 49.6723 91.897 49.4623 91.897 49.201C91.897 49.0983 91.9157 48.9933 91.953 48.886C91.9903 48.774 92.0463 48.6643 92.121 48.557C92.2003 48.4497 92.296 48.347 92.408 48.249C92.52 48.151 92.6507 48.0647 92.8 47.99C92.45 47.794 92.1747 47.535 91.974 47.213C91.778 46.8863 91.68 46.506 91.68 46.072C91.68 45.7267 91.7453 45.414 91.876 45.134C92.0113 44.8493 92.198 44.609 92.436 44.413C92.674 44.2123 92.9563 44.0583 93.283 43.951C93.6143 43.8437 93.976 43.79 94.368 43.79ZM96.58 51.385C96.58 51.2077 96.531 51.0653 96.433 50.958C96.335 50.8507 96.202 50.769 96.034 50.713C95.866 50.6523 95.6723 50.608 95.453 50.58C95.2337 50.552 95.0027 50.5333 94.76 50.524C94.5173 50.51 94.27 50.496 94.018 50.482C93.766 50.468 93.5257 50.4423 93.297 50.405C93.031 50.531 92.814 50.685 92.646 50.867C92.4827 51.049 92.401 51.266 92.401 51.518C92.401 51.6767 92.4407 51.8237 92.52 51.959C92.604 52.099 92.73 52.218 92.898 52.316C93.066 52.4187 93.276 52.498 93.528 52.554C93.7847 52.6147 94.0857 52.645 94.431 52.645C94.767 52.645 95.068 52.6147 95.334 52.554C95.6 52.4933 95.824 52.407 96.006 52.295C96.1927 52.183 96.335 52.05 96.433 51.896C96.531 51.742 96.58 51.5717 96.58 51.385ZM94.368 47.535C94.62 47.535 94.8417 47.5 95.033 47.43C95.229 47.36 95.3923 47.262 95.523 47.136C95.6537 47.01 95.7517 46.8607 95.817 46.688C95.8823 46.5107 95.915 46.317 95.915 46.107C95.915 45.673 95.782 45.3277 95.516 45.071C95.2547 44.8143 94.872 44.686 94.368 44.686C93.8687 44.686 93.486 44.8143 93.22 45.071C92.9587 45.3277 92.828 45.673 92.828 46.107C92.828 46.317 92.8607 46.5107 92.926 46.688C92.996 46.8607 93.0963 47.01 93.227 47.136C93.3577 47.262 93.5187 47.36 93.71 47.43C93.9013 47.5 94.1207 47.535 94.368 47.535ZM101.938 43.797C102.363 43.797 102.755 43.8693 103.114 44.014C103.474 44.154 103.784 44.3593 104.045 44.63C104.307 44.896 104.51 45.2273 104.654 45.624C104.804 46.016 104.878 46.464 104.878 46.968C104.878 47.164 104.857 47.2947 104.815 47.36C104.773 47.4253 104.694 47.458 104.577 47.458H99.8594C99.8687 47.906 99.9294 48.2957 100.041 48.627C100.153 48.9583 100.307 49.236 100.503 49.46C100.699 49.6793 100.933 49.845 101.203 49.957C101.474 50.0643 101.777 50.118 102.113 50.118C102.426 50.118 102.694 50.083 102.918 50.013C103.147 49.9383 103.343 49.859 103.506 49.775C103.67 49.691 103.805 49.614 103.912 49.544C104.024 49.4693 104.12 49.432 104.199 49.432C104.302 49.432 104.381 49.4717 104.437 49.551L104.787 50.006C104.633 50.1927 104.449 50.356 104.234 50.496C104.02 50.6313 103.789 50.7433 103.541 50.832C103.299 50.9207 103.047 50.986 102.785 51.028C102.524 51.0747 102.265 51.098 102.008 51.098C101.518 51.098 101.066 51.0163 100.65 50.853C100.24 50.685 99.8827 50.4423 99.5794 50.125C99.2807 49.803 99.0474 49.4063 98.8794 48.935C98.7114 48.4637 98.6274 47.9223 98.6274 47.311C98.6274 46.8163 98.702 46.3543 98.8514 45.925C99.0054 45.4957 99.2247 45.1247 99.5094 44.812C99.794 44.4947 100.142 44.2473 100.552 44.07C100.963 43.888 101.425 43.797 101.938 43.797ZM101.966 44.714C101.364 44.714 100.891 44.889 100.545 45.239C100.2 45.5843 99.9854 46.065 99.9014 46.681H103.758C103.758 46.3917 103.719 46.128 103.639 45.89C103.56 45.6473 103.443 45.4397 103.289 45.267C103.135 45.0897 102.946 44.9543 102.722 44.861C102.503 44.763 102.251 44.714 101.966 44.714ZM106.473 51V43.909H107.215C107.393 43.909 107.505 43.9953 107.551 44.168L107.642 44.896C107.904 44.574 108.195 44.3103 108.517 44.105C108.844 43.8997 109.222 43.797 109.651 43.797C110.132 43.797 110.519 43.93 110.813 44.196C111.112 44.462 111.327 44.8213 111.457 45.274C111.555 45.0173 111.684 44.7957 111.842 44.609C112.006 44.4223 112.188 44.2683 112.388 44.147C112.589 44.0257 112.801 43.937 113.025 43.881C113.254 43.825 113.485 43.797 113.718 43.797C114.092 43.797 114.423 43.8577 114.712 43.979C115.006 44.0957 115.254 44.2683 115.454 44.497C115.66 44.7257 115.816 45.008 115.923 45.344C116.031 45.6753 116.084 46.0557 116.084 46.485V51H114.838V46.485C114.838 45.9297 114.717 45.5097 114.474 45.225C114.232 44.9357 113.879 44.791 113.417 44.791C113.212 44.791 113.016 44.8283 112.829 44.903C112.647 44.973 112.486 45.078 112.346 45.218C112.206 45.358 112.094 45.5353 112.01 45.75C111.931 45.96 111.891 46.205 111.891 46.485V51H110.645V46.485C110.645 45.9157 110.531 45.491 110.302 45.211C110.074 44.931 109.74 44.791 109.301 44.791C108.993 44.791 108.706 44.875 108.44 45.043C108.179 45.2063 107.939 45.4303 107.719 45.715V51H106.473ZM120.778 43.797C121.203 43.797 121.595 43.8693 121.954 44.014C122.314 44.154 122.624 44.3593 122.885 44.63C123.147 44.896 123.35 45.2273 123.494 45.624C123.644 46.016 123.718 46.464 123.718 46.968C123.718 47.164 123.697 47.2947 123.655 47.36C123.613 47.4253 123.534 47.458 123.417 47.458H118.699C118.709 47.906 118.769 48.2957 118.881 48.627C118.993 48.9583 119.147 49.236 119.343 49.46C119.539 49.6793 119.773 49.845 120.043 49.957C120.314 50.0643 120.617 50.118 120.953 50.118C121.266 50.118 121.534 50.083 121.758 50.013C121.987 49.9383 122.183 49.859 122.346 49.775C122.51 49.691 122.645 49.614 122.752 49.544C122.864 49.4693 122.96 49.432 123.039 49.432C123.142 49.432 123.221 49.4717 123.277 49.551L123.627 50.006C123.473 50.1927 123.289 50.356 123.074 50.496C122.86 50.6313 122.629 50.7433 122.381 50.832C122.139 50.9207 121.887 50.986 121.625 51.028C121.364 51.0747 121.105 51.098 120.848 51.098C120.358 51.098 119.906 51.0163 119.49 50.853C119.08 50.685 118.723 50.4423 118.419 50.125C118.121 49.803 117.887 49.4063 117.719 48.935C117.551 48.4637 117.467 47.9223 117.467 47.311C117.467 46.8163 117.542 46.3543 117.691 45.925C117.845 45.4957 118.065 45.1247 118.349 44.812C118.634 44.4947 118.982 44.2473 119.392 44.07C119.803 43.888 120.265 43.797 120.778 43.797ZM120.806 44.714C120.204 44.714 119.731 44.889 119.385 45.239C119.04 45.5843 118.825 46.065 118.741 46.681H122.598C122.598 46.3917 122.559 46.128 122.479 45.89C122.4 45.6473 122.283 45.4397 122.129 45.267C121.975 45.0897 121.786 44.9543 121.562 44.861C121.343 44.763 121.091 44.714 120.806 44.714ZM125.313 51V43.909H126.055C126.232 43.909 126.344 43.9953 126.391 44.168L126.489 44.938C126.797 44.5973 127.14 44.322 127.518 44.112C127.901 43.902 128.342 43.797 128.841 43.797C129.228 43.797 129.569 43.8623 129.863 43.993C130.162 44.119 130.409 44.301 130.605 44.539C130.806 44.7723 130.957 45.0547 131.06 45.386C131.163 45.7173 131.214 46.0837 131.214 46.485V51H129.968V46.485C129.968 45.9483 129.844 45.533 129.597 45.239C129.354 44.9403 128.981 44.791 128.477 44.791C128.108 44.791 127.763 44.8797 127.441 45.057C127.124 45.2343 126.83 45.4747 126.559 45.778V51H125.313ZM135.241 51.112C134.681 51.112 134.25 50.9557 133.946 50.643C133.648 50.3303 133.498 49.88 133.498 49.292V44.952H132.644C132.57 44.952 132.507 44.931 132.455 44.889C132.404 44.8423 132.378 44.7723 132.378 44.679V44.182L133.54 44.035L133.827 41.844C133.837 41.774 133.867 41.718 133.918 41.676C133.97 41.6293 134.035 41.606 134.114 41.606H134.744V44.049H136.774V44.952H134.744V49.208C134.744 49.5067 134.817 49.7283 134.961 49.873C135.106 50.0177 135.293 50.09 135.521 50.09C135.652 50.09 135.764 50.0737 135.857 50.041C135.955 50.0037 136.039 49.964 136.109 49.922C136.179 49.88 136.238 49.8427 136.284 49.81C136.336 49.7727 136.38 49.754 136.417 49.754C136.483 49.754 136.541 49.7937 136.592 49.873L136.956 50.468C136.742 50.6687 136.483 50.8273 136.179 50.944C135.876 51.056 135.563 51.112 135.241 51.112ZM146.356 42.537C146.314 42.607 146.27 42.6607 146.223 42.698C146.176 42.7307 146.116 42.747 146.041 42.747C145.962 42.747 145.868 42.7073 145.761 42.628C145.658 42.5487 145.525 42.4623 145.362 42.369C145.203 42.271 145.01 42.1823 144.781 42.103C144.557 42.0237 144.284 41.984 143.962 41.984C143.659 41.984 143.39 42.026 143.157 42.11C142.924 42.1893 142.728 42.299 142.569 42.439C142.415 42.579 142.298 42.7447 142.219 42.936C142.14 43.1227 142.1 43.3257 142.1 43.545C142.1 43.825 142.168 44.0583 142.303 44.245C142.443 44.427 142.625 44.5833 142.849 44.714C143.078 44.8447 143.334 44.959 143.619 45.057C143.908 45.1503 144.202 45.2483 144.501 45.351C144.804 45.4537 145.098 45.5703 145.383 45.701C145.672 45.827 145.929 45.988 146.153 46.184C146.382 46.38 146.564 46.6203 146.699 46.905C146.839 47.1897 146.909 47.5397 146.909 47.955C146.909 48.3937 146.834 48.8067 146.685 49.194C146.536 49.5767 146.316 49.9103 146.027 50.195C145.742 50.4797 145.39 50.7037 144.97 50.867C144.555 51.0303 144.081 51.112 143.549 51.112C142.9 51.112 142.308 50.9953 141.771 50.762C141.239 50.524 140.784 50.2043 140.406 49.803L140.798 49.159C140.835 49.1077 140.88 49.0657 140.931 49.033C140.987 48.9957 141.048 48.977 141.113 48.977C141.211 48.977 141.323 49.0307 141.449 49.138C141.575 49.2407 141.731 49.355 141.918 49.481C142.109 49.607 142.338 49.7237 142.604 49.831C142.875 49.9337 143.204 49.985 143.591 49.985C143.913 49.985 144.2 49.9407 144.452 49.852C144.704 49.7633 144.916 49.6397 145.089 49.481C145.266 49.3177 145.402 49.124 145.495 48.9C145.588 48.676 145.635 48.4263 145.635 48.151C145.635 47.8477 145.565 47.6003 145.425 47.409C145.29 47.213 145.11 47.0497 144.886 46.919C144.662 46.7883 144.405 46.6787 144.116 46.59C143.831 46.4967 143.537 46.4033 143.234 46.31C142.935 46.212 142.641 46.1 142.352 45.974C142.067 45.848 141.813 45.6847 141.589 45.484C141.365 45.2833 141.183 45.0337 141.043 44.735C140.908 44.4317 140.84 44.0583 140.84 43.615C140.84 43.2603 140.908 42.9173 141.043 42.586C141.183 42.2547 141.384 41.9607 141.645 41.704C141.906 41.4473 142.228 41.242 142.611 41.088C142.998 40.934 143.442 40.857 143.941 40.857C144.501 40.857 145.012 40.9457 145.474 41.123C145.936 41.3003 146.34 41.557 146.685 41.893L146.356 42.537ZM150.525 53.093C150.483 53.1863 150.429 53.261 150.364 53.317C150.303 53.373 150.207 53.401 150.077 53.401H149.153L150.448 50.587L147.522 43.909H148.6C148.707 43.909 148.791 43.937 148.852 43.993C148.912 44.0443 148.957 44.1027 148.985 44.168L150.882 48.634C150.924 48.7367 150.959 48.8393 150.987 48.942C151.019 49.0447 151.047 49.1497 151.071 49.257C151.103 49.1497 151.136 49.0447 151.169 48.942C151.201 48.8393 151.239 48.7343 151.281 48.627L153.122 44.168C153.15 44.0933 153.196 44.0327 153.262 43.986C153.332 43.9347 153.406 43.909 153.486 43.909H154.48L150.525 53.093ZM159.67 45.078C159.614 45.1807 159.528 45.232 159.411 45.232C159.341 45.232 159.262 45.2063 159.173 45.155C159.084 45.1037 158.975 45.0477 158.844 44.987C158.718 44.9217 158.566 44.8633 158.389 44.812C158.212 44.756 158.002 44.728 157.759 44.728C157.549 44.728 157.36 44.756 157.192 44.812C157.024 44.8633 156.879 44.9357 156.758 45.029C156.641 45.1223 156.55 45.232 156.485 45.358C156.424 45.4793 156.394 45.6123 156.394 45.757C156.394 45.939 156.445 46.0907 156.548 46.212C156.655 46.3333 156.795 46.4383 156.968 46.527C157.141 46.6157 157.337 46.695 157.556 46.765C157.775 46.8303 157.999 46.9027 158.228 46.982C158.461 47.0567 158.688 47.1407 158.907 47.234C159.126 47.3273 159.322 47.444 159.495 47.584C159.668 47.724 159.805 47.8967 159.908 48.102C160.015 48.3027 160.069 48.5453 160.069 48.83C160.069 49.1567 160.011 49.46 159.894 49.74C159.777 50.0153 159.605 50.2557 159.376 50.461C159.147 50.6617 158.867 50.8203 158.536 50.937C158.205 51.0537 157.822 51.112 157.388 51.112C156.893 51.112 156.445 51.0327 156.044 50.874C155.643 50.7107 155.302 50.503 155.022 50.251L155.316 49.775C155.353 49.7143 155.398 49.6677 155.449 49.635C155.5 49.6023 155.568 49.586 155.652 49.586C155.736 49.586 155.825 49.6187 155.918 49.684C156.011 49.7493 156.123 49.8217 156.254 49.901C156.389 49.9803 156.55 50.0527 156.737 50.118C156.928 50.1833 157.166 50.216 157.451 50.216C157.694 50.216 157.906 50.1857 158.088 50.125C158.27 50.0597 158.422 49.9733 158.543 49.866C158.664 49.7587 158.753 49.635 158.809 49.495C158.87 49.355 158.9 49.2057 158.9 49.047C158.9 48.851 158.846 48.69 158.739 48.564C158.636 48.4333 158.499 48.3237 158.326 48.235C158.153 48.1417 157.955 48.0623 157.731 47.997C157.512 47.927 157.285 47.8547 157.052 47.78C156.823 47.7053 156.597 47.6213 156.373 47.528C156.154 47.43 155.958 47.3087 155.785 47.164C155.612 47.0193 155.472 46.842 155.365 46.632C155.262 46.4173 155.211 46.1583 155.211 45.855C155.211 45.5843 155.267 45.3253 155.379 45.078C155.491 44.826 155.654 44.6067 155.869 44.42C156.084 44.2287 156.347 44.077 156.66 43.965C156.973 43.853 157.33 43.797 157.731 43.797C158.198 43.797 158.615 43.8717 158.984 44.021C159.357 44.1657 159.679 44.3663 159.95 44.623L159.67 45.078ZM163.829 51.112C163.269 51.112 162.838 50.9557 162.534 50.643C162.236 50.3303 162.086 49.88 162.086 49.292V44.952H161.232C161.158 44.952 161.095 44.931 161.043 44.889C160.992 44.8423 160.966 44.7723 160.966 44.679V44.182L162.128 44.035L162.415 41.844C162.425 41.774 162.455 41.718 162.506 41.676C162.558 41.6293 162.623 41.606 162.702 41.606H163.332V44.049H165.362V44.952H163.332V49.208C163.332 49.5067 163.405 49.7283 163.549 49.873C163.694 50.0177 163.881 50.09 164.109 50.09C164.24 50.09 164.352 50.0737 164.445 50.041C164.543 50.0037 164.627 49.964 164.697 49.922C164.767 49.88 164.826 49.8427 164.872 49.81C164.924 49.7727 164.968 49.754 165.005 49.754C165.071 49.754 165.129 49.7937 165.18 49.873L165.544 50.468C165.33 50.6687 165.071 50.8273 164.767 50.944C164.464 51.056 164.151 51.112 163.829 51.112ZM169.71 43.797C170.135 43.797 170.527 43.8693 170.886 44.014C171.245 44.154 171.556 44.3593 171.817 44.63C172.078 44.896 172.281 45.2273 172.426 45.624C172.575 46.016 172.65 46.464 172.65 46.968C172.65 47.164 172.629 47.2947 172.587 47.36C172.545 47.4253 172.466 47.458 172.349 47.458H167.631C167.64 47.906 167.701 48.2957 167.813 48.627C167.925 48.9583 168.079 49.236 168.275 49.46C168.471 49.6793 168.704 49.845 168.975 49.957C169.246 50.0643 169.549 50.118 169.885 50.118C170.198 50.118 170.466 50.083 170.69 50.013C170.919 49.9383 171.115 49.859 171.278 49.775C171.441 49.691 171.577 49.614 171.684 49.544C171.796 49.4693 171.892 49.432 171.971 49.432C172.074 49.432 172.153 49.4717 172.209 49.551L172.559 50.006C172.405 50.1927 172.221 50.356 172.006 50.496C171.791 50.6313 171.56 50.7433 171.313 50.832C171.07 50.9207 170.818 50.986 170.557 51.028C170.296 51.0747 170.037 51.098 169.78 51.098C169.29 51.098 168.837 51.0163 168.422 50.853C168.011 50.685 167.654 50.4423 167.351 50.125C167.052 49.803 166.819 49.4063 166.651 48.935C166.483 48.4637 166.399 47.9223 166.399 47.311C166.399 46.8163 166.474 46.3543 166.623 45.925C166.777 45.4957 166.996 45.1247 167.281 44.812C167.566 44.4947 167.913 44.2473 168.324 44.07C168.735 43.888 169.197 43.797 169.71 43.797ZM169.738 44.714C169.136 44.714 168.662 44.889 168.317 45.239C167.972 45.5843 167.757 46.065 167.673 46.681H171.53C171.53 46.3917 171.49 46.128 171.411 45.89C171.332 45.6473 171.215 45.4397 171.061 45.267C170.907 45.0897 170.718 44.9543 170.494 44.861C170.275 44.763 170.023 44.714 169.738 44.714ZM174.245 51V43.909H174.987C175.164 43.909 175.276 43.9953 175.323 44.168L175.414 44.896C175.675 44.574 175.967 44.3103 176.289 44.105C176.615 43.8997 176.993 43.797 177.423 43.797C177.903 43.797 178.291 43.93 178.585 44.196C178.883 44.462 179.098 44.8213 179.229 45.274C179.327 45.0173 179.455 44.7957 179.614 44.609C179.777 44.4223 179.959 44.2683 180.16 44.147C180.36 44.0257 180.573 43.937 180.797 43.881C181.025 43.825 181.256 43.797 181.49 43.797C181.863 43.797 182.194 43.8577 182.484 43.979C182.778 44.0957 183.025 44.2683 183.226 44.497C183.431 44.7257 183.587 45.008 183.695 45.344C183.802 45.6753 183.856 46.0557 183.856 46.485V51H182.61V46.485C182.61 45.9297 182.488 45.5097 182.246 45.225C182.003 44.9357 181.651 44.791 181.189 44.791C180.983 44.791 180.787 44.8283 180.601 44.903C180.419 44.973 180.258 45.078 180.118 45.218C179.978 45.358 179.866 45.5353 179.782 45.75C179.702 45.96 179.663 46.205 179.663 46.485V51H178.417V46.485C178.417 45.9157 178.302 45.491 178.074 45.211C177.845 44.931 177.511 44.791 177.073 44.791C176.765 44.791 176.478 44.875 176.212 45.043C175.95 45.2063 175.71 45.4303 175.491 45.715V51H174.245Z" fill="#7A7D80"/>
</svg>
