<svg xmlns="http://www.w3.org/2000/svg" width="287" height="40" viewBox="0 0 287 40">
    <g fill="none" fill-rule="evenodd">
        <text fill="#00A1BA" font-family="Lato-Bold, Lato" font-size="24" font-weight="bold" letter-spacing=".949">
            <tspan x="173.017" y="29">EDMOND</tspan>
        </text>
        <path fill="#D8D8D8" d="M148 0h1v40h-1z"/>
        <path fill="#005088" d="M4.316 12h-.377L0 28.643h.99l2.665-12.328 5.708 12.328h.306l5.377-12.328 3.043 12.328h2.476L16.509 12h-.378l-5.778 13.041L4.316 12zm22.286 16.643l2.807-6.89h5.281l2.95 6.89h2.616L33.111 12h-.378l-7.145 16.643h1.014zm3.16-7.726l2.24-5.484 2.335 5.484h-4.576zm16.909 7.726h2.405V12.43h-2.405v16.213zm9.386-3.435C56.576 27.928 58.651 29 60.94 29c3.254 0 5.377-1.931 5.377-4.817 0-2.074-1.18-3.385-2.783-4.362-1.037-.62-1.957-1.17-2.877-1.741-1.18-.692-1.863-1.407-1.863-2.742 0-1.455.99-2.528 2.665-2.528 1.51 0 3.018.834 3.325 2.623l.849-.19C65.16 12.787 63.038 12 61.434 12c-2.948 0-4.622 1.788-4.622 4.03 0 2.455 1.745 3.766 3.23 4.65.638.38 1.227.713 1.864 1.12 1.533.953 2.217 1.788 2.217 3.289 0 1.693-1.132 3.076-3.16 3.076-1.652 0-3.561-.596-4.057-3.147l-.849.19zm27.216-11.944v-.836H71.056v.836h4.906v15.379h2.405v-15.38h4.906zm6.06 15.379h2.406V20.56h.802l6.06 8.083h2.855l-6.273-8.299c1.815-.333 3.772-1.621 3.772-4.053 0-2.694-2.098-3.863-4.668-3.863h-4.954v16.215zm3.892-15.38c1.792 0 3.396.835 3.396 2.98 0 2.48-1.745 3.482-3.35 3.482H91.74v-6.461h1.486zm13.183 15.38l2.806-6.89h5.283l2.947 6.89h2.618L112.918 12h-.378l-7.146 16.643h1.015zm3.16-7.726l2.24-5.484 2.335 5.484h-4.575z"/>
    </g>
</svg>
