<svg width="24" height="24" fill="none" xmlns="http://www.w3.org/2000/svg"><path fill-rule="evenodd" clip-rule="evenodd" d="M6.5 5.25a.75.75 0 01.75-.75H12v5a.5.5 0 00.5.5h5v7.75a.75.75 0 01-.75.75h-9.5a.75.75 0 01-.75-.75V5.25zM16.793 9L13 5.207V9h3.793zM7.25 3.5A1.75 1.75 0 005.5 5.25v12.5c0 .966.784 1.75 1.75 1.75h9.5a1.75 1.75 0 001.75-1.75V9.5a.5.5 0 00-.146-.354l-5.5-5.5A.5.5 0 0012.5 3.5H7.25zm7.354 8.854a.5.5 0 00-.708-.708L10.5 15.043l-1.146-1.147a.5.5 0 00-.708.708l1.5 1.5a.5.5 0 00.708 0l3.75-3.75z" fill="#1E559A"/></svg>