<svg width="24" height="24" fill="none" xmlns="http://www.w3.org/2000/svg"><path fill-rule="evenodd" clip-rule="evenodd" d="M12 5.5c-2.845 0-5.144 1.186-6.755 2.557a10.84 10.84 0 00-1.905 2.09c-.45.655-.753 1.29-.833 1.77a.5.5 0 00.025.259C3.326 14.294 6.32 18.5 12 18.5a10.65 10.65 0 006.746-2.361 9.384 9.384 0 001.919-2.082c.458-.694.756-1.392.831-1.995a.5.5 0 00-.049-.286C20.681 10.243 17.705 5.5 12 5.5zm0 12c-5 0-7.698-3.618-8.48-5.54.08-.283.284-.721.645-1.248a9.843 9.843 0 011.728-1.894C7.369 7.564 9.445 6.5 12 6.5c4.94 0 7.65 4 8.48 5.582-.078.381-.288.876-.65 1.424a8.39 8.39 0 01-1.713 1.855A9.65 9.65 0 0112 17.5zM9.5 12a2.5 2.5 0 115 0 2.5 2.5 0 01-5 0zM12 8.5a3.5 3.5 0 100 7 3.5 3.5 0 000-7z" fill="#1E559A"/></svg>