<svg width="24" height="24" viewBox="0 0 24 24" fill="none" xmlns="http://www.w3.org/2000/svg">
<path fill-rule="evenodd" clip-rule="evenodd" d="M20.5 8.00098V14C20.5 14.2761 20.2761 14.5 20 14.5C19.7239 14.5 19.5 14.2761 19.5 14V9.20711L13.3536 15.3536L13.3535 15.3536C12.6658 15.4582 12.6658 15.4582 12.6832 15.3904C12.664 15.3751 12.6551 15.368 12.6464 15.3608C12.639 15.3545 12.6317 15.3482 12.6182 15.3363C12.5822 15.3045 12.5345 15.2602 12.4738 15.2023C12.364 15.0976 12.2093 14.9463 12.0126 14.7515C11.6684 14.4106 11.2025 13.9433 10.6449 13.3805L10.6167 13.352C10.1829 12.9141 9.71998 12.4449 9.25819 11.9758L8.99688 11.7102L3.35355 17.3536C3.15829 17.5488 2.84171 17.5488 2.64645 17.3536C2.45118 17.1583 2.45118 16.8417 2.64645 16.6464L8.64645 10.6464C8.84301 10.4499 9.16217 10.4514 9.35687 10.6498C9.47937 10.7746 9.69416 10.9932 9.97084 11.2743C10.432 11.7427 10.8942 12.2111 11.3272 12.6483L11.3553 12.6767C11.9109 13.2375 12.3748 13.7028 12.7163 14.041C12.8182 14.1419 12.9084 14.2307 12.9862 14.3067L16.1464 11.1465L18.7929 8.5H14C13.7239 8.5 13.5 8.27614 13.5 8C13.5 7.72386 13.7239 7.5 14 7.5H20C20.0678 7.5 20.1324 7.51349 20.1914 7.53794C20.2504 7.56234 20.3056 7.59851 20.3536 7.64645C20.4015 7.69438 20.4377 7.74964 20.4621 7.80861C20.4834 7.86006 20.4964 7.91584 20.4993 7.97427C20.4998 7.98279 20.5 7.99137 20.5 8" fill="currentColor"/>
</svg>
