<svg width="24" height="24" viewBox="0 0 24 24" xmlns="http://www.w3.org/2000/svg"><path d="M17 14.158c-1.169.435-2.531.721-4 .811v3.998c1.604-.105 3.048-.459 4.2-.967H17v-3.842zm1-.431v3.87c1.25-.722 2-1.649 2-2.597h1c0 2.761-4.03 5-9 5s-9-2.239-9-5h1c0 .948.75 1.875 2 2.597v-3.87c-.814-.405-1.494-.89-2-1.434V15H3v-5c0-2.761 4.03-5 9-5s9 2.239 9 5v5h-1v-2.707c-.506.544-1.186 1.03-2 1.434zm-1-.641V13h.2c1.724-.76 2.8-1.864 2.8-3 0-2.051-3.508-4-8-4s-8 1.949-8 4c0 1.136 1.076 2.24 2.8 3H7v.086c1.36.562 3.091.914 5 .914 1.909 0 3.64-.352 5-.914zM12 15c-1.85 0-3.57-.31-5-.842V18h-.2c1.387.612 3.196 1 5.2 1v-4z" fill="#4A4A4A" fill-rule="nonzero"/></svg>
