<svg xmlns="http://www.w3.org/2000/svg" width="24" height="24" viewBox="0 0 24 24">
    <path fill="#4A4A4A" fill-rule="evenodd" d="M18 8h-5V3H6a1 1 0 0 0-1 1v16a1 1 0 0 0 1 1h11a1 1 0 0 0 1-1V8zm-.414-1L14 3.414V7h3.586zM6 22a2 2 0 0 1-2-2V4a2 2 0 0 1 2-2h7.586a1 1 0 0 1 .707.293l4.414 4.414a1 1 0 0 1 .293.707V20a2 2 0 0 1-2 2H6zm5.5-5h4a.5.5 0 1 1 0 1h-4a.5.5 0 1 1 0-1zm-3.646-1.646a.5.5 0 0 1-.708-.708l2.99-2.99a.5.5 0 0 1 .706-.001l1.656 1.64 2.648-2.649a.5.5 0 0 1 .708.708l-3 3a.5.5 0 0 1-.706.001l-1.656-1.64-2.638 2.639z"/>
</svg>
