<svg width="24" height="24" viewBox="0 0 24 24" fill="none" xmlns="http://www.w3.org/2000/svg">
<path d="M21.8497 19.804L13.3287 3.5367C12.7672 2.46471 11.2328 2.46471 10.6713 3.5367L2.15029 19.804C1.62714 20.8027 2.35157 22 3.47904 22H20.521C21.6484 22 22.3729 20.8027 21.8497 19.804Z" fill="#FFEDEF"/>
<path d="M11.25 9.7502C11.25 9.33599 11.5858 9.0002 12 9.0002C12.4142 9.0002 12.75 9.33599 12.75 9.7502V14.2502C12.75 14.6644 12.4142 15.0002 12 15.0002C11.5858 15.0002 11.25 14.6644 11.25 14.2502V9.7502Z" fill="#F54559"/>
<path d="M12 17.0002C11.5858 17.0002 11.25 17.336 11.25 17.7502C11.25 18.1644 11.5858 18.5002 12 18.5002C12.4142 18.5002 12.75 18.1644 12.75 17.7502C12.75 17.336 12.4142 17.0002 12 17.0002Z" fill="#F54559"/>
<path fill-rule="evenodd" clip-rule="evenodd" d="M13.3283 3.5369L21.8493 19.8042C22.3724 20.8029 21.648 22.0002 20.5205 22.0002H3.4786C2.35112 22.0002 1.62669 20.8029 2.14985 19.8042L10.6708 3.5369C11.2323 2.46491 12.7668 2.46491 13.3283 3.5369ZM20.9634 20.2682L12.4425 4.00091C12.2553 3.64358 11.7438 3.64358 11.5566 4.00091L3.03568 20.2682C2.8613 20.6011 3.10277 21.0002 3.4786 21.0002H20.5205C20.8963 21.0002 21.1378 20.6011 20.9634 20.2682Z" fill="#F54559"/>
</svg>
