<svg width="50" height="49" viewBox="0 0 50 49" fill="none" xmlns="http://www.w3.org/2000/svg">
<path opacity="0.53" d="M48.1195 26.8425C48.1195 29.7523 47.5215 32.6336 46.3596 35.3218C45.1978 38.0101 43.4948 40.4527 41.3479 42.5102C39.2011 44.5677 36.6524 46.1998 33.8474 47.3134C31.0424 48.4269 28.036 49 24.9999 49C21.9638 49 18.9575 48.4269 16.1525 47.3134C13.3475 46.1998 10.7988 44.5677 8.65193 42.5102C6.50508 40.4527 4.80211 38.0101 3.64024 35.3218C2.47838 32.6336 1.88037 29.7523 1.88037 26.8425C1.88037 20.966 4.31618 15.3302 8.65193 11.1748C12.9877 7.01951 18.8682 4.68507 24.9999 4.68507C28.036 4.68507 31.0424 5.25819 33.8474 6.3717C36.6524 7.48522 39.2011 9.11733 41.3479 11.1748C43.4948 13.2323 45.1978 15.675 46.3596 18.3632C47.5215 21.0515 48.1195 23.9328 48.1195 26.8425Z" fill="black"/>
<path d="M49 24.8866C49 28.0235 48.3792 31.1296 47.1731 34.0276C45.967 36.9257 44.1992 39.5589 41.9706 41.777C39.742 43.9951 37.0962 45.7546 34.1844 46.955C31.2726 48.1554 28.1517 48.7732 25 48.7732C18.6348 48.7732 12.5303 46.2566 8.02943 41.777C3.52856 37.2974 1 31.2217 1 24.8866C1 18.5515 3.52856 12.4758 8.02943 7.99623C12.5303 3.51662 18.6348 1 25 1C28.1517 1 31.2726 1.61785 34.1844 2.81826C37.0962 4.01868 39.742 5.77816 41.9706 7.99623C44.1992 10.2143 45.967 12.8475 47.1731 15.7456C48.3792 18.6437 49 21.7498 49 24.8866Z" fill="url(#safari0_linear)" stroke="#CDCDCD" stroke-width="0.0930123" stroke-linecap="round" stroke-linejoin="round"/>
<path d="M47.1191 24.8866C47.1191 30.7253 44.7887 36.3249 40.6405 40.4535C36.4923 44.5821 30.8662 46.9015 24.9998 46.9015C19.1333 46.9015 13.5072 44.5821 9.35899 40.4535C5.2108 36.3249 2.88037 30.7253 2.88037 24.8866C2.88037 19.0479 5.2108 13.4483 9.35899 9.31975C13.5072 5.19116 19.1333 2.87174 24.9998 2.87174C30.8662 2.87174 36.4923 5.19116 40.6405 9.31975C44.7887 13.4483 47.1191 19.0479 47.1191 24.8866Z" fill="url(#safari1_radial)"/>
<path d="M25.0003 4.01981C24.8216 4.01981 24.6778 4.16294 24.6778 4.34077V8.04302C24.6778 8.22085 24.8216 8.36398 25.0003 8.36398C25.179 8.36398 25.3228 8.22085 25.3228 8.04302V4.34077C25.3228 4.16294 25.179 4.01981 25.0003 4.01981ZM22.8906 4.15252C22.8692 4.15023 22.8472 4.15023 22.825 4.15279C22.6473 4.17124 22.5191 4.32846 22.5377 4.50533L22.7003 6.05418C22.7188 6.23105 22.8768 6.35858 23.0545 6.34011C23.2322 6.32166 23.3603 6.16442 23.3418 5.98756L23.1793 4.43871C23.1631 4.28396 23.0401 4.16697 22.8905 4.15252H22.8906ZM27.1248 4.15404C26.9752 4.16838 26.8522 4.28535 26.8358 4.44009L26.6722 5.98882C26.6535 6.16566 26.7816 6.32305 26.9593 6.34165C27.137 6.36025 27.295 6.23285 27.3137 6.056L27.4773 4.50714C27.496 4.3303 27.3679 4.17304 27.1902 4.15445C27.168 4.15216 27.1462 4.15216 27.1248 4.15406V4.15404ZM20.7233 4.4653C20.7019 4.46547 20.68 4.46759 20.6582 4.47217C20.4834 4.509 20.3725 4.67874 20.4095 4.8527L21.1799 8.4746C21.2169 8.64857 21.3874 8.75898 21.5622 8.72216C21.737 8.68533 21.8479 8.51573 21.8109 8.34176L21.0405 4.71972C21.0081 4.5675 20.8736 4.46394 20.7233 4.4651L20.7233 4.4653ZM29.2919 4.46836C29.1416 4.46684 29.007 4.57049 28.9745 4.72269L28.2015 8.34417C28.1644 8.51811 28.2752 8.68789 28.45 8.72484C28.6247 8.76183 28.7953 8.65149 28.8324 8.47757L29.6055 4.85608C29.6426 4.68214 29.5317 4.51236 29.357 4.47541C29.3352 4.47084 29.3133 4.46855 29.2919 4.46855L29.2919 4.46836ZM18.655 5.04572C18.6133 5.04191 18.5702 5.04649 18.5277 5.06052C18.3578 5.1155 18.2654 5.29576 18.3206 5.46488L18.8041 6.946C18.8594 7.11513 19.0406 7.20707 19.2105 7.15212C19.3805 7.09714 19.4727 6.91675 19.4175 6.74763L18.934 5.26651C18.8926 5.13967 18.7803 5.0563 18.655 5.0457V5.04572ZM31.3485 5.04649C31.2232 5.05709 31.111 5.14046 31.0695 5.26729L30.5857 6.74828C30.5305 6.91739 30.6228 7.0978 30.7927 7.15277C30.9626 7.20775 31.1439 7.11587 31.1991 6.94679L31.6829 5.46567C31.7381 5.29655 31.6458 5.11614 31.476 5.06117C31.4335 5.04745 31.3902 5.04295 31.3485 5.04645V5.04649ZM16.6097 5.79065C16.5678 5.79142 16.5254 5.80057 16.4846 5.81864C16.3215 5.89085 16.2484 6.07976 16.3209 6.24225L17.8318 9.62533C17.9043 9.78781 18.0941 9.86047 18.2574 9.78824C18.4206 9.71603 18.4938 9.52712 18.4212 9.36463L16.9102 5.98154C16.8558 5.85967 16.7354 5.78823 16.6097 5.79065ZM33.4169 5.80201C33.2912 5.79972 33.1707 5.87071 33.1161 5.99248L31.6007 9.37349C31.5279 9.53588 31.6006 9.72493 31.7638 9.79738C31.927 9.86982 32.1169 9.79742 32.1897 9.63503L33.7051 6.25403C33.7779 6.09164 33.7052 5.90258 33.542 5.83013C33.5012 5.81206 33.4588 5.80291 33.4169 5.802V5.80201ZM14.7113 6.7904C14.6494 6.78583 14.5856 6.79954 14.5275 6.83294C14.3728 6.92185 14.3202 7.11739 14.4095 7.27139L15.1919 8.62008C15.2812 8.77408 15.4777 8.82645 15.6324 8.73754C15.7871 8.64863 15.8398 8.45311 15.7504 8.29911L14.9681 6.95042C14.9122 6.85417 14.8145 6.7976 14.7113 6.79041V6.7904ZM35.2893 6.7904C35.1861 6.79727 35.0885 6.85415 35.0326 6.9504L34.2501 8.29908C34.1608 8.45308 34.2136 8.6486 34.3683 8.73752C34.5231 8.82643 34.7195 8.77405 34.8088 8.62006L35.5912 7.27136C35.6805 7.11737 35.6279 6.92183 35.4732 6.83292C35.4152 6.7996 35.3512 6.78611 35.2893 6.79038V6.7904ZM12.8678 7.93475C12.8057 7.93704 12.7436 7.95687 12.6894 7.99599C12.5447 8.10041 12.5128 8.30033 12.6177 8.44427L14.8019 11.441C14.9068 11.5849 15.1078 11.6168 15.2525 11.5124C15.3971 11.408 15.4291 11.208 15.3241 11.0641L13.1398 8.06736C13.0742 7.9774 12.9712 7.93127 12.8678 7.93479V7.93475ZM37.1559 7.95108C37.0525 7.94727 36.9495 7.9934 36.8838 8.08323L34.6954 11.0771C34.5903 11.2208 34.622 11.4209 34.7665 11.5255C34.911 11.6301 35.1119 11.5986 35.2171 11.4549L37.4053 8.46104C37.5104 8.31724 37.4786 8.11723 37.3342 8.01262C37.28 7.97342 37.2179 7.95329 37.1559 7.95108ZM11.22 9.31015C11.1377 9.30558 11.0537 9.33295 10.9873 9.39244C10.8545 9.51141 10.8438 9.71354 10.9634 9.84571L12.0103 11.0032C12.1298 11.1354 12.3329 11.146 12.4657 11.027C12.5985 10.908 12.6092 10.7058 12.4896 10.5736L11.4428 9.41623C11.3831 9.35012 11.3023 9.31442 11.22 9.31012V9.31015ZM38.783 9.31244C38.7006 9.31702 38.6199 9.35247 38.5601 9.41855L37.5132 10.5758C37.3936 10.708 37.4042 10.9102 37.537 11.0292C37.6698 11.1482 37.8729 11.1375 37.9924 11.0054L39.0395 9.84816C39.1591 9.716 39.1483 9.51374 39.0156 9.39476C38.9492 9.33529 38.8654 9.30819 38.783 9.31248L38.783 9.31244ZM9.64068 10.82C9.55835 10.8246 9.47774 10.8601 9.41797 10.9261C9.29844 11.0583 9.30914 11.2604 9.44189 11.3794L12.2065 13.8564C12.3393 13.9753 12.5424 13.9647 12.6619 13.8326C12.7814 13.7004 12.7709 13.4983 12.6381 13.3793L9.87332 10.9023C9.8069 10.8429 9.72294 10.8157 9.64061 10.8201L9.64068 10.82ZM40.3699 10.8308C40.2876 10.8263 40.2035 10.8536 40.1371 10.913L37.3708 13.388C37.2379 13.5069 37.227 13.7091 37.3464 13.8413C37.4659 13.9735 37.6691 13.9843 37.802 13.8654L40.5684 11.3903C40.7013 11.2715 40.7121 11.0693 40.5926 10.9371C40.5329 10.871 40.4522 10.8352 40.3699 10.8308H40.3699ZM8.32733 12.5008C8.22395 12.497 8.12087 12.5433 8.05524 12.6332C7.95023 12.7771 7.98208 12.977 8.12665 13.0815L9.39251 13.9969C9.53705 14.1014 9.73789 14.0698 9.8429 13.9259C9.94793 13.7821 9.91616 13.5821 9.77166 13.4775L8.50578 12.5622C8.45161 12.523 8.38938 12.503 8.32735 12.5008L8.32733 12.5008ZM41.682 12.5125C41.62 12.5147 41.5578 12.5345 41.5036 12.5737L40.2371 13.4882C40.0925 13.5927 40.0606 13.7927 40.1654 13.9367C40.2704 14.0806 40.4712 14.1123 40.6158 14.0079L41.8824 13.0933C42.027 12.9889 42.0589 12.789 41.954 12.6451C41.8884 12.5551 41.7854 12.509 41.682 12.5125V12.5125ZM7.10003 14.2936C6.99683 14.3005 6.89921 14.3574 6.84337 14.4536C6.75404 14.6076 6.80667 14.8031 6.9614 14.8921L10.1828 16.7432C10.3375 16.8321 10.534 16.7797 10.6233 16.6257C10.7127 16.4717 10.66 16.2762 10.5053 16.1873L7.28387 14.3361C7.22587 14.3028 7.16194 14.2893 7.10003 14.2936V14.2936ZM42.9006 14.2936C42.8386 14.289 42.7747 14.3028 42.7167 14.3362L39.4953 16.1873C39.3406 16.2762 39.2879 16.4717 39.3773 16.6257C39.4666 16.7797 39.6631 16.8321 39.8178 16.7432L43.0393 14.8921C43.1941 14.8032 43.2467 14.6076 43.1573 14.4536C43.1015 14.3574 43.0037 14.3008 42.9006 14.2937V14.2936ZM6.17207 16.2046C6.0464 16.2015 5.92588 16.2731 5.87129 16.3949C5.79851 16.5573 5.87125 16.7464 6.03442 16.8188L7.46356 17.4533C7.62673 17.5257 7.81669 17.4533 7.88947 17.2909C7.96225 17.1285 7.88937 16.9395 7.7262 16.867L6.29721 16.2326C6.25645 16.2144 6.21396 16.2054 6.17207 16.2046ZM43.8348 16.2178C43.7929 16.2185 43.7503 16.2277 43.7095 16.2458L42.2801 16.8791C42.1169 16.9515 42.0439 17.1404 42.1165 17.3029C42.1892 17.4653 42.3792 17.5379 42.5424 17.4656L43.9719 16.8321C44.1351 16.7599 44.2079 16.5708 44.1353 16.4084C44.0808 16.2866 43.9604 16.2153 43.8348 16.2178ZM5.34505 18.2019C5.21979 18.2123 5.10751 18.2956 5.066 18.4224C5.01068 18.5915 5.10275 18.772 5.27266 18.8271L8.80947 19.9741C8.97934 20.0291 9.16067 19.9374 9.21603 19.7683C9.27134 19.5993 9.17925 19.4188 9.00934 19.3637L5.47255 18.2167C5.4301 18.2029 5.3868 18.1984 5.34505 18.2019V18.2019ZM44.6603 18.2156C44.6185 18.2118 44.5754 18.2164 44.5329 18.2304L40.9953 19.3749C40.8254 19.4299 40.7331 19.6103 40.7883 19.7794C40.8436 19.9485 41.0248 20.0404 41.1947 19.9854L44.7322 18.8409C44.9021 18.7859 44.9946 18.6055 44.9393 18.4364C44.8979 18.3096 44.7855 18.2262 44.6603 18.2156V18.2156ZM4.8298 20.2985C4.67956 20.297 4.54481 20.4008 4.51231 20.553C4.47515 20.7269 4.58602 20.8967 4.76075 20.9336L6.29136 21.2574C6.46612 21.2944 6.63668 21.184 6.67383 21.0101C6.71099 20.8362 6.60014 20.6664 6.42541 20.6294L4.89494 20.3057C4.8731 20.3011 4.85125 20.2988 4.8298 20.2988V20.2985ZM45.1715 20.3016C45.15 20.3017 45.1284 20.3046 45.1065 20.3084L43.5759 20.632C43.4012 20.669 43.2904 20.8386 43.3275 21.0126C43.3646 21.1865 43.5352 21.2969 43.7099 21.26L45.2404 20.9364C45.4152 20.8994 45.5261 20.7296 45.489 20.5557C45.4565 20.4035 45.3218 20.3 45.1715 20.3012L45.1715 20.3016ZM4.4398 22.4074C4.29025 22.4217 4.16714 22.5385 4.15071 22.6932C4.13194 22.87 4.25977 23.0275 4.43744 23.0462L8.13666 23.4354C8.31433 23.4541 8.47253 23.3268 8.4913 23.1499C8.51007 22.9731 8.38212 22.8156 8.20444 22.797L4.50522 22.4077C4.483 22.4054 4.46118 22.4054 4.4398 22.4074V22.4074ZM45.5643 22.4351C45.5429 22.4328 45.5209 22.4328 45.4987 22.4354L41.799 22.8197C41.6213 22.8381 41.4932 22.9953 41.5118 23.1722C41.5303 23.3491 41.6883 23.4766 41.866 23.4581L45.5656 23.0738C45.7433 23.0554 45.8714 22.8982 45.8529 22.7213C45.8367 22.5665 45.7138 22.4496 45.5642 22.4351L45.5643 22.4351ZM4.37716 24.5662C4.19849 24.5662 4.05469 24.7093 4.05469 24.8872C4.05469 25.065 4.19849 25.2081 4.37716 25.2081H5.94188C6.12054 25.2081 6.2645 25.065 6.2645 24.8872C6.2645 24.7093 6.12054 24.5662 5.94188 24.5662H4.37716ZM44.0587 24.5662C43.8801 24.5662 43.7362 24.7093 43.7362 24.8872C43.7362 25.065 43.8801 25.2081 44.0587 25.2081H45.6234C45.8021 25.2081 45.9459 25.065 45.9459 24.8872C45.9459 24.7093 45.8021 24.5662 45.6234 24.5662H44.0587ZM8.20014 26.3159C8.17876 26.3136 8.15691 26.3136 8.13469 26.3162L4.43491 26.7005C4.25721 26.7189 4.12913 26.8762 4.14765 27.053C4.16619 27.2299 4.32416 27.3574 4.50185 27.3389L8.20166 26.9547C8.37936 26.9362 8.50744 26.779 8.48892 26.6021C8.47268 26.4474 8.34965 26.3304 8.20011 26.3159H8.20014ZM41.7985 26.3386C41.6489 26.3529 41.5258 26.4697 41.5094 26.6244C41.4906 26.8013 41.6185 26.9587 41.7961 26.9774L45.4954 27.3667C45.6731 27.3853 45.8312 27.258 45.85 27.0812C45.8688 26.9043 45.7408 26.7469 45.5631 26.7282L41.8641 26.3389C41.8418 26.3366 41.8199 26.3366 41.7985 26.3387L41.7985 26.3386ZM6.35594 28.507C6.33449 28.5072 6.31266 28.5093 6.29082 28.5139L4.76022 28.8374C4.58545 28.8744 4.47465 29.0442 4.51177 29.2181C4.54893 29.3921 4.71949 29.5023 4.89426 29.4654L6.42487 29.1419C6.59963 29.1049 6.71041 28.9352 6.67329 28.7613C6.64081 28.6091 6.5062 28.5055 6.35596 28.5068L6.35594 28.507ZM43.6442 28.51C43.494 28.5085 43.3594 28.6122 43.3269 28.7644C43.2897 28.9383 43.4004 29.1081 43.5752 29.1451L45.1058 29.4688C45.2806 29.5058 45.4511 29.3956 45.4883 29.2216C45.5254 29.0477 45.4146 28.8778 45.2398 28.8408L43.7094 28.5171C43.6875 28.5125 43.6657 28.5102 43.6442 28.5102L43.6442 28.51ZM8.93335 29.7742C8.89159 29.7704 8.84847 29.775 8.80599 29.789L5.26836 30.9335C5.09844 30.9885 5.00616 31.1689 5.06139 31.338C5.11663 31.5071 5.29789 31.599 5.4678 31.544L9.00532 30.3995C9.17523 30.3445 9.26764 30.1641 9.2124 29.995C9.17096 29.8682 9.0586 29.7848 8.93335 29.7742V29.7742ZM41.0638 29.7856C40.9385 29.796 40.8262 29.8793 40.7847 30.0061C40.7294 30.1752 40.8215 30.3557 40.9914 30.4108L44.5282 31.5578C44.6981 31.6128 44.8794 31.5211 44.9347 31.3521C44.9901 31.183 44.898 31.0025 44.7281 30.9474L41.1912 29.8004C41.1488 29.7866 41.1055 29.7821 41.0638 29.7856V29.7856ZM7.58341 32.281C7.5415 32.2818 7.49908 32.2908 7.45827 32.3088L6.02872 32.9423C5.8655 33.0146 5.79265 33.2036 5.86531 33.3661C5.93802 33.5285 6.12787 33.601 6.29108 33.5287L7.72063 32.8953C7.88385 32.8231 7.95671 32.634 7.88405 32.4716C7.82957 32.3498 7.70908 32.2785 7.58341 32.281V32.281ZM42.412 32.2932C42.2864 32.2902 42.1658 32.3618 42.1112 32.4835C42.0385 32.6459 42.1112 32.835 42.2744 32.9074L43.7034 33.5419C43.8665 33.6143 44.0565 33.5419 44.1293 33.3795C44.2021 33.2171 44.1293 33.0281 43.9662 32.9556L42.5372 32.3212C42.4964 32.303 42.4539 32.294 42.412 32.2932V32.2932ZM10.3667 32.9887C10.3048 32.9842 10.2408 32.9979 10.1828 33.0313L6.9614 34.8824C6.80667 34.9713 6.75404 35.1669 6.84337 35.3208C6.9327 35.4748 7.12915 35.5272 7.28387 35.4383L10.5053 33.5873C10.66 33.4984 10.7126 33.3028 10.6233 33.1488C10.5675 33.0525 10.4699 32.9959 10.3667 32.9888V32.9887ZM39.6341 32.9887C39.5309 32.9956 39.4331 33.0525 39.3773 33.1487C39.2879 33.3027 39.3406 33.4984 39.4953 33.5873L42.7167 35.4383C42.8714 35.5272 43.068 35.4748 43.1573 35.3208C43.2467 35.1668 43.1941 34.9713 43.0393 34.8824L39.8178 33.0313C39.7598 32.9979 39.696 32.9845 39.6341 32.9887V32.9887ZM9.56315 35.7052C9.50109 35.7075 9.43896 35.7274 9.38472 35.7666L8.11828 36.6812C7.97367 36.7856 7.94168 36.9855 8.04657 37.1294C8.15149 37.2734 8.35237 37.3052 8.49698 37.2007L9.76355 36.2862C9.90817 36.1818 9.94015 35.9819 9.83526 35.8379C9.76967 35.748 9.66653 35.7017 9.56315 35.7052V35.7052ZM40.4298 35.7161C40.3264 35.7123 40.2233 35.7586 40.1577 35.8485C40.0527 35.9923 40.0845 36.1924 40.2291 36.2969L41.495 37.2123C41.6395 37.3168 41.8403 37.2851 41.9454 37.1412C42.0504 36.9974 42.0186 36.7975 41.8741 36.6929L40.6082 35.7776C40.5541 35.7384 40.4918 35.7182 40.4298 35.716L40.4298 35.7161ZM12.4314 35.8269C12.3491 35.8223 12.2652 35.8496 12.1987 35.909L9.43233 38.3841C9.29946 38.5029 9.28865 38.7051 9.40811 38.8373C9.52754 38.9696 9.73065 38.9803 9.86353 38.8614L12.6299 36.3864C12.7628 36.2675 12.7736 36.0654 12.6541 35.9331C12.5945 35.867 12.5138 35.8312 12.4314 35.8269ZM37.5615 35.8357C37.4791 35.8403 37.3984 35.8758 37.3386 35.9418C37.2191 36.074 37.2298 36.2761 37.3626 36.3951L40.1272 38.8721C40.26 38.9911 40.4632 38.9804 40.5827 38.8483C40.7022 38.7161 40.6916 38.514 40.5588 38.395L37.794 35.918C37.7276 35.8586 37.6438 35.8315 37.5615 35.8358V35.8357ZM15.0559 38.1871C14.9525 38.1833 14.8493 38.2293 14.7836 38.3192L12.5954 41.3131C12.4903 41.4569 12.5219 41.6569 12.6664 41.7615C12.8108 41.8661 13.0118 41.8346 13.1169 41.6908L15.3051 38.6969C15.4102 38.5531 15.3786 38.3531 15.2342 38.2485C15.18 38.2093 15.1179 38.1892 15.0559 38.1871ZM34.9267 38.2005C34.8647 38.2028 34.8025 38.2225 34.7483 38.2617C34.6037 38.3661 34.5717 38.5661 34.6766 38.71L36.8608 41.7067C36.9657 41.8507 37.1666 41.8825 37.3112 41.7781C37.4558 41.6737 37.4878 41.4738 37.3829 41.3298L35.1987 38.3331C35.1331 38.2431 35.0301 38.197 34.9267 38.2005V38.2005ZM12.231 38.6629C12.1487 38.6675 12.068 38.7029 12.0082 38.769L10.9613 39.9263C10.8417 40.0584 10.8523 40.2607 10.9851 40.3797C11.1179 40.4986 11.3209 40.488 11.4405 40.3558L12.4876 39.1985C12.6071 39.0664 12.5964 38.8641 12.4637 38.7451C12.3972 38.6857 12.3134 38.6586 12.2311 38.6629L12.231 38.6629ZM37.7676 38.6644C37.6853 38.6598 37.6014 38.6872 37.535 38.7467C37.4022 38.8657 37.3916 39.0678 37.5111 39.2L38.5579 40.3575C38.6774 40.4897 38.8805 40.5003 39.0133 40.3813C39.1461 40.2623 39.1567 40.0601 39.0372 39.9279L37.9904 38.7705C37.9306 38.7044 37.8499 38.6687 37.7676 38.6644L37.7676 38.6644ZM18.1117 39.9483C17.986 39.9452 17.8656 40.0168 17.811 40.1386L16.2955 43.5196C16.2227 43.682 16.2954 43.8711 16.4586 43.9435C16.6218 44.016 16.8117 43.9436 16.8845 43.7812L18.4001 40.4002C18.4729 40.2378 18.4001 40.0487 18.2369 39.9763C18.1962 39.9581 18.1536 39.9491 18.1117 39.9483ZM31.8685 39.9576C31.8266 39.9583 31.784 39.9673 31.7432 39.9854C31.58 40.0576 31.5069 40.2465 31.5795 40.409L33.0903 43.7921C33.1629 43.9545 33.3528 44.0272 33.5161 43.955C33.6793 43.8828 33.7524 43.6939 33.6798 43.5314L32.1689 40.1483C32.1145 40.0265 31.9941 39.9552 31.8685 39.9576ZM15.4485 40.9936C15.3453 41.0005 15.2477 41.0574 15.1919 41.1536L14.4095 42.5023C14.3202 42.6563 14.3728 42.8518 14.5275 42.9407C14.6823 43.0297 14.8787 42.9773 14.9681 42.8233L15.7504 41.4746C15.8398 41.3206 15.7871 41.1251 15.6324 41.0361C15.5744 41.0028 15.5105 40.9893 15.4485 40.9936V40.9936ZM34.552 40.9936C34.4901 40.989 34.4264 41.0028 34.3683 41.0362C34.2136 41.1251 34.161 41.3206 34.2503 41.4746L35.0326 42.8233C35.122 42.9773 35.3185 43.0297 35.4732 42.9408C35.6279 42.8519 35.6805 42.6563 35.5912 42.5023L34.8088 41.1536C34.753 41.0574 34.6552 41.0008 34.552 40.9936V40.9936ZM21.4856 41.042C21.3354 41.0404 21.2008 41.1441 21.1683 41.2963L20.3953 44.9178C20.3581 45.0917 20.469 45.2615 20.6437 45.2985C20.8185 45.3354 20.989 45.2251 21.0262 45.0512L21.7992 41.4297C21.8364 41.2558 21.7255 41.086 21.5508 41.049C21.5289 41.0445 21.5071 41.0422 21.4856 41.0422L21.4856 41.042ZM28.5035 41.0443C28.4821 41.0444 28.4604 41.0465 28.4386 41.0511C28.2638 41.0879 28.1528 41.2575 28.1898 41.4315L28.9602 45.0535C28.9972 45.2275 29.1678 45.3379 29.3426 45.3011C29.5174 45.2643 29.6283 45.0945 29.5913 44.9206L28.8208 41.2988C28.7884 41.1466 28.6538 41.043 28.5036 41.0442L28.5035 41.0443ZM25.0003 41.4095C24.8216 41.4095 24.6778 41.5527 24.6778 41.7305V45.4328C24.6778 45.6106 24.8216 45.7537 25.0003 45.7537C25.179 45.7537 25.3228 45.6106 25.3228 45.4328V41.7305C25.3228 41.5527 25.179 41.4095 25.0003 41.4095ZM19.0805 42.6059C18.9553 42.6164 18.8429 42.6998 18.8015 42.8267L18.3178 44.3078C18.2626 44.4769 18.3549 44.6573 18.5248 44.7123C18.6947 44.7673 18.876 44.6752 18.9312 44.5062L19.4149 43.0252C19.4701 42.8561 19.3778 42.6757 19.2079 42.6207C19.1654 42.6069 19.1223 42.6024 19.0805 42.6059V42.6059ZM30.9175 42.6066C30.8758 42.6028 30.8327 42.6074 30.7902 42.6213C30.6203 42.6763 30.5279 42.8567 30.5831 43.0258L31.0666 44.507C31.1219 44.6761 31.3031 44.7679 31.473 44.7129C31.643 44.658 31.7354 44.4777 31.6801 44.3086L31.1965 42.8275C31.155 42.7006 31.0428 42.6172 30.9175 42.6067V42.6066ZM22.976 43.4315C22.8265 43.4459 22.7033 43.5627 22.6869 43.7175L22.5234 45.2663C22.5047 45.4432 22.6327 45.6004 22.8104 45.619C22.9881 45.6376 23.1462 45.5102 23.1649 45.3334L23.3284 43.7846C23.3471 43.6078 23.2191 43.4504 23.0414 43.4318C23.0192 43.4295 22.9974 43.4295 22.976 43.4315L22.976 43.4315ZM27.0116 43.4331C26.9903 43.4308 26.9683 43.4308 26.9461 43.4333C26.7684 43.4518 26.6402 43.609 26.6588 43.7859L26.8213 45.3349C26.8399 45.5117 26.9979 45.6391 27.1756 45.6207C27.3533 45.6022 27.4814 45.445 27.4628 45.2681L27.3004 43.7193C27.2842 43.5645 27.1611 43.4475 27.0116 43.433L27.0116 43.4331Z" fill="#F4F2F3"/>
<g opacity="0.409" filter="url(#filter0_f)">
<path d="M40.1154 12.0482L22.4713 22.251L11.3154 39.7306L27.6356 27.6995L40.1154 12.0482Z" fill="black"/>
</g>
<path d="M27.5283 27.5222L22.4709 22.251L40.4113 10.2395L27.5283 27.5222Z" fill="#FF5150"/>
<path d="M27.5284 27.5222L22.471 22.251L9.58799 39.5337L27.5284 27.5222Z" fill="#F1F1F1"/>
<path opacity="0.243" d="M9.58838 39.5337L27.5288 27.5222L40.4118 10.2395L9.58838 39.5337Z" fill="black"/>
<defs>
<filter id="filter0_f" x="9.40008" y="10.1328" width="32.6307" height="31.5131" filterUnits="userSpaceOnUse" color-interpolation-filters="sRGB">
<feFlood flood-opacity="0" result="BackgroundImageFix"/>
<feBlend mode="normal" in="SourceGraphic" in2="BackgroundImageFix" result="shape"/>
<feGaussianBlur stdDeviation="0.957674" result="effect1_foregroundBlur"/>
</filter>
<linearGradient id="safari0_linear" x1="25" y1="48.7732" x2="25" y2="1" gradientUnits="userSpaceOnUse">
<stop stop-color="#BDBDBD"/>
<stop offset="1" stop-color="white"/>
</linearGradient>
<radialGradient id="safari1_radial" cx="0" cy="0" r="1" gradientUnits="userSpaceOnUse" gradientTransform="translate(25.1004 21.6769) scale(24.0001 23.8867)">
<stop stop-color="#06C2E7"/>
<stop offset="0.25" stop-color="#0DB8EC"/>
<stop offset="0.5" stop-color="#12AEF1"/>
<stop offset="0.75" stop-color="#1F86F9"/>
<stop offset="1" stop-color="#107DDD"/>
</radialGradient>
</defs>
</svg>
