<svg width="24" height="24" viewBox="0 0 24 24" fill="none" xmlns="http://www.w3.org/2000/svg">
<path d="M12 22C6.47715 22 2 17.5228 2 12C2 6.47715 6.47715 2 12 2C17.5228 2 22 6.47715 22 12C22 17.5228 17.5228 22 12 22Z" fill="#FFF4EC"/>
<path d="M12.6496 7C12.6496 6.64101 12.3586 6.35 11.9996 6.35C11.6406 6.35 11.3496 6.64101 11.3496 7V12.4017L15.7089 14.5814C16.03 14.7419 16.4204 14.6118 16.581 14.2907C16.7415 13.9696 16.6114 13.5792 16.2903 13.4186L12.6496 11.5983V7Z" fill="#FF8F40"/>
<path fill-rule="evenodd" clip-rule="evenodd" d="M12 22C6.47715 22 2 17.5228 2 12C2 6.47715 6.47715 2 12 2C17.5228 2 22 6.47715 22 12C22 17.5228 17.5228 22 12 22ZM12 21C7.02944 21 3 16.9706 3 12C3 7.02944 7.02944 3 12 3C16.9706 3 21 7.02944 21 12C21 16.9706 16.9706 21 12 21Z" fill="#FF8F40"/>
</svg>
