<svg width="16" height="16" viewBox="0 0 16 16" fill="none" xmlns="http://www.w3.org/2000/svg">
<g id="Misc/ic-16-search">
<path id="Combined Shape" fill-rule="evenodd" clip-rule="evenodd" d="M1 6.5C1 9.53757 3.46243 12 6.5 12C7.83875 12 9.06578 11.5217 10.0195 10.7266L10.1459 10.853C10.1461 10.8532 10.1463 10.8534 10.1464 10.8536L14.1464 14.8536C14.3417 15.0488 14.6583 15.0488 14.8536 14.8536C15.0488 14.6583 15.0488 14.3417 14.8536 14.1464L10.8536 10.1464C10.8534 10.1463 10.8532 10.1461 10.853 10.1459L10.7266 10.0195C11.5217 9.06578 12 7.83875 12 6.5C12 3.46243 9.53757 1 6.5 1C3.46243 1 1 3.46243 1 6.5ZM11 6.5C11 8.98528 8.98528 11 6.5 11C4.01472 11 2 8.98528 2 6.5C2 4.01472 4.01472 2 6.5 2C8.98528 2 11 4.01472 11 6.5Z" fill="#3C3E40"/>
</g>
</svg>
