<svg width="24" height="24" viewBox="0 0 24 24" fill="none" xmlns="http://www.w3.org/2000/svg">
<path d="M12 22C6.47715 22 2 17.5228 2 12C2 6.47715 6.47715 2 12 2C17.5228 2 22 6.47715 22 12C22 17.5228 17.5228 22 12 22Z" fill="#F2F8FF"/>
<path d="M16.5499 9.17718C16.2943 8.94094 15.8875 8.94094 15.6319 9.17718L10.3636 14.0471L8.36806 12.2024C8.1125 11.9662 7.70568 11.9662 7.45012 12.2024C7.18329 12.4491 7.18329 12.8577 7.45012 13.1044L10.3636 15.7976L16.5499 10.0791C16.8167 9.83248 16.8167 9.42383 16.5499 9.17718Z" fill="#1E559A"/>
<path fill-rule="evenodd" clip-rule="evenodd" d="M12 22C6.47715 22 2 17.5228 2 12C2 6.47715 6.47715 2 12 2C17.5228 2 22 6.47715 22 12C22 17.5228 17.5228 22 12 22ZM12 21C7.02944 21 3 16.9706 3 12C3 7.02944 7.02944 3 12 3C16.9706 3 21 7.02944 21 12C21 16.9706 16.9706 21 12 21Z" fill="#1E559A"/>
</svg>
