<svg width="24" height="24" viewBox="0 0 24 24" fill="none" xmlns="http://www.w3.org/2000/svg">
<rect x="5" y="5" width="14" height="2" fill="#444D56"/>
<path fill-rule="evenodd" clip-rule="evenodd" d="M6 5H18C18.5523 5 19 5.44772 19 6V7H5V6C5 5.44772 5.44772 5 6 5ZM5 8V18C5 18.5523 5.44772 19 6 19H18C18.5523 19 19 18.5523 19 18V8H5ZM4 6C4 4.89543 4.89543 4 6 4H18C19.1046 4 20 4.89543 20 6V18C20 19.1046 19.1046 20 18 20H6C4.89543 20 4 19.1046 4 18V6ZM7.5 10C7.22386 10 7 10.2239 7 10.5C7 10.7761 7.22386 11 7.5 11H10.5C10.7761 11 11 10.7761 11 10.5C11 10.2239 10.7761 10 10.5 10H7.5ZM13 10.5C13 10.2239 13.2239 10 13.5 10H16.5C16.7761 10 17 10.2239 17 10.5C17 10.7761 16.7761 11 16.5 11H13.5C13.2239 11 13 10.7761 13 10.5ZM7.5 13C7.22386 13 7 13.2239 7 13.5C7 13.7761 7.22386 14 7.5 14H9.5C9.77614 14 10 13.7761 10 13.5C10 13.2239 9.77614 13 9.5 13H7.5ZM13 13.5C13 13.2239 13.2239 13 13.5 13H15.5C15.7761 13 16 13.2239 16 13.5C16 13.7761 15.7761 14 15.5 14H13.5C13.2239 14 13 13.7761 13 13.5ZM7.5 16C7.22386 16 7 16.2239 7 16.5C7 16.7761 7.22386 17 7.5 17H9.5C9.77614 17 10 16.7761 10 16.5C10 16.2239 9.77614 16 9.5 16H7.5ZM13 16.5C13 16.2239 13.2239 16 13.5 16H15.5C15.7761 16 16 16.2239 16 16.5C16 16.7761 15.7761 17 15.5 17H13.5C13.2239 17 13 16.7761 13 16.5Z" fill="white"/>
</svg>
