<svg height="24" viewBox="0 0 24 24" width="24" xmlns="http://www.w3.org/2000/svg"><path d="m12 13c-2.931 0-4.744 1.284-5.733 3.457-.585 1.285-.778 2.6-.767 3.532a.5.5 0 0 1-.489.51.504.504 0 0 1-.511-.504 8.876 8.876 0 0 1  .105-1.336c.13-.892.371-1.781.752-2.616.83-1.823 2.191-3.128 4.15-3.707a5 5 0 1 1 4.987-.001c1.968.578 3.331 1.884 4.16 3.708.376.83.615 1.715.743 2.603.082.562.107 1.027.103 1.367a.5.5 0 1 1-1-.034 8.56 8.56 0 0 0-.757-3.522c-.986-2.173-2.8-3.457-5.743-3.457a4.977 4.977 0 0 1-2.492-.664zm0-1a4 4 0 1 0 0-8 4 4 0 0 0  0 8z" fill="#00a1ba"/></svg>