<svg xmlns="http://www.w3.org/2000/svg" width="24" height="24" viewBox="0 0 24 24"><path d="M10 11a4 4 0 1 0 0-8 4 4 0 0 0 0 8zm-2.492.336a5 5 0 1 1 4.982.001c.689.205 1.31.5 1.862.88a.5.5 0 0 1-.567.824C12.804 12.366 11.556 12 10 12c-2.931 0-4.744 1.284-5.733 3.457-.585 1.285-.778 2.6-.767 3.532a.5.5 0 0 1-.489.51.504.504 0 0 1-.511-.504 8.876 8.876 0 0 1 .105-1.336c.13-.892.371-1.781.752-2.616.83-1.823 2.191-3.128 4.15-3.707zm5.574 5.489l2.593 2.593 6.76-6.76-2.593-2.593-6.76 6.76zm1.77 3.185l-2.368-2.37-1.029 3.358 3.398-.988zm4.493-10.862a.695.695 0 0 1 .989-.006l3.024 3.024a.695.695 0 0 1-.006.989l-7.649 7.649-5.076 1.476c-.37.108-.577-.11-.464-.479l1.533-5.004 7.649-7.649z" fill="#4A4A4A"/></svg>