<svg width="24" height="24" viewBox="0 0 24 24" fill="none" xmlns="http://www.w3.org/2000/svg">
<path d="M21.8497 19.804L13.3287 3.5367C12.7672 2.46471 11.2328 2.46471 10.6713 3.5367L2.15029 19.804C1.62714 20.8027 2.35157 22 3.47904 22H20.521C21.6484 22 22.3729 20.8027 21.8497 19.804Z" fill="#FFEEE5"/>
<path d="M11.25 9.74971C11.25 9.3355 11.5858 8.99971 12 8.99971C12.4142 8.99971 12.75 9.3355 12.75 9.74971V14.2497C12.75 14.6639 12.4142 14.9997 12 14.9997C11.5858 14.9997 11.25 14.6639 11.25 14.2497V9.74971Z" fill="#FF8F40"/>
<path d="M12 16.9997C11.5858 16.9997 11.25 17.3355 11.25 17.7497C11.25 18.1639 11.5858 18.4997 12 18.4997C12.4142 18.4997 12.75 18.1639 12.75 17.7497C12.75 17.3355 12.4142 16.9997 12 16.9997Z" fill="#FF8F40"/>
<path fill-rule="evenodd" clip-rule="evenodd" d="M13.3283 3.53641L21.8493 19.8037C22.3724 20.8025 21.648 21.9997 20.5205 21.9997H3.4786C2.35112 21.9997 1.62669 20.8025 2.14985 19.8037L10.6708 3.53641C11.2323 2.46443 12.7668 2.46443 13.3283 3.53641ZM20.9634 20.2677L12.4425 4.00042C12.2553 3.64309 11.7438 3.64309 11.5566 4.00042L3.03568 20.2677C2.8613 20.6006 3.10277 20.9997 3.4786 20.9997H20.5205C20.8963 20.9997 21.1378 20.6006 20.9634 20.2677Z" fill="#FF8F40"/>
</svg>
