<svg width="24" height="24" viewBox="0 0 24 24" fill="none" xmlns="http://www.w3.org/2000/svg">
<path fill-rule="evenodd" clip-rule="evenodd" d="M14 2.5C14 2.22386 13.7761 2 13.5 2C13.2239 2 13 2.22386 13 2.5V4.5C13 5.88071 11.8807 7 10.5 7H8.5C8.22386 7 8 7.22386 8 7.5C8 7.77614 8.22386 8 8.5 8H10.5C11.8807 8 13 9.11929 13 10.5V12.5C13 12.7761 13.2239 13 13.5 13C13.7761 13 14 12.7761 14 12.5V10.5C14 9.11929 15.1193 8 16.5 8H18.5C18.7761 8 19 7.77614 19 7.5C19 7.22386 18.7761 7 18.5 7H16.5C15.1193 7 14 5.88071 14 4.5V2.5Z" fill="currentColor"/>
<path fill-rule="evenodd" clip-rule="evenodd" d="M6.5 12C6.22386 12 6 12.2239 6 12.5V14H4.5C4.22386 14 4 14.2239 4 14.5C4 14.7761 4.22386 15 4.5 15H6V16.5C6 16.7761 6.22386 17 6.5 17C6.77614 17 7 16.7761 7 16.5V15H8.5C8.77614 15 9 14.7761 9 14.5C9 14.2239 8.77614 14 8.5 14H7V12.5C7 12.2239 6.77614 12 6.5 12Z" fill="currentColor"/>
<path fill-rule="evenodd" clip-rule="evenodd" d="M16.5 15C16.2239 15 16 15.2239 16 15.5V18H13.5C13.2239 18 13 18.2239 13 18.5C13 18.7761 13.2239 19 13.5 19H16V21.5C16 21.7761 16.2239 22 16.5 22C16.7761 22 17 21.7761 17 21.5V19H19.5C19.7761 19 20 18.7761 20 18.5C20 18.2239 19.7761 18 19.5 18H17V15.5C17 15.2239 16.7761 15 16.5 15Z" fill="currentColor"/>
</svg>
