<svg width="24" height="24" viewBox="0 0 24 24" fill="none" xmlns="http://www.w3.org/2000/svg">
    <path d="M13.6716 9.20538L10.5 16.5L4.5 15.5V18.5C4.5 19.0523 4.94772 19.5 5.5 19.5H18.5C19.0523 19.5 19.5 19.0523 19.5 18.5V13C19.1963 13 18.9213 12.8202 18.7996 12.5419L17.338 9.2012C16.6381 7.60139 14.3678 7.60398 13.6716 9.20538Z" fill="#444D56" stroke="white" stroke-linecap="round" stroke-linejoin="round"/>
    <path d="M5.84255 11.5387L4.5 14V18.5C4.5 19.0523 4.94772 19.5 5.5 19.5H18.5C19.0523 19.5 19.5 19.0523 19.5 18.5V11.5L14.7917 15.8461C13.8646 16.7019 12.3864 16.496 11.7285 15.4194L9.3049 11.4535C8.5024 10.1403 6.57949 10.1876 5.84255 11.5387Z" fill="#2A3139" stroke="white" stroke-linecap="round" stroke-linejoin="round"/>
    <rect x="4.5" y="4.5" width="15" height="15" rx="1.5" stroke="white"/>
</svg>
