<svg width="24" height="24" viewBox="0 0 24 24" fill="none" xmlns="http://www.w3.org/2000/svg">
    <path fill-rule="evenodd" clip-rule="evenodd" d="M6 5H18C18.5523 5 19 5.44772 19 6V18C19 18.5523 18.5523 19 18 19H6C5.44772 19 5 18.5523 5 18V6C5 5.44772 5.44772 5 6 5ZM4 6C4 4.89543 4.89543 4 6 4H18C19.1046 4 20 4.89543 20 6V18C20 19.1046 19.1046 20 18 20H6C4.89543 20 4 19.1046 4 18V6ZM17.9218 8.26844C18.0701 8.03547 18.0014 7.72642 17.7684 7.57817C17.5355 7.42992 17.2264 7.49859 17.0782 7.73156L14.0407 12.5047C13.9078 12.7136 13.642 12.7937 13.4158 12.6932L10.4736 11.3855C9.8059 11.0888 9.02156 11.3163 8.61627 11.9242L6.08397 15.7227C5.9308 15.9524 5.99289 16.2628 6.22265 16.416C6.45241 16.5692 6.76285 16.5071 6.91603 16.2774L9.44832 12.4789C9.58342 12.2763 9.84487 12.2004 10.0674 12.2993L13.0097 13.607C13.6884 13.9087 14.4856 13.6682 14.8844 13.0416L17.9218 8.26844Z" fill="white"/>
</svg>
