<svg width="24" height="24" viewBox="0 0 24 24" fill="none" xmlns="http://www.w3.org/2000/svg">
    <path fill-rule="evenodd" clip-rule="evenodd" d="M6 5H18C18.5523 5 19 5.44772 19 6V18C19 18.5523 18.5523 19 18 19H6C5.44772 19 5 18.5523 5 18V6C5 5.44772 5.44772 5 6 5ZM4 6C4 4.89543 4.89543 4 6 4H18C19.1046 4 20 4.89543 20 6V18C20 19.1046 19.1046 20 18 20H6C4.89543 20 4 19.1046 4 18V6ZM17.8536 7.35355C18.0488 7.15829 18.0488 6.84171 17.8536 6.64645C17.6583 6.45118 17.3417 6.45118 17.1464 6.64645L13.8405 9.95236L9.60847 9.01191C9.42821 8.97185 9.24054 9.0344 9.12037 9.1746L6.12037 12.6746C5.94066 12.8843 5.96494 13.1999 6.1746 13.3796C6.38427 13.5593 6.69992 13.5351 6.87963 13.3254L9.68439 10.0532L13.8915 10.9881C14.0584 11.0252 14.2327 10.9744 14.3536 10.8536L17.8536 7.35355Z" fill="#3C3E40"/>
    <rect x="8" y="14" width="3" height="3" fill="#3C3E40"/>
    <rect x="13" y="13" width="3" height="4" fill="#3C3E40"/>
</svg>
