<svg width="24" height="24" viewBox="0 0 24 24" fill="none" xmlns="http://www.w3.org/2000/svg">
    <path d="M7.93861 9.15436L4.5 15V18L5.5 19.5H18L19.5 18.5V8.5L16.1694 11.8306C15.2955 12.7045 13.8461 12.5845 13.1277 11.5788L11.2899 9.00592C10.4484 7.82777 8.67269 7.90642 7.93861 9.15436Z" fill="#444D56"/>
    <path d="M8.28889 14.1056L4.5 16V18L5.5 19.5H18L19.5 18.5V12.5L15.3303 16.2906C14.5738 16.9784 13.4204 16.9848 12.6562 16.3056L10.512 14.3996C9.9008 13.8563 9.02036 13.7398 8.28889 14.1056Z" fill="#444D56"/>
    <path d="M4.5 14.5L7.96876 9.29687C8.72369 8.16447 10.3647 8.10047 11.2055 9.17063L13.3905 11.9515C14.2027 12.9852 15.7743 12.9676 16.5631 11.9159L19.5 8" stroke="white" stroke-linecap="round" stroke-linejoin="round"/>
    <rect x="4.5" y="4.5" width="15" height="15" rx="1.5" stroke="white"/>
    <path d="M4.5 16L8.28889 14.1056C9.02036 13.7398 9.9008 13.8563 10.512 14.3996L12.6562 16.3056C13.4204 16.9848 14.5738 16.9784 15.3303 16.2906L19.5 12.5" stroke="white" stroke-linecap="round" stroke-linejoin="round"/>
</svg>
