<svg width="24" height="24" viewBox="0 0 24 24" fill="none" xmlns="http://www.w3.org/2000/svg">
    <path d="M7.97765 9.08799L4.5 15V18L5.5 19.5H18L19.5 18.5V8.5L17.068 12.148C16.3026 13.2961 14.6319 13.3425 13.8039 12.2386L11.3015 8.90203C10.4448 7.75977 8.70159 7.8573 7.97765 9.08799Z" fill="#E3E4E5"/>
    <path d="M8.28889 14.1056L4.5 16V18L5.5 19.5H18L19.5 18.5V12.5L15.3303 16.2906C14.5738 16.9784 13.4204 16.9848 12.6562 16.3056L10.512 14.3996C9.9008 13.8563 9.02036 13.7398 8.28889 14.1056Z" fill="#ADAFB2"/>
    <path fill-rule="evenodd" clip-rule="evenodd" d="M18.0001 5H6.00011C5.44782 5 5.00011 5.44772 5.00011 6V12.8486L7.55284 9.01952C8.49651 7.60402 10.5477 7.52402 11.5988 8.86171L13.7837 11.6426C14.3929 12.4179 15.5716 12.4047 16.1632 11.6159L19.0001 7.83333V6C19.0001 5.44772 18.5524 5 18.0001 5ZM20.0001 7.99493V6C20.0001 4.89543 19.1047 4 18.0001 4H6.00011C4.89554 4 4.00011 4.89543 4.00011 6V14.4922C4.00004 14.4971 4.00004 14.502 4.00011 14.5068V15.9899C3.99996 15.9969 3.99996 16.0039 4.00011 16.0108V18C4.00011 19.1046 4.89554 20 6.00011 20H18.0001C19.1047 20 20.0001 19.1046 20.0001 18V12.5019V12.4978V8.00584C20.0001 8.0022 20.0001 7.99857 20.0001 7.99493ZM19.0001 9.5L16.9632 12.2159C15.9772 13.5305 14.0127 13.5526 12.9974 12.2604L10.8124 9.47954C10.1818 8.67692 8.95109 8.72492 8.38489 9.57422L5.00011 14.6514V15.191L8.06539 13.6583C8.97973 13.2012 10.0803 13.3467 10.8443 14.0259L12.9885 15.9319C13.5617 16.4413 14.4267 16.4365 14.9941 15.9206L19.0001 12.2788V9.5ZM19.0001 18V13.6303L15.6668 16.6606C14.7211 17.5203 13.2794 17.5283 12.3242 16.6793L10.18 14.7733C9.72154 14.3658 9.06121 14.2785 8.5126 14.5528L5.00011 16.309V18C5.00011 18.5523 5.44782 19 6.00011 19H18.0001C18.5524 19 19.0001 18.5523 19.0001 18Z" fill="#3C3E40"/>
</svg>
