<svg width="24" height="24" viewBox="0 0 24 24" fill="none" xmlns="http://www.w3.org/2000/svg">
<path fill-rule="evenodd" clip-rule="evenodd" d="M9.10047 16H7.79047C7.6438 16 7.52297 15.9658 7.42797 15.8975C7.33297 15.8292 7.26714 15.7417 7.23047 15.635L6.80047 14.365H4.03047L3.60047 15.635C3.56714 15.7283 3.50214 15.8125 3.40547 15.8875C3.3088 15.9625 3.19047 16 3.05047 16H1.73047L4.55047 8.715H6.28047L9.10047 16ZM4.42047 13.215H6.41047L5.74047 11.22C5.69714 11.0933 5.6463 10.9442 5.58797 10.7725C5.52964 10.6008 5.47214 10.415 5.41547 10.215C5.36214 10.4183 5.30714 10.6067 5.25047 10.78C5.1938 10.9533 5.14047 11.1033 5.09047 11.23L4.42047 13.215ZM8.09047 8.715H9.45047C9.59714 8.715 9.71714 8.74833 9.81047 8.815C9.9038 8.88166 9.97047 8.97 10.0105 9.08L11.4205 12.98C11.4838 13.15 11.548 13.335 11.613 13.535C11.678 13.735 11.7388 13.945 11.7955 14.165C11.8421 13.945 11.8963 13.735 11.958 13.535C12.0196 13.335 12.0805 13.15 12.1405 12.98L13.5405 9.08C13.5738 8.98666 13.6388 8.9025 13.7355 8.8275C13.8321 8.7525 13.9505 8.715 14.0905 8.715H15.4605L12.5405 16H11.0105L8.09047 8.715ZM18.85 15.145C19.0833 15.145 19.29 15.125 19.47 15.085C19.65 15.045 19.82 14.9917 19.98 14.925V13.82H19.26C19.1533 13.82 19.07 13.7917 19.01 13.735C18.95 13.6783 18.92 13.6067 18.92 13.52V12.59H21.51V15.665C21.3233 15.8017 21.1292 15.9192 20.9275 16.0175C20.7258 16.1158 20.5108 16.1967 20.2825 16.26C20.0542 16.3233 19.8108 16.37 19.5525 16.4C19.2942 16.43 19.0167 16.445 18.72 16.445C18.1867 16.445 17.6933 16.3508 17.24 16.1625C16.7867 15.9742 16.3942 15.7142 16.0625 15.3825C15.7308 15.0508 15.4708 14.6575 15.2825 14.2025C15.0942 13.7475 15 13.2533 15 12.72C15 12.1767 15.09 11.6775 15.27 11.2225C15.45 10.7675 15.7075 10.375 16.0425 10.045C16.3775 9.715 16.7825 9.45834 17.2575 9.275C17.7325 9.09167 18.2633 9 18.85 9C19.1533 9 19.4383 9.025 19.705 9.075C19.9717 9.125 20.2175 9.19333 20.4425 9.28C20.6675 9.36667 20.8733 9.47 21.06 9.59C21.2467 9.71 21.4133 9.84 21.56 9.98L21.07 10.725C21.0233 10.795 20.9675 10.85 20.9025 10.89C20.8375 10.93 20.7667 10.95 20.69 10.95C20.59 10.95 20.4867 10.9167 20.38 10.85C20.2467 10.77 20.1208 10.7008 20.0025 10.6425C19.8842 10.5842 19.7633 10.5367 19.64 10.5C19.5167 10.4633 19.3867 10.4367 19.25 10.42C19.1133 10.4033 18.96 10.395 18.79 10.395C18.4733 10.395 18.1883 10.4508 17.935 10.5625C17.6817 10.6742 17.4658 10.8317 17.2875 11.035C17.1092 11.2383 16.9717 11.4825 16.875 11.7675C16.7783 12.0525 16.73 12.37 16.73 12.72C16.73 13.1067 16.7833 13.45 16.89 13.75C16.9967 14.05 17.1442 14.3033 17.3325 14.51C17.5208 14.7167 17.7442 14.8742 18.0025 14.9825C18.2608 15.0908 18.5433 15.145 18.85 15.145Z" fill="currentColor"/>
</svg>
