<svg width="24" height="24" viewBox="0 0 24 24" fill="none" xmlns="http://www.w3.org/2000/svg">
<path d="M8.90631 14.1148C8.94631 14.1148 8.98631 14.1231 9.02631 14.1398C9.06631 14.1531 9.10464 14.1781 9.14131 14.2148L9.81131 14.9198C9.51798 15.3031 9.14964 15.5931 8.70631 15.7898C8.26631 15.9831 7.74464 16.0798 7.14131 16.0798C6.58798 16.0798 6.09131 15.9864 5.65131 15.7998C5.21464 15.6098 4.84298 15.3498 4.53631 15.0198C4.23298 14.6864 3.99964 14.2931 3.83631 13.8398C3.67298 13.3831 3.59131 12.8881 3.59131 12.3548C3.59131 11.8114 3.68464 11.3131 3.87131 10.8598C4.05798 10.4031 4.31798 10.0098 4.65131 9.67977C4.98798 9.34977 5.38964 9.0931 5.85631 8.90977C6.32298 8.72643 6.83798 8.63477 7.40131 8.63477C7.67464 8.63477 7.93131 8.65977 8.17131 8.70977C8.41464 8.75643 8.64131 8.8231 8.85131 8.90977C9.06131 8.9931 9.25464 9.09477 9.43131 9.21477C9.60798 9.33143 9.76464 9.46143 9.90131 9.60477L9.33131 10.3698C9.29464 10.4164 9.25131 10.4598 9.20131 10.4998C9.15131 10.5364 9.08131 10.5548 8.99131 10.5548C8.93131 10.5548 8.87464 10.5414 8.82131 10.5148C8.76798 10.4881 8.71131 10.4564 8.65131 10.4198C8.59131 10.3798 8.52464 10.3381 8.45131 10.2948C8.38131 10.2481 8.29631 10.2064 8.19631 10.1698C8.09964 10.1298 7.98464 10.0964 7.85131 10.0698C7.72131 10.0431 7.56798 10.0298 7.39131 10.0298C7.08464 10.0298 6.80464 10.0848 6.55131 10.1948C6.29798 10.3014 6.07964 10.4564 5.89631 10.6598C5.71631 10.8598 5.57464 11.1031 5.47131 11.3898C5.37131 11.6764 5.32131 11.9981 5.32131 12.3548C5.32131 12.7281 5.37131 13.0598 5.47131 13.3498C5.57464 13.6398 5.71298 13.8848 5.88631 14.0848C6.06298 14.2814 6.26798 14.4314 6.50131 14.5348C6.73464 14.6381 6.98464 14.6898 7.25131 14.6898C7.40464 14.6898 7.54464 14.6831 7.67131 14.6698C7.79798 14.6531 7.91464 14.6264 8.02131 14.5898C8.13131 14.5531 8.23464 14.5064 8.33131 14.4498C8.43131 14.3898 8.53131 14.3164 8.63131 14.2298C8.67131 14.1964 8.71464 14.1698 8.76131 14.1498C8.80798 14.1264 8.85631 14.1148 8.90631 14.1148Z" fill="currentColor"/>
<path d="M12.2736 14.6498H14.9736V15.9998H10.5836V8.71477H12.2736V14.6498Z" fill="currentColor"/>
<path d="M19.8291 10.1948C19.7791 10.2748 19.7258 10.3348 19.6691 10.3748C19.6158 10.4148 19.5458 10.4348 19.4591 10.4348C19.3825 10.4348 19.2991 10.4114 19.2091 10.3648C19.1225 10.3148 19.0225 10.2598 18.9091 10.1998C18.7991 10.1398 18.6725 10.0864 18.5291 10.0398C18.3858 9.98977 18.2225 9.96477 18.0391 9.96477C17.7225 9.96477 17.4858 10.0331 17.3291 10.1698C17.1758 10.3031 17.0991 10.4848 17.0991 10.7148C17.0991 10.8614 17.1458 10.9831 17.2391 11.0798C17.3325 11.1764 17.4541 11.2598 17.6041 11.3298C17.7575 11.3998 17.9308 11.4648 18.1241 11.5248C18.3208 11.5814 18.5208 11.6464 18.7241 11.7198C18.9275 11.7898 19.1258 11.8731 19.3191 11.9698C19.5158 12.0664 19.6891 12.1898 19.8391 12.3398C19.9925 12.4898 20.1158 12.6731 20.2091 12.8898C20.3025 13.1031 20.3491 13.3614 20.3491 13.6648C20.3491 14.0014 20.2908 14.3164 20.1741 14.6098C20.0575 14.9031 19.8875 15.1598 19.6641 15.3798C19.4441 15.5964 19.1708 15.7681 18.8441 15.8948C18.5208 16.0181 18.1525 16.0798 17.7391 16.0798C17.5125 16.0798 17.2808 16.0564 17.0441 16.0098C16.8108 15.9631 16.5841 15.8981 16.3641 15.8148C16.1441 15.7281 15.9375 15.6264 15.7441 15.5098C15.5508 15.3931 15.3825 15.2631 15.2391 15.1198L15.7391 14.3298C15.7758 14.2698 15.8275 14.2214 15.8941 14.1848C15.9608 14.1481 16.0325 14.1298 16.1091 14.1298C16.2091 14.1298 16.3091 14.1614 16.4091 14.2248C16.5125 14.2881 16.6275 14.3581 16.7541 14.4348C16.8841 14.5114 17.0325 14.5814 17.1991 14.6448C17.3658 14.7081 17.5625 14.7398 17.7891 14.7398C18.0958 14.7398 18.3341 14.6731 18.5041 14.5398C18.6741 14.4031 18.7591 14.1881 18.7591 13.8948C18.7591 13.7248 18.7125 13.5864 18.6191 13.4798C18.5258 13.3731 18.4025 13.2848 18.2491 13.2148C18.0991 13.1448 17.9275 13.0831 17.7341 13.0298C17.5408 12.9764 17.3425 12.9181 17.1391 12.8548C16.9358 12.7881 16.7375 12.7081 16.5441 12.6148C16.3508 12.5181 16.1775 12.3931 16.0241 12.2398C15.8741 12.0831 15.7525 11.8898 15.6591 11.6598C15.5658 11.4264 15.5191 11.1398 15.5191 10.7998C15.5191 10.5264 15.5741 10.2598 15.6841 9.99977C15.7941 9.73977 15.9558 9.5081 16.1691 9.30477C16.3825 9.10143 16.6441 8.93977 16.9541 8.81977C17.2641 8.69643 17.6191 8.63477 18.0191 8.63477C18.2425 8.63477 18.4591 8.6531 18.6691 8.68977C18.8825 8.7231 19.0841 8.77477 19.2741 8.84477C19.4641 8.91143 19.6408 8.9931 19.8041 9.08977C19.9708 9.1831 20.1191 9.28977 20.2491 9.40977L19.8291 10.1948Z" fill="currentColor"/>
</svg>
