<svg width="24" height="24" viewBox="0 0 24 24" fill="none" xmlns="http://www.w3.org/2000/svg">
<path fill-rule="evenodd" clip-rule="evenodd" d="M4.38516 12.67C4.45182 12.7967 4.51599 12.9283 4.57766 13.065C4.63932 13.2017 4.69849 13.3417 4.75516 13.485C4.81182 13.3383 4.87182 13.1958 4.93516 13.0575C4.99849 12.9192 5.06349 12.785 5.13016 12.655L7.00016 8.975C7.03349 8.91166 7.06766 8.8625 7.10266 8.8275C7.13766 8.7925 7.17682 8.76666 7.22016 8.75C7.26349 8.73333 7.31266 8.72333 7.36766 8.72C7.42266 8.71666 7.48682 8.715 7.56016 8.715H8.85016V16H7.36016V11.81C7.36016 11.6067 7.37016 11.3867 7.39016 11.15L5.46016 14.895C5.40016 15.0117 5.31932 15.1 5.21766 15.16C5.11599 15.22 5.00016 15.25 4.87016 15.25H4.64016C4.51016 15.25 4.39432 15.22 4.29266 15.16C4.19099 15.1 4.11016 15.0117 4.05016 14.895L2.11016 11.145C2.12349 11.2617 2.13349 11.3775 2.14016 11.4925C2.14682 11.6075 2.15016 11.7133 2.15016 11.81V16H0.660156V8.715H1.95016C2.02349 8.715 2.08766 8.71666 2.14266 8.72C2.19766 8.72333 2.24682 8.73333 2.29016 8.75C2.33349 8.76666 2.37266 8.7925 2.40766 8.8275C2.44266 8.8625 2.47682 8.91166 2.51016 8.975L4.38516 12.67ZM16.8302 16H15.5202C15.3735 16 15.2527 15.9658 15.1577 15.8975C15.0627 15.8292 14.9968 15.7417 14.9602 15.635L14.5302 14.365H11.7602L11.3302 15.635C11.2968 15.7283 11.2318 15.8125 11.1352 15.8875C11.0385 15.9625 10.9202 16 10.7802 16H9.46016L12.2802 8.715H14.0102L16.8302 16ZM12.1502 13.215H14.1402L13.4702 11.22C13.4268 11.0933 13.376 10.9442 13.3177 10.7725C13.2593 10.6008 13.2018 10.415 13.1452 10.215C13.0918 10.4183 13.0368 10.6067 12.9802 10.78C12.9235 10.9533 12.8702 11.1033 12.8202 11.23L12.1502 13.215ZM19.2152 12.255L16.9602 8.715H18.6502C18.7602 8.715 18.841 8.72916 18.8927 8.7575C18.9443 8.78583 18.9902 8.83333 19.0302 8.9L20.4802 11.355C20.4968 11.3117 20.516 11.27 20.5377 11.23C20.5593 11.19 20.5835 11.1483 20.6102 11.105L21.8802 8.925C21.9635 8.785 22.0768 8.715 22.2202 8.715H23.8402L21.5552 12.18L23.8902 16H22.2002C22.0902 16 22.001 15.9733 21.9327 15.92C21.8643 15.8667 21.8102 15.8033 21.7702 15.73L20.3102 13.18C20.2835 13.2533 20.2535 13.3167 20.2202 13.37L18.8602 15.73C18.8202 15.8 18.7668 15.8625 18.7002 15.9175C18.6335 15.9725 18.5502 16 18.4502 16H16.8702L19.2152 12.255Z" fill="currentColor"/>
</svg>
