<svg width="24" height="24" viewBox="0 0 24 24" fill="none" xmlns="http://www.w3.org/2000/svg">
<path fill-rule="evenodd" clip-rule="evenodd" d="M6.25039 12.67C6.31706 12.7967 6.38122 12.9283 6.44289 13.065C6.50456 13.2017 6.56372 13.3417 6.62039 13.485C6.67706 13.3383 6.73706 13.1958 6.80039 13.0575C6.86372 12.9192 6.92872 12.785 6.99539 12.655L8.86539 8.975C8.89872 8.91166 8.93289 8.8625 8.96789 8.8275C9.00289 8.7925 9.04206 8.76666 9.08539 8.75C9.12872 8.73333 9.17789 8.72333 9.23289 8.72C9.28789 8.71666 9.35206 8.715 9.42539 8.715H10.7154V16H9.22539V11.81C9.22539 11.6067 9.23539 11.3867 9.25539 11.15L7.32539 14.895C7.26539 15.0117 7.18456 15.1 7.08289 15.16C6.98122 15.22 6.86539 15.25 6.73539 15.25H6.50539C6.37539 15.25 6.25956 15.22 6.15789 15.16C6.05622 15.1 5.97539 15.0117 5.91539 14.895L3.97539 11.145C3.98872 11.2617 3.99872 11.3775 4.00539 11.4925C4.01206 11.6075 4.01539 11.7133 4.01539 11.81V16H2.52539V8.715H3.81539C3.88872 8.715 3.95289 8.71666 4.00789 8.72C4.06289 8.72333 4.11206 8.73333 4.15539 8.75C4.19872 8.76666 4.23789 8.7925 4.27289 8.8275C4.30789 8.8625 4.34206 8.91166 4.37539 8.975L6.25039 12.67ZM13.7654 16H12.0654V8.715H13.7654V16ZM16.0054 8.715C16.0787 8.715 16.1404 8.71833 16.1904 8.725C16.2404 8.73166 16.2854 8.74416 16.3254 8.7625C16.3654 8.78083 16.4037 8.80666 16.4404 8.84C16.4771 8.87333 16.5187 8.91833 16.5654 8.975L20.0254 13.35C20.0121 13.21 20.0021 13.0742 19.9954 12.9425C19.9887 12.8108 19.9854 12.6867 19.9854 12.57V8.715H21.4754V16H20.5954C20.4654 16 20.3554 15.98 20.2654 15.94C20.1754 15.9 20.0887 15.8267 20.0054 15.72L16.5704 11.38C16.5804 11.5067 16.5887 11.6308 16.5954 11.7525C16.6021 11.8742 16.6054 11.9883 16.6054 12.095V16H15.1154V8.715H16.0054Z" fill="currentColor"/>
</svg>
