<svg width="24" height="24" viewBox="0 0 24 24" fill="none" xmlns="http://www.w3.org/2000/svg">
<path fill-rule="evenodd" clip-rule="evenodd" d="M16.9497 16.9498C16.5592 17.3403 15.9261 17.3403 15.5355 16.9498L12 13.4142L8.46447 16.9498C8.07394 17.3403 7.44078 17.3403 7.05025 16.9498C6.65973 16.5592 6.65973 15.9261 7.05025 15.5355L10.5858 12L7.05025 8.46447C6.65973 8.07395 6.65973 7.44078 7.05025 7.05026C7.44078 6.65973 8.07394 6.65973 8.46447 7.05026L12 10.5858L15.5355 7.05026C15.9261 6.65973 16.5592 6.65973 16.9497 7.05026C17.3403 7.44078 17.3403 8.07395 16.9497 8.46447L13.4142 12L16.9497 15.5355C17.3403 15.9261 17.3403 16.5592 16.9497 16.9498Z" fill="currentColor"/>
</svg>
