<svg width="24" height="24" viewBox="0 0 24 24" fill="none" xmlns="http://www.w3.org/2000/svg">
<path fill-rule="evenodd" clip-rule="evenodd" d="M8 2C7.44772 2 7 2.44772 7 3V4H4C2.89543 4 2 4.89543 2 6V19C2 20.1046 2.89543 21 4 21H20C21.1046 21 22 20.1046 22 19V6C22 4.89543 21.1046 4 20 4H17V3C17 2.44772 16.5523 2 16 2C15.4477 2 15 2.44772 15 3V4H9V3C9 2.44772 8.55228 2 8 2ZM7 6V7C7 7.55228 7.44772 8 8 8C8.55228 8 9 7.55228 9 7V6H15V7C15 7.55228 15.4477 8 16 8C16.5523 8 17 7.55228 17 7V6H20V19H4V6H7ZM9 17C8.44772 17 8 16.5523 8 16V10C8 9.44772 8.44772 9 9 9H12C14.2091 9 16 10.7909 16 13C16 15.2091 14.2091 17 12 17H9ZM12 15C13.1046 15 14 14.1046 14 13C14 11.8954 13.1046 11 12 11H10V15H12Z" fill="currentColor"/>
</svg>
