<svg width="24" height="24" viewBox="0 0 24 24" fill="none" xmlns="http://www.w3.org/2000/svg">
<path fill-rule="evenodd" clip-rule="evenodd" d="M7.5 2C7.22386 2 7 2.22386 7 2.5V4H4C2.89543 4 2 4.89543 2 6V19C2 20.1046 2.89543 21 4 21H20C21.1046 21 22 20.1046 22 19V6C22 4.89543 21.1046 4 20 4H17V2.5C17 2.22386 16.7761 2 16.5 2C16.2239 2 16 2.22386 16 2.5V4H8V2.5C8 2.22386 7.77614 2 7.5 2ZM4 5H7V6.5C7 6.77614 7.22386 7 7.5 7C7.77614 7 8 6.77614 8 6.5V5H16V6.5C16 6.77614 16.2239 7 16.5 7C16.7761 7 17 6.77614 17 6.5V5H20C20.5523 5 21 5.44772 21 6V19C21 19.5523 20.5523 20 20 20H4C3.44772 20 3 19.5523 3 19V6C3 5.44772 3.44772 5 4 5ZM11.6237 13.8293L9 10.8307V16.5C9 16.7761 8.77614 17 8.5 17C8.22386 17 8 16.7761 8 16.5V9.5C8 9.03832 8.57227 8.8233 8.87629 9.17075L12 12.7407L15.1237 9.17075C15.4277 8.8233 16 9.03832 16 9.5V16.5C16 16.7761 15.7761 17 15.5 17C15.2239 17 15 16.7761 15 16.5V10.8307L12.3763 13.8293C12.1771 14.0569 11.8229 14.0569 11.6237 13.8293Z" fill="currentColor"/>
</svg>
