<svg width="24" height="24" viewBox="0 0 24 24" fill="none" xmlns="http://www.w3.org/2000/svg">
<path fill-rule="evenodd" clip-rule="evenodd" d="M8 2C7.44772 2 7 2.44772 7 3V4H4C2.89543 4 2 4.89543 2 6V19C2 20.1046 2.89543 21 4 21H20C21.1046 21 22 20.1046 22 19V6C22 4.89543 21.1046 4 20 4H17V3C17 2.44772 16.5523 2 16 2C15.4477 2 15 2.44772 15 3V4H9V3C9 2.44772 8.55228 2 8 2ZM4 6H7V7C7 7.55228 7.44772 8 8 8C8.55228 8 9 7.55228 9 7V6H15V7C15 7.55228 15.4477 8 16 8C16.5523 8 17 7.55228 17 7V6H20V19H4V6ZM11.2176 14.392L10 12.8622V16C10 16.5523 9.55228 17 9 17C8.44772 17 8 16.5523 8 16V10C8 9.05348 9.19298 8.63667 9.78242 9.37726L12 12.1634L14.2176 9.37726C14.807 8.63667 16 9.05348 16 10V16C16 16.5523 15.5523 17 15 17C14.4477 17 14 16.5523 14 16V12.8622L12.7824 14.392C12.3821 14.895 11.6179 14.895 11.2176 14.392Z" fill="currentColor"/>
</svg>
