<svg width="24" height="24" viewBox="0 0 24 24" fill="none" xmlns="http://www.w3.org/2000/svg">
<path fill-rule="evenodd" clip-rule="evenodd" d="M7 3C7 2.44772 7.44772 2 8 2C8.55228 2 9 2.44772 9 3V4H15V3C15 2.44772 15.4477 2 16 2C16.5523 2 17 2.44772 17 3V4H20C21.1046 4 22 4.89543 22 6V19C22 20.1046 21.1046 21 20 21H4C2.89543 21 2 20.1046 2 19V6C2 4.89543 2.89543 4 4 4H7V3ZM7 6H4V19H20V6H17V7C17 7.55228 16.5523 8 16 8C15.4477 8 15 7.55228 15 7V6H9V7C9 7.55228 8.55228 8 8 8C7.44772 8 7 7.55228 7 7V6ZM10.2071 9.79289C9.81658 9.40237 9.18342 9.40237 8.79289 9.79289C8.40237 10.1834 8.40237 10.8166 8.79289 11.2071L11 13.4142V16C11 16.5523 11.4477 17 12 17C12.5523 17 13 16.5523 13 16V13.4142L15.2071 11.2071C15.5976 10.8166 15.5976 10.1834 15.2071 9.79289C14.8166 9.40237 14.1834 9.40237 13.7929 9.79289L12 11.5858L10.2071 9.79289Z" fill="currentColor"/>
</svg>
