<svg width="24" height="24" viewBox="0 0 24 24" fill="none" xmlns="http://www.w3.org/2000/svg">
<path fill-rule="evenodd" clip-rule="evenodd" d="M7 2.5C7 2.22386 7.22386 2 7.5 2C7.77614 2 8 2.22386 8 2.5V4H16V2.5C16 2.22386 16.2239 2 16.5 2C16.7761 2 17 2.22386 17 2.5V4H20C21.1046 4 22 4.89543 22 6V19C22 20.1046 21.1046 21 20 21H4C2.89543 21 2 20.1046 2 19V6C2 4.89543 2.89543 4 4 4H7V2.5ZM7 6.5V5H4C3.44772 5 3 5.44772 3 6V19C3 19.5523 3.44772 20 4 20H20C20.5523 20 21 19.5523 21 19V6C21 5.44772 20.5523 5 20 5H17V6.5C17 6.77614 16.7761 7 16.5 7C16.2239 7 16 6.77614 16 6.5V5H8V6.5C8 6.77614 7.77614 7 7.5 7C7.22386 7 7 6.77614 7 6.5ZM9.35355 9.64645C9.15829 9.45118 8.84171 9.45118 8.64645 9.64645C8.45118 9.84171 8.45118 10.1583 8.64645 10.3536L11.5 13.2071V16.5C11.5 16.7761 11.7239 17 12 17C12.2761 17 12.5 16.7761 12.5 16.5V13.2071L15.3536 10.3536C15.5488 10.1583 15.5488 9.84171 15.3536 9.64645C15.1583 9.45118 14.8417 9.45118 14.6464 9.64645L12 12.2929L9.35355 9.64645Z" fill="currentColor"/>
</svg>
